<?xml version="1.0" encoding="utf-8"?>
<!-- Generator: Adobe Illustrator 15.0.0, SVG Export Plug-In  -->
<!DOCTYPE svg PUBLIC "-//W3C//DTD SVG 1.1//EN" "http://www.w3.org/Graphics/SVG/1.1/DTD/svg11.dtd" [
	<!ENTITY ns_flows "http://ns.adobe.com/Flows/1.0/">
]>
<svg version="1.1"
	 xmlns="http://www.w3.org/2000/svg" xmlns:xlink="http://www.w3.org/1999/xlink" xmlns:a="http://ns.adobe.com/AdobeSVGViewerExtensions/3.0/"
	 x="0px" y="0px" width="144px" height="144px" viewBox="74 74 144 144"
	 style="overflow:visible;enable-background:new 74 74 144 144;" xml:space="preserve">
<style type="text/css">
<![CDATA[
	.st0{fill:#fff;stroke:#eee;stroke-width:4;stroke-miterlimit:10;}
]]>
</style>
<defs>
</defs>
<g>
	<circle class="st0" cx="74" cy="74" r="72"/>
	<path class="st0" d="M140,74c0,36.451-29.549,72-66,72C37.549,146,8,110.452,8,74S37.549,8,74,8C110.451,8,140,37.549,140,74z"/>
	<path class="st0" d="M134,74c0,33.137-26.863,72-60,72c-33.138,0-60-38.863-60-72c0-33.138,26.863-60,60-60
		C107.137,14,134,40.863,134,74z"/>
	<path class="st0" d="M128,74c0,29.823-24.177,72-54,72c-29.824,0-54-42.177-54-72c0-29.824,24.177-54,54-54
		C103.824,20,128,44.176,128,74z"/>
</g>
<g>
	<circle class="st0" cx="218" cy="74" r="72"/>
	<path class="st0" d="M284,74c0,36.451-29.549,72-66,72s-66-35.549-66-72s29.549-66,66-66S284,37.549,284,74z"/>
	<path class="st0" d="M278,74c0,33.137-26.863,72-60,72c-33.138,0-60-38.863-60-72c0-33.138,26.862-60,60-60
		C251.137,14,278,40.863,278,74z"/>
	<path class="st0" d="M272,74c0,29.823-24.177,72-54,72c-29.824,0-54-42.177-54-72c0-29.824,24.176-54,54-54
		C247.824,20,272,44.176,272,74z"/>
</g>
<g>
	<circle class="st0" cx="146" cy="146" r="72"/>
	<path class="st0" d="M212,146c0,36.451-29.549,72-66,72S80,182.452,80,146S109.549,80,146,80S212,109.549,212,146z"/>
	<path class="st0" d="M206,146c0,33.137-26.863,72-60,72c-33.138,0-60-38.863-60-72c0-33.138,26.863-60,60-60
		C179.137,86,206,112.863,206,146z"/>
	<path class="st0" d="M200,146c0,29.823-24.177,72-54,72c-29.824,0-54-42.177-54-72c0-29.824,24.177-54,54-54
		C175.824,92,200,116.177,200,146z"/>
</g>
<g>
	<circle class="st0" cx="74" cy="218" r="72"/>
	<path class="st0" d="M140,218c0,36.451-29.549,72-66,72C37.549,290,8,254.452,8,218S37.549,152,74,152
		C110.451,152,140,181.549,140,218z"/>
	<path class="st0" d="M134,218c0,33.137-26.863,72-60,72c-33.138,0-60-38.863-60-72c0-33.138,26.863-60,60-60
		C107.137,158,134,184.863,134,218z"/>
	<path class="st0" d="M128,218c0,29.823-24.177,72-54,72c-29.824,0-54-42.177-54-72c0-29.824,24.177-54,54-54
		C103.824,164,128,188.176,128,218z"/>
</g>
<g>
	<circle class="st0" cx="218" cy="218" r="72"/>
	<path class="st0" d="M284,218c0,36.451-29.549,72-66,72s-66-35.549-66-72s29.549-66,66-66S284,181.549,284,218z"/>
	<path class="st0" d="M278,218c0,33.137-26.863,72-60,72c-33.138,0-60-38.863-60-72c0-33.138,26.862-60,60-60
		C251.137,158,278,184.863,278,218z"/>
	<path class="st0" d="M272,218c0,29.823-24.177,72-54,72c-29.824,0-54-42.177-54-72c0-29.824,24.176-54,54-54
		C247.824,164,272,188.176,272,218z"/>
</g>
</svg>
