<?xml version="1.0" encoding="utf-8"?>
<!-- Generator: Adobe Illustrator 15.0.0, SVG Export Plug-In  -->
<!DOCTYPE svg PUBLIC "-//W3C//DTD SVG 1.1//EN" "http://www.w3.org/Graphics/SVG/1.1/DTD/svg11.dtd" [
	<!ENTITY ns_flows "http://ns.adobe.com/Flows/1.0/">
]>
<svg version="1.1"
	 xmlns="http://www.w3.org/2000/svg" xmlns:xlink="http://www.w3.org/1999/xlink" xmlns:a="http://ns.adobe.com/AdobeSVGViewerExtensions/3.0/"
	 x="0px" y="0px" width="72px" height="72px" viewBox="37 37 72 72" style="overflow:visible;enable-background:new 37 37 72 72;"
	 xml:space="preserve">
<style type="text/css">
<![CDATA[
	.st0{fill:#002b36;stroke:#073642;stroke-width:2;stroke-miterlimit:10;}
]]>
</style>
<defs>
</defs>
<g id="disc_9_">
	<circle class="st0" cx="109" cy="37" r="36"/>
	<circle class="st0" cx="109" cy="37" r="30.015"/>
	<circle class="st0" cx="109" cy="37" r="24.03"/>
	<circle class="st0" cx="109" cy="37" r="18.045"/>
	<circle class="st0" cx="109" cy="37" r="12.06"/>
	<circle class="st0" cx="109" cy="37" r="6.075"/>
	<circle class="st0" cx="109" cy="37" r="0.09"/>
</g>
<g id="disc_8_">
	<circle class="st0" cx="37" cy="37" r="36"/>
	<circle class="st0" cx="37" cy="37" r="30.015"/>
	<circle class="st0" cx="37" cy="37" r="24.03"/>
	<circle class="st0" cx="37" cy="37" r="18.045"/>
	<circle class="st0" cx="37" cy="37" r="12.06"/>
	<circle class="st0" cx="37" cy="37" r="6.075"/>
	<circle class="st0" cx="37" cy="37" r="0.09"/>
</g>
<g id="disc_7_">
	<circle class="st0" cx="73" cy="73" r="36"/>
	<circle class="st0" cx="73" cy="73" r="30.015"/>
	<circle class="st0" cx="73" cy="73" r="24.03"/>
	<circle class="st0" cx="73" cy="73" r="18.045"/>
	<circle class="st0" cx="73" cy="73" r="12.06"/>
	<circle class="st0" cx="73" cy="73" r="6.075"/>
	<circle class="st0" cx="73" cy="73" r="0.09"/>
</g>
<g id="disc_6_">
	<circle class="st0" cx="109" cy="109" r="36"/>
	<circle class="st0" cx="109" cy="109" r="30.015"/>
	<circle class="st0" cx="109" cy="109" r="24.03"/>
	<circle class="st0" cx="109" cy="109" r="18.045"/>
	<circle class="st0" cx="109" cy="109" r="12.06"/>
	<circle class="st0" cx="109" cy="109" r="6.075"/>
	<circle class="st0" cx="109" cy="109" r="0.09"/>
</g>
<g id="disc_5_">
	<circle class="st0" cx="37" cy="109" r="36"/>
	<circle class="st0" cx="37" cy="109" r="30.015"/>
	<circle class="st0" cx="37" cy="109" r="24.03"/>
	<circle class="st0" cx="37" cy="109" r="18.045"/>
	<circle class="st0" cx="37" cy="109" r="12.06"/>
	<circle class="st0" cx="37" cy="109" r="6.075"/>
	<circle class="st0" cx="37" cy="109" r="0.09"/>
</g>
</svg>
