<?xml version="1.0" encoding="utf-8"?>
<!-- Generator: Adobe Illustrator 15.0.0, SVG Export Plug-In  -->
<!DOCTYPE svg PUBLIC "-//W3C//DTD SVG 1.1//EN" "http://www.w3.org/Graphics/SVG/1.1/DTD/svg11.dtd" [
	<!ENTITY ns_flows "http://ns.adobe.com/Flows/1.0/">
	<!ENTITY st0 "fill:none;stroke:#50302C;stroke-width:2;stroke-miterlimit:10;">
	<!ENTITY st1 "fill:none;stroke:#B58079;stroke-width:2;stroke-linecap:round;stroke-miterlimit:10;">
	<!ENTITY st2 "fill:none;stroke:#50302C;stroke-width:2;stroke-linecap:round;stroke-miterlimit:10;">
	<!ENTITY st3 "fill:none;stroke:#B58079;stroke-width:2;stroke-miterlimit:10;">
	<!ENTITY st4 "fill:none;stroke:#FF77BB;stroke-width:2;stroke-miterlimit:10;">
	<!ENTITY st5 "fill:#FF77BB;">
	<!ENTITY st6 "fill:#FFFFFF;">
]>
<svg version="1.1"
	 xmlns="http://www.w3.org/2000/svg" xmlns:xlink="http://www.w3.org/1999/xlink" xmlns:a="http://ns.adobe.com/AdobeSVGViewerExtensions/3.0/"
	 x="0px" y="0px" width="108px" height="108px" viewBox="0 0 108 108" style="overflow:visible;enable-background:new 0 0 108 108;"
	 xml:space="preserve">
<defs>
</defs>
<path style="&st6;" d="M102,0H6C2.7,0,0,2.7,0,6v96c0,3.3,2.7,6,6,6h96c3.3,0,6-2.7,6-6V6C108,2.7,105.3,0,102,0z M12,18
	c-3.3,0-6-2.7-6-6s2.7-6,6-6s6,2.7,6,6S15.3,18,12,18z"/>
<polyline style="&st0;" points="69,32 69,69 32,69 "/>
<line style="&st0;" x1="86" y1="49" x2="69" y2="49"/>
<circle style="&st3;" cx="89" cy="49" r="3"/>
<circle style="&st0;" cx="69" cy="29" r="3"/>
<circle style="&st0;" cx="49" cy="49" r="3"/>
<path style="&st1;" d="M92,82.7c2.4,1.1,4,3.5,4,6.3c0,3.9-3.1,7-7,7c-2.8,0-5.2-1.6-6.3-4"/>
<path style="&st1;" d="M82.7,86c0.7-1.5,1.9-2.6,3.3-3.3"/>
<circle style="&st0;" cx="89" cy="89" r="3"/>
<circle style="&st0;" cx="49" cy="89" r="3"/>
<circle style="&st0;" cx="29" cy="69" r="3"/>
<line style="&st0;" x1="38" y1="38" x2="47" y2="47"/>
<line style="&st0;" x1="58" y1="18" x2="67" y2="27"/>
<line style="&st0;" x1="18" y1="58" x2="27" y2="67"/>
<circle style="&st5;" cx="79" cy="19" r="4"/>
<circle style="&st5;" cx="79" cy="39" r="4"/>
<circle style="&st5;" cx="59" cy="59" r="4"/>
<circle style="&st5;" cx="59" cy="39" r="4"/>
<circle style="&st5;" cx="39" cy="59" r="4"/>
<circle style="&st5;" cx="19" cy="79" r="4"/>
<circle style="&st5;" cx="39" cy="79" r="4"/>
<circle style="&st5;" cx="59" cy="79" r="4"/>
<circle style="&st5;" cx="79" cy="59" r="4"/>
<circle style="&st5;" cx="79" cy="79" r="4"/>
<circle style="&st5;" cx="99" cy="79" r="4"/>
<circle style="&st5;" cx="79" cy="99" r="4"/>
<line style="&st4;" x1="79" y1="19" x2="79" y2="39"/>
<polyline style="&st4;" points="99,79.4 79,59 79,79 59,79 79,99 "/>
<line style="&st4;" x1="19" y1="79" x2="39" y2="79"/>
<polyline style="&st4;" points="39,59 59,59 59,39 "/>
<line style="&st0;" x1="89" y1="78" x2="89" y2="86"/>
<line style="&st0;" x1="78" y1="89" x2="86" y2="89"/>
<path style="&st1;" d="M82.7,46c1.1-2.4,3.5-4,6.3-4c3.9,0,7,3.1,7,7c0,3.9-3.1,7-7,7c-2.8,0-5.2-1.6-6.3-4"/>
<circle style="&st0;" cx="89" cy="49" r="3"/>
<path style="&st1;" d="M52,82.7c2.4,1.1,4,3.5,4,6.3c0,3.9-3.1,7-7,7s-7-3.1-7-7c0-2.8,1.6-5.2,4-6.3"/>
<path style="&st1;" d="M46.7,42.4c2.5-0.9,5.3-0.3,7.3,1.6c2.7,2.7,2.7,7.2,0,9.9c-2.7,2.7-7.2,2.7-9.9,0c-2-2-2.5-4.8-1.6-7.3"/>
<line style="&st0;" x1="49" y1="69" x2="49" y2="86"/>
<path style="&st1;" d="M66,35.3c-0.7-0.3-1.4-0.8-1.9-1.4c-2-2-2.5-4.8-1.6-7.3"/>
<path style="&st1;" d="M66.7,22.4c2.5-0.9,5.3-0.3,7.3,1.6c2.7,2.7,2.7,7.2,0,9.9c-0.6,0.6-1.2,1-2,1.4"/>
<path style="&st1;" d="M35.3,72c-0.3,0.7-0.8,1.4-1.4,2c-2.7,2.7-7.2,2.7-9.9,0c-2-2-2.5-4.8-1.6-7.3"/>
<path style="&st1;" d="M26.7,62.4c2.5-0.9,5.3-0.3,7.3,1.6c0.5,0.5,1,1.1,1.3,1.8"/>
<polyline style="&st3;" points="10,51 27,51 27,35 32,35 "/>
<polyline style="&st4;" points="30,43 35,43 35,27 40,27 "/>
<polyline style="&st3;" points="38,35 43,35 43,18 "/>
<polyline style="&st3;" points="5,46 5,29 21,29 21,24 "/>
<polyline style="&st4;" points="13,26 13,21 29,21 29,16 "/>
<polyline style="&st4;" points="13,32 13,43 24,43 "/>
<polyline style="&st3;" points="21,18 21,13 38,13 "/>
<polyline style="&st4;" points="29,10 29,5 51,5 51,27 46,27 "/>
<line style="&st2;" x1="17" y1="39" x2="47" y2="9"/>
<path style="&st0;" d="M10.5,45.5l-2,2C6.4,49.6,5,52.6,5,56l0,0v35c0,6.6,5.4,12,12,12h74c6.6,0,12-5.4,12-12V17
	c0-6.6-5.4-12-12-12H54"/>
</svg>
