<?xml version="1.0" encoding="utf-8"?>
<!-- Generator: Adobe Illustrator 15.0.0, SVG Export Plug-In  -->
<!DOCTYPE svg PUBLIC "-//W3C//DTD SVG 1.1//EN" "http://www.w3.org/Graphics/SVG/1.1/DTD/svg11.dtd" [
	<!ENTITY ns_flows "http://ns.adobe.com/Flows/1.0/">
]>
<svg version="1.1"
	 xmlns="http://www.w3.org/2000/svg" xmlns:xlink="http://www.w3.org/1999/xlink" xmlns:a="http://ns.adobe.com/AdobeSVGViewerExtensions/3.0/"
	 x="0px" y="0px" width="72px" height="72px" viewBox="37 37.414 72 72"
	 style="overflow:visible;enable-background:new 37 37.414 72 72;" xml:space="preserve">
<style type="text/css">
<![CDATA[
	.outline{stroke:#eee8d5;stroke-width:2;stroke-miterlimit:10;}
	.st0{clip-path:url(#SVGID_18_);fill:none;}
	.st1{fill:#FFFFFF;}
	.st2{clip-path:url(#SVGID_16_);fill:none;}
	.st3{clip-path:url(#SVGID_14_);fill:none;}
	.st4{clip-path:url(#SVGID_12_);fill:none;}
	.st5{clip-path:url(#SVGID_9_);fill:none;}
	.st6{clip-path:url(#SVGID_8_);fill:none;}
	.st7{clip-path:url(#SVGID_10_);fill:none;}
	.st8{clip-path:url(#SVGID_20_);fill:none;}
	.st9{clip-path:url(#SVGID_7_);fill:none;}
	.st10{clip-path:url(#SVGID_6_);fill:none;}
]]>
</style>
<defs>
</defs>
<path class="outline st1" d="M73,37.414c0,19.882-16.118,36-36,36c-19.883,0-36-16.118-36-36c0-27,27-27,36-36
	C46,10.414,73,10.414,73,37.414z"/>
<g>
	<defs>
		<path id="SVGID_5_" d="M73,37.414c0,19.882-16.118,36-36,36c-19.883,0-36-16.118-36-36c0-27,27-27,36-36
			C46,10.414,73,10.414,73,37.414z"/>
	</defs>
	<clipPath id="SVGID_6_">
		<use xlink:href="#SVGID_5_"  style="overflow:visible;"/>
	</clipPath>
	<path class="outline st10" d="M1,46.414c0-27,27-27,36-36c9,9,36,9,36,36"/>
	<path class="outline st10" d="M1,55.414c0-27,27-27,36-36c9,9,36,9,36,36"/>
	<path class="outline st10" d="M1,82.414c0-27,27-27,36-36c9,9,36,9,36,36"/>
	<path class="outline st10" d="M1,91.414c0-27,27-27,36-36c9,9,36,9,36,36"/>
	<path class="outline st10" d="M1,100.414c0-27,27-27,36-36c9,9,36,9,36,36"/>
	<path class="outline st10" d="M1,64.414c0-27,27-27,36-36c9,9,36,9,36,36"/>
	<path class="outline st10" d="M1,73.414c0-27,27-27,36-36c9,9,36,9,36,36"/>
</g>
<path class="outline st1" d="M145,37.414c0,19.882-16.118,36-36,36c-19.883,0-36-16.118-36-36c0-27,27-27,36-36
	C118,10.414,145,10.414,145,37.414z"/>
<g>
	<defs>
		<path id="SVGID_4_" d="M145,37.414c0,19.882-16.118,36-36,36c-19.883,0-36-16.118-36-36c0-27,27-27,36-36
			C118,10.414,145,10.414,145,37.414z"/>
	</defs>
	<clipPath id="SVGID_7_">
		<use xlink:href="#SVGID_4_"  style="overflow:visible;"/>
	</clipPath>
	<path class="outline st9" d="M73,46.414c0-27,27-27,36-36c9,9,36,9,36,36"/>
	<path class="outline st9" d="M73,55.414c0-27,27-27,36-36c9,9,36,9,36,36"/>
	<path class="outline st9" d="M73,82.414c0-27,27-27,36-36c9,9,36,9,36,36"/>
	<path class="outline st9" d="M73,91.414c0-27,27-27,36-36c9,9,36,9,36,36"/>
	<path class="outline st9" d="M73,100.414c0-27,27-27,36-36c9,9,36,9,36,36"/>
	<path class="outline st9" d="M73,64.414c0-27,27-27,36-36c9,9,36,9,36,36"/>
	<path class="outline st9" d="M73,73.414c0-27,27-27,36-36c9,9,36,9,36,36"/>
</g>
<path class="outline st1" d="M109,73.414c0,19.882-16.118,36-36,36c-19.883,0-36-16.118-36-36c0-27,27-27,36-36
	C82,46.414,109,46.414,109,73.414z"/>
<g>
	<defs>
		<path id="SVGID_3_" d="M109,73.414c0,19.882-16.118,36-36,36c-19.883,0-36-16.118-36-36c0-27,27-27,36-36
			C82,46.414,109,46.414,109,73.414z"/>
	</defs>
	<clipPath id="SVGID_8_">
		<use xlink:href="#SVGID_3_"  style="overflow:visible;"/>
	</clipPath>
	<path class="outline st6" d="M37,82.414c0-27,27-27,36-36c9,9,36,9,36,36"/>
	<path class="outline st6" d="M37,91.414c0-27,27-27,36-36c9,9,36,9,36,36"/>
	<path class="outline st6" d="M37,118.414c0-27,27-27,36-36c9,9,36,9,36,36"/>
	<path class="outline st6" d="M37,127.414c0-27,27-27,36-36c9,9,36,9,36,36"/>
	<path class="outline st6" d="M37,136.414c0-27,27-27,36-36c9,9,36,9,36,36"/>
	<path class="outline st6" d="M37,100.414c0-27,27-27,36-36c9,9,36,9,36,36"/>
	<path class="outline st6" d="M37,109.414c0-27,27-27,36-36c9,9,36,9,36,36"/>
</g>
<path class="outline st1" d="M73,109.414c0,19.882-16.118,36-36,36c-19.883,0-36-16.118-36-36c0-27,27-27,36-36
	C46,82.414,73,82.414,73,109.414z"/>
<g>
	<defs>
		<path id="SVGID_2_" d="M73,109.414c0,19.882-16.118,36-36,36c-19.883,0-36-16.118-36-36c0-27,27-27,36-36
			C46,82.414,73,82.414,73,109.414z"/>
	</defs>
	<clipPath id="SVGID_9_">
		<use xlink:href="#SVGID_2_"  style="overflow:visible;"/>
	</clipPath>
	<path class="outline st5" d="M1,118.414c0-27,27-27,36-36c9,9,36,9,36,36"/>
	<path class="outline st5" d="M1,127.414c0-27,27-27,36-36c9,9,36,9,36,36"/>
	<path class="outline st5" d="M1,154.414c0-27,27-27,36-36c9,9,36,9,36,36"/>
	<path class="outline st5" d="M1,163.414c0-27,27-27,36-36c9,9,36,9,36,36"/>
	<path class="outline st5" d="M1,172.414c0-27,27-27,36-36c9,9,36,9,36,36"/>
	<path class="outline st5" d="M1,136.414c0-27,27-27,36-36c9,9,36,9,36,36"/>
	<path class="outline st5" d="M1,145.414c0-27,27-27,36-36c9,9,36,9,36,36"/>
</g>
<path class="outline st1" d="M145,109.414c0,19.882-16.118,36-36,36c-19.883,0-36-16.118-36-36c0-27,27-27,36-36
	C118,82.414,145,82.414,145,109.414z"/>
<g>
	<defs>
		<path id="SVGID_1_" d="M145,109.414c0,19.882-16.118,36-36,36c-19.883,0-36-16.118-36-36c0-27,27-27,36-36
			C118,82.414,145,82.414,145,109.414z"/>
	</defs>
	<clipPath id="SVGID_10_">
		<use xlink:href="#SVGID_1_"  style="overflow:visible;"/>
	</clipPath>
	<path class="outline st7" d="M73,118.414c0-27,27-27,36-36c9,9,36,9,36,36"/>
	<path class="outline st7" d="M73,127.414c0-27,27-27,36-36c9,9,36,9,36,36"/>
	<path class="outline st7" d="M73,154.414c0-27,27-27,36-36c9,9,36,9,36,36"/>
	<path class="outline st7" d="M73,163.414c0-27,27-27,36-36c9,9,36,9,36,36"/>
	<path class="outline st7" d="M73,172.414c0-27,27-27,36-36c9,9,36,9,36,36"/>
	<path class="outline st7" d="M73,136.414c0-27,27-27,36-36c9,9,36,9,36,36"/>
	<path class="outline st7" d="M73,145.414c0-27,27-27,36-36c9,9,36,9,36,36"/>
</g>
</svg>
