<?xml version="1.0" encoding="utf-8"?>
<!-- Generator: Adobe Illustrator 15.0.0, SVG Export Plug-In  -->
<!DOCTYPE svg PUBLIC "-//W3C//DTD SVG 1.1//EN" "http://www.w3.org/Graphics/SVG/1.1/DTD/svg11.dtd" [
	<!ENTITY ns_flows "http://ns.adobe.com/Flows/1.0/">
]>
<svg version="1.1"
	 xmlns="http://www.w3.org/2000/svg" xmlns:xlink="http://www.w3.org/1999/xlink" xmlns:a="http://ns.adobe.com/AdobeSVGViewerExtensions/3.0/"
	 x="0px" y="0px" width="252px" height="126px" viewBox="6 60 252 126"
	 style="overflow:visible;enable-background:new 6 60 252 126;" xml:space="preserve">
<style type="text/css">
<![CDATA[
	.st0{fill: #fff;}
	.st1{fill: #fce;}
	.st4{fill: #ddf;}
	.st2{fill: #fec;}
	.st3{fill: #afe;}
]]>
</style>
<defs>
</defs>
<rect x="6" y="60" class="st0" width="252" height="126"/>
<g id="left_6_">
	<g>
		<g>
			<polygon class="st2" points="115,23.382 115,7.618 131,15.618 131,31.382 			"/>
			<polygon class="st2" points="115,23.382 115,7.618 131,15.618 131,31.382 			"/>
		</g>
		<g>
			<polygon class="st2" points="97,32.382 97,16.618 131,33.618 131,49.382 			"/>
			<polygon class="st2" points="97,32.382 97,16.618 131,33.618 131,49.382 			"/>
		</g>
		<g>
			<polygon class="st2" points="79,41.382 79,25.618 131,51.618 131,67.382 			"/>
			<polygon class="st2" points="79,41.382 79,25.618 131,51.618 131,67.382 			"/>
		</g>
		<g>
			<polygon class="st2" points="61,50.382 61,34.618 131,69.618 131,85.382 			"/>
			<polygon class="st2" points="61,50.382 61,34.618 131,69.618 131,85.382 			"/>
		</g>
		<g>
			<polygon class="st2" points="43,59.382 43,43.618 131,87.618 131,103.382 			"/>
			<polygon class="st2" points="43,59.382 43,43.618 131,87.618 131,103.382 			"/>
		</g>
		<g>
			<polygon class="st2" points="25,68.382 25,52.618 131,105.618 131,121.382 			"/>
			<polygon class="st2" points="25,68.382 25,52.618 131,105.618 131,121.382 			"/>
		</g>
	</g>
</g>
<g id="right_7_">
	<g>
		<g>
			<polygon class="st3" points="133,15.618 149,7.618 149,23.382 133,31.382 			"/>
			<polygon class="st3" points="133,15.618 149,7.618 149,23.382 133,31.382 			"/>
		</g>
		<g>
			<polygon class="st3" points="133,33.618 167,16.618 167,32.382 133,49.382 			"/>
			<polygon class="st3" points="133,33.618 167,16.618 167,32.382 133,49.382 			"/>
		</g>
		<g>
			<polygon class="st3" points="133,51.618 185,25.618 185,41.382 133,67.382 			"/>
			<polygon class="st3" points="133,51.618 185,25.618 185,41.382 133,67.382 			"/>
		</g>
		<g>
			<polygon class="st3" points="133,69.618 203,34.618 203,50.382 133,85.382 			"/>
			<polygon class="st3" points="133,69.618 203,34.618 203,50.382 133,85.382 			"/>
		</g>
		<g>
			<polygon class="st3" points="133,87.618 221,43.618 221,59.382 133,103.382 			"/>
			<polygon class="st3" points="133,87.618 221,43.618 221,59.382 133,103.382 			"/>
		</g>
		<g>
			<polygon class="st3" points="133,105.618 239,52.618 239,68.382 133,121.382 			"/>
			<polygon class="st3" points="133,105.618 239,52.618 239,68.382 133,121.382 			"/>
		</g>
		<g>
			<path class="st3" d="M132,12c-3.309,0-6-2.691-6-6s2.691-6,6-6s6,2.691,6,6S135.309,12,132,12z"/>
			<path class="st3" d="M132,12c-3.309,0-6-2.691-6-6s2.691-6,6-6s6,2.691,6,6S135.309,12,132,12z"/>
		</g>
	</g>
</g>
<g id="left_5_">
	<g>
		<g>
			<polygon class="st2" points="115,149.382 115,133.618 131,141.618 131,157.382 			"/>
			<polygon class="st2" points="115,149.382 115,133.618 131,141.618 131,157.382 			"/>
		</g>
		<g>
			<polygon class="st2" points="97,158.382 97,142.618 131,159.618 131,175.382 			"/>
			<polygon class="st2" points="97,158.382 97,142.618 131,159.618 131,175.382 			"/>
		</g>
		<g>
			<polygon class="st2" points="79,167.382 79,151.618 131,177.618 131,193.382 			"/>
			<polygon class="st2" points="79,167.382 79,151.618 131,177.618 131,193.382 			"/>
		</g>
		<g>
			<polygon class="st2" points="61,176.382 61,160.618 131,195.618 131,211.382 			"/>
			<polygon class="st2" points="61,176.382 61,160.618 131,195.618 131,211.382 			"/>
		</g>
		<g>
			<polygon class="st2" points="43,185.382 43,169.618 131,213.618 131,229.382 			"/>
			<polygon class="st2" points="43,185.382 43,169.618 131,213.618 131,229.382 			"/>
		</g>
		<g>
			<polygon class="st2" points="25,194.382 25,178.618 131,231.618 131,247.382 			"/>
			<polygon class="st2" points="25,194.382 25,178.618 131,231.618 131,247.382 			"/>
		</g>
	</g>
</g>
<g id="right_6_">
	<g>
		<g>
			<polygon class="st3" points="133,141.618 149,133.618 149,149.382 133,157.382 			"/>
			<polygon class="st3" points="133,141.618 149,133.618 149,149.382 133,157.382 			"/>
		</g>
		<g>
			<polygon class="st3" points="133,159.618 167,142.618 167,158.382 133,175.382 			"/>
			<polygon class="st3" points="133,159.618 167,142.618 167,158.382 133,175.382 			"/>
		</g>
		<g>
			<polygon class="st3" points="133,177.618 185,151.618 185,167.382 133,193.382 			"/>
			<polygon class="st3" points="133,177.618 185,151.618 185,167.382 133,193.382 			"/>
		</g>
		<g>
			<polygon class="st3" points="133,195.618 203,160.618 203,176.382 133,211.382 			"/>
			<polygon class="st3" points="133,195.618 203,160.618 203,176.382 133,211.382 			"/>
		</g>
		<g>
			<polygon class="st3" points="133,213.618 221,169.618 221,185.382 133,229.382 			"/>
			<polygon class="st3" points="133,213.618 221,169.618 221,185.382 133,229.382 			"/>
		</g>
		<g>
			<polygon class="st3" points="133,231.618 239,178.618 239,194.382 133,247.382 			"/>
			<polygon class="st3" points="133,231.618 239,178.618 239,194.382 133,247.382 			"/>
		</g>
		<g>
			<path class="st3" d="M132,138c-3.309,0-6-2.691-6-6s2.691-6,6-6s6,2.691,6,6S135.309,138,132,138z"/>
			<path class="st3" d="M132,138c-3.309,0-6-2.691-6-6s2.691-6,6-6s6,2.691,6,6S135.309,138,132,138z"/>
		</g>
	</g>
</g>
<g id="left_4_">
	<g>
		<g>
			<polygon class="st1" points="241,86.382 241,70.618 257,78.618 257,94.382 			"/>
			<polygon class="st1" points="241,86.382 241,70.618 257,78.618 257,94.382 			"/>
		</g>
		<g>
			<polygon class="st1" points="223,95.382 223,79.618 257,96.618 257,112.382 			"/>
			<polygon class="st1" points="223,95.382 223,79.618 257,96.618 257,112.382 			"/>
		</g>
		<g>
			<polygon class="st1" points="205,104.382 205,88.618 257,114.618 257,130.382 			"/>
			<polygon class="st1" points="205,104.382 205,88.618 257,114.618 257,130.382 			"/>
		</g>
		<g>
			<polygon class="st1" points="187,113.382 187,97.618 257,132.618 257,148.382 			"/>
			<polygon class="st1" points="187,113.382 187,97.618 257,132.618 257,148.382 			"/>
		</g>
		<g>
			<polygon class="st1" points="169,122.382 169,106.618 257,150.618 257,166.382 			"/>
			<polygon class="st1" points="169,122.382 169,106.618 257,150.618 257,166.382 			"/>
		</g>
		<g>
			<polygon class="st1" points="151,131.382 151,115.618 257,168.618 257,184.382 			"/>
			<polygon class="st1" points="151,131.382 151,115.618 257,168.618 257,184.382 			"/>
		</g>
	</g>
</g>
<g id="right_5_">
	<g>
		<g>
			<polygon class="st4" points="259,78.618 275,70.618 275,86.382 259,94.382 			"/>
			<polygon class="st4" points="259,78.618 275,70.618 275,86.382 259,94.382 			"/>
		</g>
		<g>
			<polygon class="st4" points="259,96.618 293,79.618 293,95.382 259,112.382 			"/>
			<polygon class="st4" points="259,96.618 293,79.618 293,95.382 259,112.382 			"/>
		</g>
		<g>
			<polygon class="st4" points="259,114.618 311,88.618 311,104.382 259,130.382 			"/>
			<polygon class="st4" points="259,114.618 311,88.618 311,104.382 259,130.382 			"/>
		</g>
		<g>
			<polygon class="st4" points="259,132.618 329,97.618 329,113.382 259,148.382 			"/>
			<polygon class="st4" points="259,132.618 329,97.618 329,113.382 259,148.382 			"/>
		</g>
		<g>
			<polygon class="st4" points="259,150.618 347,106.618 347,122.382 259,166.382 			"/>
			<polygon class="st4" points="259,150.618 347,106.618 347,122.382 259,166.382 			"/>
		</g>
		<g>
			<polygon class="st4" points="259,168.618 365,115.618 365,131.382 259,184.382 			"/>
			<polygon class="st4" points="259,168.618 365,115.618 365,131.382 259,184.382 			"/>
		</g>
		<g>
			<path class="st4" d="M258,75c-3.309,0-6-2.691-6-6s2.691-6,6-6s6,2.691,6,6S261.309,75,258,75z"/>
			<path class="st4" d="M258,75c-3.309,0-6-2.691-6-6s2.691-6,6-6s6,2.691,6,6S261.309,75,258,75z"/>
		</g>
	</g>
</g>
<g id="right_4_">
	<g>
		<g>
			<polygon class="st4" points="7,78.618 23,70.618 23,86.382 7,94.382 			"/>
			<polygon class="st4" points="7,78.618 23,70.618 23,86.382 7,94.382 			"/>
		</g>
		<g>
			<polygon class="st4" points="7,96.618 41,79.618 41,95.382 7,112.382 			"/>
			<polygon class="st4" points="7,96.618 41,79.618 41,95.382 7,112.382 			"/>
		</g>
		<g>
			<polygon class="st4" points="7,114.618 59,88.618 59,104.382 7,130.382 			"/>
			<polygon class="st4" points="7,114.618 59,88.618 59,104.382 7,130.382 			"/>
		</g>
		<g>
			<polygon class="st4" points="7,132.618 77,97.618 77,113.382 7,148.382 			"/>
			<polygon class="st4" points="7,132.618 77,97.618 77,113.382 7,148.382 			"/>
		</g>
		<g>
			<polygon class="st4" points="7,150.618 95,106.618 95,122.382 7,166.382 			"/>
			<polygon class="st4" points="7,150.618 95,106.618 95,122.382 7,166.382 			"/>
		</g>
		<g>
			<polygon class="st4" points="7,168.618 113,115.618 113,131.382 7,184.382 			"/>
			<polygon class="st4" points="7,168.618 113,115.618 113,131.382 7,184.382 			"/>
		</g>
		<g>
			<path class="st4" d="M6,75c-3.309,0-6-2.691-6-6s2.691-6,6-6s6,2.691,6,6S9.309,75,6,75z"/>
			<path class="st4" d="M6,75c-3.309,0-6-2.691-6-6s2.691-6,6-6s6,2.691,6,6S9.309,75,6,75z"/>
		</g>
	</g>
</g>
</svg>
