<?xml version="1.0" encoding="utf-8"?>
<!DOCTYPE svg PUBLIC "-//W3C//DTD SVG 1.1//EN" "http://www.w3.org/Graphics/SVG/1.1/DTD/svg11.dtd" [
	<!ENTITY ns_flows "http://ns.adobe.com/Flows/1.0/">
]>
<svg version="1.1"
	 xmlns="http://www.w3.org/2000/svg" xmlns:xlink="http://www.w3.org/1999/xlink" xmlns:a="http://ns.adobe.com/AdobeSVGViewerExtensions/3.0/"
	 x="0px" y="0px" width="400px" height="500px" viewBox="0 -14.4 400 500"
	 overflow="visible" enable-background="new 0 -14.4 400 500" xml:space="preserve">
<defs>
</defs>
<path fill="#660033" d="M308,371.2c-10.5-4.3-12.6-9.2-19.8-20.6S271,334.4,271,334.4s-147-9-158-4.4s-9.4,15.8-13.8,30.4
	c-3.7,12.4-77.5,44-99.2,53.1v72.1h400v-67.9C379.1,398.1,317.1,374.9,308,371.2z"/>
<path fill="#330033" d="M89.2,398c0,0,16.4,27.6,22.8,34.8c6.4,7.2,17.2,23.6,20,23.6c2.8,0,11.6,2.4,20,0
	c8.4-2.4,22.5-9.2,22.5-9.2s-15.6,11.7-31.5,15c-15.9,3.3-22.5-0.6-28.2-8.7C109.1,445.4,89.2,398,89.2,398z"/>
<path fill="#663366" d="M303.2,371.2c3.3,26.8,24,11.2,36.4,44.8C336,402,330.8,380.4,303.2,371.2z"/>
<path fill="#330033" d="M288.2,438.4c0,0,12.6-16.4,31.2-14c18.6,2.4,17.8,13.6,17.8,13.6s-20.4,2-26-3.2
	C305.6,429.6,288.2,438.4,288.2,438.4z"/>
<path fill="#330033" d="M124,330c0,0-15.2,3.6,0,24.8S124,330,124,330z"/>
<path fill="#330033" d="M246,485.6c0,0,10.2-17.1,14.2-22.2c4-5.1-24.2-12-24.2-12s14.6,10,14.6,13c0,3-9.8,16-9.8,21.2H246z"/>
<path fill="#999999" d="M253.8,485.6c0,0,0.2-3.8,3.6-3.8c3.4,0,3.2,3.8,3.2,3.8"/>
<path fill="#330033" d="M176.9,445.7c0,0,12.9-8.3,20.7-7.3c7.8,1,18,13,18,13s-9.9,10.5-23.4,5.7S176.9,445.7,176.9,445.7z"/>
<path fill="#330033" d="M271,341.6c0,0,10.6,12.3,10.6,16.5s-3.1,13.6-3.1,13.6h-14.9L271,341.6z"/>
<path fill="#CC9999" d="M271,313v51.4c0,0,19.4,14.4,17,35.2c-0.5,4.5-5.4,11.5-7.6,20.4c-1.8,7.6,2.8,15.3-4.4,21.6
	c-9.9,8.6-16.4,22.8-16.4,22.8s-34-23.8-53.5-30.2c-6.9-2.2-13.6-5.7-17.9-8.2c-24.6-14.4-55.6-52.2-64.2-70v-47.5"/>
<path fill="#996666" d="M170.1,341.8c0,0,20,8.6,45.8,7.1s52.5-33.9,52.5-33.9c-20.9,35.3-49.9,40.7-49.2,43.5
	c0.8,2.8,31.2-5.1,47.1-21.8C255.8,356,240.6,362,240.6,362l-38.1,1l-32.4-14.8V341.8z"/>
<path fill="#663333" d="M124.8,309.8c0,0,8.1,36.7,50.1,47.9c41.9,11.2,65.7,4.4,65.7,4.4s-51.4,3.6-77-26.8
	C138,304.8,124.8,309.8,124.8,309.8z"/>
<path fill="#FFCC99" d="M203,365.6c28.2-0.2,40.2,0.6,43.2,12s-8.4,29.4-8.4,29.4s31.8-8.4,36,0c4.2,8.4-25.8,44.4-25.8,44.4
	s-61.8-24-64.8-34.2c-3-10.2,20.4-4.8,20.4-4.8s-25.2-15-25.2-28.2C178.4,371,188.6,365.7,203,365.6z"/>
<path id="hair_1_" fill="#330000" d="M106,220.4c0,0-16.3-42.6-16.3-63.6s6.9-36.3,6.9-41.1c0-4.8-2.4-10.2-2.4-13.2s6-1.5,6-5.4
	s-6.3-12.9-6.3-15.9s4.5-3.9,6.6-9.9c2.1-6-2-18.5,3.2-25.7s17.6-3.2,20.4-6.4c2.8-3.2,1.6-10.4,4.4-12.4c2.8-2,7.2,1.2,10.8,0
	c3.6-1.2,16.7-17.2,30.8-16.8c14,0.4,20.4,5.2,27.2,4.8S210.4,0.4,218,0s6.8,6.4,9.6,6.4c2.8,0,8.4-4,12.8-2.4s9.6,18.8,14,21.2
	c4.4,2.4,9.6,2,14.4,6c4.8,4,4.8,14.4,7.6,16.4c2.8,2,12-7.2,20.4,0c8.4,7.2,6,12.4,6.4,15.6c0.4,3.2,10.4,3.6,13.6,6.4s6,22,6,22
	s-3.6-6.7-10-13.7c-6.4-7.1-7.4,2.3-6,5.3c3,6.6,8,12.4,8.4,16c0.4,3.6,7.2,12.8,7.6,14.8c0.4,2-7.6-1.2-8,8.4
	c-0.4,9.6,2,33.2-2,45.6c-4,12.4-2.4,12.7-2.4,16.7s-1.9,28.6-0.8,50.2"/>
<path fill="#FFCC99" d="M176,82.4c0,0,20.4-6,37.8-4.2c17.4,1.8,27.6,13.2,32.4,15C251,95,263,98,270.2,113s0,33.6,3.6,40.8
	c3.6,7.2,19.8,44.4,19.2,67.8c-0.6,23.4-8.4,78.6-27,97.8c-18.6,19.2-32.4,31.8-61.8,31.2c-6-0.1-12.4-1.1-18.9-2.7
	c-25.7-6.4-77.7-92.7-78.9-107.1c-1.2-14.4,36.8-129.1,46.9-130.8c3.5-0.6,6.7-1.7,8.9-3.6C170.6,99.2,176,82.4,176,82.4z"/>
<path fill="#996666" d="M153.3,110c0,0,1.1,43.2,3.1,49.8s16,7.4,16,7.4s3.2,2.9,6,7.6c2.8,4.8-29.2-7.4-36.8-6.8
	c-7.6,0.6-3.4,7.9-3.4,7.9s3.4,8.5,5.8,11.3c2.4,2.8-12.8,13.2-12.8,13.2s-12.8,28-4,56.4c8.8,28.4,17.5,51.2,24.1,52
	c0.7-6,2.3-14,5.9-14.4c3.6-0.4,19.6,38,32.8,38.8c13.2,0.8,44-4.4,44-4.4s-19.8,19-48.7,19.1l0,0c-25.7-6.4-53.3-23.3-63.3-42.9
	c-12.6-24.6-14.4-49.8-15.6-64.2c-1.2-14.4,0-39.6,3.6-51c3.6-11.4,8.4-19.2,8.4-24.6c0-5.4,0.6-31.2,3.6-38.4s8.4-17.4,8.4-17.4
	S143.2,111.7,153.3,110"/>
<path fill="#FFCC99" d="M285.6,264.9c0,0,2.8,9.5,11.6,9.5c8.8,0,23.2-23.1,25.6-39.5s3.6-27.7,0-34.9s-12-9.2-20.4-2.4
	c-8.4,6.8-6.4,14.4-6.4,19.2s0.8,20-5.6,9.2C284,215.2,285.6,264.9,285.6,264.9z"/>
<path fill="#FFCCCC" d="M310.8,203.5c0,0-10.6,13.1-9.4,16.1s7.6,1,8.2,3.8c0.6,2.8,1.2,14.8-3.4,18.8c-4.6,4-5.4,7.6-3.6,9.2
	c1.8,1.6,3.6,2.4,3.6,2.4l9.8-15.3l1.8-26.5L310.8,203.5z"/>
<path fill="#996633" d="M306.2,253.8c0,0,11.4-20.2,10.6-33.8c-0.8-13.6-6.6-15.2-6.4-18c0.2-2.8,8.7-1.5,9.6,3.2
	C321.8,214.2,320,241.4,306.2,253.8z"/>
<path fill="#CC9999" d="M294.5,229.7c0,0,1.3,6.3,1.3,8.1s-2.4,8.2,0,8.2c2.4,0,5.4,0.2,7.8-4.4c2.4-4.6,7.8-17.2-7.6-19.8
	C296.1,226,295.7,226.7,294.5,229.7z"/>
<path fill="#996666" d="M97.2,194.6c0,0-16-0.3-17.2,12s1.2,37.8,7.2,51s13.5,21.3,18.8,19.4s4.8-3.8,4.8-3.8l4.9-64.9L97.2,194.6z"
	/>
<path fill="#663333" d="M93.8,201.5c2.3,1.7-6.3,2.4-7.5,6.9c-1.2,4.5-2.7,16.8-2.7,16.8S81.8,192.8,93.8,201.5z"/>
<path fill="#663333" d="M88.8,245c0,0,10.1,17.4,11.6,14.7C101.9,257,92.3,251.9,88.8,245z"/>
<path fill="#663333" d="M105.3,252.5c2.9-0.9-4.7-3.7-6.3-12.6C100.2,251.3,101.4,253.7,105.3,252.5z"/>
<path fill="#CC9999" d="M204.9,216.8c0,0,1.9,6.6,4.9,9.9c3.1,3.3,9.1,3.9,9.1,6.6s0.7,4.6-2.2,5.1s-8.9-7.5-13.4-5.4
	c-4.5,2.1-2.4,12.6-8.4,12.6s-6.3-0.3-6.3,1.5s24.6,3.9,26.1,0c3.8-9.9,9.9-12.6,9.3-15.6C223.4,228.5,205,222.2,204.9,216.8z"/>
<path fill="#996666" d="M231.6,247.6c0,0,18,8,18,12.4s-1.6,6-3.6,6s-1.3-4-4.5-6.8C238.4,256.4,231.6,247.6,231.6,247.6z"/>
<path fill="#996666" d="M191,247.6c0,0-12.6-8.3-12-16.1c0.6-7.8,8.7-18.6,9.9-28.2c1.2-9.6,2.7-28.4-16.5-36.1
	c-19.2-7.7-12,5.5-12,5.5s18.3,3.6,17.4,22.8c-0.9,19.2-22.1,31.2-18.7,47.7c5.5-8.1,5.5-5.1,5.5-5.1S165.8,261,191,247.6z"/>
<path fill="#330000" d="M266.4,184.4c0,0-6.4-18-20-21.6c-13.6-3.6-31.2-5.6-29.6,3.6c0.8,4.7,13.6,0.8,23,2.8
	C249.2,171.2,259.2,175.6,266.4,184.4z"/>
<path fill="#330000" d="M124,187.2c0,0,7.6-21.2,15.6-22.4c8-1.2,32.5-5.7,32.8,2.4c0.4,10-28.8,2.6-32,6.1
	C137.2,176.8,130.8,186.4,124,187.2z"/>
<path fill="#FFFFFF" d="M135.5,195.8c27-24,39.3-1.5,39.3-1.5s-6.9,3.3-17.7,3.3C146.3,197.6,135.5,195.8,135.5,195.8z"/>
<path fill="#FFFFFF" d="M250.7,193.7c-24-21.6-37.5,2.1-37.5,2.1s12.6,2.4,20.4,1.8C241.4,197,250.7,193.7,250.7,193.7z"/>
<path fill="#333300" d="M240.6,186.8l-7.2-2.1l-7.7,0.8l-1.3,0.5c0,0-3.2,11.8,8.6,11.8c4.8,0,7.4-4.2,7.6-5.8
	C240.8,190.4,240.6,186.8,240.6,186.8z M237.4,191.9c-2.4-0.3-2-4.2,0-4C239.3,188,239.8,192.2,237.4,191.9z"/>
<path fill="#333300" d="M166.6,186.7l-8.5-1.9l-8.6,1.9c0,0-0.7,11.4,9,11.3C168.2,197.8,166.6,186.7,166.6,186.7z M162.8,192.5
	c-2.4,0-1.8-4.7,0-4.7C164.6,187.9,165.2,192.5,162.8,192.5z"/>
<g>
	<path fill="#330000" d="M174.7,194.4c-2.4-2.9-5.4-5.3-8.6-6.8c-3.3-1.5-6.9-2.2-10.6-1.7c-3.7,0.5-7.2,1.8-10.5,3.7
		c-3.3,1.8-6.4,4-9.4,6.5l-0.1-0.1c2.8-2.6,5.7-5.1,9-7.2c3.3-2,6.9-3.7,10.8-4.4c1.9-0.4,4-0.5,6-0.2c2,0.2,4,0.8,5.8,1.8
		c1.8,1,3.4,2.2,4.7,3.7c1.3,1.4,2.5,3.1,3.2,4.9L174.7,194.4z"/>
</g>
<g>
	<path fill="#330000" d="M213.1,195.8c0.7-1.7,1.8-3.3,3-4.8c1.2-1.5,2.6-2.8,4.2-3.9c1.6-1.1,3.3-2,5.2-2.5
		c1.9-0.5,3.8-0.8,5.7-0.7c3.9,0.1,7.5,1.3,10.8,3.1c3.3,1.8,6.2,4.2,8.8,6.7l-0.1,0.1c-2.8-2.3-5.8-4.5-9.1-6
		c-3.3-1.6-6.8-2.5-10.3-2.4c-3.5,0.1-6.8,1.5-9.8,3.3c-3,1.9-5.7,4.3-8.1,7.1L213.1,195.8z"/>
</g>
<path fill="#330000" d="M174.8,236c-4.5,5.6,8.1,6,8.1,6S178.5,231.5,174.8,236z"/>
<path fill="#330000" d="M200,242c0,0,2.3-9.1,6.6-6.7C216.7,240.8,200,242,200,242z"/>
<g>
	<circle cx="232" cy="190.2" r="3.9"/>
</g>
<g>
	<circle cx="158" cy="190.3" r="3.9"/>
</g>
<path fill="#663333" d="M188.6,274.4c0,0-29.8,0.4-36.2-4.6S183.6,274.4,188.6,274.4z"/>
<path fill="#CC9999" d="M204,273.7c0,0,32.1-2.3,31.1-5.8C234.3,265.3,207.9,273.3,204,273.7z"/>
<g>
	<defs>
		<path id="SVGID_2_" d="M158,270c0,0,5.4,14,31.8,14c26.4,0,36.8-14,36.8-14"/>
	</defs>
	<clipPath id="SVGID_3_">
		<use xlink:href="#SVGID_2_"  overflow="visible"/>
	</clipPath>
	<path clip-path="url(#SVGID_3_)" fill="#FF9999" d="M158,270c0,0,5.4,14,31.8,14c26.4,0,36.8-14,36.8-14"/>
	<path clip-path="url(#SVGID_3_)" fill="#FF99CC" d="M202.7,281.9c0,0-3-7.5,2.4-7.5c5.4,0,5.4,5.1,5.4,5.1S210.5,295.3,202.7,281.9
		z"/>
	<path clip-path="url(#SVGID_3_)" fill="#CC9999" d="M182.9,287.9c0,0-9.2-4.2-9.1-15.1c0.1-11-24.4-8.9-24.4-8.9
		S162.2,311.6,182.9,287.9z"/>
</g>
<g>
	<defs>
		<path id="SVGID_1_" d="M158,270c0,0,20.2-4.8,24.9-4.8s6,0.9,7.2,0.9s26.3-3.1,36.5,3.9c0,0-20.8,4.4-34.3,4.4S158,270,158,270z"
			/>
	</defs>
	<clipPath id="SVGID_4_">
		<use xlink:href="#SVGID_1_"  overflow="visible"/>
	</clipPath>
	<path clip-path="url(#SVGID_4_)" fill="#CC6666" d="M158,270c0,0,20.2-4.8,24.9-4.8s6,0.9,7.2,0.9s26.3-3.1,36.5,3.9
		c0,0-20.8,4.4-34.3,4.4S158,270,158,270z"/>
	<path clip-path="url(#SVGID_4_)" fill="#996666" d="M191,274.4c0,0-18.7-12.6-32.3-6C145.1,275,191,274.4,191,274.4z"/>
</g>
<path fill="#996666" d="M144.5,267.8c-2.4,0.6-3.9-9.3,0-12.9c3.9-3.6,13.9-3,13.5,0s-7.6,3.8-8.6,5.2
	C148.4,261.5,146.9,267.2,144.5,267.8z"/>
</svg>
