<?xml version="1.0" encoding="utf-8"?>
<!-- Generator: Adobe Illustrator 15.0.0, SVG Export Plug-In  -->
<!DOCTYPE svg [
	<!ENTITY ns_flows "http://ns.adobe.com/Flows/1.0/">
]>
<svg version="1.2" baseProfile="tiny"
	 xmlns="http://www.w3.org/2000/svg" xmlns:xlink="http://www.w3.org/1999/xlink" xmlns:a="http://ns.adobe.com/AdobeSVGViewerExtensions/3.0/"
	 x="0px" y="0px" width="500px" height="700px" viewBox="0 0 500 700" overflow="visible" xml:space="preserve">
<defs>
</defs>
<rect fill="#333366" width="499.9" height="700"/>
<rect fill="#FFFFFF" width="178.5" height="266.6"/>
<path fill="#663366" d="M64.9,700c0,0,28.5-44.5,36.5-51s11-10.8,17.8-12.7c6.8-1.9,17.2,0.8,20.8,0s17.5-12.5,17.5-12.5l302.6-79
	c0,0,28.5-3.5,39.9,8.5v37.4L282.4,700H64.9z"/>
<polygon fill="#999966" points="391.2,91.8 391.2,85.3 385.7,86.2 384.9,80.3 377.7,76.7 378.6,73.3 372.9,72 372.9,66 360.6,62.7 
	362.6,53.7 353.9,55.3 352.9,50.3 345.6,51.7 337.6,46 329.6,48.3 327.2,43.3 319.2,42.3 316.6,37.7 309.2,40.3 301.9,35.7 
	289.9,40.7 285.2,35.7 271.9,41 271.9,35.7 264.2,38.3 256.2,35.7 245.6,41.7 236.9,35.7 225.2,41 221.6,50.7 213.2,45.7 
	213.2,53.7 210.2,53.7 205.2,62.3 199.2,66 197.6,81.7 193.6,84.7 193.6,95.7 188.6,98 186.6,112.3 182.7,114.2 182.7,122 
	180.6,129.3 180.6,132.3 180.6,140.9 184.9,150.5 391.8,104.2 396.4,96.2 "/>
<polygon fill="#666666" points="195,146.3 187.2,140.9 188.9,131 184.9,127.3 189.9,121.7 192.9,111.7 201.9,109 201.9,91.7 
	207.9,89 214.2,75.3 218.6,72.7 223.2,61.7 232.6,73.3 239.3,53.7 249.6,64.7 258.2,57.7 262.4,62 268.2,53.7 273.2,59.7 283.9,56 
	291.2,59.7 296.6,56.7 301.6,58.3 314.2,53.7 306.6,66 312.9,66 323.9,59 327.2,63.7 338.2,59.7 349.9,64 362.6,67.7 368.2,75.7 
	375.9,78.3 383.9,85 388.1,95.5 298.9,140.9 "/>
<polygon fill="#333333" points="392.7,162.5 411.4,147.5 402.1,144.5 405.4,136 402.1,126.5 402.1,114 392.7,110 390.6,96.3 
	382.9,93.7 382.9,88 373.2,88 373.2,82 359.9,84.7 347.9,71 338.2,73.7 330.9,66 325.6,74.3 317.6,73.7 315.9,87.7 310.6,87.7 
	307.9,93.3 301.6,95.7 301.6,102 297.2,107.1 297.2,116 291.2,123.7 295.5,131.2 "/>
<path fill="#FFFF99" d="M327.9,135.3c-14.3-4-24.3-2.7-33.7-4.3c-9.4-1.6-18.3-22-28.8-23.7c-10.5-1.7-17.2,4.7-24.2,7.3
	s-30,23.7-35,27.7s-4.7-2.3-48.7,22.3s-81,116-81,116l301.4-53.9l24.2-56.6C385.1,152.9,342.2,139.3,327.9,135.3z"/>
<path fill="#999966" d="M443.6,216.9c0,0-38.2-48.9-46.2-49.4s-1.5,9.5-5,8.5s-3-3.5-9-3.5s-10,2-14.5-1s-22-17.5-25.5-17.5
	s-4,3-6.5,3s-2.5-6.5-8.5-6.5s-19,3.5-23.5,8.5s-9.1-0.2-9.1-0.2l-65.6-2.6c0,0-14.3,1.7-24.8,8.8s-54,45-62,54.5s-16-2.5-19,0
	s-9.5,13-9.5,19.5s-4,16-7.5,16s-20.2,1.4-20.2,16.1C87.2,285.8,443.6,216.9,443.6,216.9z"/>
<path fill="#666666" d="M477.3,354.9c0,0-11.4-86.4-22.4-112.4s-17-40.5-24-40s-16,22-21,21.5s-9.5-13-13.5-13s-9,2.5-11.5,2
	s-2-9.5-5.5-10.5s-11,6.5-14.5,6s-2.5-14-6.5-14s-2.5,6-5,5.5s-2-6.5-6.5-5.5s-8.5,8.5-11,8.5s-5.5,1.5-10,1s-4-7.7-6-9.6
	s-2,13.6-6.5,13.6s-2.5-19-2.5-19s-7,17.5-9.5,17s-5-3.5-5-3.5s1-33,0-40s-3-18-7.5-21s-12.5,8-17.5,7.5s0-7-5-8s-38,9-37.5,19
	s29,5.5,33.5,4s17-2.5,19,4.5s-23,31.5-32.5,29.5s-19-8-23-5s0,21-8.5,20.5s-21-2.5-24,1s-3.5,12.5-7,12.2c-3.5-0.3,0-8.2,0-8.2
	s-5,4-8,0s1-8,9-11s30-26,30-26s-23,14-30.5,16s9.5-33,23-45.5s-15.5-1-27.5,22s-23,43.5-21,49.5S477.3,354.9,477.3,354.9z"/>
<path fill="#FFFFFF" d="M48.3,372.5c0,0-4.4-59.5,22.6-86.5s35-25.2,36.5-26.5s9.5-11.2,16-13.5s16.8,0.8,20-1.5s8.8-9,14-11
	s15.8,1,19.8,0s4.8-3,8-3.1c3.2-0.1,6,1.6,7.5,1.6s6-5.5,11.5-5.2c5.5,0.3,13.2,3.6,13.2,3.6L48.3,372.5z"/>
<path fill="#999999" d="M478.1,460.9c0,0,21.8-9.4,21.8-45c0-35.6-11.7-43.6-20-56.9s-12.4-15.5-16.2-18.5s-1.8-10-4.3-12.5
	s-5.5-3-8-5.5s1-3-3-7.5s-9.5-3.5-11.5-7.5s-3-7.5-8.5-12.5s-9-2.5-12.5-5.5s-10-8-14-12s-14.3-3-20.4-7c-6.1-4-8.6-7-10.6-8
	s-2,0.5-5-2.5s-3.5-6-8.5-7s-11,1.5-15,0s-6-4-10.5-5.5s-7.5,2.5-11,0s-5.6-9.5-15.6-10.5s-19.4,0.5-24.9,0s-9-5.5-14.5-6.5
	s-23.5,5-31.5,3s-17-3.1-17-3.1s-23.5,24.1-30.5,22.1s9.5-14,3-15.5s-24,3.5-27,7s-7.5,19-12,19s-1-10.5-3-10.5s-9,36-15.5,35.5
	s-7.7-14.5-15.1-14.5s-24.4,28-27.9,28s3.5-17.8,0-18s-18.9,40.2-20.2,46.2c-0.2,1-0.1,10.9-1.4,13.4c-2.3,4.4-10.2,11.3-15.6,17.6
	c-12.7,15.1,9.7,48.8,9.7,48.8l45-38.5l108.5-36.5L349.9,375L478.1,460.9z"/>
<path fill="#330033" d="M485.4,550c-9-9.5-25.4-5.2-25.4-5.2L396.4,700h103.5V566C499.9,566,494.4,559.5,485.4,550z"/>
<path fill="#330033" d="M211.6,671l-12.7,29h22C224.2,687.7,211.6,671,211.6,671z"/>
<path fill="#330033" d="M198.9,665l-26,35h15.6C212.2,666.3,198.9,665,198.9,665z"/>
<path fill="#330033" d="M123.6,700c0,0,29.3-46.3,36-43.7c6.7,2.6-5.3,29.2-5.3,29.2s5.4-2.2,7.3,0c1.9,2.2-2,14.5-2,14.5H123.6z"/>
<path fill="#330033" d="M169.2,678.1c-4.3-2.3,12.8-26.8,12.8-26.8h6.5l-0.9,5C187.6,656.2,171.9,679.6,169.2,678.1z"/>
<path fill="#330033" d="M159.2,636.7c-4-5-64.7,47.3-68.3,63.3h13.7c0,0,24-30.3,31-35S163.2,641.7,159.2,636.7z"/>
<path id="hat_2_" fill="#996666" d="M465.1,434.6c0,0,8.5,39.7-0.8,54.4c-9.3,14.7-36.7,25.3-36.7,25.3s-2,18,5.3,21.3
	c7.3,3.3,54.7,14,57.3,32c2.6,18,13.8,67.4-31.4,132.4H238.9c0,0-9.3-3.7-15.3-9.7S210.9,673,198.9,665s-64-50-77.3-120.7
	c-13.3-70.7,9-195.2,9-195.2l215.3,19.8l93.8,47c0,0,4.1,4.6,5.8,5.8c1.9,1.4,4.8,0.2,8.2,2.5c2.5,1.7,4.9,3.9,7,6
	C463,432.6,465.1,434.6,465.1,434.6z"/>
<path fill="#993366" d="M198.9,620.5c10.5,5.3,10.4,26.3,37.5,24.5c45.5-3,51.5-27,74-35.5c-30.5-5-65.5,4-74,4
	S216.4,608.5,198.9,620.5z"/>
<path fill="#663333" d="M313.6,607c0,0-55.3,13.7-74,14.3c-18.7,0.6-40.7-0.8-40.7-0.8s23,9.8,44.3,6.5S314.9,611.3,313.6,607z"/>
<path fill="#663333" d="M259.9,532c0,0,14.7,13.6,11,22c-6,13.5-23,13.5-23,13.5s28-1.5,28.3-15.8S259.9,532,259.9,532z"/>
<path fill="#663333" d="M215.9,600c0,0,11,6.7,15.3,0c4.3-6.7,3.7-14.7,3.7-14.7s6,21-3,21.7S215.9,600,215.9,600z"/>
<path fill="#663333" d="M313.6,602.5c-4.4,1,9.3,3.1,10.3,5.5s4.7,4.7,6.3,4.3C331.8,611.9,327.3,599.3,313.6,602.5z"/>
<path fill="#663333" d="M412.9,585.3c0,0-19,47.2-31.5,57.2S295.9,700,295.9,700h42C337.9,700,411.9,660.7,412.9,585.3z"/>
<path fill="#663333" d="M202.4,572c0,0-11-7-11.5-10.5s3.2-36.6,8-47s0-3.9,0-3.9S173.4,572,202.4,572z"/>
<path fill="#AA7777" d="M242.6,581.5c4.3-0.5,8.8,17.5,5.3,18.5S238.3,582,242.6,581.5z"/>
<path fill="#AA7777" d="M222.4,547c18.7,0,17,23.5,0,25S210.9,547,222.4,547z"/>
<path fill="#330000" d="M53.6,432.3c-12.7-5.3-20.7-34.6-20.7-34.6s26,4,30,0s-4.7-15.3-8.7-26s15.1,10,19.2,3.3
	s-14.5-40.7-14.5-40.7s10.3,13.3,15.2,16.7c4.9,3.4,11.8-2,13.8-4s6.5,0,8.5-1s5.5-6,8.5-6s6.5-2,9-2.5s8-7,11.5-7s9-0.5,13.5,0
	s18.5-8,22-8s5.8,3,7.2,3c1.4,0,5-1.8,7-1.8s2.5,3.2,4,3.2s3.2-2.2,4.8-2c1.6,0.2,6,5.2,10.5,5.5c4.5,0.3,8.8-4.5,10.5-4.5
	s4.8,3.5,8.5,3.5s10.2-3.8,12.2-3.5c2,0.3,2.8,7.8,11,8.8c8.2,1,18.5-1.2,21.2-1.2c2.7,0,4.2,4.2,7.2,5s9.8-3,12.5-1.8
	c2.7,1.2,7.8,9.2,14.2,10.5c6.4,1.3,12.2-3.5,15.2-2.8c3,0.7,7,5,11,6.5c4,1.5,5.5-1.2,9.2,0.2c3.7,1.4,5,4.2,7,5.5
	c2,1.3,5.5-1.5,7-0.8s1.5,5,4.5,5.8c3,0.8,5.8-0.2,7.2,0.5c1.4,0.7,3.5,4,5.8,5s5.8,0,7.8,1.2s3.2,5.8,5,7.5s5.2,0.3,7.2,1.4
	c2,1.1,2.2,5.6,5.2,6.8s6.2-0.5,10.2,1.5s8.5,7.5,12.5,10.2s9.8,3.2,12.5,4.5c2.7,1.3,3.2,5.5,6.8,7.2c3.6,1.7,5.8-0.5,10.5,4.2
	c4.7,4.7,8,14.8,8.5,18.5c0.5,3.7,11,9.2,11.8,11.5c0.8,2.3-3.7,4.7-3.7,8.3c0,3.6,10,7.7,12,13c2,5.3,6.7,36,6.7,36s-8-17.7-13-24
	c-5-6.3-15.3-19-15.3-19s3.7,25,2.7,30.3s-5.3,22.7-5.3,22.7s-15-25-15.7-37.7c-0.7-12.7-0.3-24.3-0.3-24.3s-8.7-5.3-12.7-12.3
	s-11.1-18.7-11.1-18.7L389.6,433l-39-11c0,0,11-28,7.3-34.7s-11.3-9-11.3-9s-0.7,11-9.7,20.3c-9,9.3-24.8,15.4-24.8,15.4
	s19.2-15.7,21.5-22.7s1.7-12.7,1.7-12.7s-20.7,13.3-35.3,20c-14.6,6.7-64,17.3-64,17.3l39.3-34.9c0,0-39.7,6.3-49.3,14.7
	c-9.6,8.4-39.4,25.3-39.4,25.3l8.9-22l-20.6,6c0,0,14.5-21,7-24.5s-20,0.5-20,0.5l-15-4c0,0-6.7,12.5-12.4,18.5
	c-5.7,6-9.1,14.5-9.1,14.5s35,7,47.5,15s25.5,21,25.5,21L53.6,432.3z"/>
<path fill="#330000" d="M479.9,474.5c0,0-3.4-35.3-11-40.5S459.9,456,479.9,474.5z"/>
<path fill="#333333" d="M399.6,425l8,22.7c0,0-9.2,2.8-10.7,4.3s-2,44-18.5,62.5s-67.3,41-103.2,17.5
	c-35.9-23.5-38.3-60.5-59.3-57.5c-14.5,2.1-1.5,81-82.5,75.2S47.4,439,47.4,439l14.5-11.5c0,0,54-5.5,75-2.5s61,26,79,22
	s61.9-25.5,97.7-27S393.2,426,399.6,425z"/>
<path d="M303.8,431c12.3-1.9,61.1-10,71.1,11s17,78.4-44.3,90s-83-47.7-87.7-70S290.7,433,303.8,431z"/>
<path d="M125.4,441.5c-19.5,0.2-48,0-51.5,8.5s14,90.5,56,90.5s68.4-31.4,65.5-64S141.9,441.3,125.4,441.5z"/>
</svg>
