<?xml version="1.0" encoding="utf-8"?>
<!-- Generator: Adobe Illustrator 15.0.0, SVG Export Plug-In  -->
<!DOCTYPE svg PUBLIC "-//W3C//DTD SVG 1.1//EN" "http://www.w3.org/Graphics/SVG/1.1/DTD/svg11.dtd" [
	<!ENTITY ns_flows "http://ns.adobe.com/Flows/1.0/">
]>
<svg version="1.1"
	 xmlns="http://www.w3.org/2000/svg" xmlns:xlink="http://www.w3.org/1999/xlink" xmlns:a="http://ns.adobe.com/AdobeSVGViewerExtensions/3.0/"
	 x="0px" y="0px" width="270px" height="180px" viewBox="0 0 270 180" overflow="visible" enable-background="new 0 0 270 180"
	 xml:space="preserve">
<defs>
</defs>
<rect width="270" height="180"/>
<path fill="none" stroke="#9966FF" stroke-width="2" d="M7.519,154.534c4.006-4.044,9.484-9.05,13.177-12.295
	c15.609-13.715,32.678-26.424,49.075-39.382c39.517-31.227,115.914-83.898,145.438-89.668c7.232-1.409,32.217-10.441,43.584,13.471"
	/>
<path fill="none" stroke="#9966FF" stroke-width="2" d="M10.394,157.607c17.932-15.764,101.046-69.645,98.646-83.709"/>
<path fill="none" stroke="#9966FF" stroke-width="2" d="M11.697,158.601c11.525-8.115,33.189-22.956,72.888-52.217
	c30.209-24.827,42.076-32.354,54.353-53.412"/>
<path fill="none" stroke="#9966FF" stroke-width="2" d="M13.002,159.303c39.139-24.535,70.332-43.429,106.566-59.648
	c7.692-8.215,18.714-13.928,27.039-19.076c6.454-3.861,14.02-7.132,20.668-10.062c36.829-24.333,67.857-40.729,93.783-35.376"/>
<path fill="none" stroke="#9966FF" stroke-width="2" d="M83.315,107.188c10.45-2.931,27.722-16.534,44.662-27.276
	c30.859-13.71,78.981-64.881,127.066-58.851"/>
<path fill="none" stroke="#9966FF" stroke-width="2" d="M15.079,160.939c29.412-16.807,76.138-39.039,105.151-40.326
	c6.196-0.273,16.077,7.229,23.506,9.008c14.606,3.501,18.936,3.531,43.953-0.124"/>
<path fill="none" stroke="#9966FF" stroke-width="2" d="M16.55,161.678c24.909-10.713,69.163-26.303,88.549-26.812
	c9.251-0.24,41.572,10.929,49.123,13.812"/>
<path fill="none" stroke="#9966FF" stroke-width="2" d="M127.768,79.847c-1.843-10.492,32.965-22.43,38.53-43.227"/>
<path fill="none" stroke="#9966FF" stroke-width="2" d="M166.629,70.202c2.041,2.045,4.679,4.484,6.607,6.633
	c20.953-11.096,66.258-31.365,87.771-25.035"/>
<path fill="none" stroke="#9966FF" stroke-width="2" d="M139.837,73.764c2.036,2.047,5.008,4.812,6.935,6.963"/>
<path fill="none" stroke="#9966FF" stroke-width="2" d="M119.765,99.548c2.912,2.578,9.25,3.367,11.47,4.259
	c10.116-2.67,12.385-3.672,19.526-6.707c7.287-3.097,15.572-6.483,24.684-11.029c28.577-9.86,52.616-16.952,75.224-11.985"/>
<path fill="none" stroke="#9966FF" stroke-width="2" d="M173.381,77.127c0.692,2.325,1.731,6.144,1.951,8.605"/>
<path fill="none" stroke="#9966FF" stroke-width="2" d="M131.399,103.704c1.542,2.142,3.116,4.271,4.699,6.298"/>
<path fill="none" stroke="#9966FF" stroke-width="2" d="M221.289,103.926c-18.452-8.237-65.611-0.035-85.197,6.056
	c-4.855,2.459-9.645,4.725-14.313,10.333"/>
<path fill="none" stroke="#9966FF" stroke-width="1.5" d="M7.564,154.189c3.696-3.497,7.144-6.652,11.436-10.28
	c16.277-13.766,32.562-27.027,50.284-40.571c39.026-29.825,58.052-44.049,89.377-63.177c35.466-21.655,80.544-44.431,97.606-17.614
	c25.301,39.74-32.41,80.776-69.869,108.136c-35.925,28.229-137.039,54.433-153.244,28.038c-3.686,0.535-4.979,4.504-9.832,5.709
	c-3.1,0.772-4.246-1.506-8.196-0.691"/>
<path fill="none" stroke="#9966FF" stroke-width="1.5" d="M33.595,157.341c17.736-8.396,29.488-6.219,46.682,0.822"/>
<path fill="none" stroke="#9966FF" stroke-width="1.5" d="M20.393,148.774c-0.93-1.123-2.638-3.235-2.989-3.406"/>
</svg>
