<?xml version="1.0" encoding="utf-8"?>
<!-- Generator: Adobe Illustrator 15.0.0, SVG Export Plug-In  -->
<!DOCTYPE svg PUBLIC "-//W3C//DTD SVG 1.1//EN" "http://www.w3.org/Graphics/SVG/1.1/DTD/svg11.dtd" [
	<!ENTITY ns_flows "http://ns.adobe.com/Flows/1.0/">
]>
<svg version="1.1"
	 xmlns="http://www.w3.org/2000/svg" xmlns:xlink="http://www.w3.org/1999/xlink" xmlns:a="http://ns.adobe.com/AdobeSVGViewerExtensions/3.0/"
	 x="0px" y="0px" width="300px" height="200px" viewBox="0 0 300 200" overflow="visible" enable-background="new 0 0 300 200"
	 xml:space="preserve">
<defs>
</defs>
<polygon points="300,160 150,160 150,0 "/>
<polygon fill="#666666" points="150,160 0,160 150,0 "/>
<polygon fill="#FFFFFF" points="40,160 40,140 60,120 60,160 "/>
<polygon fill="#FFFFFF" points="80,160 80,100 100,80 100,160 "/>
<polygon fill="#FFFFFF" points="120,160 120,60 140,30 140,160 "/>
<polygon fill="#CCCCCC" points="260,160 260,140 240,120 240,160 "/>
<polygon fill="#CCCCCC" points="220,160 220,100 200,80 200,160 "/>
<polygon fill="#CCCCCC" points="180,160 180,60 160,30 160,160 "/>
<polygon fill="#99CCFF" points="0,160 0,0 300,0 300,160 150,0 "/>
<polygon fill="#CCCCCC" points="0,160 150,160 150.001,170 "/>
<polygon fill="#999999" points="150,170 150,160 300,160 "/>
<path fill="#FFFFFF" d="M30,0c0,16.568-13.431,30-30,30V0H30z"/>
<polygon fill="#006699" points="0,200 0,160 150,170 300,160 300,200 "/>
<polygon fill="#33CCCC" points="0,160 50,170 0,170 "/>
<polygon fill="#33CCCC" points="0,180.371 70,190 0,190.371 "/>
<polygon fill="#33CCCC" points="30,180 80,170 120,170 "/>
<polygon fill="#33CCCC" points="30.741,200 100,190 70,200 "/>
<polygon fill="#33CCCC" points="130,180 180,190 140,180 "/>
<polygon fill="#33CCCC" points="60,180 90,180 130,190 "/>
<polyline fill="#33CCCC" points="100,200 100,200 140,190 120.556,200 "/>
<polygon fill="#33CCCC" points="130,170 140,170 160,180 "/>
<polygon fill="#33CCCC" points="149.723,200 190,190 160,200 "/>
<polygon fill="#33CCCC" points="170,180 210,170 180,180 "/>
<polygon fill="#33CCCC" points="190,180 200,180 240,190 "/>
</svg>
