<?xml version="1.0" encoding="utf-8"?>
<!-- Generator: Adobe Illustrator 15.0.0, SVG Export Plug-In  -->
<!DOCTYPE svg PUBLIC "-//W3C//DTD SVG 1.1//EN" "http://www.w3.org/Graphics/SVG/1.1/DTD/svg11.dtd" [
	<!ENTITY ns_flows "http://ns.adobe.com/Flows/1.0/">
]>
<svg version="1.1"
	 xmlns="http://www.w3.org/2000/svg" xmlns:xlink="http://www.w3.org/1999/xlink" xmlns:a="http://ns.adobe.com/AdobeSVGViewerExtensions/3.0/"
	 x="0px" y="0px" width="108px" height="369px" viewBox="-8.1 -4 108 369"
	 overflow="visible" enable-background="new -8.1 -4 108 369" xml:space="preserve">
<defs>
</defs>
<polygon fill="none" stroke="#FF6600" stroke-width="2" stroke-linejoin="bevel" stroke-miterlimit="10" points="45.9,46 63.9,82 
	27.9,82 "/>
<polygon fill="none" stroke="#FF9933" stroke-width="2" stroke-linejoin="bevel" stroke-miterlimit="10" points="27.9,91 63.9,91 
	45.9,127 "/>
<polygon fill="none" stroke="#FFCC66" stroke-width="2" stroke-linejoin="bevel" stroke-miterlimit="10" points="54.9,127 72.9,91 
	90.9,127 "/>
<polygon fill="none" stroke="#FFCC33" stroke-width="2" stroke-linejoin="bevel" stroke-miterlimit="10" points="36.9,127 18.9,91 
	0.9,127 "/>
<polygon fill="none" stroke="#FFFF99" stroke-width="2" stroke-linejoin="bevel" stroke-miterlimit="10" points="0.9,136 36.9,136 
	18.9,172 "/>
<polygon fill="none" stroke="#FFFFFF" stroke-width="2" stroke-linejoin="bevel" stroke-miterlimit="10" points="27.9,172 45.9,136 
	63.9,172 "/>
<polygon fill="none" stroke="#FFCC99" stroke-width="2" stroke-linejoin="bevel" stroke-miterlimit="10" points="54.9,136 90.9,136 
	72.9,172 "/>
<polygon fill="none" stroke="#FFFFFF" stroke-width="2" stroke-linejoin="bevel" stroke-miterlimit="10" points="27.9,181 63.9,181 
	45.9,217 "/>
<polygon fill="none" stroke="#CCCCFF" stroke-width="2" stroke-linejoin="bevel" stroke-miterlimit="10" points="54.9,217 72.9,181 
	90.9,217 "/>
<polygon fill="none" stroke="#CCFFFF" stroke-width="2" stroke-linejoin="bevel" stroke-miterlimit="10" points="36.9,217 18.9,181 
	0.9,217 "/>
<polygon fill="none" stroke="#33CCFF" stroke-width="2" stroke-linejoin="bevel" stroke-miterlimit="10" points="45.9,226 27.9,262 
	63.9,262 "/>
<polygon fill="none" stroke="#99CCFF" stroke-width="2" stroke-linejoin="bevel" stroke-miterlimit="10" points="54.9,226 90.9,226 
	72.9,262 "/>
<polygon fill="none" stroke="#66FFFF" stroke-width="2" stroke-linejoin="bevel" stroke-miterlimit="10" points="0.9,226 36.9,226 
	18.9,262 "/>
<polygon fill="none" stroke="#0099FF" stroke-width="2" stroke-linejoin="bevel" stroke-miterlimit="10" points="27.9,271 63.9,271 
	45.9,307 "/>
<line fill="none" stroke="#FFFFFF" stroke-width="2" stroke-linejoin="bevel" stroke-miterlimit="10" x1="45.9" y1="136" x2="45.9" y2="172"/>
<line fill="none" stroke="#FF9933" stroke-width="2" stroke-linejoin="bevel" stroke-miterlimit="10" x1="45.9" y1="91" x2="45.9" y2="127"/>
<line fill="none" stroke="#FF6600" stroke-width="2" stroke-linejoin="bevel" stroke-miterlimit="10" x1="45.9" y1="46" x2="45.9" y2="82"/>
<line fill="none" stroke="#FFFFFF" stroke-width="2" stroke-linejoin="bevel" stroke-miterlimit="10" x1="45.9" y1="181" x2="45.9" y2="217"/>
<line fill="none" stroke="#33CCFF" stroke-width="2" stroke-linejoin="bevel" stroke-miterlimit="10" x1="45.9" y1="226" x2="45.9" y2="262"/>
<line fill="none" stroke="#0099FF" stroke-width="2" stroke-linejoin="bevel" stroke-miterlimit="10" x1="45.9" y1="271" x2="45.9" y2="307"/>
<line fill="none" stroke="#99CCFF" stroke-width="2" stroke-linejoin="bevel" stroke-miterlimit="10" x1="54.9" y1="226" x2="81.9" y2="244"/>
<line fill="none" stroke="#66FFFF" stroke-width="2" stroke-linejoin="bevel" stroke-miterlimit="10" x1="9.9" y1="244" x2="36.9" y2="226"/>
<line fill="none" stroke="#CCCCFF" stroke-width="2" stroke-linejoin="bevel" stroke-miterlimit="10" x1="54.9" y1="217" x2="81.9" y2="199"/>
<line fill="none" stroke="#CCFFFF" stroke-width="2" stroke-linejoin="bevel" stroke-miterlimit="10" x1="36.9" y1="217" x2="9.9" y2="199"/>
<line fill="none" stroke="#FFCC99" stroke-width="2" stroke-linejoin="bevel" stroke-miterlimit="10" x1="54.9" y1="136" x2="81.9" y2="154"/>
<line fill="none" stroke="#FFCC66" stroke-width="2" stroke-linejoin="bevel" stroke-miterlimit="10" x1="54.9" y1="127" x2="81.9" y2="109"/>
<line fill="none" stroke="#FFCC33" stroke-width="2" stroke-linejoin="bevel" stroke-miterlimit="10" x1="36.9" y1="127" x2="9.9" y2="109"/>
<line fill="none" stroke="#FFFF99" stroke-width="2" stroke-linejoin="bevel" stroke-miterlimit="10" x1="36.9" y1="136" x2="9.9" y2="154"/>
<polygon fill="none" stroke="#006699" stroke-width="2" stroke-linejoin="bevel" stroke-miterlimit="10" points="54.9,316 72.9,280 
	90.9,316 "/>
<polygon fill="none" stroke="#0033CC" stroke-width="2" stroke-linejoin="bevel" stroke-miterlimit="10" points="36.9,316 18.9,280 
	0.9,316 "/>
<polygon fill="none" stroke="#000000" stroke-width="2" stroke-linejoin="bevel" stroke-miterlimit="10" points="45.9,325 27.9,361 
	63.9,361 "/>
<polygon fill="none" stroke="#006666" stroke-width="2" stroke-linejoin="bevel" stroke-miterlimit="10" points="54.9,325 90.9,325 
	72.9,361 "/>
<polygon fill="none" stroke="#000066" stroke-width="2" stroke-linejoin="bevel" stroke-miterlimit="10" points="0.9,325 36.9,325 
	18.9,361 "/>
<line fill="none" stroke="#000000" stroke-width="2" stroke-linejoin="bevel" stroke-miterlimit="10" x1="45.9" y1="325" x2="45.9" y2="361"/>
<line fill="none" stroke="#006666" stroke-width="2" stroke-linejoin="bevel" stroke-miterlimit="10" x1="54.9" y1="325" x2="81.9" y2="343"/>
<line fill="none" stroke="#000066" stroke-width="2" stroke-linejoin="bevel" stroke-miterlimit="10" x1="9.9" y1="343" x2="36.9" y2="325"/>
<line fill="none" stroke="#006699" stroke-width="2" stroke-linejoin="bevel" stroke-miterlimit="10" x1="54.9" y1="316" x2="81.9" y2="298"/>
<line fill="none" stroke="#0033CC" stroke-width="2" stroke-linejoin="bevel" stroke-miterlimit="10" x1="36.9" y1="316" x2="9.9" y2="298"/>
<polygon fill="none" stroke="#000000" stroke-width="2" stroke-linejoin="bevel" stroke-miterlimit="10" points="27.9,1 63.9,1 
	45.9,37 "/>
<polygon fill="none" stroke="#990000" stroke-width="2" stroke-linejoin="bevel" stroke-miterlimit="10" points="54.9,37 72.9,1 
	90.9,37 "/>
<polygon fill="none" stroke="#993300" stroke-width="2" stroke-linejoin="bevel" stroke-miterlimit="10" points="36.9,37 18.9,1 
	0.9,37 "/>
<polygon fill="none" stroke="#CC6600" stroke-width="2" stroke-linejoin="bevel" stroke-miterlimit="10" points="0.9,46 36.9,46 
	18.9,82 "/>
<polygon fill="none" stroke="#FF3300" stroke-width="2" stroke-linejoin="bevel" stroke-miterlimit="10" points="54.9,46 90.9,46 
	72.9,82 "/>
<line fill="none" stroke="#000000" stroke-width="2" stroke-linejoin="bevel" stroke-miterlimit="10" x1="45.9" y1="1" x2="45.9" y2="37"/>
<line fill="none" stroke="#FF3300" stroke-width="2" stroke-linejoin="bevel" stroke-miterlimit="10" x1="54.9" y1="46" x2="81.9" y2="64"/>
<line fill="none" stroke="#990000" stroke-width="2" stroke-linejoin="bevel" stroke-miterlimit="10" x1="54.9" y1="37" x2="81.9" y2="19"/>
<line fill="none" stroke="#993300" stroke-width="2" stroke-linejoin="bevel" stroke-miterlimit="10" x1="36.9" y1="37" x2="9.9" y2="19"/>
<line fill="none" stroke="#CC6600" stroke-width="2" stroke-linejoin="bevel" stroke-miterlimit="10" x1="36.9" y1="46" x2="9.9" y2="64.5"/>
</svg>
