<?xml version="1.0" encoding="utf-8"?>
<!-- Generator: Adobe Illustrator 15.0.0, SVG Export Plug-In  -->
<!DOCTYPE svg PUBLIC "-//W3C//DTD SVG 1.1//EN" "http://www.w3.org/Graphics/SVG/1.1/DTD/svg11.dtd" [
	<!ENTITY ns_flows "http://ns.adobe.com/Flows/1.0/">
]>
<svg version="1.1"
	 xmlns="http://www.w3.org/2000/svg" xmlns:xlink="http://www.w3.org/1999/xlink" xmlns:a="http://ns.adobe.com/AdobeSVGViewerExtensions/3.0/"
	 x="0px" y="0px" width="108px" height="369px" viewBox="-7.2 -3 108 369"
	 overflow="visible" enable-background="new -7.2 -3 108 369" xml:space="preserve">
<defs>
</defs>
<polygon fill="none" stroke="#FF6600" stroke-width="4" stroke-linejoin="bevel" stroke-miterlimit="10" points="46.8,47 64.8,83 
	28.8,83 "/>
<polygon fill="none" stroke="#FF9933" stroke-width="4" stroke-linejoin="bevel" stroke-miterlimit="10" points="28.8,92 64.8,92 
	46.8,128 "/>
<polygon fill="none" stroke="#FFCC66" stroke-width="4" stroke-linejoin="bevel" stroke-miterlimit="10" points="55.8,128 73.8,92 
	91.8,128 "/>
<polygon fill="none" stroke="#FFCC33" stroke-width="4" stroke-linejoin="bevel" stroke-miterlimit="10" points="37.8,128 19.8,92 
	1.8,128 "/>
<polygon fill="none" stroke="#FFFF99" stroke-width="4" stroke-linejoin="bevel" stroke-miterlimit="10" points="1.8,137 37.8,137 
	19.8,173 "/>
<polygon fill="none" stroke="#FFFFFF" stroke-width="4" stroke-linejoin="bevel" stroke-miterlimit="10" points="28.8,173 46.8,137 
	64.8,173 "/>
<polygon fill="none" stroke="#FFCC99" stroke-width="4" stroke-linejoin="bevel" stroke-miterlimit="10" points="55.8,137 91.8,137 
	73.8,173 "/>
<polygon fill="none" stroke="#FFFFFF" stroke-width="4" stroke-linejoin="bevel" stroke-miterlimit="10" points="28.8,182 64.8,182 
	46.8,218 "/>
<polygon fill="none" stroke="#CCCCFF" stroke-width="4" stroke-linejoin="bevel" stroke-miterlimit="10" points="55.8,218 73.8,182 
	91.8,218 "/>
<polygon fill="none" stroke="#CCFFFF" stroke-width="4" stroke-linejoin="bevel" stroke-miterlimit="10" points="37.8,218 19.8,182 
	1.8,218 "/>
<polygon fill="none" stroke="#33CCFF" stroke-width="4" stroke-linejoin="bevel" stroke-miterlimit="10" points="46.8,227 28.8,263 
	64.8,263 "/>
<polygon fill="none" stroke="#99CCFF" stroke-width="4" stroke-linejoin="bevel" stroke-miterlimit="10" points="55.8,227 91.8,227 
	73.8,263 "/>
<polygon fill="none" stroke="#66FFFF" stroke-width="4" stroke-linejoin="bevel" stroke-miterlimit="10" points="1.8,227 37.8,227 
	19.8,263 "/>
<polygon fill="none" stroke="#0099FF" stroke-width="4" stroke-linejoin="bevel" stroke-miterlimit="10" points="28.8,272 64.8,272 
	46.8,308 "/>
<line fill="none" stroke="#FFFFFF" stroke-width="4" stroke-linejoin="bevel" stroke-miterlimit="10" x1="46.8" y1="137" x2="46.8" y2="173"/>
<line fill="none" stroke="#FF9933" stroke-width="4" stroke-linejoin="bevel" stroke-miterlimit="10" x1="46.8" y1="92" x2="46.8" y2="128"/>
<line fill="none" stroke="#FF6600" stroke-width="4" stroke-linejoin="bevel" stroke-miterlimit="10" x1="46.8" y1="47" x2="46.8" y2="83"/>
<line fill="none" stroke="#FFFFFF" stroke-width="4" stroke-linejoin="bevel" stroke-miterlimit="10" x1="46.8" y1="182" x2="46.8" y2="218"/>
<line fill="none" stroke="#33CCFF" stroke-width="4" stroke-linejoin="bevel" stroke-miterlimit="10" x1="46.8" y1="227" x2="46.8" y2="263"/>
<line fill="none" stroke="#0099FF" stroke-width="4" stroke-linejoin="bevel" stroke-miterlimit="10" x1="46.8" y1="272" x2="46.8" y2="308"/>
<line fill="none" stroke="#99CCFF" stroke-width="4" stroke-linejoin="bevel" stroke-miterlimit="10" x1="55.8" y1="227" x2="82.8" y2="245"/>
<line fill="none" stroke="#66FFFF" stroke-width="4" stroke-linejoin="bevel" stroke-miterlimit="10" x1="10.8" y1="245" x2="37.8" y2="227"/>
<line fill="none" stroke="#CCCCFF" stroke-width="4" stroke-linejoin="bevel" stroke-miterlimit="10" x1="55.8" y1="218" x2="82.8" y2="200"/>
<line fill="none" stroke="#CCFFFF" stroke-width="4" stroke-linejoin="bevel" stroke-miterlimit="10" x1="37.8" y1="218" x2="10.8" y2="200"/>
<line fill="none" stroke="#FFCC99" stroke-width="4" stroke-linejoin="bevel" stroke-miterlimit="10" x1="55.8" y1="137" x2="82.8" y2="155"/>
<line fill="none" stroke="#FFCC66" stroke-width="4" stroke-linejoin="bevel" stroke-miterlimit="10" x1="55.8" y1="128" x2="82.8" y2="110"/>
<line fill="none" stroke="#FFCC33" stroke-width="4" stroke-linejoin="bevel" stroke-miterlimit="10" x1="37.8" y1="128" x2="10.8" y2="110"/>
<line fill="none" stroke="#FFFF99" stroke-width="4" stroke-linejoin="bevel" stroke-miterlimit="10" x1="37.8" y1="137" x2="10.8" y2="155"/>
<polygon fill="none" stroke="#006699" stroke-width="4" stroke-linejoin="bevel" stroke-miterlimit="10" points="55.8,317 73.8,281 
	91.8,317 "/>
<polygon fill="none" stroke="#0033CC" stroke-width="4" stroke-linejoin="bevel" stroke-miterlimit="10" points="37.8,317 19.8,281 
	1.8,317 "/>
<polygon fill="none" stroke="#000000" stroke-width="4" stroke-linejoin="bevel" stroke-miterlimit="10" points="46.8,326 28.8,362 
	64.8,362 "/>
<polygon fill="none" stroke="#006666" stroke-width="4" stroke-linejoin="bevel" stroke-miterlimit="10" points="55.8,326 91.8,326 
	73.8,362 "/>
<polygon fill="none" stroke="#000066" stroke-width="4" stroke-linejoin="bevel" stroke-miterlimit="10" points="1.8,326 37.8,326 
	19.8,362 "/>
<line fill="none" stroke="#000000" stroke-width="4" stroke-linejoin="bevel" stroke-miterlimit="10" x1="46.8" y1="326" x2="46.8" y2="362"/>
<line fill="none" stroke="#006666" stroke-width="4" stroke-linejoin="bevel" stroke-miterlimit="10" x1="55.8" y1="326" x2="82.8" y2="344"/>
<line fill="none" stroke="#000066" stroke-width="4" stroke-linejoin="bevel" stroke-miterlimit="10" x1="10.8" y1="344" x2="37.8" y2="326"/>
<line fill="none" stroke="#006699" stroke-width="4" stroke-linejoin="bevel" stroke-miterlimit="10" x1="55.8" y1="317" x2="82.8" y2="299"/>
<line fill="none" stroke="#0033CC" stroke-width="4" stroke-linejoin="bevel" stroke-miterlimit="10" x1="37.8" y1="317" x2="10.8" y2="299"/>
<polygon fill="none" stroke="#000000" stroke-width="4" stroke-linejoin="bevel" stroke-miterlimit="10" points="28.8,2 64.8,2 
	46.8,38 "/>
<polygon fill="none" stroke="#990000" stroke-width="4" stroke-linejoin="bevel" stroke-miterlimit="10" points="55.8,38 73.8,2 
	91.8,38 "/>
<polygon fill="none" stroke="#993300" stroke-width="4" stroke-linejoin="bevel" stroke-miterlimit="10" points="37.8,38 19.8,2 
	1.8,38 "/>
<polygon fill="none" stroke="#CC6600" stroke-width="4" stroke-linejoin="bevel" stroke-miterlimit="10" points="1.8,47 37.8,47 
	19.8,83 "/>
<polygon fill="none" stroke="#FF3300" stroke-width="4" stroke-linejoin="bevel" stroke-miterlimit="10" points="55.8,47 91.8,47 
	73.8,83 "/>
<line fill="none" stroke="#000000" stroke-width="4" stroke-linejoin="bevel" stroke-miterlimit="10" x1="46.8" y1="2" x2="46.8" y2="38"/>
<line fill="none" stroke="#FF3300" stroke-width="4" stroke-linejoin="bevel" stroke-miterlimit="10" x1="55.8" y1="47" x2="82.8" y2="65"/>
<line fill="none" stroke="#990000" stroke-width="4" stroke-linejoin="bevel" stroke-miterlimit="10" x1="55.8" y1="38" x2="82.8" y2="20"/>
<line fill="none" stroke="#993300" stroke-width="4" stroke-linejoin="bevel" stroke-miterlimit="10" x1="37.8" y1="38" x2="10.8" y2="20"/>
<line fill="none" stroke="#CC6600" stroke-width="4" stroke-linejoin="bevel" stroke-miterlimit="10" x1="37.8" y1="47" x2="10.8" y2="65.5"/>
</svg>
