<?xml version="1.0" encoding="utf-8"?>
<!-- Generator: Adobe Illustrator 15.0.0, SVG Export Plug-In  -->
<!DOCTYPE svg PUBLIC "-//W3C//DTD SVG 1.1//EN" "http://www.w3.org/Graphics/SVG/1.1/DTD/svg11.dtd" [
	<!ENTITY ns_flows "http://ns.adobe.com/Flows/1.0/">
]>
<svg version="1.1"
	 xmlns="http://www.w3.org/2000/svg" xmlns:xlink="http://www.w3.org/1999/xlink" xmlns:a="http://ns.adobe.com/AdobeSVGViewerExtensions/3.0/"
	 x="0px" y="0px" width="400px" height="500px" viewBox="0 0 400 500" overflow="visible" enable-background="new 0 0 400 500"
	 xml:space="preserve">
<defs>
</defs>
<rect fill="#660033" width="400" height="500"/>
<path fill="#333333" d="M308,385.6c-10.5-4.3-12.6-9.2-19.8-20.6c-7.2-11.4-17.2-16.2-17.2-16.2s-147-9-158-4.4s-9.4,15.8-13.8,30.4
	c-3.7,12.4-77.5,44-99.2,53.1V500h400v-67.9C379.1,412.5,317.1,389.3,308,385.6z"/>
<path d="M89.2,412.4c0,0,16.4,27.6,22.8,34.8s17.2,23.6,20,23.6s11.6,2.4,20,0c8.4-2.4,22.5-9.2,22.5-9.2s-15.6,11.7-31.5,15
	s-22.5-0.6-28.2-8.7C109.1,459.8,89.2,412.4,89.2,412.4z"/>
<path fill="#444444" d="M303.2,385.6c3.3,26.8,24,11.2,36.4,44.8C336,416.4,330.8,394.8,303.2,385.6z"/>
<path d="M288.2,452.8c0,0,12.6-16.4,31.2-14c18.6,2.4,17.8,13.6,17.8,13.6s-20.4,2-26-3.2C305.6,444,288.2,452.8,288.2,452.8z"/>
<path d="M124,344.4c0,0-15.2,3.6,0,24.8S124,344.4,124,344.4z"/>
<path d="M246,500c0,0,10.2-17.1,14.2-22.2c4-5.1-24.2-12-24.2-12s14.6,10,14.6,13s-9.8,16-9.8,21.2H246z"/>
<path fill="#999999" d="M253.8,500c0,0,0.2-3.8,3.6-3.8c3.4,0,3.2,3.8,3.2,3.8"/>
<path d="M176.9,460.1c0,0,12.9-8.3,20.7-7.3s18,13,18,13s-9.9,10.5-23.4,5.7C178.7,466.7,176.9,460.1,176.9,460.1z"/>
<path d="M271,356c0,0,10.6,12.3,10.6,16.5c0,4.2-3.1,13.6-3.1,13.6h-14.9L271,356z"/>
<path fill="#666666" d="M271,327.4v51.4c0,0,19.4,14.4,17,35.2c-0.5,4.5-5.4,11.5-7.6,20.4c-1.8,7.6,2.8,15.3-4.4,21.6
	c-9.9,8.6-16.4,22.8-16.4,22.8s-34-23.8-53.5-30.2c-6.9-2.2-13.6-5.7-17.9-8.2c-24.6-14.4-55.6-52.2-64.2-70v-47.5"/>
<path fill="#666666" d="M170.1,356.2c0,0,20,8.6,45.8,7.1c25.8-1.5,52.5-33.9,52.5-33.9c-20.9,35.3-49.9,40.7-49.2,43.5
	c0.8,2.8,31.2-5.1,47.1-21.8c-10.5,19.3-25.7,25.3-25.7,25.3l-38.1,1l-32.4-14.8V356.2z"/>
<path fill="#333333" d="M124.8,324.2c0,0,8.1,36.7,50.1,47.9c41.9,11.2,65.7,4.4,65.7,4.4s-51.4,3.6-77-26.8
	C138,319.2,124.8,324.2,124.8,324.2z"/>
<path fill="#999999" d="M203,380c28.2-0.2,40.2,0.6,43.2,12c3,11.4-8.4,29.4-8.4,29.4s31.8-8.4,36,0S248,465.8,248,465.8
	s-61.8-24-64.8-34.2s20.4-4.8,20.4-4.8s-25.2-15-25.2-28.2S188.6,380.1,203,380z"/>
<path id="hair_1_" d="M106,234.8c0,0-16.3-42.6-16.3-63.6s6.9-36.3,6.9-41.1c0-4.8-2.4-10.2-2.4-13.2s6-1.5,6-5.4
	s-6.3-12.9-6.3-15.9s4.5-3.9,6.6-9.9s-2-18.5,3.2-25.7c5.2-7.2,17.6-3.2,20.4-6.4c2.8-3.2,1.6-10.4,4.4-12.4s7.2,1.2,10.8,0
	C142.9,40,156,24,170.1,24.4c14,0.4,20.4,5.2,27.2,4.8c6.8-0.4,13.1-14.4,20.7-14.8s6.8,6.4,9.6,6.4c2.8,0,8.4-4,12.8-2.4
	c4.4,1.6,9.6,18.8,14,21.2c4.4,2.4,9.6,2,14.4,6s4.8,14.4,7.6,16.4c2.8,2,12-7.2,20.4,0c8.4,7.2,6,12.4,6.4,15.6
	c0.4,3.2,10.4,3.6,13.6,6.4c3.2,2.8,6,22,6,22s-3.6-6.7-10-13.7c-6.4-7.1-7.4,2.3-6,5.3c3,6.6,8,12.4,8.4,16
	c0.4,3.6,7.2,12.8,7.6,14.8c0.4,2-7.6-1.2-8,8.4c-0.4,9.6,2,33.2-2,45.6s-2.4,12.7-2.4,16.7s-1.9,28.6-0.8,50.2"/>
<path fill="#CCCCCC" d="M176,96.8c0,0,20.4-6,37.8-4.2c17.4,1.8,27.6,13.2,32.4,15c4.8,1.8,16.8,4.8,24,19.8s0,33.6,3.6,40.8
	c3.6,7.2,19.8,44.4,19.2,67.8s-8.4,78.6-27,97.8c-18.6,19.2-32.4,31.8-61.8,31.2c-6-0.1-12.4-1.1-18.9-2.7
	c-25.7-6.4-77.7-92.7-78.9-107.1c-1.2-14.4,36.8-129.1,46.9-130.8c3.5-0.6,6.7-1.7,8.9-3.6C170.6,113.6,176,96.8,176,96.8z"/>
<path fill="#666666" d="M153.3,124.4c0,0,1.1,43.2,3.1,49.8c2,6.6,16,7.4,16,7.4s3.2,2.9,6,7.6c2.8,4.8-29.2-7.4-36.8-6.8
	s-3.4,7.9-3.4,7.9s3.4,8.5,5.8,11.3c2.4,2.8-12.8,13.2-12.8,13.2s-12.8,28-4,56.4c8.8,28.4,17.5,51.2,24.1,52c0.7-6,2.3-14,5.9-14.4
	c3.6-0.4,19.6,38,32.8,38.8s44-4.4,44-4.4s-19.8,19-48.7,19.1l0,0c-25.7-6.4-53.3-23.3-63.3-42.9c-12.6-24.6-14.4-49.8-15.6-64.2
	c-1.2-14.4,0-39.6,3.6-51c3.6-11.4,8.4-19.2,8.4-24.6c0-5.4,0.6-31.2,3.6-38.4c3-7.2,8.4-17.4,8.4-17.4S143.2,126.1,153.3,124.4"/>
<path fill="#CCCCCC" d="M285.6,279.3c0,0,2.8,9.5,11.6,9.5s23.2-23.1,25.6-39.5c2.4-16.4,3.6-27.7,0-34.9c-3.6-7.2-12-9.2-20.4-2.4
	c-8.4,6.8-6.4,14.4-6.4,19.2c0,4.8,0.8,20-5.6,9.2C284,229.6,285.6,279.3,285.6,279.3z"/>
<path fill="#FFFFFF" d="M310.8,217.9c0,0-10.6,13.1-9.4,16.1c1.2,3,7.6,1,8.2,3.8c0.6,2.8,1.2,14.8-3.4,18.8c-4.6,4-5.4,7.6-3.6,9.2
	c1.8,1.6,3.6,2.4,3.6,2.4l9.8-15.3l1.8-26.5L310.8,217.9z"/>
<path fill="#666666" d="M306.2,268.2c0,0,11.4-20.2,10.6-33.8s-6.6-15.2-6.4-18c0.2-2.8,8.7-1.5,9.6,3.2
	C321.8,228.6,320,255.8,306.2,268.2z"/>
<path fill="#999999" d="M294.5,244.1c0,0,1.3,6.3,1.3,8.1s-2.4,8.2,0,8.2c2.4,0,5.4,0.2,7.8-4.4c2.4-4.6,7.8-17.2-7.6-19.8
	C296.1,240.4,295.7,241.1,294.5,244.1z"/>
<path fill="#666666" d="M97.2,209c0,0-16-0.3-17.2,12c-1.2,12.3,1.2,37.8,7.2,51c6,13.2,13.5,21.3,18.8,19.4s4.8-3.8,4.8-3.8
	l4.9-64.9L97.2,209z"/>
<path fill="#333333" d="M93.8,215.9c2.3,1.7-6.3,2.4-7.5,6.9c-1.2,4.5-2.7,16.8-2.7,16.8S81.8,207.2,93.8,215.9z"/>
<path fill="#333333" d="M88.8,259.4c0,0,10.1,17.4,11.6,14.7S92.3,266.3,88.8,259.4z"/>
<path fill="#333333" d="M105.3,266.9c2.9-0.9-4.7-3.7-6.3-12.6C100.2,265.7,101.4,268.1,105.3,266.9z"/>
<path fill="#999999" d="M204.9,231.2c0,0,1.9,6.6,4.9,9.9c3.1,3.3,9.1,3.9,9.1,6.6c0,2.7,0.7,4.6-2.2,5.1c-2.9,0.5-8.9-7.5-13.4-5.4
	s-2.4,12.6-8.4,12.6c-6,0-6.3-0.3-6.3,1.5c0,1.8,24.6,3.9,26.1,0c3.8-9.9,9.9-12.6,9.3-15.6S205,236.6,204.9,231.2z"/>
<path fill="#666666" d="M231.6,262c0,0,18,8,18,12.4s-1.6,6-3.6,6s-1.3-4-4.5-6.8C238.4,270.8,231.6,262,231.6,262z"/>
<path fill="#666666" d="M191,262c0,0-12.6-8.3-12-16.1s8.7-18.6,9.9-28.2c1.2-9.6,2.7-28.4-16.5-36.1c-19.2-7.7-12,5.5-12,5.5
	s18.3,3.6,17.4,22.8c-0.9,19.2-22.1,31.2-18.7,47.7c5.5-8.1,5.5-5.1,5.5-5.1S165.8,275.4,191,262z"/>
<path d="M266.4,198.8c0,0-6.4-18-20-21.6c-13.6-3.6-31.2-5.6-29.6,3.6c0.8,4.7,13.6,0.8,23,2.8C249.2,185.6,259.2,190,266.4,198.8z"
	/>
<path d="M124,201.6c0,0,7.6-21.2,15.6-22.4c8-1.2,32.5-5.7,32.8,2.4c0.4,10-28.8,2.6-32,6.1C137.2,191.2,130.8,200.8,124,201.6z"/>
<path fill="#FFFFFF" d="M135.5,210.2c27-24,39.3-1.5,39.3-1.5s-6.9,3.3-17.7,3.3C146.3,212,135.5,210.2,135.5,210.2z"/>
<path fill="#FFFFFF" d="M250.7,208.1c-24-21.6-37.5,2.1-37.5,2.1s12.6,2.4,20.4,1.8C241.4,211.4,250.7,208.1,250.7,208.1z"/>
<path fill="#333333" d="M240.6,201.2l-7.2-2.1l-7.7,0.8l-1.3,0.5c0,0-3.2,11.8,8.6,11.8c4.8,0,7.4-4.2,7.6-5.8
	C240.8,204.8,240.6,201.2,240.6,201.2z M237.4,206.3c-2.4-0.3-2-4.2,0-4C239.3,202.4,239.8,206.6,237.4,206.3z"/>
<path fill="#333333" d="M166.6,201.1l-8.5-1.9l-8.6,1.9c0,0-0.7,11.4,9,11.3C168.2,212.2,166.6,201.1,166.6,201.1z M162.8,206.9
	c-2.4,0-1.8-4.7,0-4.7C164.6,202.3,165.2,206.9,162.8,206.9z"/>
<path d="M174.7,208.8c-2.4-2.9-5.4-5.3-8.6-6.8c-3.3-1.5-6.9-2.2-10.6-1.7s-7.2,1.8-10.5,3.7c-3.3,1.8-6.4,4-9.4,6.5l-0.1-0.1
	c2.8-2.6,5.7-5.1,9-7.2c3.3-2,6.9-3.7,10.8-4.4c1.9-0.4,4-0.5,6-0.2c2,0.2,4,0.8,5.8,1.8c1.8,1,3.4,2.2,4.7,3.7
	c1.3,1.4,2.5,3.1,3.2,4.9L174.7,208.8z"/>
<path d="M213.1,210.2c0.7-1.7,1.8-3.3,3-4.8c1.2-1.5,2.6-2.8,4.2-3.9c1.6-1.1,3.3-2,5.2-2.5s3.8-0.8,5.7-0.7
	c3.9,0.1,7.5,1.3,10.8,3.1s6.2,4.2,8.8,6.7l-0.1,0.1c-2.8-2.3-5.8-4.5-9.1-6c-3.3-1.6-6.8-2.5-10.3-2.4s-6.8,1.5-9.8,3.3
	c-3,1.9-5.7,4.3-8.1,7.1H213.1L213.1,210.2z"/>
<path d="M174.8,250.4c-4.5,5.6,8.1,6,8.1,6S178.5,245.9,174.8,250.4z"/>
<path d="M200,256.4c0,0,2.3-9.1,6.6-6.7C216.7,255.2,200,256.4,200,256.4z"/>
<circle cx="232" cy="204.6" r="3.9"/>
<circle cx="158" cy="204.7" r="3.9"/>
<path fill="#666666" d="M188.6,288.8c0,0-29.8,0.4-36.2-4.6S183.6,288.8,188.6,288.8z"/>
<path fill="#999999" d="M204,288.1c0,0,32.1-2.3,31.1-5.8C234.3,279.7,207.9,287.7,204,288.1z"/>
<g>
	<defs>
		<path id="SVGID_5_" d="M158,284.4c0,0,5.4,14,31.8,14c26.4,0,36.8-14,36.8-14"/>
	</defs>
	<clipPath id="SVGID_6_">
		<use xlink:href="#SVGID_5_"  overflow="visible"/>
	</clipPath>
	<path clip-path="url(#SVGID_6_)" fill="#AAAAAA" d="M158,284.4c0,0,5.4,14,31.8,14c26.4,0,36.8-14,36.8-14"/>
</g>
<g>
	<defs>
		<path id="SVGID_4_" d="M158,284.4c0,0,5.4,14,31.8,14c26.4,0,36.8-14,36.8-14"/>
	</defs>
	<clipPath id="SVGID_7_">
		<use xlink:href="#SVGID_4_"  overflow="visible"/>
	</clipPath>
	<path clip-path="url(#SVGID_7_)" fill="#BBBBBB" d="M202.7,296.3c0,0-3-7.5,2.4-7.5c5.4,0,5.4,5.1,5.4,5.1S210.5,309.7,202.7,296.3
		z"/>
</g>
<g>
	<defs>
		<path id="SVGID_3_" d="M158,284.4c0,0,5.4,14,31.8,14c26.4,0,36.8-14,36.8-14"/>
	</defs>
	<clipPath id="SVGID_8_">
		<use xlink:href="#SVGID_3_"  overflow="visible"/>
	</clipPath>
	<path clip-path="url(#SVGID_8_)" fill="#999999" d="M182.9,302.3c0,0-9.2-4.2-9.1-15.1c0.1-11-24.4-8.9-24.4-8.9
		S162.2,326,182.9,302.3z"/>
</g>
<g>
	<defs>
		<path id="SVGID_2_" d="M158,284.4c0,0,20.2-4.8,24.9-4.8c4.7,0,6,0.9,7.2,0.9c1.2,0,26.3-3.1,36.5,3.9c0,0-20.8,4.4-34.3,4.4
			S158,284.4,158,284.4z"/>
	</defs>
	<clipPath id="SVGID_9_">
		<use xlink:href="#SVGID_2_"  overflow="visible"/>
	</clipPath>
	<path clip-path="url(#SVGID_9_)" fill="#888888" d="M158,284.4c0,0,20.2-4.8,24.9-4.8c4.7,0,6,0.9,7.2,0.9c1.2,0,26.3-3.1,36.5,3.9
		c0,0-20.8,4.4-34.3,4.4S158,284.4,158,284.4z"/>
</g>
<g>
	<defs>
		<path id="SVGID_1_" d="M158,284.4c0,0,20.2-4.8,24.9-4.8c4.7,0,6,0.9,7.2,0.9c1.2,0,26.3-3.1,36.5,3.9c0,0-20.8,4.4-34.3,4.4
			S158,284.4,158,284.4z"/>
	</defs>
	<clipPath id="SVGID_10_">
		<use xlink:href="#SVGID_1_"  overflow="visible"/>
	</clipPath>
	<path clip-path="url(#SVGID_10_)" fill="#777777" d="M191,288.8c0,0-18.7-12.6-32.3-6C145.1,289.4,191,288.8,191,288.8z"/>
</g>
<path fill="#666666" d="M144.5,282.2c-2.4,0.6-3.9-9.3,0-12.9c3.9-3.6,13.9-3,13.5,0s-7.6,3.8-8.6,5.2
	C148.4,275.9,146.9,281.6,144.5,282.2z"/>
</svg>
