<?xml version="1.0" encoding="utf-8"?>
<!-- Generator: Adobe Illustrator 15.0.0, SVG Export Plug-In  -->
<!DOCTYPE svg PUBLIC "-//W3C//DTD SVG 1.1//EN" "http://www.w3.org/Graphics/SVG/1.1/DTD/svg11.dtd" [
	<!ENTITY ns_flows "http://ns.adobe.com/Flows/1.0/">
]>
<svg version="1.1"
	 xmlns="http://www.w3.org/2000/svg" xmlns:xlink="http://www.w3.org/1999/xlink" xmlns:a="http://ns.adobe.com/AdobeSVGViewerExtensions/3.0/"
	 x="0px" y="0px" width="900px" height="1300px" viewBox="415.385 213.934 900 1300"
	 overflow="visible" enable-background="new 415.385 213.934 900 1300" xml:space="preserve">
<defs>
</defs>
<rect x="415.385" y="213.934" display="none" fill="#993366" width="900" height="1300"/>
<g display="none">
	
		<circle display="inline" fill="none" stroke="#996699" stroke-width="1000" stroke-miterlimit="10" stroke-dasharray="60.627,60.627" cx="944.568" cy="899.65" r="366.651"/>
</g>
<g>
	<defs>
		<rect id="SVGID_3_" x="415.385" y="213.934" width="900" height="1300"/>
	</defs>
	<clipPath id="SVGID_4_">
		<use xlink:href="#SVGID_3_"  overflow="visible"/>
	</clipPath>
	<radialGradient id="SVGID_5_" cx="944.5674" cy="899.6514" r="866.6514" gradientUnits="userSpaceOnUse">
		<stop  offset="0.411" style="stop-color:#8C8C8C"/>
		<stop  offset="0.9448" style="stop-color:#323232"/>
	</radialGradient>
	<path clip-path="url(#SVGID_4_)" fill="url(#SVGID_5_)" d="M944.568,1766.303c-116.777,0-230.327-22.983-337.493-68.311
		c-103.26-43.677-195.892-106.097-275.323-185.525c-79.429-79.431-141.85-172.063-185.525-275.323
		c-45.328-107.166-68.311-220.716-68.311-337.493s22.982-230.327,68.312-337.493c43.674-103.26,106.095-195.891,185.525-275.321
		s172.061-141.85,275.321-185.525C714.242,55.982,827.791,33,944.568,33s230.327,22.983,337.493,68.312
		c103.26,43.675,195.891,106.095,275.321,185.524c79.43,79.431,141.85,172.061,185.524,275.321
		c45.329,107.167,68.312,220.716,68.312,337.493s-22.982,230.327-68.311,337.493c-43.676,103.26-106.095,195.891-185.525,275.321
		s-172.062,141.851-275.321,185.525C1174.896,1743.319,1061.346,1766.303,944.568,1766.303z"/>
	<radialGradient id="SVGID_6_" cx="866.6094" cy="865.2246" r="865.9177" gradientUnits="userSpaceOnUse">
		<stop  offset="0.3436" style="stop-color:#FFFFFF"/>
		<stop  offset="0.8405" style="stop-color:#666666"/>
	</radialGradient>
	<path clip-path="url(#SVGID_4_)" fill="url(#SVGID_6_)" d="M796.09,1730.45c-47.573-3.858-95.122-11.712-141.324-23.338
		l179.006-711.3c0.23,0.06,0.461,0.118,0.691,0.176l31.373-125.281L796.09,1730.45z M938.061,1730.368l-70.743-859.711
		l31.836,125.209c0.118-0.029,0.235-0.06,0.354-0.09l179.896,711.074C1033.2,1718.54,985.646,1726.452,938.061,1730.368z
		 M518.715,1660.529c-43.677-19.15-86.085-42.104-126.046-68.223l472.418-722.771l-52.069,119.139
		c0.074,0.032,0.148,0.064,0.223,0.097L518.715,1660.529z M1215.292,1660.146L920.036,988.71c0.167-0.073,0.333-0.146,0.5-0.22
		l-52.451-118.89l473.112,722.228C1301.286,1617.974,1258.925,1640.959,1215.292,1660.146z M279.977,1504.614
		c-34.95-32.143-67.484-67.413-96.7-104.834l578.035-451.284c0.138,0.178,0.276,0.354,0.414,0.532l103.292-80.839l-88.676,96.647
		c0.009,0.009,0.019,0.018,0.028,0.026L279.977,1504.614z M1453.769,1504.055L956.857,964.78c0.085-0.078,0.17-0.156,0.255-0.235
		l-89.008-96.368l103.574,80.506c0.073-0.094,0.146-0.188,0.219-0.281l578.484,450.707
		C1521.202,1436.562,1488.695,1471.871,1453.769,1504.055z M104.88,1280.216c-22.816-41.983-42.268-86.162-57.816-131.307
		l693.524-238.847c0.012,0.034,0.023,0.068,0.036,0.103l86.82-30.015l36.764-12.662l-0.272,0.046l0.892-0.309l-0.248,0.135
		l1.156-0.392l-0.013-0.002l0.37-0.209l-0.052-0.027l0.109-0.061l-0.001-0.013l0.007,0.005l0.001-0.003l0.091,0.075l0.007-0.002
		l0.048-0.062l0.011,0.042l0.007-0.003l-0.005,0.012l0.01,0.038l0.006-0.002l-0.005,0.006l0.01,0.041l0.125,0.097l-0.035,0.038
		l-0.064-0.034l0.021,0.082l-0.007,0.008l-0.011,0.087l0.019-0.064v-0.003l0.087-0.015l-0.03-0.088l0.105,0.068l0.11-0.079
		l-0.096-0.11l-0.095,0.104l-0.069-0.16l0.088,0.102l-0.031,0.098h0.222l-0.026-0.104l0.098-0.032l-0.069,0.126l0.139-0.125
		l-0.036-0.047l0.044,0.01l0.003-0.011l-0.021-0.048l0.03,0.01l0.009-0.036l0.247,0.053l0.293-0.068v0.008v0.009v0.256h-0.391
		l0.082-0.068l-0.036-0.046l0.024,0.004l0.337,0.149l-0.032-0.043l0.066,0.004h0.132l0.962,0.369l-0.259-0.12l1.055,0.37
		l-0.299-0.044l817.382,280.421c-15.509,45.207-34.931,89.449-57.726,131.497L868.764,867.469l-0.941-0.154l1.585,1.234
		l-1.842-0.995l0.09,0.137l-0.162-0.176l-0.476-0.334l-0.066-0.149l-0.011,0.021l0.257,0.12l0.188-0.006v0.019l-0.249-0.022
		l-0.284-0.057l-0.047-0.041l-0.081,0.009l0.054-0.069l-0.021-0.014l0.039-0.103l-0.093,0.049l-0.031-0.032l-0.083,0.094
		l0.034,0.017l-0.003-0.064l0.067-0.018h-0.006l-0.068,0.034l-0.056,0.093l-0.054-0.047l-0.119,0.069v-0.149h0.048l-0.006,0.078
		l0.005,0.035l-0.023,0.015l0.004,0.024l-0.218,0.103l-0.003-0.032l-0.044-0.047l0.031-0.176h-0.001l-0.104,0.293l-0.439,0.267
		l-0.124,0.148l0.068-0.098l-1.939,1.06l1.667-1.3l-0.9,0.151L104.88,1280.216z M11.744,1009.687
		C3.951,962.967,0.055,915.182,0,867.657l733.385-0.836v0.644l128.392-0.433l-126.687,21.282c0.039,0.233,0.059,0.466,0.099,0.699
		L11.744,1009.687z M1721.567,1008.636L997.994,888.861c0.061-0.346,0.118-0.693,0.176-1.04L871.456,867l861.759-2.903l0.004,2.553
		C1733.219,914.157,1729.299,961.928,1721.567,1008.636z M866.569,871.688l-0.245-2.934l0.252-1.01l0.234,0.92L866.569,871.688z
		 M865.594,869.363l0.247-0.981l0.209-0.321l-0.026,0.32L865.594,869.363z M867.484,869.205l-0.352-0.802l-0.024-0.293l0.162,0.247
		L867.484,869.205z M868.302,868.675l-1.119-1.215l0.656,0.511L868.302,868.675z M864.875,868.628l0.434-0.665l0.635-0.497
		L864.875,868.628z M865.438,866.403l-0.614-0.331l0.851,0.291L865.438,866.403z M866.475,866.229l-0.026-0.015l0.021-0.034
		l-0.072-0.012l0.063-0.25l-0.065-0.146l0.073,0.111l0.088-0.347l0.093,0.368l0.071-0.109l-0.062,0.143l0.063,0.249l-0.048,0.009
		l0.013,0.02l-0.067-0.011l-0.03,0.005l-0.042-0.017l-0.011,0.025L866.475,866.229z M866.963,866.185l0.086-0.153l-0.098-0.504
		l0.161-0.29l-0.069,0.706l0.244-1.006l0.772-1.188l-0.942,2.143l0.037-0.029l-0.133,0.172l-0.043,0.11l0.247-0.101l0.159,0.049
		v-0.015L866.963,866.185z M866.326,866.148l-0.115-0.062l-0.003,0.037l-0.059-0.064l0.018,0.072l-0.037-0.006l-0.142-0.239
		l0.056,0.043l-0.921-2.094l0.75,1.143l0.202,0.794l-0.046-0.558l0.225,0.342l-0.041,0.505L866.326,866.148z M869.19,865.772
		l123.373-42.488c-0.022-0.065-0.046-0.13-0.068-0.195l693.242-239.666c15.619,45.177,27.558,92.002,35.484,139.172L869.19,865.772z
		 M863.918,865.761L11.403,725.676c7.757-47.205,19.528-94.08,34.987-139.318l783.906,267.869L863.918,865.761z M866.261,865.467
		l-0.26-0.589l-0.191-2.294l0.519,2.051L866.261,865.467z M866.887,865.417l-0.074-0.897l0.483-1.921l-0.184,2.303L866.887,865.417z
		 M869.48,864.698l679.748-531.98c29.351,37.502,55.774,77.7,78.541,119.476l-644.021,350.96c-0.077-0.143-0.154-0.286-0.231-0.428
		L869.48,864.698z M863.58,864.66l-114.026-61.814c-0.128,0.236-0.256,0.473-0.382,0.71L103.958,454.787
		c22.635-41.874,48.938-82.18,78.178-119.797L863.58,864.66z M864.828,864.629L278.618,229.94
		c34.921-32.255,72.763-61.832,112.472-87.911l402.583,613.01c-0.148,0.097-0.297,0.193-0.445,0.29L864.828,864.629z
		 M868.314,864.597l71.472-109.347c-0.233-0.152-0.467-0.303-0.701-0.455l400.523-614.361
		c39.811,25.954,77.763,55.415,112.802,87.564L868.314,864.597z M865.641,864.061L516.895,73.573
		c43.776-19.313,89.479-35.083,135.839-46.869L865.641,864.061z M867.528,863.949l209.854-838.007
		c46.438,11.629,92.23,27.248,136.103,46.422L867.528,863.949z M866.573,861.613l-10.522-127.877
		c-0.331,0.027-0.661,0.056-0.992,0.085L794.048,3.019C818.041,1.016,842.439,0,866.568,0c23.103,0,46.47,0.932,69.45,2.768
		l-58.427,731.011c-0.215-0.019-0.429-0.037-0.644-0.054L866.573,861.613z"/>
</g>
<polygon fill="#CCCCCC" points="699.518,1385.8 887.685,1513.934 450.397,1513.934 "/>
<g id="hair_1_">
	<defs>
		<path id="hair_mask_1_" d="M577.028,705.831c0,0-9.157-52.03,0-77.364s29.156-70,48.49-90s12-9.333,19.333-20
			s7.333-26,14.667-33.333s16.667,2.667,25.334-6s18.667-39.333,26-44s16.667-8.667,23.333-14s8.667-15.334,15.333-20.667
			s30-10,35.333-13.333s13.334-24,26.667-28.667s16-2.667,24.667-4.667s10.667-11.333,19.334-14s12,2,18.667,0
			c6.666-2,11.333-14,26.666-16s22.784,2.667,33.726,0s13.607-5.999,20.941-7.332s14.667,6.667,22.667,6s23.334-7.633,38.667-6.15
			s21.999,8.15,34.666,14.15s19.33,1.999,28.664,3.333s14,8,22.667,14s17.333,8,29.333,14.667s16.666,16.666,24,21.333
			s19.334,6,26.667,11.333s8.667,12,14.667,16.667s16.666,0.667,25.333,8s13.333,16,20,21.334s14.667,8,22,16s8,9.333,14,18
			s12.667,7.693,16.667,14.847s1.332,11.82,6.666,17.82s13.2,13.333,13.2,13.333v493.584L577.028,705.831z"/>
	</defs>
	<clipPath id="hair_mask_2_">
		<use xlink:href="#hair_mask_1_"  overflow="visible"/>
	</clipPath>
	<rect x="538.967" y="316.112" clip-path="url(#hair_mask_2_)" fill="#333333" width="538.934" height="411.824"/>
	<path clip-path="url(#hair_mask_2_)" d="M884.185,489.134c0,0,14.667-20.667,24.667-28.667c9.999-8,7.667-24.333,11.667-28.333
		s14.999-6,16.666-8.333s2.641-6.333,6.987-9.667s7.68-3.666,10.347-6.333s1.001-21,6.334-30.667s16.999-6,18.666-3.333
		s8.334,11,10.334,10.333s3.999-4.333,8.666-7s7.667,1.667,9.667,0.333s1.333-2.333,6-5s9.333,1.416,13.333-1.625
		s2.334-5.375,7.334-11.042s8.333-3.666,11.333-8.333s4-6.667,8-10s12.704-7.688,17.678-7.817s243.521,6.754,243.521,6.754v674.314
		l-237.618-65.995L884.185,527.244V489.134z"/>
</g>
<path id="neck_2_" fill="#8C8C8C" d="M755.289,1430.178c0,0,27.562,73.889,60.229,83.756h184.667l-40-135.466L755.289,1430.178z"/>
<path fill="#464646" d="M1022.852,1513.934h-74.683c0,0-39.317-113.466-73.317-100.799c-34,12.667,93.333-50,93.333-50
	L1022.852,1513.934z"/>
<path fill="#323232" d="M1002.185,1513.934h-26.667c0,0-31.999-103.466-63.333-112.799c-31.333-9.333,72.667-38,72.667-38
	L1002.185,1513.934z"/>
<g id="skin_1_">
	<defs>
		<path id="skin_mask_1_1_" d="M1315.385,1513.934v-109.8l-50.2-11c0,0-25.072-101.126-35-179.5c-9.5-75,14-107.5,14-107.5
			s20.709,6.816,31.6,7.5c23.9,1.5,39.601-21.5,39.601-21.5v-204.5c0,0-11.711-10.716-23.7-10c-33.5,2-58,91-58,91
			s-24.5-40-25.5-53.5s1-93.5-11-116.5s-57.5-81-61.5-102.5s4-47,0-62s-33.5-53.5-35-62.5s-23.5-49.5-85-61s-158-25.5-210-19
			s-73.499,16.167-82.833,18.167s-18.667-3.333-26-1.333s-62.667,38-76.667,69.333s-36.001,95.334-41.334,118.668
			s-10.667,84.667-10.667,84.667s-12.667,8-14,24.667s0.667,40.667,4.667,53.334c4,12.666,13.333,20.666,13.333,38
			c0,17.333-14,90.666-13.333,121.333s11.999,91.334,26.666,130.667s33.334,75.998,39.334,87.331s23.333,43.333,26.667,50
			s18.667,33.999,20,39.333s12,34.001,16,42.001s8.667,39.999,54.667,57.999s102.667,9.999,120.667,1.999
			c18-8,22.333-12.666,41.333-14.666s36-3,48,11s31,41,34,54s10,35.8,10,35.8H1315.385z"/>
	</defs>
	<clipPath id="skin_mask_1_2_">
		<use xlink:href="#skin_mask_1_1_"  overflow="visible"/>
	</clipPath>
	<rect x="532.185" y="489.981" clip-path="url(#skin_mask_1_2_)" fill="#8C8C8C" width="500" height="934.023"/>
	<path clip-path="url(#skin_mask_1_2_)" fill="#CCCCCC" d="M564.185,901.549c0,0,22-0.415,25,7.585s6,42,29,42s50.667-12,59.833-9
		s44.407,3,47.787-5s-2.301-40,9.54-40s33.185,6,24.013,27s-51.172,150-59.172,155s-15.599,25-37.299,6s-26.299-11-31-4
		s12.701,36.008,31,42.004s34.299,13.996,32.299,27.996s11.094,29.742,9.547,38.371c-0.773,4.314-13.895,28.952-26.713,29.781
		c-12.818,0.828-25.333-22.152-25.333-22.152s-2.099-38-20.799-28s-17.701,12.002-22.701,40.001s-71-140.711-71-140.711
		L564.185,901.549z"/>
	<path clip-path="url(#skin_mask_1_2_)" fill="#464646" d="M1134.185,437.134l-243,40c0,0-17,127-11,174s32,143,32,143
		s-142,43-141,75s16,56,16,71s-40,68-32,81s66.419,6,68.209,21s-19.209,46-14.209,62s-29,23-36,31s6,31,6,44s-27.115,110-25.058,126
		s35.058,29,31.058,53s-65,17-68,32s9,82,9,82l418-61L1134.185,437.134z M912.185,1111.134c-67-13-72.972-217.22-72.972-217.22
		l144.972-74.78l13,90c0,0-15.464,52.58-12,66s37,11,38,32S979.185,1124.134,912.185,1111.134z"/>
	<path clip-path="url(#skin_mask_1_2_)" fill="#323232" d="M953.272,483.745c0,0-23.999,109.495-14.999,158.992
		s44.998,139.493,44.998,139.493L804.78,831.729c0,0-21,45.316-7.5,77.405s12.904,30.666,27.571,29.333s2-38,8.667-43.333
		s20,7.333,25.333,2.667c5.333-4.667,45.001-40,66.334-40.667c14.385-0.449,42.406-6.09,47,7.667
		c0.949,2.843-17.234,7.132-16.661,11.783c0.767,6.22-5.288,43.16-4.09,50.115c0.717,4.163,14.399,4.18,15.417,7.436
		c1.045,3.339-3.101,9.537-1.808,12.052c7.059,13.729,17.309,16.142,25.141,17.948c13,3,106-22,106,10s-39,109-63,131s-64,30-74,58
		s13,43,10,65s-13,38-35,35s-54-36.275-99,0.362s-32,44.638-26,50.638s49.593,8.07,49.593,24.569s-59.997,26.998-59.997,55.497
		s0.404,119.733,0.404,119.733h516.2V483.745H953.272z"/>
	<path clip-path="url(#skin_mask_1_2_)" fill="#1E1E1E" d="M1105.696,582.195c0,0,9.568,179.037,15.568,213.535
		s38.998,137.994,38.998,155.993s-6.25,83.414-25.498,104.081s-101.249,96.667-107.915,120.667s-33.665,126.663-49.665,133.663
		s-50,46-71,63s-74,19-89,30s-21,39-18,45s180.164,65.8,180.164,65.8l336.036,4.2v-904L1105.696,582.195z"/>
	<path clip-path="url(#skin_mask_1_2_)" fill="#FFFFFF" d="M628.185,1077.134c0,0,21.5-7.5,30-6.5s21,6.5,30-2.5s14-33.5,23.5-56
		s15.5-36,11-37.5s-40.5,52-49,60S626.685,1049.634,628.185,1077.134z"/>
	<path clip-path="url(#skin_mask_1_2_)" fill="#FFFFFF" d="M640.852,994.467c11.61-7.936,37.333-30.666,43.333-26.666
		s-2.667,48-14,53.333s-74,33.334-81.333,22.667S634.779,998.617,640.852,994.467z"/>
	<path clip-path="url(#skin_mask_1_2_)" fill="#FFFFFF" d="M550.185,964.467c0,0,60-22,64.667-7.333s-61.078,67.333-61.078,67.333"
		/>
	<path clip-path="url(#skin_mask_1_2_)" fill="#CCCCCC" d="M786.667,461.247c0,0,63.333,115.494,57.972,178.491
		s-21.86,122.09-65.358,130.042s-71.188,17.547-114.34,0s13.077-270.311,13.077-270.311L786.667,461.247z"/>
	<path clip-path="url(#skin_mask_1_2_)" fill="#FFFFFF" d="M585.792,798.729c0,0,136.493-25.499,149.992-131.993
		s-25.499-161.519-34.498-176.755S576.792,591.74,576.792,591.74l-40.498,206.99H585.792z"/>
	<path clip-path="url(#skin_mask_1_2_)" fill="#CCCCCC" d="M870.685,926.698c-13.356,10.422,35.5,69.436,55.5,51.436
		S889.185,912.263,870.685,926.698z"/>
	<path clip-path="url(#skin_mask_1_2_)" fill="#CCCCCC" d="M888.111,914.72c0,0,50.999,33.747,62.536,27.747
		s-7.365-19.331-7.365-19.331l-36.969-14.002L888.111,914.72z"/>
	<path clip-path="url(#skin_mask_1_2_)" fill="#CCCCCC" d="M658.795,1204.053c0,0,21.39-10.177,24.057-14.548
		s5.333-13.037,12.333-13.704s20.907,17.296,30.62,17.314s16.379-18.019,28.046-17.333s11.708,14.845,11.708,14.845l-23.375,33.174
		L658.795,1204.053z"/>
	<path clip-path="url(#skin_mask_1_2_)" fill="#6E6E6E" d="M725.805,1152.134c14.64,0,28.093,37.371,0,38.808
		C701.451,1192.187,712.791,1152.134,725.805,1152.134z"/>
	<path clip-path="url(#skin_mask_1_2_)" fill="#CCCCCC" d="M565.685,886.32c0,0,18.479-15.535,15.49-50.611s-38.49,0-38.49,0
		L565.685,886.32z"/>
	<path clip-path="url(#skin_mask_1_2_)" fill="#323232" d="M854.851,1068.468c4.576-0.916,10,12.667,9.333,22
		s-34.667,37.334-37.333,32s22.667-17.33,24-26.665S848.184,1069.802,854.851,1068.468z"/>
	<path clip-path="url(#skin_mask_1_2_)" fill="#3C3C3C" d="M732.851,1123.138c4.369,5.885,17.333,5.329,24,5.329
		s29.333-2.667,29.333-8.667s-15.333-11.334-26.667-10.667S729.882,1119.139,732.851,1123.138z"/>
	<path clip-path="url(#skin_mask_1_2_)" fill="#6E6E6E" d="M644.852,1095.78c-4.251,5.689,4,15.354,11.333,18.021
		s19.333,5.955,21.333,4.978s-2-18.352-12-22.998S648.852,1090.427,644.852,1095.78z"/>
	<path clip-path="url(#skin_mask_1_2_)" d="M823.517,834.467c1.158,10.088,25.333,13.333,33.333,8s54.001-23.333,70.667-25.333
		s70.667-10.667,90,0s45.332,24,54.666,16s16-48-54-60.667S818.85,793.801,823.517,834.467z"/>
</g>
<path fill="#1E1E1E" d="M957.185,876.4c0,0,50.334-8.268,67-6.934s34.332,15.667,34.666,23.334
	c0.334,7.666-2.332,15.333-13.666,18.666s-41.636,5.886-41.636,5.886"/>
<path fill="#505050" d="M909.204,915.422c0,0-2.02,7.712-9.02,7.212s-9-19.594-7.5-29.297s35.5-24.016,57.963-23.08
	C989.843,871.889,909.204,915.422,909.204,915.422z"/>
<path fill="#3C3C3C" d="M894.969,889.199c0,0-35.451,15.268-35.451,21.935s35.451,6.257,35.451,6.257"/>
<g>
	<defs>
		<path id="SVGID_2_" d="M901.685,895.134c-7.103,5.464-5.146,20.641,3.5,20.5c4.249-0.069,9.5-1,17,0s23,12,47,11
			s34.6-9.3,44.5-15.718c4.492-2.912,18.5-10.782,18.5-10.782s-13.762-8.815-18.5-11.5c-15.002-8.499-27.949-14.36-68-11.5
			C917.685,879.134,911.104,887.887,901.685,895.134z"/>
	</defs>
	<clipPath id="SVGID_7_">
		<use xlink:href="#SVGID_2_"  overflow="visible"/>
	</clipPath>
	<path clip-path="url(#SVGID_7_)" fill="#CCCCCC" d="M899.185,889.634c0,0,2.5,21.5,7.5,30s57,33.5,57,33.5s61-13,51.5-69.5
		S899.185,889.634,899.185,889.634z"/>
	<circle clip-path="url(#SVGID_7_)" cx="968.185" cy="890.634" r="29"/>
	<circle clip-path="url(#SVGID_7_)" fill="#6E6E6E" cx="950.647" cy="883.134" r="7.038"/>
</g>
<path fill="#1E1E1E" d="M864.241,1206.406c0,0,50.033-28.469,56.611,0c8.667,37.508-44.098,30.725-44.098,30.725"/>
<path fill="#6E6E6E" d="M660.854,1209.135c0,0-6.909,75.332,43.877,87.999s111.532-11.899,121.923-18.13
	s20.603-60.538,20.603-60.538L660.854,1209.135z"/>
<path fill="#3C3C3C" d="M885.08,1216.71c0,0-58.229-12.242-70.895-16.242s-30-12.667-44.667-10.667s-32,16.667-34,28.667
	s13.333,29.334,40,24.667S865.08,1232.71,885.08,1216.71z"/>
<path fill="#3C3C3C" d="M832.673,1232.313c0,0,0.005,23.487-13.908,30.82s-31.915,19.332-32.581,24.666s43.108,11.25,98.896-68.514
	C800.2,1222.856,832.673,1232.313,832.673,1232.313z"/>
<path fill="#AAAAAA" d="M666.851,1230.185c-6.97,6.153,3.186,59.684,63.333,59.604s57.32-22.547,55.994-30.268
	S681.518,1217.236,666.851,1230.185z"/>
<path fill="#FFFFFF" d="M688.184,1260.466c6.908,4.836,43.077,6.609,44.346-6s-18.579-14.733-29.156-18.432
	s-23.521-8.902-25.355-3.568S674.851,1251.132,688.184,1260.466z"/>
<path fill="#FFFFFF" d="M751.518,1247.146c-10,0.654-5.333,26.654,4.667,24.654S761.518,1246.491,751.518,1247.146z"/>
<path fill="#6E6E6E" d="M660.854,1209.135c0,0,27.33-16.666,40.664-16s32.543,13.12,40.271,13.227s46.292,38.737,21.677,37.422
	S686.857,1242.469,660.854,1209.135z"/>
<path fill="#323232" d="M887.685,1218.634c0,0-65,16.5-81,15.5s9.94-32.5,19.97-31.5S879.685,1210.634,887.685,1218.634z"/>
<path fill="#6E6E6E" d="M664.941,1206.761c0,0-10.757-3.127-12.257-9.627s-3.5-20.5-15-16s-3.988,43.855,6.006,46.178
	s25.994-3.678,25.994-3.678L664.941,1206.761z"/>
<path d="M1248.185,1039.634c-2.062-8.761,9.5-9.5,11.5-15s9.167-22.167,4.5-33.5s-10.667-54.001-2-56.667s15.667,12.334,19,12.334
	s21-8.167,21-4.167s-12.5,4.5-12.5,8.5s25.7,14.5,25.7,14.5v14c0,0-23.7-18-27.2-16s-2,14-2.5,21s-3,26.5,0,28.5s29.7-6,29.7-6v11.5
	c0,0-27.2,0.5-29.7,7s-7,21-15,22S1250.185,1048.134,1248.185,1039.634z"/>
<path fill="#8C8C8C" d="M654.747,950.068c0,0-12.229,24.732-10.562,27.065s27-5.097,39.333-20.215s18-18.117,20.667-17.784
	s-2.001,26.333,2.666,30.333s25.667-36.668,25.333-48.834s-9.561-38.091-16.114-41.128
	C709.518,876.468,654.747,950.068,654.747,950.068z"/>
<path fill="#666666" d="M601.174,901.377c0,0-23.656,4.424-23.656-7.576s3.333-16.71,8-17.688s8.667,3.021,12.667,3.021
	s22-8.667,36-8.667s38.667,15.854,38.667,15.854L601.174,901.377z"/>
<path fill="#6E6E6E" d="M625.185,921.801c0,0-19.667,7.334-19,16.667s17.333,15.999,26.667,12.666s56.667-20.667,54.667-42
	S625.185,921.801,625.185,921.801z"/>
<path fill="#6E6E6E" d="M708.184,892.801c0,0,6.5,5.668,10,0c3.5-5.667-4.474-22.167-15.487-25.667s-23.723-2.833-24.118,3.333
	c-0.395,6.167,0,50.167,0,50.167h30.605L708.184,892.801z"/>
<path fill="#AAAAAA" d="M586.198,901.715c0,0,1.653,53.753,29.986,55.086s43.666-9,45.666-11.333s8.333-2.667,8,0
	s-4.641,10.334,0.013,10.334s17.654-14.334,20.987-16.667s23.667-4.667,25-18.667s-3.667-29-7.667-27.667
	c-4,1.334,2.667,16.667-1.333,20.334s-15,6.333-20.667-0.667S586.198,901.715,586.198,901.715z"/>
<path fill="#6E6E6E" d="M639.185,872.884v-12c0,0-19-6.5-21.25-12.75s24-32.25,49.5-9.25s24.25,31.583,24.25,31.583L639.185,872.884
	z"/>
<path fill="#464646" d="M603.185,861.634c0,0,48-4.5,60.5,0s31.5,22.534,35.5,28.5c2.027,3.023,6.5,7.54,0.5,12.04
	s-52.811,2.96-52.811,2.96l15.136-25.067c0,0-1.675-3.933,0-6.433s6.175-3.167,6.175-3.167S661.185,859.384,603.185,861.634z"/>
<g>
	<defs>
		<path id="SVGID_1_" d="M695.185,909.134c0,0-16-34-58.5-33s-35,26-35,28s0.5,23,33.5,22.5S695.185,909.134,695.185,909.134z"/>
	</defs>
	<clipPath id="SVGID_8_">
		<use xlink:href="#SVGID_1_"  overflow="visible"/>
	</clipPath>
	<polygon clip-path="url(#SVGID_8_)" fill="#666666" points="660.851,936.468 668.851,869.321 714.851,909.134 	"/>
	<polygon clip-path="url(#SVGID_8_)" fill="#FFFFFF" points="686.185,921.134 666.185,911.634 644.685,870.134 587.185,886.134 
		583.685,926.643 631.685,930.634 	"/>
	<circle clip-path="url(#SVGID_8_)" fill="#3C3C3C" cx="654.185" cy="893.634" r="25"/>
	<circle clip-path="url(#SVGID_8_)" fill="#CCCCCC" cx="641.685" cy="885.134" r="5.5"/>
</g>
<path fill="#505050" d="M557.85,845.009c6.362,1.972,14.333-10.541,25-9.208s50,3.082,58,9.208s20,14.792,28.667,14.125
	s42-10.667,0-44.667s-97.998-37.345-104.665-35.464c-8.336,2.352-12,13.871-14,32.13C549.7,821.641,549.589,842.449,557.85,845.009z
	"/>
<path fill="#CCCCCC" d="M594.182,878.14c0,0-2.33-3.005-2.664-7.673c-0.333-4.666,1.641-8.03,11.667-8.833
	s14.229-0.167,14.615,3.499C618.185,868.801,597.895,879.658,594.182,878.14z"/>
<path d="M1220.185,1066.134c17.02,5.509,6.5,36,4,45s-23,110.5-33,121.5s-6,84.93-10,99.5s-137.001,83.997-175.001,94.997
	s-56.999-24.997-57.999-29.997s46-25.333,76-50.666c18.393-15.531,57.86-47.29,90-66.334c20.283-12.019,40.194-13.732,42-19.665
	c2.328-7.646,30.041-51.652,44-98.668C1214.216,1114.539,1214.503,1064.294,1220.185,1066.134z"/>
<path fill="#CCCCCC" d="M889.185,880.134c1.406,4.22,18.999-2.333,27.333-5.667c8.334-3.333,37.334-4.666,37.667-11
	s-21.334-8.333-34.667-4.333S887.185,874.134,889.185,880.134z"/>
<path fill="#1E1E1E" d="M875.185,881.506c0,0,25-35.372,75.5-32.372s95.218,28.43,95.218,28.43l-35.059-7.889
	C1010.844,869.675,935.519,821.211,875.185,881.506z"/>
</svg>
