<?xml version="1.0" encoding="utf-8"?>
<!-- Generator: Adobe Illustrator 15.0.0, SVG Export Plug-In  -->
<!DOCTYPE svg PUBLIC "-//W3C//DTD SVG 1.1//EN" "http://www.w3.org/Graphics/SVG/1.1/DTD/svg11.dtd" [
	<!ENTITY ns_flows "http://ns.adobe.com/Flows/1.0/">
]>
<svg version="1.1"
	 xmlns="http://www.w3.org/2000/svg" xmlns:xlink="http://www.w3.org/1999/xlink" xmlns:a="http://ns.adobe.com/AdobeSVGViewerExtensions/3.0/"
	 x="0px" y="0px" width="500px" height="400px" viewBox="0 0 500 400" overflow="visible" enable-background="new 0 0 500 400"
	 xml:space="preserve">
<defs>
</defs>
<rect fill="#D8CCD7" width="500" height="400"/>
<linearGradient id="SVGID_1_" gradientUnits="userSpaceOnUse" x1="73.7451" y1="261.248" x2="448.1858" y2="486.2347">
	<stop  offset="0.1656" style="stop-color:#EFBDB3"/>
	<stop  offset="0.2104" style="stop-color:#E0A9A0"/>
	<stop  offset="0.2651" style="stop-color:#D49890"/>
	<stop  offset="0.3252" style="stop-color:#CC8E86"/>
	<stop  offset="0.4" style="stop-color:#CA8B83"/>
	<stop  offset="0.4681" style="stop-color:#CC8E86"/>
	<stop  offset="0.5229" style="stop-color:#D49890"/>
	<stop  offset="0.5728" style="stop-color:#E0A9A0"/>
	<stop  offset="0.6135" style="stop-color:#EFBDB3"/>
</linearGradient>
<path fill="url(#SVGID_1_)" d="M0,400h500v-2.396c-5.023-15.67-11.104-34.966-12.806-41.77
	c-3.038-12.153-10.329-26.129-27.951-44.966s-103.239-27.329-103.239-27.329l-193.875,18.51c0,0-121.549,44.062-140.994,53.785
	C11.708,360.547,4.709,375.772,0,390.209V400z"/>
<path fill="#EFBDB3" d="M279.99,24.67c121.31,0,105.121,137.327,106.336,151.91c1.215,14.583-21.412,74.742-28.559,99.652
	c-2.135,7.441-4.254,18.837-8.508,29.774c-4.253,10.938-37.065,51.042-44.965,55.903c-7.898,4.861-19.444,13.975-34.635,13.975
	c-15.191,0-34.636-4.253-54.688-23.09c-20.052-18.836-36.458-44.965-36.458-44.965s-2.43-4.254-5.469-15.191
	c-3.128-11.262-4.861-41.927-6.684-45.572c-1.823-3.646-10.33-1.823-12.153-3.039c-1.823-1.215-4.861-15.799-7.899-38.281
	c-1.519-11.241,6.228-25.521,16.178-38.281S148.74,24.67,279.99,24.67z"/>
<path fill="#FFFFFF" stroke="#000000" stroke-width="1.2153" stroke-miterlimit="10" d="M302.168,189.34
	c0,0,11.242-9.115,23.091-8.811c11.849,0.304,26.735,8.811,26.735,8.811s-14.279,9.418-27.039,8.507
	C312.194,196.936,302.168,189.34,302.168,189.34z"/>
<path fill="#FFFFFF" stroke="#000000" stroke-width="1.2153" stroke-miterlimit="10" d="M237.455,182.656
	c0,0-13.976-6.38-22.483-5.469s-16.126,5.599-16.126,5.599s5.189,6.608,17.342,6.429S237.455,182.656,237.455,182.656z"/>
<path fill="none" stroke="#4A3222" stroke-width="1.2153" stroke-miterlimit="10" d="M237.455,175.061c0,0-5.773-3.949-22.787-3.646
	c-17.014,0.304-22.179,9.107-22.179,9.107s10.202,13.869,21.747,14.173c11.545,0.304,27.113-5.476,27.113-5.476"/>
<path fill="#4A3222" d="M288.801,171.398c-1.062-3.499,10.33-13.959,26.128-13.959c15.799,0,49.827,2.734,52.864,4.557
	c3.039,1.823,3.342,5.469,2.432,7.595c-0.912,2.127-27.952-3.038-39.193-2.734c-11.241,0.304-21.268,6.988-27.344,8.507
	S291.838,181.408,288.801,171.398z"/>
<path fill="#4A3222" d="M258.723,165.035c3.683-3.851-17.825-12.558-31.598-12.963c-13.773-0.405-32.407,0.648-36.863,3.362
	s-4.456,5.145-3.646,6.36c0.811,1.215,21.75-2.43,31.535-0.405S249.811,174.352,258.723,165.035z"/>
<path fill="none" stroke="#CA8B83" stroke-width="1.2153" stroke-miterlimit="10" d="M251.431,233.9c0,0-13.368,15.799-9.317,21.875
	s12.558,8.508,12.558,8.508"/>
<path fill="none" stroke="#CA8B83" stroke-width="1.2153" stroke-miterlimit="10" d="M297.611,239.166
	c0,0,9.723,12.153,8.102,17.015c-1.621,4.86-16.981,9.722-16.981,9.722"/>
<path fill="none" stroke="#CA8B83" stroke-width="1.2153" stroke-miterlimit="10" d="M261.152,259.522l-8.506-2.126
	c0,0,3.873-3.039,6.494-1.824c2.619,1.216,8.696,12.153,15.684,12.153c6.988,0,12.457-9.722,16.711-10.026
	c4.253-0.303,4.253-0.303,4.253-0.303l-7.057,2.734"/>
<path fill="#DC7783" d="M234.113,302.049c9.418-2.438,15.495-10.321,22.178-10.321c6.685,0,8.812,1.823,13.369,2.431
	c4.557,0.607,8.506-1.823,12.152-1.215c3.646,0.607,12.387,9.9,20.383,11.057c0,0-18.863,12.771-34.055,12.77
	C249.605,316.77,234.113,302.049,234.113,302.049z"/>
<path fill="none" stroke="#000000" stroke-width="1.2153" stroke-miterlimit="10" d="M228.644,302.665c0,0,21.672-3.95,26.027-3.646
	c4.354,0.303,10.735,3.646,14.989,3.646c4.253,0,4.253-2.751,10.633-1.831c6.381,0.92,29.471,4.262,29.471,4.262"/>
<path fill="#281103" stroke="#000000" stroke-width="1.2153" stroke-miterlimit="10" d="M342.03,184.624
	c-5.034-2.02-11.235-3.953-16.771-4.095c-3.616-0.092-7.175,0.692-10.376,1.827c0,0-1.6,11.926,5.756,14.924v0.003
	c1.395,0.263,2.837,0.459,4.316,0.564c1.595,0.114,3.214,0.066,4.825-0.104C340.222,196.784,342.031,184.625,342.03,184.624
	L342.03,184.624z"/>
<path fill="#281103" stroke="#000000" stroke-width="1.2153" stroke-miterlimit="10" d="M213.122,189.113
	c0.968,0.082,1.99,0.119,3.065,0.103c4.207-0.062,8.05-0.868,11.277-1.894l0,0c2.066-0.599,2.178-7.663,2.178-7.663v-0.001
	c-4.598-1.511-10.342-2.935-14.67-2.471c-2.126,0.228-4.198,0.692-6.109,1.259l-0.128,0.04c0,0,1.018,8.875,4.387,10.624V189.113z"
	/>
<circle cx="218.758" cy="182.356" r="5.426"/>
<circle cx="327.689" cy="186.877" r="6.25"/>
<linearGradient id="SVGID_2_" gradientUnits="userSpaceOnUse" x1="415.2109" y1="256.9873" x2="284.5127" y2="30.6113">
	<stop  offset="0.0112" style="stop-color:#65C196"/>
	<stop  offset="0.7546" style="stop-color:#408B61"/>
	<stop  offset="1" style="stop-color:#123018"/>
</linearGradient>
<path fill="url(#SVGID_2_)" d="M417.924,167.465c-1.215-16.406-12.152-57.726-12.152-57.726s8.506-20.66,1.822-34.028
	s-20.66-23.09-20.66-23.09L367.49,26.493c0,0,18.836,2.431,21.267,9.722s6.077,15.191,6.077,15.191s2.43-21.268-8.508-32.205
	S364.451,0,364.451,0h-26.736c0,0-49.826,27.101-54.688,39.861c-1.016,2.668-3.148,7.223-5.947,12.825l21.139-9.787
	c0,0-7.291,48.003-7.899,67.448c-0.607,19.444-20.659,83.854-20.659,83.854s15.19-32.205,17.621-43.142s18.837-86.893,18.837-86.893
	s20.052,1.215,31.597,30.382c11.545,29.167,30.383,105.729,30.383,105.729l3.967-6.077c0,0-16.728-66.84-14.297-61.371
	c2.43,5.469,27.344,29.167,28.559,43.75c1.215,14.583-28.559,99.652-28.559,99.652l20.052-18.229l-6.076,23.09l20.659-33.42v22.482
	l15.191-13.368l-7.291-17.622l13.367-12.76C413.67,226.406,419.139,183.872,417.924,167.465z"/>
<path fill="none" stroke="#4A3222" stroke-width="1.2153" stroke-miterlimit="10" d="M303.688,182.049
	c0,0,11.545-8.811,23.395-8.203c11.849,0.607,34.939,12.457,34.939,12.457s-15.191,13.064-21.572,13.672"/>
<path opacity="0.3" fill="#FFFFFF" d="M252.646,210c-6.077,15.799-38.874,13.303-53.801,13.032
	c-21.438-0.388-29.244-6.146-35.726-13.032c-6.482-6.887-4.051-32.407-2.431-36.185s32.812-7.16,52.433-6.399
	c19.62,0.761,40.739,6.936,43.979,14.332C260.342,189.145,258.723,194.202,252.646,210z M383.491,214.051
	c-6.493,3.238-17.977,9.723-37.952,8.912c-19.977-0.811-32.171,0-39.645-6.076c-7.473-6.076-10.106-27.069-10.106-27.069
	c0.608-8.984,12.349-24.105,50.435-22.245c38.084,1.861,49.117,5.326,49.066,10.913
	C395.238,184.074,389.983,210.813,383.491,214.051z"/>
<path d="M395.289,178.486c-0.051,5.588-5.306,32.327-11.798,35.564c-6.493,3.238-17.977,9.723-37.952,8.912
	c-19.977-0.811-32.171,0-39.645-6.076c-7.473-6.076-10.106-27.069-10.106-27.069c0.608-8.984,12.349-24.105,50.435-22.245
	c25.254,1.234,38.609,3.173,44.73,5.969c0.469-1.478-2.123-8.855-4.55-8.917c-10.448-0.267-39.073-0.881-48.688,0.105
	c-11.849,1.215-35.838,5.469-40.402,7.899c-4.562,2.43-9.728,5.292-18.842,5.077c-9.115-0.216-22.18-4.65-29.471-8.965
	c-7.292-4.315-56.51-6.925-70.486-5.834c-14.542,1.135-34.939,5.834-34.939,5.834v8.356c0,0,5.998,2.557,6.38,6.06
	c0.382,3.503,6.988,28.361,12.457,32.31s12.153,10.938,41.623,11.241c29.471,0.304,44.965-3.038,48.612-7.595
	c3.645-4.559,8.506-10.938,10.025-16.104c1.52-5.165,3.949-13.914,13.672-13.792s12.76,8.324,15.494,14.4
	c2.734,6.077,7.758,14.28,14.057,18.23c6.3,3.949,28.479,4.86,46.1,3.645c17.622-1.215,30.078-4.557,34.939-11.545
	c4.861-6.987,10.33-21.297,10.33-27.055c0-1.164,0.033-2.232,0.086-3.197C397.559,179.891,395.302,177.125,395.289,178.486z
	 M252.646,210c-6.077,15.799-38.874,13.303-53.801,13.032c-21.438-0.388-29.244-6.146-35.726-13.032
	c-6.482-6.887-4.051-32.407-2.431-36.185s32.812-7.16,52.433-6.399c19.62,0.761,40.739,6.936,43.979,14.332
	C260.342,189.145,258.723,194.202,252.646,210z"/>
<linearGradient id="SVGID_3_" gradientUnits="userSpaceOnUse" x1="343.5225" y1="6.228" x2="96.1638" y2="236.8936">
	<stop  offset="0.0112" style="stop-color:#65C196"/>
	<stop  offset="0.5" style="stop-color:#2D6A6F"/>
	<stop  offset="1" style="stop-color:#14351A"/>
</linearGradient>
<path fill="url(#SVGID_3_)" d="M195.528,0h142.187c0,0-49.826,27.101-54.688,39.861c-4.861,12.76-35.243,68.663-41.927,75.955
	s-42.255,66.971-49.219,103.299c0,0,15.799-90.539,33.42-112.414c0,0-18.837,21.268-33.42,31.598
	c-14.583,10.33-48.611,44.965-45.573,67.447s6.076,37.066,7.899,38.281c1.823,1.216,10.33-0.607,12.153,3.039
	c1.823,3.646,1.215,35.242,6.684,45.572s5.469,15.191,5.469,15.191l-11.545-14.584l-1.823,17.622c0,0-9.115-24.306-7.899-34.028
	c1.215-9.722-8.281-26.736-11.128-35.85c-2.847-9.115-5.278-12.153-5.278-12.153l-2.431,23.698l-7.218-28.01l1.444,14.641
	l-13.725-20.128l8.476,39.169l-15.105-42.131c0,0-9.722-34.635-4.861-64.41c4.861-29.774,11.545-42.535,11.545-42.535l-6.684,12.761
	C112.281,121.893,126.257,45.816,195.528,0z"/>
<linearGradient id="SVGID_4_" gradientUnits="userSpaceOnUse" x1="415.2109" y1="256.9873" x2="284.5127" y2="30.6113">
	<stop  offset="0.0112" style="stop-color:#65C196"/>
	<stop  offset="0.7546" style="stop-color:#408B61"/>
	<stop  offset="1" style="stop-color:#123018"/>
</linearGradient>
<path fill="url(#SVGID_4_)" d="M417.924,167.465c-1.215-16.406-12.152-57.726-12.152-57.726s8.506-20.66,1.822-34.028
	s-20.66-23.09-20.66-23.09L367.49,26.493c0,0,18.836,2.431,21.267,9.722s6.077,15.191,6.077,15.191s2.43-21.268-8.508-32.205
	S364.451,0,364.451,0h-26.736c0,0-49.826,27.101-54.688,39.861c-1.016,2.668-3.148,7.223-5.947,12.825l21.139-9.787
	c0,0-7.291,48.003-7.899,67.448c-0.607,19.444-20.659,83.854-20.659,83.854s15.19-32.205,17.621-43.142s18.837-86.893,18.837-86.893
	s20.052,1.215,31.597,30.382c11.545,29.167,17.622,32.812,20.053,38.281c2.43,5.469,50.018,26.402,51.232,40.985
	c1.215,14.583-31.181,84.188-31.181,84.188l-6.076,23.09l20.659-33.42v22.482l15.191-13.368l-7.291-17.622l13.367-12.76
	C413.67,226.406,419.139,183.872,417.924,167.465z"/>
<linearGradient id="SVGID_5_" gradientUnits="userSpaceOnUse" x1="139.6875" y1="401.1758" x2="110.4779" y2="316.345">
	<stop  offset="0.8221" style="stop-color:#35080F"/>
	<stop  offset="1" style="stop-color:#B07858"/>
</linearGradient>
<path fill="url(#SVGID_5_)" d="M143.098,400c-4.182-15.18-9.558-35.537-11.98-48.23c-4.253-22.293,0-42.359,0-42.359l-21.875,7.359
	c0,0-2.431,22.05-3.184,35c-0.455,7.814,5.443,31.037,10.194,48.23H143.098z"/>
<linearGradient id="SVGID_6_" gradientUnits="userSpaceOnUse" x1="392.1992" y1="400" x2="392.1992" y2="281.0938">
	<stop  offset="0" style="stop-color:#68181E"/>
	<stop  offset="1" style="stop-color:#B07858"/>
</linearGradient>
<path fill="url(#SVGID_6_)" d="M376.604,331.527c1.209,10.063,9.349,45.615,14.707,68.473h31.065
	c-9.001-29.205-24.813-80.871-26.327-88.221c-2.127-10.33-12.761-26.129-12.761-26.129l-21.267-4.557
	c0,0,8.506,11.545,11.545,17.908C376.604,305.366,374.781,316.337,376.604,331.527z"/>
</svg>
