<?xml version="1.0" encoding="utf-8"?>
<!-- Generator: Adobe Illustrator 15.0.0, SVG Export Plug-In . SVG Version: 6.00 Build 0)  -->
<!DOCTYPE svg PUBLIC "-//W3C//DTD SVG 1.1//EN" "http://www.w3.org/Graphics/SVG/1.1/DTD/svg11.dtd">
<svg version="1.1" id="Layer_1" xmlns="http://www.w3.org/2000/svg" xmlns:xlink="http://www.w3.org/1999/xlink" x="0px" y="0px"
	 width="400px" height="500px" viewBox="164.5 286.5 400 500" enable-background="new 164.5 286.5 400 500" xml:space="preserve">
<rect x="164.5" y="286.5" fill="#0099FF" width="400" height="500"/>
<g>
	<path fill="#660033" d="M472.5,672.101c-10.5-4.3-12.6-9.2-19.8-20.601c-7.2-11.399-17.2-16.199-17.2-16.199s-147-9-158-4.4
		s-9.4,15.8-13.8,30.4c-3.7,12.399-77.5,44-99.2,53.1v72.1h400v-67.899C543.6,699,481.6,675.801,472.5,672.101z"/>
	<path fill="#330033" d="M253.7,698.9c0,0,16.399,27.6,22.8,34.8s17.2,23.601,20,23.601s11.6,2.399,20,0c8.4-2.4,22.5-9.2,22.5-9.2
		s-15.6,11.7-31.5,15s-22.5-0.601-28.2-8.7S253.7,698.9,253.7,698.9z"/>
	<path fill="#663366" d="M467.7,672.101c3.3,26.8,24,11.2,36.399,44.8C500.5,702.9,495.3,681.301,467.7,672.101z"/>
	<path fill="#330033" d="M452.7,739.301c0,0,12.6-16.4,31.2-14c18.6,2.399,17.8,13.6,17.8,13.6s-20.4,2-26-3.2
		C470.1,730.5,452.7,739.301,452.7,739.301z"/>
	<path fill="#330033" d="M288.5,630.9c0,0-15.2,3.6,0,24.8S288.5,630.9,288.5,630.9z"/>
	<path fill="#330033" d="M410.5,786.5c0,0,10.2-17.1,14.2-22.199c4-5.101-24.2-12-24.2-12s14.6,10,14.6,13s-9.8,16-9.8,21.199H410.5
		z"/>
	<path fill="#999999" d="M418.3,786.5c0,0,0.2-3.8,3.601-3.8c3.399,0,3.199,3.8,3.199,3.8"/>
	<path fill="#330033" d="M341.4,746.601c0,0,12.899-8.3,20.699-7.3c7.801,1,18,13,18,13S370.2,762.801,356.7,758
		C343.2,753.2,341.4,746.601,341.4,746.601z"/>
	<path fill="#330033" d="M435.5,642.5c0,0,10.6,12.301,10.6,16.5c0,4.2-3.1,13.601-3.1,13.601h-14.9L435.5,642.5z"/>
	<path fill="#CC9999" d="M435.5,613.9v51.4c0,0,19.4,14.399,17,35.199c-0.5,4.5-5.4,11.5-7.6,20.4c-1.801,7.6,2.8,15.3-4.4,21.6
		c-9.9,8.601-16.4,22.801-16.4,22.801s-34-23.801-53.5-30.2c-6.899-2.2-13.6-5.7-17.899-8.2c-24.601-14.4-55.601-52.2-64.2-70v-47.5
		"/>
	<path fill="#996666" d="M334.6,642.7c0,0,20,8.601,45.801,7.101c25.8-1.5,52.5-33.9,52.5-33.9c-20.9,35.3-49.9,40.7-49.2,43.5
		c0.8,2.8,31.2-5.1,47.1-21.8c-10.5,19.3-25.7,25.3-25.7,25.3l-38.1,1l-32.4-14.8V642.7z"/>
	<path fill="#663333" d="M289.3,610.7c0,0,8.101,36.7,50.101,47.9C381.3,669.801,405.1,663,405.1,663s-51.399,3.601-77-26.8
		C302.5,605.7,289.3,610.7,289.3,610.7z"/>
	<path fill="#FFCC99" d="M367.5,666.5c28.2-0.199,40.2,0.601,43.2,12c3,11.4-8.4,29.4-8.4,29.4s31.8-8.4,36,0s-25.8,44.4-25.8,44.4
		s-61.8-24-64.8-34.2s20.399-4.8,20.399-4.8s-25.199-15-25.199-28.2S353.1,666.601,367.5,666.5z"/>
	<path id="hair_1_" fill="#330000" d="M270.5,521.301c0,0-16.3-42.601-16.3-63.601s6.899-36.3,6.899-41.1s-2.399-10.2-2.399-13.2
		s6-1.5,6-5.4c0-3.899-6.3-12.899-6.3-15.899s4.5-3.9,6.6-9.9s-2-18.5,3.2-25.7c5.2-7.199,17.6-3.199,20.399-6.399
		c2.801-3.2,1.601-10.4,4.4-12.4s7.2,1.2,10.8,0c3.601-1.2,16.7-17.2,30.8-16.8c14,0.4,20.4,5.2,27.2,4.8
		c6.8-0.399,13.101-14.399,20.7-14.8s6.8,6.4,9.6,6.4c2.801,0,8.4-4,12.801-2.4c4.399,1.6,9.6,18.8,14,21.2
		c4.399,2.399,9.6,2,14.399,6s4.8,14.399,7.601,16.399c2.8,2,12-7.199,20.399,0c8.4,7.2,6,12.4,6.4,15.601
		c0.399,3.2,10.399,3.6,13.6,6.399c3.2,2.801,6,22,6,22s-3.6-6.699-10-13.699c-6.399-7.101-7.399,2.3-6,5.3c3,6.6,8,12.399,8.4,16
		c0.399,3.6,7.2,12.8,7.6,14.8c0.4,2-7.6-1.2-8,8.4c-0.399,9.6,2,33.199-2,45.6s-2.399,12.7-2.399,16.7s-1.9,28.6-0.801,50.2"/>
	<path fill="#FFCC99" d="M340.5,383.301c0,0,20.4-6,37.8-4.2c17.4,1.8,27.601,13.2,32.4,15s16.8,4.8,24,19.8s0,33.6,3.6,40.8
		c3.601,7.2,19.8,44.4,19.2,67.8c-0.6,23.4-8.4,78.601-27,97.801c-18.6,19.199-32.4,31.8-61.8,31.199c-6-0.1-12.4-1.1-18.9-2.699
		c-25.7-6.4-77.7-92.7-78.899-107.101c-1.2-14.399,36.8-129.1,46.899-130.8c3.5-0.6,6.7-1.7,8.9-3.6
		C335.1,400.101,340.5,383.301,340.5,383.301z"/>
	<path fill="#996666" d="M317.8,410.9c0,0,1.101,43.2,3.101,49.8c2,6.601,16,7.4,16,7.4s3.199,2.899,6,7.6
		c2.8,4.8-29.2-7.399-36.801-6.8c-7.6,0.6-3.399,7.9-3.399,7.9s3.399,8.5,5.8,11.3s-12.8,13.2-12.8,13.2s-12.8,28-4,56.399
		c8.8,28.4,17.5,51.2,24.1,52c0.7-6,2.3-14,5.9-14.399c3.6-0.4,19.6,38,32.8,38.8s44-4.4,44-4.4s-19.8,19-48.7,19.101l0,0
		c-25.7-6.4-53.3-23.301-63.3-42.9c-12.6-24.6-14.4-49.8-15.6-64.2c-1.2-14.399,0-39.6,3.6-51c3.6-11.399,8.4-19.2,8.4-24.6
		c0-5.4,0.6-31.2,3.6-38.4s8.4-17.399,8.4-17.399S307.7,412.601,317.8,410.9"/>
	<path fill="#FFCC99" d="M450.1,565.801c0,0,2.801,9.5,11.601,9.5s23.2-23.101,25.6-39.5c2.4-16.4,3.601-27.7,0-34.9
		c-3.6-7.2-12-9.2-20.399-2.4c-8.4,6.801-6.4,14.4-6.4,19.2s0.8,20-5.6,9.2C448.5,516.101,450.1,565.801,450.1,565.801z"/>
	<path fill="#FFCCCC" d="M475.3,504.4c0,0-10.6,13.1-9.399,16.1c1.199,3,7.6,1,8.199,3.801c0.601,2.8,1.2,14.8-3.399,18.8
		c-4.601,4-5.4,7.6-3.601,9.2c1.801,1.6,3.601,2.399,3.601,2.399l9.8-15.3l1.8-26.5L475.3,504.4z"/>
	<path fill="#996633" d="M470.7,554.7c0,0,11.399-20.2,10.6-33.8s-6.6-15.2-6.399-18c0.199-2.8,8.699-1.5,9.6,3.2
		C486.3,515.101,484.5,542.301,470.7,554.7z"/>
	<path fill="#CC9999" d="M459,530.601c0,0,1.3,6.3,1.3,8.1s-2.399,8.2,0,8.2c2.4,0,5.4,0.2,7.8-4.4c2.4-4.6,7.801-17.199-7.6-19.8
		C460.6,526.9,460.2,527.601,459,530.601z"/>
	<path fill="#996666" d="M261.7,495.5c0,0-16-0.3-17.2,12c-1.2,12.301,1.2,37.801,7.2,51c6,13.2,13.5,21.301,18.8,19.4
		s4.8-3.8,4.8-3.8l4.9-64.9L261.7,495.5z"/>
	<path fill="#663333" d="M258.3,502.4c2.3,1.7-6.3,2.4-7.5,6.9s-2.7,16.8-2.7,16.8S246.3,493.7,258.3,502.4z"/>
	<path fill="#663333" d="M253.3,545.9c0,0,10.101,17.4,11.601,14.7S256.8,552.801,253.3,545.9z"/>
	<path fill="#663333" d="M269.8,553.4c2.9-0.9-4.7-3.7-6.3-12.6C264.7,552.2,265.9,554.601,269.8,553.4z"/>
	<path fill="#CC9999" d="M369.4,517.7c0,0,1.899,6.601,4.899,9.9c3.101,3.3,9.101,3.899,9.101,6.6s0.699,4.601-2.2,5.101
		c-2.9,0.5-8.9-7.5-13.4-5.4s-2.399,12.6-8.399,12.6s-6.301-0.3-6.301,1.5c0,1.801,24.601,3.9,26.101,0
		c3.8-9.899,9.899-12.6,9.3-15.6S369.5,523.101,369.4,517.7z"/>
	<path fill="#996666" d="M396.1,548.5c0,0,18,8,18,12.4s-1.6,6-3.6,6s-1.3-4-4.5-6.8C402.9,557.301,396.1,548.5,396.1,548.5z"/>
	<path fill="#996666" d="M355.5,548.5c0,0-12.6-8.3-12-16.1s8.7-18.6,9.9-28.2c1.199-9.6,2.699-28.399-16.5-36.1
		c-19.2-7.7-12,5.5-12,5.5s18.3,3.6,17.399,22.8c-0.899,19.2-22.1,31.2-18.7,47.7c5.5-8.101,5.5-5.101,5.5-5.101
		S330.3,561.9,355.5,548.5z"/>
	<path fill="#330000" d="M430.9,485.301c0,0-6.4-18-20-21.601c-13.601-3.6-31.2-5.6-29.601,3.601c0.8,4.699,13.601,0.8,23,2.8
		C413.7,472.101,423.7,476.5,430.9,485.301z"/>
	<path fill="#330000" d="M288.5,488.101c0,0,7.6-21.2,15.6-22.4s32.5-5.7,32.801,2.4c0.399,10-28.801,2.6-32,6.1
		C301.7,477.7,295.3,487.301,288.5,488.101z"/>
	<path fill="#FFFFFF" d="M300,496.7c27-24,39.3-1.5,39.3-1.5s-6.899,3.3-17.7,3.3C310.8,498.5,300,496.7,300,496.7z"/>
	<path fill="#FFFFFF" d="M415.2,494.601c-24-21.601-37.5,2.1-37.5,2.1s12.6,2.4,20.399,1.8C405.9,497.9,415.2,494.601,415.2,494.601
		z"/>
	<path fill="#333300" d="M405.1,487.7l-7.199-2.1l-7.7,0.8l-1.3,0.5c0,0-3.2,11.8,8.6,11.8c4.8,0,7.4-4.2,7.6-5.8
		C405.3,491.301,405.1,487.7,405.1,487.7z M401.9,492.801c-2.4-0.301-2-4.2,0-4C403.8,488.9,404.3,493.101,401.9,492.801z"/>
	<path fill="#333300" d="M331.1,487.601l-8.5-1.9l-8.6,1.9c0,0-0.7,11.399,9,11.3C332.7,498.7,331.1,487.601,331.1,487.601z
		 M327.3,493.4c-2.399,0-1.8-4.7,0-4.7C329.1,488.801,329.7,493.4,327.3,493.4z"/>
	<g>
		<path fill="#330000" d="M339.2,495.301c-2.4-2.9-5.4-5.301-8.601-6.801c-3.3-1.5-6.899-2.199-10.6-1.699s-7.2,1.8-10.5,3.699
			c-3.3,1.801-6.4,4-9.4,6.5l-0.1-0.1c2.8-2.6,5.7-5.1,9-7.2c3.3-2,6.9-3.7,10.8-4.399c1.9-0.4,4-0.5,6-0.2c2,0.2,4,0.8,5.8,1.8
			c1.801,1,3.4,2.2,4.7,3.7c1.3,1.399,2.5,3.1,3.2,4.899L339.2,495.301z"/>
	</g>
	<g>
		<path fill="#330000" d="M377.6,496.7c0.7-1.7,1.801-3.3,3-4.8c1.2-1.5,2.601-2.8,4.2-3.9c1.601-1.1,3.3-2,5.2-2.5
			s3.8-0.8,5.7-0.699c3.899,0.1,7.5,1.3,10.8,3.1s6.2,4.2,8.8,6.7l-0.1,0.1c-2.8-2.3-5.8-4.5-9.101-6c-3.3-1.6-6.8-2.5-10.3-2.399
			c-3.5,0.1-6.8,1.5-9.8,3.3c-3,1.899-5.7,4.3-8.1,7.1H377.6z"/>
	</g>
	<path fill="#330000" d="M339.3,536.9c-4.5,5.6,8.101,6,8.101,6S343,532.4,339.3,536.9z"/>
	<path fill="#330000" d="M364.5,542.9c0,0,2.3-9.1,6.6-6.7C381.2,541.7,364.5,542.9,364.5,542.9z"/>
	<g>
		<circle cx="396.5" cy="491.1" r="3.9"/>
	</g>
	<g>
		<circle cx="322.5" cy="491.201" r="3.9"/>
	</g>
	<path fill="#663333" d="M353.1,575.301c0,0-29.8,0.399-36.199-4.601C310.5,565.7,348.1,575.301,353.1,575.301z"/>
	<path fill="#CC9999" d="M368.5,574.601c0,0,32.1-2.3,31.1-5.8C398.8,566.2,372.4,574.2,368.5,574.601z"/>
	<g>
		<g>
			<defs>
				<path id="SVGID_1_" d="M322.5,570.9c0,0,5.4,14,31.8,14c26.4,0,36.8-14,36.8-14"/>
			</defs>
			<clipPath id="SVGID_2_">
				<use xlink:href="#SVGID_1_"  overflow="visible"/>
			</clipPath>
			<path clip-path="url(#SVGID_2_)" fill="#FF9999" d="M322.5,570.9c0,0,5.4,14,31.8,14c26.4,0,36.8-14,36.8-14"/>
		</g>
		<g>
			<defs>
				<path id="SVGID_3_" d="M322.5,570.9c0,0,5.4,14,31.8,14c26.4,0,36.8-14,36.8-14"/>
			</defs>
			<clipPath id="SVGID_4_">
				<use xlink:href="#SVGID_3_"  overflow="visible"/>
			</clipPath>
			<path clip-path="url(#SVGID_4_)" fill="#FF99CC" d="M367.2,582.801c0,0-3-7.5,2.399-7.5c5.4,0,5.4,5.1,5.4,5.1
				S375,596.2,367.2,582.801z"/>
		</g>
		<g>
			<defs>
				<path id="SVGID_5_" d="M322.5,570.9c0,0,5.4,14,31.8,14c26.4,0,36.8-14,36.8-14"/>
			</defs>
			<clipPath id="SVGID_6_">
				<use xlink:href="#SVGID_5_"  overflow="visible"/>
			</clipPath>
			<path clip-path="url(#SVGID_6_)" fill="#CC9999" d="M347.4,588.801c0,0-9.2-4.2-9.101-15.101c0.101-11-24.399-8.899-24.399-8.899
				S326.7,612.5,347.4,588.801z"/>
		</g>
	</g>
	<g>
		<g>
			<defs>
				<path id="SVGID_7_" d="M322.5,570.9c0,0,20.2-4.8,24.9-4.8c4.699,0,6,0.899,7.199,0.899c1.2,0,26.301-3.1,36.5,3.9
					c0,0-20.8,4.4-34.3,4.4S322.5,570.9,322.5,570.9z"/>
			</defs>
			<clipPath id="SVGID_8_">
				<use xlink:href="#SVGID_7_"  overflow="visible"/>
			</clipPath>
			<path clip-path="url(#SVGID_8_)" fill="#CC6666" d="M322.5,570.9c0,0,20.2-4.8,24.9-4.8c4.699,0,6,0.899,7.199,0.899
				c1.2,0,26.301-3.1,36.5,3.9c0,0-20.8,4.4-34.3,4.4S322.5,570.9,322.5,570.9z"/>
		</g>
		<g>
			<defs>
				<path id="SVGID_9_" d="M322.5,570.9c0,0,20.2-4.8,24.9-4.8c4.699,0,6,0.899,7.199,0.899c1.2,0,26.301-3.1,36.5,3.9
					c0,0-20.8,4.4-34.3,4.4S322.5,570.9,322.5,570.9z"/>
			</defs>
			<clipPath id="SVGID_10_">
				<use xlink:href="#SVGID_9_"  overflow="visible"/>
			</clipPath>
			<path clip-path="url(#SVGID_10_)" fill="#996666" d="M355.5,575.301c0,0-18.7-12.601-32.3-6
				C309.6,575.9,355.5,575.301,355.5,575.301z"/>
		</g>
	</g>
	<path fill="#996666" d="M309,568.7c-2.4,0.601-3.9-9.3,0-12.899c3.9-3.601,13.9-3,13.5,0s-7.6,3.8-8.6,5.199
		C312.9,562.4,311.4,568.101,309,568.7z"/>
</g>
</svg>
