<?xml version="1.0" encoding="utf-8"?>
<!-- Generator: Adobe Illustrator 15.0.0, SVG Export Plug-In  -->
<!DOCTYPE svg PUBLIC "-//W3C//DTD SVG 1.1//EN" "http://www.w3.org/Graphics/SVG/1.1/DTD/svg11.dtd" [
	<!ENTITY ns_flows "http://ns.adobe.com/Flows/1.0/">
]>
<svg version="1.1"
	 xmlns="http://www.w3.org/2000/svg" xmlns:xlink="http://www.w3.org/1999/xlink" xmlns:a="http://ns.adobe.com/AdobeSVGViewerExtensions/3.0/"
	 x="0px" y="0px" width="400px" height="500px" viewBox="2.5 0 400 500"
	 style="overflow:visible;enable-background:new 2.5 0 400 500;" xml:space="preserve">
<style type="text/css">
<![CDATA[
	.st0{clip-path:url(#SVGID_6_);fill:#FFFFFF;}
	.st1{fill:none;stroke:#000000;stroke-width:5;stroke-linecap:round;stroke-linejoin:round;stroke-miterlimit:10;}
	.st2{clip-path:url(#SVGID_3_);fill:#FFFFFF;}
	.st3{fill:url(#SVGID_2_);}
	.st4{fill:url(#SVGID_4_);}
	.st5{fill:#996633;}
	.st6{fill:none;stroke:#3366CC;stroke-width:5;stroke-linecap:round;stroke-linejoin:round;stroke-miterlimit:10;}
	.st7{fill:#FFCC99;}
	.st8{fill:#FFFFFF;}
	.st9{fill:#663300;}
	.st10{fill:#663333;}
	.st11{fill:#6699FF;}
	.st12{fill:#330000;}
	.st13{fill:none;stroke:#996633;stroke-width:3;stroke-linecap:round;stroke-linejoin:round;stroke-miterlimit:10;}
	.st14{fill:none;stroke:#CC9966;stroke-width:4;stroke-linecap:round;stroke-linejoin:round;stroke-miterlimit:10;}
]]>
</style>
<defs>
</defs>
<linearGradient id="SVGID_2_" gradientUnits="userSpaceOnUse" x1="2.5" y1="250" x2="402.5" y2="250">
	<stop  offset="0" style="stop-color:#CCCC99"/>
	<stop  offset="1" style="stop-color:#99CC66"/>
</linearGradient>
<rect x="2.5" class="st3" width="400" height="500"/>
<path class="st11" d="M2.5,500h400v-69.339c-21.523-4.93-64.083-14.424-88.763-18.222l-0.001,0.002c0,0,9.097,9.791,7.429,24.791
	c-1.666,15-55.373,29.844-108.706,34.51s-113.667-48-111.128-66.346l0-0.002c-23.789,8.773-73.928,27.578-98.831,39.248V500z"/>
<path class="st7" d="M274.459,283.908c0,0,12,18,22.5,14.5s30.5-46,27-67c-3.5-21-22.5-19.5-34.5-5c0,0-32-89-39.5-103.5
	s-16-34.5-48-42s-91.5-9.5-114.5,17s-39.5,71.546-40,89.523s8.5,42.977,7,49.477s-10.04,22-7.02,35.5s6.52,29,14.52,47
	s10.5,18.5,16,30s13.5,34.5,28,45s22.5,18,35.5,13s50.5-16.5,74-35.5S264.959,349.908,274.459,283.908z"/>
<path class="st5" d="M313.737,412.439c-7.647-1.176-13.578-1.805-16.633-1.582v0.002c-7.412-22.652-16.011-67.102-14.357-117.5
	c-0.332-0.293-0.658-0.59-0.976-0.889l0.976,0.887v0.002c4.165,3.678,9.35,6.67,14.212,5.049c10.5-3.5,30.5-46,27-67
	c-3.5-21-22.5-19.5-34.5-5c0,0-32-89-39.5-103.5s-16-34.5-48-42c-17.303-4.055-42.644-6.5-65.909-3.703
	c4.942,11.145-4.792,24.96-10.341,38.953c-5.75,14.5-8.75,24.5-24.813,51.25s2.063,36.667,2.063,36.667l9.167,12l10,15.107
	l-4.444,27.38l-13.556,29.512l10.346,8.168c0.263,7.084,7.654,11.051,7.654,11.051l-9,1.867c0,0,9.352,19.635,19.352,24.635
	s-33.33,18.326-31.224,20.113c6.872,5.834,26.289,12.666,24.205,24.334c-0.704,3.945-12.75,2.416-13,9.195
	c-0.226,6.121,14.417,18.754,17.269,21.154c0.07,0.016,0.211,0.047,0.211,0.047c-5.06-0.988-9.853-3.977-15.51-8.037h0.001
	c0,0-5.036,1.82-13.099,4.793l0,0.002c-2.539,18.346,57.795,71.012,111.128,66.346c17.071-1.494,34.177-4.031,49.604-7.281
	c0.053-0.012,0.105-0.021,0.156-0.033c0.606-0.129,1.209-0.256,1.811-0.387c0.031-0.008,0.062-0.014,0.093-0.021
	c3.097-0.67,6.121-1.371,9.06-2.098c0.088-0.021,0.178-0.045,0.267-0.066c0.512-0.127,1.02-0.254,1.526-0.383
	c0.122-0.031,0.244-0.062,0.367-0.094c0.498-0.127,0.996-0.256,1.49-0.385c0.102-0.025,0.201-0.053,0.303-0.08
	c2.188-0.574,4.322-1.162,6.395-1.764c0.104-0.031,0.21-0.061,0.314-0.092c0.428-0.125,0.853-0.252,1.275-0.377
	c0.165-0.049,0.33-0.1,0.494-0.148c0.4-0.121,0.798-0.24,1.193-0.363c0.18-0.055,0.359-0.109,0.539-0.166
	c0.388-0.121,0.774-0.24,1.158-0.361c0.169-0.055,0.337-0.109,0.506-0.162c0.393-0.125,0.784-0.252,1.171-0.377
	c0.09-0.029,0.177-0.059,0.267-0.088c0.885-0.291,1.756-0.584,2.611-0.879c0.068-0.023,0.138-0.047,0.205-0.07
	c0.342-0.119,0.679-0.238,1.016-0.357c0.196-0.07,0.394-0.139,0.588-0.209c0.311-0.111,0.616-0.223,0.922-0.334
	c0.215-0.078,0.43-0.158,0.643-0.236c0.295-0.109,0.589-0.219,0.88-0.33c0.215-0.08,0.429-0.162,0.642-0.244
	c0.284-0.109,0.568-0.219,0.849-0.328c0.216-0.084,0.429-0.17,0.643-0.254c0.271-0.109,0.545-0.217,0.812-0.326
	c0.227-0.092,0.448-0.184,0.672-0.277c0.447-0.184,0.888-0.369,1.323-0.555c0.236-0.102,0.475-0.203,0.707-0.305
	c0.228-0.1,0.451-0.199,0.676-0.299c0.225-0.102,0.449-0.201,0.67-0.301s0.438-0.201,0.654-0.301
	c0.221-0.104,0.439-0.205,0.656-0.307c0.209-0.1,0.416-0.199,0.621-0.299c0.221-0.105,0.438-0.213,0.653-0.32
	c0.194-0.096,0.389-0.191,0.579-0.287c0.232-0.117,0.459-0.234,0.686-0.352c0.167-0.088,0.338-0.174,0.502-0.262
	c0.373-0.197,0.738-0.395,1.096-0.592c0.131-0.072,0.256-0.145,0.384-0.217c0.24-0.135,0.479-0.271,0.714-0.406
	c0.15-0.088,0.298-0.178,0.447-0.266c0.202-0.121,0.404-0.242,0.602-0.363c0.149-0.092,0.297-0.184,0.443-0.275
	c0.19-0.121,0.379-0.24,0.564-0.361c0.14-0.09,0.279-0.182,0.416-0.273c0.188-0.125,0.371-0.25,0.553-0.377
	c0.125-0.086,0.251-0.17,0.373-0.258c0.208-0.146,0.41-0.295,0.609-0.443c0.086-0.064,0.176-0.127,0.26-0.191
	c0.276-0.209,0.544-0.418,0.803-0.629c0.08-0.064,0.155-0.129,0.233-0.193c0.18-0.15,0.357-0.299,0.528-0.447
	c0.095-0.084,0.186-0.168,0.278-0.25c0.146-0.133,0.292-0.266,0.431-0.398c0.092-0.088,0.182-0.176,0.27-0.262
	c0.134-0.133,0.264-0.264,0.389-0.395c0.083-0.086,0.166-0.174,0.245-0.26c0.128-0.139,0.251-0.277,0.37-0.418
	c0.067-0.076,0.137-0.154,0.2-0.232c0.148-0.178,0.288-0.357,0.423-0.537c0.028-0.037,0.061-0.074,0.088-0.111
	c0.158-0.217,0.307-0.434,0.445-0.65c0.042-0.066,0.08-0.133,0.12-0.199c0.093-0.15,0.183-0.303,0.267-0.455
	c0.044-0.082,0.084-0.164,0.126-0.244c0.07-0.139,0.138-0.277,0.199-0.414c0.038-0.086,0.075-0.172,0.11-0.258
	c0.057-0.137,0.107-0.273,0.155-0.412c0.028-0.082,0.059-0.166,0.085-0.248c0.045-0.148,0.084-0.297,0.121-0.445
	c0.017-0.07,0.037-0.143,0.053-0.213c0.046-0.219,0.084-0.438,0.107-0.656c1.668-15-7.429-24.791-7.429-24.791L313.737,412.439z"/>
<path class="st9" d="M313.737,412.439c-7.647-1.176-13.578-1.805-16.633-1.582v0.002c-7.412-22.652-16.011-67.102-14.357-117.5
	c-0.332-0.293-0.658-0.59-0.976-0.889l0.976,0.887v0.002c4.165,3.678,9.35,6.67,14.212,5.049c10.5-3.5,30.5-46,27-67
	c-3.5-21-22.5-19.5-34.5-5c0,0-32-89-39.5-103.5s-16-34.5-48-42c-15.11-3.542-36.351-5.854-56.986-4.521
	c-2.994,0.193,1.986,24.771,1.736,32.271c-0.52,15.59-0.854,42.854,10.25,52.25c13,11,28.086,0.979,40,7.25
	c14.25,7.5,41.532,1.052,38.25,6.75c-3.892,6.755-16.798,5.75-16.798,5.75l-43.202,4.5l-23.5,11c0,0-23.34,14.937-23.25,27
	c0.036,4.807,7.078,14.909,7.5,22.5c0.5,9-25.52,36.807-21.25,42.5c5.25,7,16.457-3.809,25.75-3c5.75,0.5,12.5,11.5,12.5,11.5
	l-8,8.5l-11.744-3.484l-20.089,7.486c0,0-2.417,16.748,2.583,18.998s8-14.75,12.625-15.5s17.625,13,27.625,18s35.458,1.016,43.25,13
	c-5.5,21.25-56.75,37.5-59.5,37.75s-6-0.75-10-1s-17,0.25-17.25,7.029c-0.226,6.121,14.417,18.754,17.269,21.154
	c0.356,0.074,0.715,0.137,1.075,0.191l59.925-21.346h0.001c0,0,14.23,6.721,21.73,17.959c7.499,11.236,23.444,63.635,23.448,63.648
	c44.591-6.352,83.837-19.023,85.258-31.812c1.668-15-7.429-24.791-7.429-24.791L313.737,412.439z M247.485,234.836
	c-1.225,2.178-1.526,9.072-2.526,11.027c-1,1.956-2.75,0.795-4.75,3.295c-2,2.5,0.75,3.25-2,7.75s-34,28.5-46.012,30
	c-12.011,1.5-23.488-16.5-28.238-28.75c-4.75-12.25-12-28.75-9.75-31.25s8.583-2.333,8.583-2.333
	c52.834-27.167,71.834-4.333,71.834-4.333s-14.167,18.167-59.334,11.833c-14.333,7.333,11.167,8.583,15.417,8.833s9.5,3,15.539,3
	s14.711-2.75,25.461-6s15.5-9.5,18-11.5s1.5-6.75,4.75-4.9C257.709,223.356,248.709,232.658,247.485,234.836z"/>
<path class="st5" d="M82.542,197.037l-35.745-0.963l6.39,29.056c0,0,1.938-3.023,4.938-2.79s9.166,10.26,14.333,10.997
	S82.542,197.037,82.542,197.037z"/>
<path class="st9" d="M112.457,213.741c0,0-2.831-5.839-8.331-8.586c-5.5-2.747-39-12.58-38.667-5.747s28.102,4.515,26.718,15.674
	c-1.384,11.159-24.218,16.826-24.218,20.493c0,3.666,4.333,8.181,10.667,6.923c6.333-1.257,31.5-6.424,37.5-16.424L112.457,213.741z
	"/>
<path class="st14" d="M65.459,256.241c0,0,26-6.212,31-11.667"/>
<path class="st13" d="M108.625,255.408c-1,5-10.5,22.166-10.5,22.166s-6.827-1.076-9.667,4.166c-4.333,8.002-1.185,9.5-1.185,9.5"/>
<path class="st12" d="M100.959,351.408c21.167,20.5,59.75,5,72-19c-34.167,8.082-45-1.168-49-1.25
	c-2.809-0.059-3.25,3.832-6.25,3.832s-6.25-4.666-10-4.666s-8.75,5.834-14.25,5.084s-9.75-7.25-9.75-7.25"/>
<path class="st10" d="M149.459,343.658c-3.014-0.066-5.796,0.941-8.365,2.387c-0.483-0.537-1.194-0.891-2.135-0.887
	c-3.486,0.014-6.971,0.143-10.456,0.203c-3.288,0.059-6.859,0.32-10.037-0.629c-4.911-1.469-9.664-4.375-14.771-1.914
	c-1.605,0.771-1.671,2.699-1.076,4.104c1.438,3.396,5.085,5.188,8.29,6.521c4.008,1.668,8.421,2.414,12.716,2.854
	c4.133,0.422,8.204-0.172,12.254-1.01c4.934-1.021,10.188-2.604,14.344-5.539c0.108-0.076,0.207-0.16,0.301-0.246
	C153.286,348.572,152.927,343.732,149.459,343.658z"/>
<g>
	<defs>
		<path id="SVGID_1_" d="M149.459,343.658c-3.014-0.066-5.796,0.941-8.365,2.387c-0.483-0.537-1.194-0.891-2.135-0.887
			c-3.486,0.014-6.971,0.143-10.456,0.203c-3.288,0.059-6.859,0.32-10.037-0.629c-4.911-1.469-9.664-4.375-14.771-1.914
			c-1.605,0.771-1.671,2.699-1.076,4.104c1.438,3.396,5.085,5.188,8.29,6.521c4.008,1.668,8.421,2.414,12.716,2.854
			c4.133,0.422,8.204-0.172,12.254-1.01c4.934-1.021,10.188-2.604,14.344-5.539c0.108-0.076,0.207-0.16,0.301-0.246
			C153.286,348.572,152.927,343.732,149.459,343.658z"/>
	</defs>
	<clipPath id="SVGID_3_">
		<use xlink:href="#SVGID_1_"  style="overflow:visible;"/>
	</clipPath>
	<path class="st2" d="M128.424,346.02c-0.686-1.484-2.796-1.844-4.104-1.076c-0.293,0.172-0.538,0.375-0.739,0.604
		c-1.418,0.143-2.936,1.451-2.747,2.986c0.228,1.854,0.61,3.566,1.41,5.264c0.592,1.258,2.152,1.633,3.388,1.379
		C129.686,354.34,129.807,349.01,128.424,346.02z"/>
	<path class="st2" d="M115.257,343.391c-1.859-0.295-3.744-0.279-5.5-1c-0.976-0.4-2.06-0.01-2.814,0.701
		c-0.883-0.793-1.75-1.617-2.72-2.273c-3.212-2.178-6.211,3.023-3.028,5.18c3.075,2.084,5.178,4.844,8.998,5.688
		c3.57,0.789,6.105-1.326,7.159-4.605C117.811,345.65,116.827,343.639,115.257,343.391z"/>
</g>
<path class="st12" d="M48.139,180.908c39.487-8.833,54.82,23.167,54.82,23.167s-35.131-12.806-55.148-8.153"/>
<path class="st12" d="M152.959,191.408v12c0,0,16.321-0.751,22.125-1.5c7.75-1,18.028-5.288,33.625-6.75
	c28-2.625,38,7.389,38.75,2.444s-15-16.694-28-16.694S163.959,185.158,152.959,191.408z"/>
<path class="st12" d="M50.715,169.479C39.46,165.074,63.792,88.407,93.126,68.407s23.334-16,30.667-21.667
	s22.667-19.667,40.333-21.333c17.667-1.667,53.666-5,64.334-1.334c10.666,3.667,12.051,6.667,19.025,9
	c6.975,2.334,44.641,15.667,55.641,25.667s30.334,34.667,35,49.333c4.667,14.667,12.586,49.606,11.667,75.667
	c-0.518,14.685,4.829,41.911-26.253,62.122l0.003,0.001c0.883-5.345,1.105-10.318,0.416-14.456c-3.5-21-22.5-19.5-34.5-5
	c0,0-32-89-39.5-103.5s-16-34.5-48-42s-91.5-9.5-114.5,17C70.237,117.75,56.66,147.99,50.715,169.479L50.715,169.479z"/>
<path class="st8" d="M162.792,224.575c52.834-27.167,71.834-4.333,71.834-4.333s-14.167,18.167-59.334,11.833"/>
<path class="st8" d="M73.126,232.241c24.5,3.333,27.5-2,27.5-2l0.667-6.941c0,0-11.523-17.324-41.833-9.058"/>
<path class="st12" d="M216.738,213.059c-1.621-0.646-3.613-0.676-5.323-0.899c-2.953-0.385-5.96-0.544-8.938-0.488
	c-1.58,0.03-3.443,0.391-4.831,1.264c-1.734-0.592-4.099,0.318-4.188,2.722c-0.142,3.87,0.167,7.532,2.602,10.676
	c2.45,3.163,7.366,3.411,10.952,2.815c4.205-0.698,7.857-2.641,10.461-6.037C219.669,220.248,220.868,214.702,216.738,213.059z"/>
<path class="st12" d="M97.339,219.667c-1.093-0.905-2.194-1.801-3.328-2.655c-0.1-0.076-0.378-0.526-0.765-0.937
	c-0.765-0.812-1.665-1.489-2.575-2.127c-1.911-1.341-4.592-1.551-6.651-0.582c-1.917-0.717-4.742,0.877-4.205,3.589
	c1.135,5.729,3.222,15.559,11.07,14.365c3.109-0.473,6.881-2.201,8.696-4.873C101.648,223.408,99.565,221.511,97.339,219.667z"/>
<circle class="st8" cx="201.178" cy="217.346" r="3.157"/>
<circle class="st8" cx="85.72" cy="219.325" r="3.157"/>
<path class="st6" d="M335.824,416.354c2.239,6.146,3.729,13.867,2.734,22.812c-1.046,9.41-7.351,17.562-18.738,24.232
	c-7.147,4.186-16.751,8.125-28.546,11.707c-21.459,6.521-49.631,11.65-77.29,14.07c-2.708,0.236-5.431,0.352-8.159,0.352
	c-39.775,0-81.123-24.32-104.016-48.393c-9.986-10.5-15.857-20.312-17.544-29.291"/>
<path class="st1" d="M274.459,283.908c0,0,12,18,22.5,14.5s30.5-46,27-67c-3.5-21-22.5-19.5-34.5-5c0,0-32-89-39.5-103.5
	s-16-34.5-48-42s-91.5-9.5-114.5,17s-39.5,71.546-40,89.523s8.5,42.977,7,49.477s-10.04,22-7.02,35.5s6.52,29,14.52,47
	s10.5,18.5,16,30s13.5,34.5,28,45s22.5,18,35.5,13s50.5-16.5,74-35.5S264.959,349.908,274.459,283.908z"/>
<path class="st1" d="M112.126,216.075c0,0,9.969,10.283,10,20.333c0.064,21-18,51.667-18,51.667s7.666,8.334,11.333,8.334
	s3-3.334,3-3.334"/>
<path class="st1" d="M88.459,289.742c0,0-2.667,6.998,0,8.332s6,1,9.667,2.334c3.666,1.334,12,9.666,17.666,9
	c5.667-0.666,12.684-6.23,16.658-6.791c5.009-0.709,7.009,3.457,11.009,2.125c4-1.334,10.333-8.334,8.333-11.334"/>
<path class="st1" d="M152.959,191.408v12c0,0,16.321-0.751,22.125-1.5c7.75-1,18.028-5.288,33.625-6.75
	c28-2.625,38,7.389,38.75,2.444s-15-16.694-28-16.694S163.959,185.158,152.959,191.408z"/>
<path class="st1" d="M48.139,180.908c39.487-8.833,54.82,23.167,54.82,23.167s-35.131-12.806-55.148-8.153"/>
<path class="st1" d="M162.792,224.575c52.834-27.167,71.834-4.333,71.834-4.333s-14.167,18.167-59.334,11.833"/>
<path class="st1" d="M192.226,213.287c0,0-1.348,20.481,14.733,17.621s13.126-18.335,13.126-18.335"/>
<path class="st1" d="M163.959,214.241c0,0,48.667-18.287,69.833-2.977"/>
<path class="st1" d="M73.126,232.241c24.5,3.333,27.5-2,27.5-2l0.667-6.941c0,0-11.523-17.324-41.833-9.058"/>
<path class="st1" d="M77.815,212.097c0,0,2.184,28.529,23.081,15.336"/>
<path class="st1" d="M104.126,217.741c0,0-22-21.667-43.167-11"/>
<path class="st1" d="M100.959,351.408c21.167,20.5,59.75,5,72-19c-34.167,8.082-45-1.168-49-1.25
	c-2.809-0.059-3.25,3.832-6.25,3.832s-6.25-4.666-10-4.666s-8.75,5.834-14.25,5.084s-9.75-7.25-9.75-7.25"/>
<path class="st1" d="M145.126,344.545c0,0-31.274,3.83-46-5.803"/>
<path class="st1" d="M290.459,249.158c0,0,10-15.5,14.75-14.25s5,7.089,5,7.089"/>
<path class="st1" d="M304.459,273.658c0,0-6.5,8.5-12,7.5"/>
<path class="st1" d="M295.209,256.908c0,0,5.75,4.25,5.125,6.5s-5.125,6.75-5.125,10.25"/>
<path class="st1" d="M282.747,293.357c-2.287,69.717,15.045,128.051,21.712,133.051"/>
<path class="st1" d="M101.331,405.396c-2.539,18.346,57.795,71.012,111.128,66.346s107.04-19.51,108.706-34.51
	c1.668-15-7.429-24.791-7.429-24.791"/>
<path class="st1" d="M50.715,169.479C39.46,165.074,63.792,88.407,93.126,68.407s23.334-16,30.667-21.667
	s22.667-19.667,40.333-21.333c17.667-1.667,53.666-5,64.334-1.334c10.666,3.667,12.051,6.667,19.025,9
	c6.975,2.334,44.641,15.667,55.641,25.667s30.334,34.667,35,49.333c4.667,14.667,12.586,49.606,11.667,75.667
	c-0.518,14.685,4.829,41.911-26.253,62.122"/>
<path class="st1" d="M114.43,400.602c0,0-78.586,28.416-111.93,44.04"/>
<path class="st1" d="M402.5,430.661c-28.192-6.458-92.482-20.747-105.396-19.804"/>
</svg>
