<?xml version="1.0" encoding="utf-8"?>
<!-- Generator: Adobe Illustrator 15.0.0, SVG Export Plug-In  -->
<!DOCTYPE svg [
	<!ENTITY ns_flows "http://ns.adobe.com/Flows/1.0/">
]>
<svg version="1.2" baseProfile="tiny"
	 xmlns="http://www.w3.org/2000/svg" xmlns:xlink="http://www.w3.org/1999/xlink" xmlns:a="http://ns.adobe.com/AdobeSVGViewerExtensions/3.0/"
	 x="0px" y="0px" width="780px" height="600px" viewBox="0 0 780 600" overflow="visible" xml:space="preserve">
<defs>
</defs>
<rect fill="#CCCC66" width="780" height="600"/>
<path id="tree_1_" fill="#333333" d="M210.2,438.7c3.9-0.2,6.1,1.2,9.5,1.5c4.6,5.1,9.8,9.6,13.5,15.6c7.5,2.4,8.5,13.4,17.6,12.5
	c-0.2-1.8-1.4-1.2-0.5-3c-6.4-2-11.3-5.4-14-11c-5.4-3.4-9.9-7.8-12.5-14c4.6-5.3,10-9.7,16.6-13v-2c7.5-4.6,12.5-11.5,20.1-16.1
	c3.5-4.4,5.7-9.2,11-11c1.7-0.6,4.2,0.2,6-0.5c1.7-0.6,3.1-3,4.5-4c-2.4-1.2-6.7-1.5-9,0c1-2,1.1-4.7,0-7c-3.3,1.6-5.5,5.2-4.5,9.5
	c-7.9,10-18.6,19.8-28.1,26.6c-0.4-1.1,0.9-3.9-1-3.5c-1.6,0.7-1.8,3.4-1,5c-4.3,4.4-9.7,10-15.6,12.5c-4.6,2-8.6,0.2-13-1
	c-5.8-1.6-13.1-2.3-16.6-6c3.2-8.5,5.4-18.1,12.5-22.6c0.2-1.2-0.9-1.1-0.5-2.5c6.1-8.1,11.3-17.1,21.6-21.1c-0.8-0.1-0.3-1.1,0-1.5
	c6.8-2.7,12.4-6.7,22.1-6.5c3.5-2,8.7-2.4,13-3.5c1.7,0.2,1,2.7,3,2.5c1.8,0.2,2.8-0.6,4-1c-0.5-1.6-1.2-2.8-2-4
	c4.4-1.5,7.9-5.5,13.5-5.5c0.8,0,1.8,0.9,2.5,1c3.4,0.6,6.1-0.5,8.5-2.5c-0.2-2-2.2-2.1-2.5-4c-2.4-0.9-3.7,0.8-6,0
	c-2.3-0.8-3-4.1-4.5-4c-1.1,0-3.7,3.9-4,4.5c0.7,0.6,0.9,1.7,1,3c-2.1,0.9-3.8,2.2-6,3c0.1-1.2,0.1-2.4-1-2.5
	c-5.8,3.2-10.3,10.5-19.6,8.5c0.4-2.4,4.8-2.7,2.5-5c4.7,1.3,11,0.5,10.5-5c-5.2-2.5-9.1,1.3-12.5,3.5c0.9-1.3,0.9-3.5,1.5-5
	c-2,0-2.9,1.1-4.5,1.5c-0.5,2-1.3,3.7-2,5.5c-8,4-15.9,9-22.1,14c-1.1,0.9-2.7,1.2-3.5,2c-2.7,2.5-4.4,6.6-8.5,7
	c-1.3,6.2-5.4,9.6-8,14.5h-2c0.3,2.6,0.2,3.4-0.5,4.5c-0.9,1.4-0.8,1.8-1.5,2.5c-0.4,0.4-0.2,0.6-0.1,0.8c0.2-0.2,0.2-0.1,0.1,0.2
	c0,0,0-0.1-0.1-0.2c-0.4,0.3-1.5,1.6-1.9,2.2c-1.7,2.4-3.7,9.9-6,10.5c-1.2,0.3-0.4,2.5-2,2c-2.3-6.3-0.1-13-1-19.6
	c-0.1-1-0.9-2-1-3c-0.4-5.1,1.1-10.8,1-16.6c-0.1-5.9-2.5-12.1-1-17.1c-2.3-1-1.3-5.4-2.5-7.5c-2.3,0-1.9-2.8-4.5-2.5
	c-2.9,8.8,2.9,10,4.5,14.6c1.7,4.9,1.4,12.4,1,18.1c-0.5,8.1-1.7,15,0,22.1c-1.7-0.2-4.3-1.3-5.5-0.5c0.3,3,3.1,3.6,5.5,4.5
	c1.6,3.7-2.3,7.5-4.5,8.5c-5.9,2.9-16.2,7.4-21.6,10.5l-3,1.5c-5.4,4.4-14.2,8-18.1,11c0,0-3.1-8.8-3.9-11.8c-1-3.7-6-16.2-7.7-20.3
	c-1.4-3.3-4.6-5.5-8-9.5c-2.1-2.5-12.2-10.7-12.2-10.7c7.2-3.2,37.2-20.3,42.8-23.4c11.4-6.2,22.9-13,34.1-19.1
	c3.3,0.2,8.8,2.4,9.5-0.5c-0.7-1.9-5.4,0.9-6-2c14.4-10.9,31.2-19.3,45.6-30.1c1.9,0,1.4-0.6,3,0c1.2-1.1-0.4-2.2,0.5-3
	c8.4-6.4,15.9-13.5,25.1-19.1c8.4,6.1,19,10.1,30.1,13.5c0.8,2.4,4.1,4.9,4,8c-0.1,1.9-2.3,4.1-3,6c-3.4,8.6-1.3,16.7-0.5,26.1
	c0.4,5,2.2,9.6,3,15c0.7,4.7,0.3,9.8,2,15.1c-0.4,0.9-0.8,1.8-1,3c0.2,1,1.9,0.4,1.5,2c-0.5,10.5,1.1,24.7-1,32.1
	c1.5,0.4,2.5,1.2,3,2.5c9.2,15.2,22.7,26.2,31.1,42.1c2.6,1.9,7.1,3.3,10,6c0.6,0.6,1,2.5,2,3.5c4.4,4.3,9.5,9.1,7.5,15.6
	c3,2.4,1.8,7.8,2.5,11.5c-4.3,6-4.1,13.5-6,21.6c0.8,1.9,2.4,3,3,5c4.8,0.6,9.6,3.8,13.5,3.5c-1.2-2.8-4.7-3.3-5.5-6.5
	c1.3-0.4,1.5-1.8,3-2c0.6,3,3.1,5.8,4.5,9c1.3,3,2.3,3.7,3.5,6c1.6,3,0.9,6.6,1.5,10.5c0.8,5.1,4.8,7.7,6,12.5c4.8,2.4,8.2,6.5,13,9
	c4.8,2.5,9.8,5.2,15.1,7.5c2.4,5.7,9.7,6.4,14.5,9.5c-0.6-3.8,4.4,1.1,4.5-2c-1.5-0.9-3.6-1.1-6-1c-1.6-2.9-8.2-0.8-8.5-5
	c0.8-1.7,2.7-2.3,4.5-3c1.5-2.5,3.7-4.3,5.5-6.5c7.4,2.3,14.7,2.2,21.1,6c2.4,0,2.4-2.3,4.5-2.5c4.1-1.3,6.1,4.4,9,5
	c1.6,0.4,4.5,0.4,6-1.5c-2.2-0.1-7.5,0.3-8-3c0.1-1.7,3.2-4.1,1-5c-2,3.7-7.9,3.7-10.5,1c-4,0.8-5.8-0.1-8-2
	c-5.7,0.6-12.6-1.7-17.6-3.5c-1.2-3.8,0.5-9.2,2.5-12.5c0.7,0.8,2,1.1,3.5,1c0.8-1.4,2.4-2,2-4.5c-2.1-2-5.3-1.4-7.5,0
	c0,5.2-2.6,7.8-3.5,12c-1.7-6.2-0.7-18.8,3-24.1c2.8,0.9,5.4,2,7.5,3.5c9.7-2.8,21.5-3.6,33.6-4c2.3,2.5,8.1,0.8,12.5,2
	c0.5-1.2,0.9-2.5,1-4c-2.8,2.7-8.4,3.1-11,0c-6.6,0.8-14.5,0.3-19.1,1c-7.9,1.2-15.7,2-21.6,0.5c1.5-1.8,2.7-4,2.5-7.5
	c-4.9,0.4-5.9,4.6-8.5,6c-6.9-3.5-15.7-5-22.6-8.5c5.4-6.3,8.5-15,15-20.1c-0.4-1.5,0.5-1.8,0.5-3c5-3.7,6.6-9.3,12.5-10.5
	c3.4-0.7,6.9-2.6,7-7.5c-3.5,0.1-5.5-0.3-8.5,2c-1.7-0.8-3.7-1.3-5.5-2c-0.2,2.3-1.6,3.4-2,5.5c0.5,1.1,2.4,0.9,2,3
	c-1.2,2-2.7,3.7-4.5,5v-2c-3.7,0-3,3.6-4,6c-1.7,4.1-4.8,7.8-7,11c-1.2-0.3-1.1-1.9-3-1.5c-1.2,2.2-0.4,2.9,0,5.5
	c-2,2.6-2.9,6.1-6,7.5c-1.2-1-2.9-1.5-5-1.5c-4.4-8.8-5.4-21.1-8-31.6c0.8-1.2,1.1-2.9,1.5-4.5h-3c-0.6-5-4.5-6.5-7.5-9
	c-0.2,5.3,1.6,8.4,3.5,11.5c-2.9,4.1-5.4,8.6-10.5,10.5c0-4.5-3.4-10-3-16.6c-2-3.3-4.8-5.9-6-10c7.6-4.2,17.1-6.5,26.1-10.5
	c6.3-2.8,13.8-7.7,20.6-6.5c0.5-1.3,2-1.7,3-2c9.6-3.2,18.3-2,27.1-4.5c1.2-0.2,0.9-1.7,2.5-1.5c0.8-0.1,4.5,0.3,3-0.5
	c-1.4,0.1-2.6-0.1-3-1c4-2.8,7.3-6.4,10.5-10c1.2-0.1,4.3-2.6,2-3c-2-0.2-2.7,2.7-4,4c-2.6,2.6-5.8,5.3-8.9,6.9
	c1.4-1,0.1-4.9,0.3-3.4c-0.6,5.6-7,8.1-12.5,7c4.9-8,10.8-15,18.1-20.6c2,1.6,5.2,1.8,6.5,4c9.2,0.5,12.5,6.8,17.6,11.5
	c5.2,1.9,9.5,4.9,12.5,9h2.5c3.8,4.1,10.8,4.9,14,9.5c3.5,0,5,2,7,3.5c3.6,0.4,8.9,3.4,12,6c-0.3,2.8,0.8,4.3,2.5,5
	c0.1-1.8,0.2-3.4,1.5-4c5.4,3.3,10.6,6.8,16.6,9.5c-0.1-0.9,0.5-1.2,1.5-1c6.4,1.7,12,2.3,18.6,3c11.1,1.3,19.1,9.3,29.1,9.5
	c-3.1-1.3-7.6-1.1-9-4c6.6,2.1,15.5,1.9,18.6,7.5c3.7,0.8,6.9,0.5,9.5-1c-0.9-4.5-5.8-6.9-9.5-7c-0.4-1.7-1.1-3.3-2.5-4
	c-1.4,0.8-3.3,1.1-4.5,2c-0.3,0.9,0.6,2.9-0.5,3c-3-1.3-8-0.7-10-3c1.2-0.6,3.6-1.7,2.5-3c-5.4,1.5-12,1-17.1-2.5
	c0.4-1.2,2.2-1.1,2-3c-2.7-1.8-4,1.5-6,2c-9.7-1.1-20.8-0.9-26.6-6c1.9-2,2.7-4.9,5-7.5c10.4,0.6,22.3-0.2,31.6,1.5
	c1-0.2,0.4-1.9,2-1.5c5.9,0.4,13-2,17.1,1c6.8,0.1,10.2-3.2,12-8c-2.1,0.4-3.4-2.1-5.5-2.5c-4.2-0.8-7.4,2-11,3.5
	c-1.3-1.5-3.6-2.1-4-4.5c-1.6,0-4.2-0.4-4.5-3c4.9-1.2,7.4-10.4,12.5-11.5c2.8-0.6,6.4,0.7,9.5,2c6.9-4.2,17.7,5.2,22.6-1.5
	c-1.3-1.4-4-1.3-4.5-3.5c0.7-1.5,1.6-2.7,1.5-5c-3.9-0.8-8.8,1.6-10,5c-2.2,0.9-4.3,1.7-7.5,1.5c-0.9-0.1-0.3-1.7-1.5-1.5
	c-1.9,1.8-7,1-8-1c2.5-0.1,1.2-3.9,3-4.5c1.3-1.8,3.2,1.5,4,0c-0.9-0.6-2-1-2-2.5c5.1-2.6,8-7.4,14.5-8.5c-0.9,0.1-1.2-0.5-1-1.5
	c2.2-1,4.9-1.4,6-3.5c-9.5,2.2-14.1,9.3-22.1,13c-0.6-0.8-0.6-2.1-1.5-2.5c-0.3,1.6,0.3,2.3,0.5,3.5c-1.8,1.5-4,2.7-5,5
	c-2.2-2-4.4-3.9-5.5-7c-2.4-0.1-4.1-3.5-5.5-6v-5c-4.3-1.1-6.4-3.2-10.5-3.5c0.9,3.1,1,7.4,1,10c3.1,1.9,6.2,0.9,9.5,3.5
	c1.1,0.9,1.5,2.9,2.5,4c2.8,3.1,5.9,3.9,5.5,7.5c-0.3,3.2-7.8,9.5-10,10c-2.6,0.6-6.6-0.9-9-2c-6-2.8-12.8-7.5-17.6-8.5
	c0-1-1.4-0.6-1-2c-0.9-0.1-1.1,0.6-2,0.5c-0.4-1.3-1.8-1.6-2.5-2.5c-7.1-2.2-11.4-7.3-16.6-11.5c-4.6,0.1-8.5-0.5-11.5-2
	c-3.6,1.8-9.6,2-13,2.5c-9.8-10.6-20.3-20.5-29.1-32.1c12.1-4.6,26.2-7.2,41.1-9c1,0.1,1,1.4,2,1.5c0.3-1.9,2.3-1,3-1
	c6,0.2,13.4,4,19.6,4.5c11.6-4.6,22.3,3,31.1,6c0-4.2-5.4-2.9-6-6.5c1.5-0.4,2.5-1.2,3.5-2c-0.8,0.2-1.7-1.9-0.5-2
	c2.5,0.6,3.2-0.1,5-0.5c4.7-1.1,11.2-1.5,16.6-1c3.2,0.3,4.6-0.2,7.5-0.5c2.7-0.3,14.3-0.2,18.1,0.5c3.8,0.7,5.4,3,7.5,5.5
	c3.9,4.6,8.3,10.4,11.5,14.5c5.1,6.5,7.7,14.1,9.5,22.6c0.4,1.5-1.4,1-1,2.5c0.1,1.4,2.4,0.6,2,2.5c-1.5,7.4-4.2,16.9,0.5,23.1
	c-0.2,1-1.4,0.9-1,2.5c1.2,1,1.1,0.7,3,0.5c2.9,4.6,6.5,8.6,9,13.5c2.1,0.6,2-1.1,3.5-1c1.5,3,6.1,5.5,10,3c-1.1-3.9-3.5-6.6-9-6
	c-0.7-0.5-1-1.3-1.5-2c-1.3-0.4-2.8,1.5-3.5,0c0.2-1.9,2.3-1.9,1-4c-1.6-1.4-2.1,1.2-4,1c-4-6.8-9.9-12.7-7-22.6
	c3.7-1.7,6.8-6.5,12.5-4.5c0.1-0.8-0.2-1.9,0.5-2c4.2-2,10.9-1.5,16.6-2c0.2,0.6,0.5,1.1,1,1.5c-0.7-4.4-6.6-0.6-9.5-2.5
	c15.1-3.3,31.5-5.3,47.7-7.5c1.1,0.4,2.6,0.4,3.5,1c-0.6-3.6,6.5-2.2,5-5c-1.3,1.9-5.3,3.7-8,2.5c-0.3-0.7,2-1.2,0.5-1.5
	c-6.7,5-21.3,3-28.6,6c-0.4-1.5,1.4-1,1-2.5c-5.3,4.8-16.6,3.5-24.1,6c1.3-8.8,9.4-16.3,5.5-25.6c4.1-0.7,7.2-5.2,7.5-8
	c-3.3,6.4-12.3,9.2-18.1,11.5c-3.3,3.2-7.3,5.7-12.5,7c-4.1-2.7-9-6.9-8.5-12.5c-1.8,0-2.3-1.4-3.5-2c-4-6.2-9.6-10.8-13.5-17.1
	c5.8-3.8,15.4-7.2,24.6-7c2.7,0.1,4.2-0.3,6-0.5c5.8-0.7,10.3,2,15,2c0.9,0,2.1-0.9,3-1c10.8-1.4,13.1,4.5,20.1,6
	c1.3,0.3,6.5,0.9,7.5-1.5c-5,0.7-11.1-1-13-5c2.2-5,3-11.4,5-16.6c6-0.8,10.9-2.9,18.1-2.5c2.3-2.3,6.3-2.2,10-3.5
	c5.1-1.8,8.5-3.8,15-3.5c1.4-1.6-1.7-1.6-2-3c2.8-0.6,4.8-3.4,9-4c4.7-0.7,9.6,0.8,9-4c-2.1-1.1-3.8-2.6-5-4.5c-2.1,0.8-3.3,0.7-5,1
	c-0.9,3.9-3,6.7-6.5,8c-0.1-0.9,0.5-2.5-1-2c-1.2,0-1.5,0.9-3,0.5c-3.5,6.4-10,9.7-18.6,11c-0.4-1.2,2.4-2.9,0-3c-2.4-1-4.4,2.6-6,4
	c-4.4,2-8.4,1.9-13,3c0.4-2.2,1.7-3.3-0.5-4.5c-0.3,1.7,0.3,2.5-1.5,4.5c-6.9,2-18,1.9-16.6-7.5c3.1-1.6,5.1-4.6,8.5-6
	c1.3-0.5,3.1,0.2,4-1.5c-1-0.3-3.3,0.6-3.5-0.5c2.3-1.8,4.6-4,6.5-5.5c0.9-0.7,2.3-0.9,3-1.5c1.6-1.4,2.6-3.9,4-5.5
	c0.9-1,3.2-1.2,2.5-3c-1.4,1-2.3,2.4-4,3c-3.8-6.8-14.3,2.1-20.6,0.5c1.8-1.4,4.2-3.5,7-5.5c6.2-4.5,11.7-8,16.6,0
	c0.3-1.3-2.1-2.6-0.5-3.5c2.8,0.6,7.5,1.8,10,1c-1-3-5.3-1.9-8-2.5c-3.8-0.9-7.5-2-8.5-5c0.6-2.3,6.4-2,7,0c0.7-2.2-1.4-1.6-2-2.5
	c9.8-3.2,16.9-9.2,24.6-14.5c-1.1,0.1-1.6-0.4-1.5-1.5c-4.1,4.1-8.6,7.8-14,10.5c-0.7,0-0.5-0.9-1-1c-2.1,3.5-8.5,4.8-11.5,4.5
	c-0.1-2.5,1.4-5.2,2.5-7.5c1-2.2,4-5.2,0.5-6c-3.5,4.5-5.2,11.3-7.5,15.6c-2,0.2-3.7,0-4-1.5c-2-8.4,6.1-9.3,6.5-13.5
	c-1.7,1.9-4.4,5.2-6.5,5c-1.8-7.8,8.1-8.9,6-15.6c-1,2.4-1.8,7.5-4.5,6.5c2.2-7.3,4.2-14.8,7.5-21.1c2.2-1.8,5.7-2.3,7-5
	c-1.8-0.1-4.4,3.2-7.5,3.5c1-1.7,0.7-4.6,2-6c3.7,1,9.1,0.7,10-2.5c0.1-1.9-2.6-1.1-2.5-3c0.1-1.9,3.7-4,1.5-5c-0.7,1.3-0.6,3.4-3,3
	c-0.1-0.4-0.4-0.6-1-0.5c-0.5-3.1,0.1-2.4,1-4.5c-1.3-0.3-2.1-0.9-3-1.5c1-4.3,0.5-11,3.5-14.5c8.2-0.4,18.5-2.2,26.1,0
	c0.8,0,0.4-1.3,1.5-1c8.3,3.2,18.2,4.9,25.1,9.5c0.1,4.4,3.4,5.7,8,5.5c1.2-1.2-1.1-4,0-5c5.9-0.1,10.4-1.6,15.6,0c-0.1,0,4,2,4,2
	c0.7,0.5,0.7,2.1,1.5,2.5c2.5,1.1,4.7-0.1,7.5,0.5c1-1.5,3.6-1.4,4.5-3c-0.6-1.3-3.8-2.8-1.5-4c-2.9-1.5-6-2.7-9-4
	c-0.3-1.9-1-3.3-2-4.5c-2,1.5-5.1,1.9-7,3.5c-1,1.3,0.8,2.1-0.5,3c-3.7,0.4-5.8-0.9-8.5-1.5c0.6-0.1,1.4,0.1,1.5-0.5
	c-9.3,1-20.6,0.9-27.1-4.5c0.5-0.5,1.9-0.2,1.5-1.5c-2-2.3-5.6-0.4-7,1c0.3-1.6-0.8-0.4-1.5-0.5c-2.2-0.4-4.7-2.1-7.5-1.5
	c-1.7-2.1-6.5-1.1-7-4.5c6.4-1,14.1-5.3,21.1-5c2.3,0.1,4.7,2.7,6.5,0.5c-4-2.6-0.9-5.6-1-9c-3.1,0.9-4,4.1-6.5,5.5
	c-6.5,1.5-13.5,5.2-21.1,4c2-8.2,5.4-15,12.5-18.1c2.8,0.4,4.5,1.9,8,1.5c3-2.9,6.5-5.2,7.5-10c-4.4,0.4-9.3-2.4-15.1,0
	c1.5-6.1-3.1-8.8-5-12c-3.6,4.4-7.3,6.1-6.5,11.5c0.3,2.1,3.1,3.7,3.5,6c0.8,4.9-3.8,7.8-6.5,11.5c-0.7,8.5-4.7,13.7-13.5,14
	c0.7-2.8,1.1-4,0.5-6.5c1.6-4.5,6-8.8,9.5-10.5c0.7-0.3,3.5,0.6,2.5-1.5c-0.9,0.9-3.2,2-4.5,1c-5.6,3.1-5.6,11.8-15.5,10.5
	c0.5-2.8-1.9-3.2-0.5-5.5c-3.3-1.8-3.3-4.4-8.5-3.5c-2.4,1.9-1.7,8,0,10c-3.3,0.3-1,4.6-4.5,5.5c-1.3,0.1-2.7-2.2-3.5-1
	c0.6,1.2,2.2,1.5,2,3.5c-4.2,4.8-11.7,11.1-18.6,12.5c-4.8,4.3-10.3,8.1-16.6,11c1.1-8.3,0.7-17,3-26.6c4.6-2.1,10.7-5.3,8-13
	c-4.9,1.1-7.2,2.1-9.5,6c0.2-3.9-1.7-4.4-3-5.5c-2.8-2.4-2.2-1.9-5-2.5c-1.9,4.2,0.9,7.7,1.5,11c1.7,1.7,3.7,1.4,4.5,4
	c0.9,3.2-1.4,7.9-1.5,11c-1-0.2-0.9-1.4-2.5-1c-2.3,3,0.7,6.1,2,8.5c0.9,11.4-5.2,14.2-11.5,17.6c-7.3,9.2-18.5,14.6-28.1,21.6
	c-1.3-0.9-4,0.1-5.5,0.5c-0.8-1.2-1.7-2.3-3.5-2.5c-4.3,4.7-7.5,10.6-14.5,12.5c-1.9-0.6-1.9-3.2-4.5-3c-1.5,0.3-0.3,3.4-2,3.5
	c-2.8-1.1-6-1.7-7.5-4c-2.1,1.4-4.7-1-7.5-0.5v-1.5c-5.7,0.3-8.7-2-12.5-3.5c1.3-3.1,4.8-5.4,7-6c6.1-6.8,12.5-13.3,21.6-17.1
	c5.1-5.7,13-8.7,20.1-12.5c0-0.9-0.1-1.6-0.5-2c4.1-1.9,4.9-7.3,10-8c2.2-0.3,5.1,2.1,8,1.5c1.7-0.4,2.9-1.9,4-4
	c-2.7-2.3-5.1-3.4-9-3c2.6-2,1.3-6.7-0.5-8.5c-2.9,0.6-4.5,2.5-6,4.5c-0.6,3.6,1.2,4.7,0.5,7c-6.3,8.4-14.9,14.6-24.6,19.6
	c0.2-1.2,0.8-1.9,0.5-3.5c-1.6,0.2-2.2,1.5-3.5,2c-0.2,1.8-1,3-1.5,4.5c-7.6,4.6-13.6,10.8-20.6,16.1c-1.2,0.1-1.6,0.9-2.5,0
	c-1.8,8.2-11,9-19.6,10.5c1-2.4,4.3-2.4,4.5-5.5c-4-0.2-4.7,4.9-9,6c-2.5,0.6-9.1-0.5-13.5-0.5c-2.8,0-7,0.8-9-1.5
	c-0.7-4.8,4.3-6.9,6-10c0.4-0.7,0-1.8,0.5-2.5c3.3-5,8.8-8.1,13.5-12.5c1.4-0.9,5.2,0.5,5.5-1.5c0.1-2.1-1.9-0.7-2-1.5
	c0.8-3.2,4.3-4.2,7-6.5c2.8-2.4,5.1-6.2,8.5-7.5c2.4-1,4.4,0,6,0.5c2.3,0.7,5.6,1.3,8.5,1.5c8.8,0.7,20.2-1.9,26.1,0
	c2.1-4.3,11.4-1.3,13.5-5.5c-11.9,3.1-21.3,3.2-35.6,3.5c0.1-0.7,0.8-0.8,1-1.5c-2.7,2.4-15,1.1-17.1-2c-1.4-2.2,1.7-8,6-9
	c1.5,0,3,2.5,3.5,0.5c-2.5-1.2-4.8-0.2-6.5-1.5c0.7-0.1,0.5-1.2,0.5-2c3.7-2.5,8.9-1,14-1c3,0,7.2-0.8,9-1c6.8-0.7,15.2,0.1,18.6-4
	c-5.9,0.9-10.1,1.5-17.1,2c-1,0.6-0.4,0-1,1c-6.4-1.4-16.3,0.7-21.1-1.5c4.3-7.9,8.6-15.8,15-21.6c0.6-5.4,7.5-12.7,12.5-13.5
	c-0.4-2.8,2.5-2.1,3-4c-8,3.9-13.7,10-18.6,17.1c-1.4,0-1-0.8-2,0c0.4,1.5-0.9,1.5-0.5,3c-2.2,2.7-4.5,6.1-7,10
	c-2.4,3.6-3.7,8.7-6.5,10.5c-2.3,1.5-6.1,1.8-9.5,1.5c2.7-9.8,6.9-18.2,13-24.6c1-0.2,0.9-1.4,2.5-1c0.4-1.5-0.5-1.8-0.5-3
	c6.5-7,15-12,18.1-22.6c3.2-3.7,6.2-7.5,9.5-11c1.4,0.4,1.3-0.7,2.5-0.5c0.5-0.9-1.5-1.7,0-2c2.2-1.9,6.3-5.6,9.5-8
	c0.1,0.6-0.7,0.8,0,1c1.6-1.9,3.8-4.4,5.5-6c1.2-1.1,2.7-1.4,3.5-2c1.3-1.1,2.5-2.8,4-4c3.1-2.5,6.9-6.1,9.5-7c2.9-1,4.8,0.2,7,0.5
	c7,0.9,17.2,0.7,23.1,2.5c0.8,0,0.4-1.3,1.5-1c9.6,0.5,20.8-0.4,28.6-1c4-0.3,8.5-1.4,11-1c3,0.5,4.1,4.3,7,2.5
	c0.5-2.2-1.7-1.6-1.5-3.5c4.8-2.4,11-3.4,16.1-5.5c1.2,1.8,4.9,2.7,7,2c-0.1-5.3,4.9-5.4,6-10.5c-0.7-0.3-0.9-1.1-1-2
	c-7-0.8-8.2,4.6-11.5,7c-5,3.7-10.1,4-17.1,6.5c1.4-2.3,3.8-3.6,4-7c-3.4-0.2-4.9,1.5-7,2.5c-0.8,1.4-1.4,2.9-2,4.5
	c-2.3,1.1-5.2,2.2-8,2.5c-10.7,1.2-21.5-0.4-32.6,0.5c-0.9-0.1-0.3-1.7-1.5-1.5c-2.8,1.5-8.9,1.4-11,0c-3.8,0.5-10.6-0.4-13.5-2.5
	c2.1-2.9,5.9-3.7,8.5-6c2.7-2.4,3.3-5.3,7-6.5c2.2-0.7,5.3,0.7,6.5-1.5c-3,0-3.7,1-6-0.5c5.7-6.8,13.7-15.7,20.6-22.6
	c2.4-2.4,6.6-5.2,10-8c3.1-2.5,9.3-7.8,12.5-7c0.1-2.5,3.9-1.5,5-3c-12.6,1.6-20.5,11-29.1,18.1c-0.7,0-0.5-0.9-1-1
	c-0.4,0.9-0.8,1.8-1,3c-8.9,6-13.3,16.5-22.6,22.1c0.2-1.2-0.1-1.9-0.5-2.5c2.4-1.5,2.8-4.9,3.5-8h1.5c-1.1-1.7,0.5-2.6,1-3
	c0.2-0.2-0.6-0.8-0.5-1c0.7-1.8,1.8-1.3,2.5-2c0.6-0.6,1.5-2.5,2.5-3.5c2.7-2.8,4.9-5.4,1.5-7c1.6-3.1,6.2-3.2,8.5-5.5
	c-0.4-1.9-0.8-3.9-2.5-4.5c-2.2,0.8-4.2,1.9-6,3c-1-3.1-4.7-4.5-8-2.5c-0.9,5.6,3.9,5.4,6.5,7.5c0,3.5-3.4,5.3-4.5,9
	c-2-0.5-2.2,0.8-3,1.5c-1.5-1.8-1.5,0.4-4,0v3c2.4,1.5,1.2,5.6,2.5,7H611c1,3.1-1.6,3.7-1,6c-2.8,0.3-2.4,4-3.5,6
	c-2.9,2.3-5,5.4-8.5,7c0.1-5.9-1.5-10.9-1-16.6c0.2-2.3,1.3-4.7,1.5-7c0.2-2-0.3-4.8,0-7c0.3-2.2,1.6-4.3,2-6.5
	c0.1-0.7-0.5-1.8-0.5-2.5c0.1-2.4,1.8-4.7,2-7c0.1-1.1-0.5-2.4-0.5-3.5c0-7.1,1.4-14.9,2.5-22.6c3.1-1,5.6-4.2,3.5-7.5
	c-2.3,0.2-2.7,2.3-4.5,3c1.3-6.6,0.8-12.8,1.5-18.1c0.3-2.5,0.6-6,2-8c1.1-1.7,4-1.9,5-3.5c1.4-2.2,1.3-5.9,1.5-8.5
	c-3.9-1-6.5,3.5-9.5,5c1.2-3-2.5-5.1-6-5c-1.1,2.8-2.4,4.7-1,8c0.9,2.2,3.9,3.4,4.5,5.5c1,3.7,0.2,9.6,0,13.5
	c-0.2,2.8-0.3,5.7-1.5,8c-0.3-2.9-3-3.3-5-4.5c-0.8,2.4,0.2,3.6,0,6.5c8.3,4.9,4.5,14.1,4.5,25.1c-1.6,0.3-1.5-0.9-2.5,0
	c-0.5,3.1-0.4,4.9,1,7c-0.3,3.8-1.1,7.7-1.5,10c-0.5,3.2-0.1,7.1-1,10.5c-0.2,0.6-0.9,1.3-1,2c-1.2,10.4,2.1,23.5-3,29.1
	c-1.7,1.9-3,2.3-5,4c-3.6,2.9-9.3,8.5-13,8.5c-0.1,3.8-4.4,4.1-6.5,5.5c-1,0.7-1.3,1.9-2.5,2.5c-1.3,0.7-2,1-3.5,0.5
	c-1.5-1.9,1.8-2,0.5-3.5c-1.3,0.3-1.8,0.7-2.5-0.5c-0.3-2.5,1.2-3.8-1-4.5c-0.3,1.9,0.2,4.9-1.5,6.5c2.1,0.7,1.8,3.9,2.5,6
	c-3.6,6.4-8.1,12-13,17.1c0.2,2-1.2,2.5-1,4.5c-4.2,5.2-9.2,9.6-13.5,14.5h-2c-0.3,6.6-5.2,8.5-7.5,13c0-1.6,1.4-1.9,1-4
	c-1.9,0.5-4.1,0.3-5,0c1-4-2-6.2-4-8.5c-2.1,2.4-5,3.6-5,7c0,2.4,3.5,4.8,3.5,7.5c0.1,3.8-2.3,5.3-6,6c3.6-3.5,2.7-9.7,1-14.5
	c-6,0.8-12.7,8.3-9,17.1c-2.1,3.1-4.2,6.1-8,7.5c-6.6-2.7-7.6-8.9-13-12c5.3-7.5,10.8-14.6,14.5-23.6c1.7-0.5,1.7-2.6,3.5-3
	c0.8-4,2.9-6.8,3-11.5c0.8-0.7,2.6-0.4,3-1.5c-0.7-0.3-2.6,0.6-2.5-0.5c1-2.9,0.4-5.2,2-8c-4.3,3-2.7,10.8-4.5,16.1
	c-0.8,2.4-3,3.7-4,5.5c-0.4-4.3,3-8.2,0.5-11.5c-0.7,5.3-1.8,10.2-4,14c-0.5-0.7-0.5-1.9-1.5-2c0.2,0.8,0.6,1.8,0.5,3.5
	c-0.3,4-5.4,12.6-7.5,15c-0.5,0.6-1.6,0.5-2,1c-1.2,1.4-2.2,4.5-3.5,4.5c-1,0-2.3-3.1-3.5-3.2c-0.1,0.1-0.2,0.2-0.5,0.2
	c0.2-0.1,0.3-0.2,0.5-0.2c0.3-0.5-2.6-2.1-2.5-3.3c-2.1,0.6-3.1,0.2-4-1.5c3.3-4.8,3.6-12.4,10.5-13.5c2.5,0.2,0,2.9,2,3
	c1.5-2.8-2.5-4.1-4.5-5c1.3-2,3-4.3,4.5-6.5c1.5-2.1,4.1-4.4,2.5-6.5c-2.8,2.6-4.6,6.1-6.5,9.5c-5.5,3.4-5.9,11.8-10.5,16.1
	c-0.9-1.4-2.4-2.3-2.5-4.5c0.8-1.2,2.1-1.9,3-3c0.1-1.9,0-3.7-0.5-5c-1.6-0.9-7.2-1.5-5-3c-5.7,1.3-9.1-1.1-13.5,1.5
	c-0.2,8.5,7,7.5,11.5,11c2.9,2.3,3.4,5,5.5,7.5c-1,0.5-0.8,2.2-2.5,2c0.2-1.6-0.6-2-1.5-2.5c0.6,3.4,0.9,8.3-2,9.5
	c-0.8,5.6-0.2,13.6-2.5,19.1c-2.6-2.2,0.6-6.2-0.5-8.5c-4.2,2.4-2.9,7.9-4,12c-0.9,3.3-3.4,6.6-5,8.5c-1.7,2-2.7,4.1-4.5,5.5
	c-1.7-6-1.1-14.1,2.5-17.6c-1.1-2.7,0.4-3.7,1-6c-1.4,0.4-1-1-2-1c-2.9,6.9-6,15.9-5,24.1c0.2,2.1,1.8,3.1,1.5,5
	c-0.3,2.8-3.3,5-4.5,7c-1.8,2.9-2.3,5.7-4.5,7.5c-2.2-0.2-3,2.1-4.5,3c-7.6,4.3-16.8,5.6-24.6,9c-0.3-0.7-1.1-0.9-2-1
	c-1.3-4,0.8-5.7,0-9.5c-1.4-0.9-2.6-2.1-4-3c-3.9,4.7,0.3,8.6,2,13c-0.9,0.1-1.1,0.9-1,2c-4.6,0.4-10.2,4.7-14,2.5
	c3.6,0.2,7.9-2.2,9.5-5.5c-2.7,0.6-3.3-1.1-5-1.5c-1.2,1.7-2-0.1-3.5,0.5c-2.4,0.9-3.3,4-6,4.5c-2.3,0.4-6-1.3-7-1.5
	c-2-0.3-5.4,0.3-7-1.5c1-1,1.1-3,3-3c-0.4,1.2-1.4,4.3,1,4c0.9-5.8,3-10.4,9-11c0.7-0.6,0.8-1.9,1.5-2.5c3.6-2.2,7.1-4.6,11.5-6
	c11.4,0.1,14.2-12.5,19.6-20.1c-1.1-0.1-0.2-2.1-0.5-3c3.9-5,5.4-12.3,11.5-15c1.7-4.1,4.5-7.2,9.5-8c-0.4-3,2.9-4.1,5-5.5
	c3.9-2.6,8-6.5,12.5-7.5c-1.4-1-4,0.6-6,1.5c-2.5,1.2-7.3,3.2-5,3.5c-5.1,1.6-8.9,6.1-13,9.5c-1.7,1.4-4.3,2.4-6,4
	c-4.3,4-6.4,11.6-12,13.5c-2.5-3.2-2.3-9.1-5.5-11.5c0.4-1.5-0.5-1.8-0.5-3c2-2.1,2.8-4.6,5-6c1.2-0.8,2.8-1.4,4.5-1.5
	c2-2.3,4.2-6.6,2-11c-3.3,1.5-7.4,2.3-9.5,5c0-3.5-2.4-4.6-4.5-6c-1.4-0.2,0.4,2.7-1,2.5c-1.5-0.5-0.4-3.6-1.5-4.5
	c-1.4,2.3-1.3,6.1-2,9c6.7,5.8,4.3,18-1.5,23.1c0.1-3.4-0.6-3-1-6c-2.3,1.8-4.3,4.7-4.5,7.5c-0.2,2.3,1.3,4.8,1,7
	c-0.3,2-2.5,5.1-4,7.5c-3.3,5.3-5.4,7.6-10,10.5c-2,1.3-4.3,2.8-6.5,3c-2.1-8,2-16.2,3.5-23.6c0.2-1.1-0.1-2.5,0-3.5
	c1.2-8.2,5-17.5,11-20.1v-2c4.2-3.1,6.7-8,12-10c0.5-0.7,0.5-1.8,1-2.5c0.7-0.2,1-0.7,2-0.5c0.6-2.6,3.3-3.9,5-5.5
	c6.7-6.1,14.2-11.8,21.1-17.1c1.1-0.9,3.3-1.9,3.5-3.5c-3.8,0-6.5,3.7-9.5,6c-3.2,2.4-6.2,5.2-10,6.5c-3.5,5.2-10.8,9.5-16.6,14.5
	c-4.6,4-7.6,12.1-14.5,9c-0.3-3.8,4.4-7.3,2-10c-1,4.3-4.4,7.5-5.5,11.5c-1.4,4.8-1.2,10-2,15.1c-0.6,4-3,9-3.5,11.5
	c-0.2,0.9,0.6,1.1,0.5,2c-0.3,3.9-2.4,8.4-3,12.5c-1,7-0.3,10.6-4.5,13.5c-3.6,2.6-13.3,5.9-18.1,6.5c-1.8,0.2-3.4-0.3-5,0
	c-3.7,0.7-7.6,3-12,4c-7.9-0.3-11.3,0.5-17.6-1c8.6-4.1,15.4-10,24.6-13.5c5.7-6.9,13.7-11.4,19.6-18.1c1-0.5,2-1,3-1.5
	c0.2-2.4-1.1-3.6,0-5.5c-2.5-0.2-2.9,1.8-4.5,2.5c-0.3,1.6,0.9,1.6,0,2.5c-5.8,6.3-11.1,13-20.1,16.1c-5.1,5.8-12.7,9.1-19.6,13
	c-1,0.9-0.9-0.3-2.5,0c-1.3,2-5.5,5-7.5,3c5.5-5.7,8-14.5,15-18.6c-0.4-2.2,0-2.8,1-4c1.9-2.2,5.7-5.8,8-6.5c0.3-4.1,5.3-3.5,7-6
	c1.7-2.4-0.2-6.1,3-7.5c5.5,0.7,12.3,3.4,13.5-3c-1.9-2.2-6.6-4-10-3c2.1-2.4-0.6-6.9-2-9c-3-0.7-6.1,1.4-6.5,4
	c-0.4,2.8,2.3,5.4,2,8c-0.6,5.5-6.9,7.6-9,12.5h-2c-0.5,5.9-3.8,6.8-7.5,10c0.6-2.9-1.1-3.6-3-4c-0.9,3,0,4.3,0.5,7
	c-0.4,3-3.5,4.6-5.5,7.5c-1.9,2.7-2.4,7.6-6.5,7c0.4,1.3,0.7,2.3-0.5,3c-2.3,0.1-3.9-0.4-5-1.5c-0.3-1.3,2.2-4,0-4
	c-2.1-0.1-1,3-2.5,3.5c-3.2-1.9-9.5-2.5-9.5-6h-3c-9.8-4.9-20.6-8.8-27.1-17.1c3.2-8.3,6.2-16.9,12.5-22.1v-2.5
	c4.5-4.4,8.2-9.5,14-12.5c2-4.2,5.4-6.3,9.5-10c3-2.7,6.4-5.8,9.5-7c2.7-1,5.5-0.8,8-1.5c1.6-0.4,2.9-1.3,4.5-1.5
	c1.1-0.1,3.4,0.6,5,0.5c3.1-0.3,5.1-1.7,7,1.5c1,0.9,0.2,2.4,0,3.5c0.9,0.5,1.7-1.5,2,0c-1.5,3.2-4.8,4.6-5,9c1.8,0.9,2.6-1.7,3-0.5
	c0.8,1.4,0.1,4.2,2,4.5c2.8-6.9,1.6-18-5-20.1c0.3-1.8-1.1-1.9-1-3.5c6.1-3.9,12.3-9,17.6-13c2.1-1.6,4.4-2.6,6.5-4
	c1.5-1,4.8-3.9,4.5-5c-2.3,1.3-4.3,4.7-7.5,3.5c-3.8,4.2-8.8,7.3-13,11c-1.8-0.1-3.2,0.1-4,1c4,0.1-3.8,4.4-5.5,4c0-1.6,0.3-3.1,1-4
	c1.2,0.6-1.2,2.1,1,2c0.1-1.7,2.8-0.8,3-2.5c-2.7,1.7-5.3-1.9-7-1c0.2,1.9-2.4,2.4-3,3c-0.6,0.6-1.7,3-2,3.5c-3.1,4.3-6.3,8-13,5
	c0.3-2.5-0.9-3.5-0.5-6c1.2,0.8,2.4,1.2,3.5,0c-1.3-0.2-3.1,0.2-2.5-3c-1.8-0.3-1.6,2.4-3,1c0,3.9,0.1,7.8-0.5,11
	c-4.8,4.1-8.9,8.8-14,12.5h-2c-2.8,4.4-6.1,6.9-9.5,10.5c-2.4,2.6-4,6.2-7,6.5c-2.1,6.6-7.7,12.6-10.5,19.1c-0.7,1.7-0.4,3.5-1.5,5
	c-0.7,1.1-2.6,1.3-3,2.5c-11.4,3.7-20.5,9.4-31.6,12c-1.6-0.8-2.2-2.4-2.5-4.5c-2.9-2.1-4.5-5.8-5-9.5c-0.7-5.2,1.1-10.7,1.5-15
	c0.1-1.2-0.6-2.8-0.5-4c0.1-3.1,1.2-7.3,2-10.5c1.2-4.7,4.1-9.1,5.5-13.5c1.2-3.8,1.3-6.9,2.5-9.5c2.8-6.1,6.6-11.8,10-15l4-4
	c1.2-0.8,2.1-1.9,4.5-1.5c3.8-4.6,10.3-7,16.1-9c8.8-3.1,17.2-8.7,27.6-7.5c0.1-0.8-0.2-1.9,0.5-2c7.2,0.2,8.2,1.1,15.6,0.5
	c-0.6,0.7-0.6,1.3,0,2c2.5-2.2,6.9-2.5,11.5-2.5c3.1-3,9.4-4.4,14.5-6.5c2.6-1.1,5.1-2.3,7.5-3.5c2.6-1.3,5.2-2.2,7-4
	c-2.1-0.9-4.1,1-6,2c-7.3,3.6-16.7,8.4-24.6,8.5c-1.3,0.9-2.9,1.5-5,1.5c0.6-0.9,2.4-0.6,2.5-2c-4.5,1-11.4,5.3-14,0.5
	c-0.1-0.2,0.3-3.7,0.5-4.5c1-4.7,4.8-12.4,7.5-15c1.2-4.5,4.9-11.1,9-14c2.6-1.8,6.6,0.1,9.5-1c2.9-1,6.7-5.8,6-8.5
	c0,0-10-0.7-12-0.5c-0.2-3.5-0.6-5.9-3.5-8c-6.2-1.3-9.4,10.4-4.5,14.5c-0.2,4.6-2.7,6.2-4.5,9c-2.9,4.4-5.6,8.7-7.5,13.5
	c-1.9,4.8-2.1,9.2-5,14h-2.5c0.3-8,3.1-12.1,3.5-19.1c-3,1-4.6-2.1-5.5-1.5c4.4,4.2,1,14.4-0.5,19.1c-5.1,3.8-11.7,6-18.6,8
	c0,0-5.4,1.2-7,2c-1.2,0.6-2.2,1.5-4,1.5c1.5-2,2.2-4.8,5-5.5c2.4-2,1.7-8,6-8c0.6-1.6-1.6-0.4-1-2c3-2.4,3.3-6.1,7-8
	c3-1.6,6.9-1.6,8.5-3.5c1.6-1.8,2.4-5.3,1.5-7c-2.5,2.2-7.6-2-9.5,2c-2.6-1.8-5-1.1-6.5-2c-1.3,1.8-1.7,4.3-2,7c0.4,1.6,2.4,1.6,3,3
	c-2.7,0.7-4.6,2.1-6.5,3.5c-2.6-1.6-0.9-7.5-3.5-9c-0.6,1.3,1,3,0,3c-2.2-1.9-3.8-0.4-6.5,2.1c1.2-5.8,2.4-12.9,4-18.6
	c0.3-1,1.5-4,1.5-4c1.2-2.5,1.5-5.8,4-7c0.8-1.8-1.7-0.3-1.5-1.5c1-0.9,1.1-2.6,1-4.5c-3.9,3.5-4.1,10.6-6.5,15.6l-1,2.5
	c-2.2,5.3-2.9,12.1-5,17.6l-1.5,4c-0.9-0.1-0.3-1.7-1.5-1.5c1.5,8.5-2.3,15.5-6.4,21.5c-2,2.9-4.1,7.6-6.6,10.1c0,0-2,2.6-2.5,3.5
	c-5,8.6-10.7,17.7-14.5,29.1c-0.3,0.8,0.2,1.7,0,2.5c-1.2,4.4-2.9,8.5-4,13c-1.1,4.6-2.5,9.1-3,14c-1.6,16,2.2,26.3,9,35.6
	c-17.7,6.2-34.9,16.9-50.7,25.1c-6.5,3.4-12.1,6.8-18.1,10c-3.9,2.1-8.1,3.8-11.5,6c-0.6,0.4-3.2,2.5-4,3
	c-7.1,4.8-13.4,10.5-19.1,16.1c-3.5,0.2-4.9,2.7-8,3.5c-4.3,1.1-34.6,2.3-38.6,2c-2.2-0.1-4.4-1.4-6.5-1.5
	c-3.6-0.2-6.7,2.4-11.5,1.5l-11.5-1c-2,0.2-17.6-1-24.6-0.5v18.1c9.3,0.7,20.8-0.1,28.1,1c1.7,0.2,6.5-0.5,6.5-0.5
	c7.3,6.2,12.9,14.2,19.1,21.6l2.5,2c6.7,6.8,13.9,13.2,21.6,19.1l3,2c1.9,1.2,6.7,4.7,8.5,6.5c2.5,2.4,5.6,2.8,6.5,8
	c0.4,2.3,4,8.5,4,8.5c2.1,3.4,4.4,6.6,6,10.5l5.5,9.5c2.5,4.4,5.5,8.2,7.5,13l1.5,3.5c3-1.4,5.9-1.2,7.9,1.5
	c1.3,1.7,4.1,7.6,4.1,7.6c0.9,1.9,1.6,4.1,4,4.5c2.2,0,2.5-1.8,5-1.5l7,4c2.4,3.7,7.5,7.1,11,10.5c2.5,1.7,4.1,4.3,6.5,6
	c7.2,5.1,8.8,11.3,15.9,15c9.3,4.8,11.1,1.8,20.8,7c1.4,0.7,5.9,2.1,5.9,2.1c3.1,1.9,8.2,1.9,9,6c1.2,0,1.5-0.9,3-0.5
	c7.7,4.2,16.7,6.1,22.6,12c0.9,0.9,4.5,5.5,7,7.4c3.7,2.9,8,6.3,12.1,7.6c3,6.3,8.7,10.1,13.5,14.5c4.7-0.3,7.5-2.5,12.5-2.5
	c4-2.5,9.7-4.3,14.5-4.5c3-3.1,8.3-4.1,13.5-5c-0.1-1.1,0.1-1.9,1-2c3.6-0.9,6.3-3.2,10-3.5c2.2-0.2,4.5,2,6.5,0
	c0.6-1.5,1-3.2,0.5-4.5c-7.6-3.8-10.6,7-19.1,7c-0.2-1.2,0.9-1.1,0.5-2.5c-4,3.1-7.7,8.3-15,6.5c-0.7,0.6-1.4,1.3-2,2
	c-3.9,1.1-7.8,4.4-12,3.5c-9.9,7-19.3-3.1-22.1-11c-7.1-0.7-9.8-4.8-14.5-8.5c-2.8-2.2-5.6-4.9-6.5-9c-4-1.8-23.8-11.8-33.6-15
	c-1.7-0.6-6.5-3-6.5-3c2.7-5.9,6.7-10.3,11.5-14c4.2-2.7,5.7-4,9-5.5c2.5,0.1,6.2,0,6.5-3.5c-2.5-2.3-7.6-0.2-7.5,1.5
	c-0.9-0.9-1.7-2-3-2.5c-0.9,0.7-2.2,2.6-1,4c1.3,1.7,2.8-1.9,3.5-0.5c-8.3,3.5-14.1,8.9-17,12.2c-2,2.2-2.2,5.5-6.1,7.4
	c-8.5-3.4-17.1-4.9-23.1-12.5c-2.2-2.8-7.2-7.8-10-10c-2.4-1.9-11.9-8.5-11.5-12c2.3-6.7,8.6-9.5,13.5-13.5l9.5-6.5
	c2.9-1.3,4.4-4,8-4.5l4.5-1.5c1.5,4.4,11.2,9.5,18.6,12.8c3.9,1.7,6.8,3.5,8.5,3.3c-0.9-6.1-6-3.5-11.7-6c-4.4-2-9.4-5-13.4-11.1
	c-1.8-1.3-2-5.7,0-7C197.9,435.4,204.6,436.2,210.2,438.7z M391.3,203.4c0.9,0.1,1.1,0.9,1,2C391.4,205.3,391.1,204.5,391.3,203.4z
	 M392.3,209.9v-1c1.1-0.2,1,0.7,1,1.5C392.9,210.3,392.8,209.9,392.3,209.9z M387.3,239c-0.4-5.8,4.9-9.6,6.5-15
	c2.7,1.6,2.6,6.1,4.5,8.5c-0.3,1.8-1.7,2.6-3.5,3c-2.8,3.4-6.5,6.6-10.5,9.5c-1,0.7-2.1,2.7-3.5,2C382.8,244.2,384.4,241,387.3,239z
	 M373.7,258.1c1-0.2,0.9-1.4,2.5-1c0-1.2,0.9-1.5,0.5-3c2.6-1.5,4.9-3.1,8.5-3.5c0.1-1.1-1.8-0.2-2.5-0.5
	c4.8-4.9,11.9-7.5,16.6-12.5c3.8,1.2,1.2,9.2-2,14c-1.4,2-5,5.4-7.5,6.5c-1.3-0.1-2.4-0.3-3-1c-5.1,3.9-11.7,6.4-17.1,10
	C368,264.8,372.4,260.6,373.7,258.1z M373.2,208.9c-1.2,2.5-2.5,4.8-5,6C369.4,212.4,368.9,208.3,373.2,208.9z M309.5,183.3
	c0.6,0.2,1,0.6,1,1.5c-0.3,0.9-2.4,0-2.5,1C306.2,184.6,309.2,184.1,309.5,183.3z M307,176.3c0.7,0.2,0.8,0.9,1.5,1
	c-0.2,4.2-4.5,4.2-6.5,6.5C301.3,181,306.2,179.4,307,176.3z M248.8,139.7c0.2,1.9-1,2.4-1.5,3.5c-0.4-0.4-1.1-0.5-2-0.5
	c0.4-0.4,0.5-1.1,0.5-2C247.7,141.2,247.2,139.4,248.8,139.7z M245.8,130.7c0.8,2.2,1.2,4.8,2,7c-4.2,0.3-6.9,4.3-12.7,5.8
	C235.6,136.5,239.2,131.6,245.8,130.7z M238.5,157.6c-3.4,3.4-8.2,5.8-12.3,7.2l-0.5-2.5c-0.2-1.1,3.6-7,4-7.8
	c3.1-5.8,5.7-7.2,13-11.7l1.3,6.8L238.5,157.6z M232.8,375c4.5-1.9,7.6-5.1,13-6c0.3,0.9-1.5,2.1,0,2.5c-2.7,1.6-8.5,2.8-12.5,4
	C231.8,375.9,231.8,376.8,232.8,375z M140.4,455c-0.1-5,6.3-6.5,9.3-8.5c2.5-1.8,11.3-5.9,11.3-5.9c8.3-3.8,14.5-9.5,25.1-11
	c0.4,1.8,0,1.3,2.5,1c0.2,3.8-5.3,7.6-7.3,9.1c-5.6,4.2-23.6,16.9-30,23.6L140.4,455z M430.9,572.1c-0.4,0.7-4,0.4-4-1
	C427.6,572,430.2,571.2,430.9,572.1z M424.4,570.6c-1.8,1.3-4.5-0.9-6.5-1C419.6,568.4,422.5,570.3,424.4,570.6z M386.3,537.5
	c3.9-0.3,9,0.6,12-0.5c-0.8-2.9-5.2-1.1-8-1.5c-2.4-0.3-3.8-1.5-5.5-1.5c0.9-0.6,1.8-5.1,4-4.5c5.7,1.4,14.2,2.8,16.1,7
	c2.2-2.3,5.6,0.4,8,1c-2.7,9.6-4.6,19.1-2,28.1c-6.3,0.3-10.6-2.6-14-5.5c-4.2-3.5-8-8-10-12c-2.8-1.2-4-4-6-6
	c0.3-1.9,0.9-3.4,2.5-4c0.5,1.5,0.5,3.5,1.5,4.5C387.1,542.6,384.8,538.2,386.3,537.5z M410.8,568.6c-0.7,3.1-4.8,1.6-6.5,0.5
	C404.8,567.3,409.6,568,410.8,568.6z M378.7,538c-3-1.4-5.4-4.8-4-9c2.7,1,3.8,3.6,6,5C380.9,536.1,378.6,535.9,378.7,538z
	 M384.3,529.5c0,1.5-1.3,1.7-1.5,3c-2.9-1.1-4.1-4-6.5-5.5C379,524,380.9,529.7,384.3,529.5z M370.7,493.8c3.1,8.9,4.4,19.7,7,29.1
	c-7.1-0.5-8.4-6.7-12.5-10v-2c-2.9-1.1-4.4-3.7-6-6C362.4,500.6,365.2,495.9,370.7,493.8z M355.2,508.4c3,1,4.4,3.6,5.5,6.5
	c4.2,2.2,6.1,6.6,9,10c-2.1,11.8,8.4,17,13.5,24.6c0.2,1.2-0.1,1.9-0.5,2.5c1.1,1.1,1.4-0.2,3,0c4.9,6.8,12,11.4,16.1,19.1
	c2.4,0.2,3.2,2.1,5.5,2.5c3.1-0.1,3.7-2.6,7.5-2c-0.6,3.8-4.6,4.1-6.5,6.5c-7.1-0.1-12.9-4.2-18.6-7.5c-4.4-2.6-8.4-5.1-12-8.5
	c-0.4-1.5-0.4-1,0-2.5c-4.8-1.8-7.3-8.7-5-14.5c-4.1-6.2-6.8-13.9-11-20.1v-4c-2.3-1.3-2.3,2.2-5.5,1.5
	C350.7,520.3,352,512.1,355.2,508.4z M354.7,524.9c-0.4,1.1-1.1,2-1,3.5c-4.1-0.4-3.4-5.7-4-9.5
	C350.8,521.5,352.3,523.6,354.7,524.9z M554.8,486.3c-1,1.6-2.2-0.8-3.5-0.5C552.3,484.3,553.5,486.6,554.8,486.3z M547.8,484.3
	c-1.5,0.9-7-0.6-6.5-0.5C536.8,483,547.3,483.5,547.8,484.3z M539.3,344.4c4.8-1.9,12.1-1.2,17.6-2.5c1.4,0.6,1.5,2.5,1.5,4.5
	c-1.1,0.7-5.4,1.3-4.5-1.5C550.3,346.7,540.5,351.8,539.3,344.4z M519.2,350.9c-2.5,0.7-7.2,0.7-9,0.5c-0.8-1.7,1.7-3.8,2-6
	c5.8-0.5,13.2,0.4,18.6-0.5c-2.5,3-6.7,4.3-10.5,6v-5C519.3,347,519.8,349.4,519.2,350.9z M510.2,344.9c-0.2,2.8-1.9,4.1-2.5,6.5
	c-2.1-0.4-2.6,0.8-4.5,0.5C504,348.1,504.4,343.8,510.2,344.9z M502.6,337.3c-0.4-3.6,0-9.3-0.5-15
	C507.2,325.3,505.1,332.8,502.6,337.3z M533.7,345.9c2-0.2,4.2,0,4.5,2.5c-2.3,1.9-7.4,0.9-10.5,2
	C526.3,350,532.7,345.9,533.7,345.9z M535.2,337.3c-5.2,2.3-14.6,2.4-19.6,2c0.8-3,1.9-5.7,5-6.5c-0.3-1.5-2.3-1.4-3-2.5
	c-1.2,3.3-2.8,6.2-4.5,9c-1.2-0.7-3.5-0.2-4.5-1c0.5-10.6,10-13,18.1-17.1c4.3-2.2,8.6-4.9,12.5-5.5c3-3.6,8.4-4.9,12-8
	c0.8-0.1,0.9,0.5,1.5,0.5c-0.2,2.3-1.1,3.9-3.5,4c0.6,5.5-3.7,9.4-5,14.6c-2.1-1.9-2.4-6.2-1-9c-4.1,0.6-2.9,5.9-3.5,9
	C538.8,331.2,536.7,334.4,535.2,337.3z M540.8,340.3c0.3-8.7,9.2-8.9,17.1-10v3C551.4,335,546.8,338.3,540.8,340.3z M554.8,338.8
	c-1.5,2.3-7,0.7-9.5,2c-0.5-2.3,5.6-2.5,7-4.5h1.5C554.1,337.2,554.1,338.4,554.8,338.8z M557.8,336.8c-1,0-0.6-1.4-2-1
	c-0.2-1.2,1.4-0.6,1.5-1.5C558.9,334.7,558,335.7,557.8,336.8z M551.8,326.3c0.6-1.1,2-1.4,2.5-2.5c-0.7-2.5-0.1-5.2,1.5-5
	c2.1,0.2,1.8,3.5,2,6.5C556.1,325.9,554.2,326.4,551.8,326.3z M508.7,288.2c10.1-1.2,21.3-2.7,29.6,3c6.1,0.4,14.1,2.9,19.1,6
	c-2.2,4-8.8,3.6-10.5,8c-3.3,1.2-5.9,3.1-8.5,5c-1.4,0.4-1-1-2-1c-2.4,3.5-9.3,6.7-14.5,9c-4.5,2-8.5,4.2-11.5,5
	c-0.5,0.1-2.6,0.5-2.5,0.5c-2.4-0.4-5.9-5.8-6.5-8.5c-1.4-6.4,0.7-14.5,2.5-18.6c-2.9-0.9-3.4,5-7,5c0.5,2.4,1.6,4,1.5,7
	c-2.3-2.1-1.6-7.1-4-9c-3.2,3.6,2.7,8.8,3,13.5c4,4.9,3.1,17.6,2.5,24.1c-8-3.2-14.1-8.3-21.1-12.5c0.3-1.9,0-1.8,0.5-3
	c-3.5,0.4-5.6,0.5-6-3c8.2,1.5,19.5,5.9,24.1-2c-0.7-1.1-3.5-0.2-5-0.5c0.1-0.5,1-0.3,1-1c-7.5,1.8-12.7,4.5-20.1,1
	c0.5-1.7,0.7-3.7,1-5.5c6.1-2,9.2-7.2,16.6-8c0.2-1.2-2.3,0.3-1.5-1.5c2.7-1.8,5.9-3.5,9.5-6C501.4,293.3,505.5,288.6,508.7,288.2z
	 M479.1,358.4c4-1.3,7-0.1,10-0.5c-2.3,2.9-5,5.4-8.5,7C479.9,362.9,478.7,361.5,479.1,358.4z M476.6,356.9c1-0.4,2.1-1.9,3-1
	C479.1,356.8,478,357,476.6,356.9z M477.1,347.4c0.3-5.6-1.8-10.8,0.5-15.6c0.4-0.3,0.9-0.6,1,0c4.2,4.5,10.2,7.2,15.5,10.5
	c1.4,0.1,3.3-0.3,4,0.5c-0.3,2.8-1.6,4.8-2.5,7C488.1,350.4,482.4,349,477.1,347.4z M447.5,391.5c-0.4-3.1,0.8-4.5,0.5-7.5
	c3.5,2.4,5.4,6.3,8,9.5c-2.5,1.7-5.2,5.7-8,5.5c0.2-2.2,1.8-2.9,3-4C450,393.6,450.1,391.2,447.5,391.5z M437.9,383
	c0.2-2.9,4-2.3,6.5-3c1.4,3.2-0.7,6.9,0,11c-1.2,0.8-3.6,0.4-4,2C440.9,390.3,441.1,384.6,437.9,383z M437.9,377.5
	c0.1-0.2,1.1-0.9,1.5-0.5C440.4,377.8,437.2,379.4,437.9,377.5z M440.9,378c0.7,0.4,1.9,0.4,1.5,2h-2
	C440.2,378.9,440.8,378.6,440.9,378z M445,372.9c1.2,0.1,1.2,1.3,0.5,2C444,374.5,444.9,374.2,445,372.9z M443.9,400
	c2.4,1.1,1.4,5.3-1,5.5C443.8,403.1,443.6,402.6,443.9,400z M445,407.1c5.2,3.6-2,8.4-3,12c-2.3,0.2-2.8,0.5-4.5-0.5
	C437.8,414.6,443.2,411.4,445,407.1z M445.5,362.9c2.2,4.1,0.4,9.1-2.5,11c-5.9-3.5-13-5.7-17.6-10.5c5.2-0.9,11.1,1.6,15.5,0.5
	c3.2-0.8,3.7-4.2,7-4.5C447.4,360.8,447.3,362.8,445.5,362.9z M408.8,430.1c-1.1,3.3-3.3,5.4-5,8c-3.9-4-8.8-7-11.5-12
	c-8.5-3.2-16.4-7-22.1-13c12.6-4.1,23.7-9.8,35.6-14.5c1.8,1.4,1.4,4.9,1.5,8c4.1,3.1,9.5,4.9,13.5,8c-1.9,4.9-6.1,7.6-8.5,12
	c-1.1-2.1-1.5-3.4-2.5-4.5C407.7,424.2,407.9,426.9,408.8,430.1z M350.1,343.9c0.6-0.1,0.9,0.1,1,0.5c3.2,0.7,5.1,3.5,8,5
	c4.6,2.4,10.5,2.7,14,6.5c4.2-0.8,6.9,0.5,13,2c3.9,0.9,8.3,1.4,10,2c0.7,0.2,3.2,1.6,3,1.5c1.4,1.4,1.1,3.4,1.5,5
	c9,4.2,4.5,16.4,3.5,28.1c-5.7,5-17.2,9.2-26.6,12.5c-3.5,1.3-6.8,3.2-9.5,3c-2.6-0.1-5.6-2.4-8.5-4.5c-3.9-2.8-6.8-4.9-8.5-9
	c-3-1.7-6.2-4.1-8.5-7c-0.6-0.7-0.1-1.7-1-3c-0.4-0.6-2.3-1.2-3-2c-1.3-1.4-5.6-6.9-5.5-9c0.1-2.5,4.1-5.1,6-7.5
	c4-4.9,5.3-8.7,10-12C348.2,351.8,349.8,348,350.1,343.9z M426.4,310.2c5.3,0.3,7.6-1.7,12.5-0.5C437.9,312.5,427.6,314,426.4,310.2
	z M430.9,315.8c-0.2,1.1-2.5,0.2-3.5,0.5C427.6,315.1,429.9,316.1,430.9,315.8z M425.4,304.2v-3.5c1.8,0,2.9,0.8,4.5,1
	C429.2,303.4,427.8,304.2,425.4,304.2z M425.9,324.8c4.1-0.4,7.2-4,5.5-8.5c5.6-3,10.6-0.2,16.6-1c1.2,1.3-0.4,5.4,1.5,6
	c-1.7,3.3-3.6,5.6-3.5,9c0.1,5,6.4,8.8,4.5,15.6c-3.5-0.4-8.2-3.8-11-6.5c-5.8,0.3-13.5-0.6-18.6-1.5
	C422.6,333.5,423.3,328.2,425.9,324.8z M477.6,245c1.9-0.3-0.2,2.3,0.5,4c2.4,2.8,1.4,7.5-1,9.5c-4.6,0.1-5,4.4-10.5,3.5
	c-0.9-0.9,0.3-4-2.5-3C466.8,252.6,470.2,246.8,477.6,245z M468.5,242c3.1-3,7.3-4.7,11.5-6.5C477.6,239.1,474.1,241.6,468.5,242z
	 M466,271.6c1.8,0.3-2.2,5.1-3.5,6c-1.1-0.4-0.4-2.6-1.5-3C463,274,465.1,273.4,466,271.6z M464,282.2c0-2.2,1.6-2.7,2-4.5
	C467,278.8,465.5,281.7,464,282.2z M464,289.7c3.7-2.3,9.6,0.8,15,0c-0.3,1.6-2.9,0.8-4,1.5c-0.8,1.6-0.2,2.2,0,4
	c-8.2,1.3-15,4.1-23.6,5c1.6-5.1,5.9-7.5,8-12C462,287.7,462.9,288.8,464,289.7z M477.1,301.7c1.8-2.4,5-3.3,8-4.5
	c-2.7-1.5-4.5,2.2-7.5,2c2.9-3.9,11.2-4.2,16.6-4C490.9,299.3,483.4,304,477.1,301.7z M482.1,303.2c-1.5,1.9-5,4.2-7,4
	C475,303.5,477.8,302.6,482.1,303.2z M473,356.9c-0.6,0.6-1.8,0.6-3,0.5c-0.2-1.8-0.8-2.4,0-4C471.9,353.7,472.9,354.8,473,356.9z
	 M470.5,336.8c1.2,2.5,0.9,6.5,1.5,9.5C469.3,345.1,470.3,339.7,470.5,336.8z M471,310.2c-2.6,0.5-4.5,1-6.5,0.5
	c-1.2-0.3-0.5-0.9-1.5-1.5c-2.1-1.4-6-1.7-7-4c5.6,1.3,10.9-1.6,17.6-2C472.8,305.7,472.1,308.2,471,310.2z M451,316.3
	c2.9-1,7.4-0.3,9,1.5c-3,1.3-4.7,4-4.5,8.5c-1.1-0.4-2.2-0.8-3-1.5C454.4,322.6,450.3,320.4,451,316.3z M451,312.2
	c1.2,0.2,2.1,0.6,3,1C453.6,314.2,450.7,313.5,451,312.2z M466.5,357.9c-5.2,0.2-10-0.1-14.5-0.5
	C454.1,353.6,465.6,351.8,466.5,357.9z M466,344.4c-2.6,2.1-9.2,2.8-12.5,2.5c0.6-1.2,0.6-3,1.5-4c2.7,0.9,5.1-1.6,5-5
	c-0.9-1.6-2-1.5-4-1c0.4-3.6,3.5-4.5,4.5-7.5c3.8-0.1,5.4-2.3,6.5-5c0.8-0.1,0.9,0.5,1.5,0.5C467.3,332,467.5,337.5,466,344.4z
	 M456,302.7c0.8-0.1,0.9,0.5,1.5,0.5C457.7,304.2,455.2,304,456,302.7z M473,301.2c-0.1-0.2,0-0.4,0.1-0.4c-1.7,0.4-5.1,2.4-8.2,2.4
	c0.4-1.5-0.5-1.8-0.5-3c4,0,6.4-1.6,10-2C474.5,299.7,474.6,301.3,473,301.2z M459,283.2c-1.3,1.2-2.5-0.5-4.5,0
	c1.2-3.7,2.6-7.1,5-9.5C459.7,275.9,457.7,279.1,459,283.2z M455.5,287.7c-0.1,3.7-3.4,4.3-4,7.5
	C451.3,293.2,451.4,287.1,455.5,287.7z M449.5,288.7c-3.8,2.5-2.4,14.9-10,9c2.5-4,6.3-6.7,9-10.5c1.2-0.1,2.4-0.1,3,0.5
	C451.5,289.8,450.2,288.2,449.5,288.7z M421.9,350.9c-2.8-2.1-3-6.4-1-9.5c5.6,0.9,10.9,2.1,15,4.5c4.9-1.6,9.9,0.7,13.5,2
	C444.6,355.3,431.7,351,421.9,350.9z M437.9,354.9c-4.7,3-14.5,0.9-21.6,0.5c0.9-1.5,3.6-1.4,5.5-1.5
	C427.6,353.5,433.5,354.1,437.9,354.9z M420.9,329.8c-1.4-1.5,0.5-3.8,0.5-5.5C423.4,324.6,421,328.3,420.9,329.8z M419.4,317.8
	c-3.5,2.1-4.2,7.1-8.5,8.5c-1.5,4.7-4.9,7.5-8,10.5c-3-0.2-8.4-0.5-10.5-3c-11.7,0.3-22.3-3.9-33.1-6c1.3-5.2,3.9-9.2,6-13.5
	c3.8-1.5,15.5-1.8,21.1-3c1.6-0.3,3.4-1.7,4.5-1.5c3.9,0.6,5.6,6.1,9,6.5c6,0.7,8.3-4.8,13.5-6.5c2.1-0.5,2.5,0.8,3,2
	c1.9,0,1.5-2.2,4-1.5C420.7,313.4,419.6,315.1,419.4,317.8z M405.8,362.4c1-1.2,4.5-0.5,5,0.5c-1.1,1.2,0,4.7-2,5
	C409.2,365.5,409,363.5,405.8,362.4z M400.8,348.9c0-2.1,0.1-3.9,2-4c-0.2-3.1,2-3.6,3-5.5c3.6-0.4,5.6,0.8,9,0.5
	c0.8,3.3,0.2,5.3,0.5,9.5C411,350.7,403.6,352.8,400.8,348.9z M414.9,337.3c-2.3-0.1-4.3-0.4-6-1c2.2-1.8,2.9-6.2,6.5-5
	C416.6,333.5,413.8,335.3,414.9,337.3z M396.8,345.4c-1.7-1-3.1-2.3-3-5c2.5,0,3.4-1.7,6.5-1c0.2,1.6-0.4,2.2-2,2
	C398.7,343.6,397.1,343.9,396.8,345.4z M370.2,336.3c5.3,1.3,13.1,1.6,15,3.5c0.5,0.5,0.4,1.1,1,1.5c2.7,1.9,4.9,6.4,7,9.5
	c-5.8-0.9-11.3-3-16.1-3.5c-0.5-0.7-1.4-1-1.5-2h-4c-6.2-3.4-13.2-5.9-16.1-12.5C359.3,333,364.5,334.9,370.2,336.3z M412.3,402.5
	c0.2-2.7-0.9-4.1-0.5-7c6.8-3.3,16.4-3.6,21.1-9c-0.1,2.3,0.4,6.5,2,8.5c-2.5,6.4-7.4,10.3-10.5,16.1
	C419.7,408.9,416.5,405.3,412.3,402.5z M427.4,388c-4.5,2.5-10.4,3.9-15.6,5.5c-1.2-5.8-0.4-12.8,1.5-17.1c0.5-2.6-2.5-1.9-2-4.5
	c0.4-3.3,1.3-6,2.5-8.5c0.1,0.1,0.4-0.1,0.5,0c7.3,5,15.7,8.3,23.1,13C436.9,382.4,431.6,385.7,427.4,388z M449,377.5
	c-0.6-2.6,0.6-6.8,1-10c2.7-2.1,5-4.7,7-7.5c4.2,0.3,7.3-0.4,11-0.5c1.3,1.2,1.4,3.6,3,4.5c0.9,0.1,1.1-0.6,2-0.5
	c1.4-1.8-1.9-2.1-1.5-4.5h1c3.2,1.7,1.3,6.2,2.5,9c-3.2,2.7-7.5,4.6-12,7C457.5,377.9,454.2,380.4,449,377.5z M474,357.4
	c0.2-0.7,1.3-0.4,2-0.5C475.9,357.6,474.8,357.3,474,357.4z M503.6,289.2c-2,1.7-4.1,3.2-6.5,4.5c-0.7-1.5-2.3-2-3-3.5
	c-3.8,2-9.9,4.1-14,4c-0.1-2.3,2.3-2.1,2-4.5C487.8,290.3,497,287.7,503.6,289.2z M502.1,255.6c-2,3.3-7,6.6-10.5,10.5
	c-4.8,5.4-9.6,9.9-10.5,19.1c-4.6,0.6-8.6,0.3-13-0.5c1-8,5-14.5,9.5-19.6c6-6.8,13.7-11.6,22.1-16.1c0.5-0.3,0.8-0.9,1.5-1h0.5
	C505.2,249.4,502.9,254.2,502.1,255.6z M528.2,226c-1.2,3.1-4.6,0.9-7.5,2C522.1,226.4,526.3,225.4,528.2,226z M523.2,234.5
	c0.9-0.2,0.9,0.4,1,1c-2.4,7.1-10.6,11.5-17.1,16.1c0.2-2.7,0-5-1-6.5C510.3,240,515.7,236.2,523.2,234.5z M520.2,206.9
	c0.4,2.1-2.5,5.2-3,8c-0.4-0.3-0.9-0.6-1,0c-0.7-0.2-2.2-3.5-2.5-1C512.1,208.8,517.9,209.2,520.2,206.9z M512.7,230.5
	c4.7,3.3-3.9,9.7-6.5,10.5c-2.2-1.2-2.6-4-3.5-6.5C505.9,233,509.7,232.2,512.7,230.5z M507.2,223.5c1.3,0.5,3.1,0.6,5,0.5
	c-1.1,2.7-5,2.7-7,4.5C504.4,227.3,506.1,224.4,507.2,223.5z M504.1,222.5c-1.6,3.1-2.9,6.5-5.5,8.5c-2.7-0.1-3.7-2-5.5-3
	C494.9,224.5,499.8,221.7,504.1,222.5z M491.1,231c1.2,0.3,2.3,0.7,2.5,2c-2,1-5.3,0.8-7,2C486.5,234,490.1,232.5,491.1,231z
	 M490.6,240.5c1.7-2.5,5.1-3.2,8.5-4c4.1,4.6-0.1,10.7-4.5,12.5c-4.1,0.7-8.3-1.7-10,1c0.3-1.9,0.4-5-1-7.5
	C485.6,241.6,487.3,240.2,490.6,240.5z M462,205.4c0.9-0.1,1.1,0.6,2,0.5c-0.2,1.3-1.3,1.7-2.5,2C461.3,206.7,462.4,206.8,462,205.4
	z M461.5,209.9c4.1,1,7.9-1.6,10,2.5c-1,1.5-2.3,3.6-4.5,2.5c-2.2,3.1-4.3,6.4-9,7c0.5-2.1,0.5-2.6-1-3.5
	C458.7,215,458.8,212.6,461.5,209.9z M455,235c-0.4-8.4,5.7-10.4,10.5-13.5c1.9,0.4,2.2-0.9,4-0.5c0.2-0.9-0.4-0.9-1-1
	c1.4-2.1,3.6-3.4,5-5.5c0.6-0.1,0.9,0.1,1,0.5c3.2,3.3,7.3,5.7,9.5,10c-2.2,0.4-2.9,2.5-3.5,4.5c-3,2.5-6.3,4.7-10.5,7
	c-2.2,1.2-4.2,2.8-6,3.5c-0.6,0.2-1.5-0.2-2,0c-3.8,1.7-5.5,3.7-10.5,3.5C452.4,240.5,452.8,236.8,455,235z M449.5,237
	c1.6,0.3-1.1,6.7-3,7C446.9,241.1,448.8,239.7,449.5,237z M450,251.1c4.5-0.3,10.4-1,15.6-2c-1.5,3.5-3.5,9.1-7.5,8.5
	c-1.8,0.3,2.5,1.1,0.5,1.5c-2.6,2.5-6.3,3.5-9.5,5c-3.2,1.5-6.3,3.4-10,4C442.6,262.4,445.7,256.1,450,251.1z M435.9,272.6
	c7.7-1.9,14.3-7.4,21.6-8c0.7,7-3.2,10.4-6,15c-1.3,0.3-1-1-1.5-1.5c-1.2,0.5,1.1,1.5,0.5,3c-6.7,1.7-10.2-2.5-15.1-4
	C435.3,275.3,435.5,273.9,435.9,272.6z M431.9,281.6c3.3,2.5,8.4,3.3,13,4.5c-2.3,4.3-5.6,7.8-9.5,10.5c-2.4-1.5-5.7-2-8.5-3
	C427.6,288.7,430.2,285.7,431.9,281.6z M401.3,287.2c1-0.3,1.1-1.5,2-2c5.4-1.4,11.4-3.5,17.1-5.5c3.1-1.1,4.9-2.8,8-1
	c-1.5,4.9-4.2,8.5-5.5,13.5c-10.2-1.7-19-0.6-29.1-3C395.2,287.4,398.2,287.2,401.3,287.2z M420.4,299.7c0.3,2.2-0.9,2.8-1.5,4
	c-2.5-0.2-3.1-2.2-5-3c-4.2,1.8-4.3,7.7-11,7c-0.2-1.7,2.7-0.3,3-1.5c0.4-1.4-1-1-1-2c-6.8,4.6-13.9-2.9-17.6-7.5
	C399.3,296.7,410.1,297.9,420.4,299.7z M379.7,298.7c1.6,5.1,7.5,5.9,9.5,10.5c-6.8,0.8-18.2,3.4-25.1,2.5c-2.8-3.1-4.1-10.2-3-15.6
	C367.2,295.2,375.4,296.4,379.7,298.7z M362.7,282.7c4.7,0.9,11.1,0.3,12.5,4.5c-4.7,0-8.9-0.5-13-1
	C362.3,285,363,284.3,362.7,282.7z M361.2,282.2c0.4,1.9-0.9,2.2-0.5,4c-4-0.7-8.9-0.4-13-1C352,283.9,355.8,279.4,361.2,282.2z
	 M343.1,281.6c-2-0.7-2-3.3-4.5-3.5c0.2-0.6,0.9-1.3,1-0.5c3.8,0.8,8.7,0.4,10.5,3C347,280.2,346.1,282,343.1,281.6z M347.1,270.6
	c7.5-2.7,14.3-6.2,20.1-10.5c0.9-0.2,0.9,0.4,1,1c-3.7,6-9.2,10.2-13,16.1c-6.1,1-12.8-1.1-18.1-2.5
	C339.5,271.8,343.9,271.8,347.1,270.6z M305,276.1c-4.2,2-9.8,2-14,1.5C295.3,274.6,298.7,275.9,305,276.1z M285.9,272.6
	c1.7-0.2,2.1,0.9,3,1.5c-0.2,1.7-1.9,1.3-3,1V272.6z M119.4,425.6c1.5,4.8,8.8,13.5,5.4,19.8c-3.4-2.8-6.7-11.3-9.4-14.7l-5.5-11
	c-1.6-2.7-4-4.7-4.5-8.5C110.5,411.9,118.3,422.2,119.4,425.6z M227.7,317.3c-1.1,3-7.1,6-10,8c-10.3,7-23.5,14.9-32.6,21.1
	c-1.2,0.2-2.1,1-3,0c-1.6,0.4-1.4,2.6-2.5,3.5c-12.8,7.1-24,15.8-38.6,21.1c1.6-2.1,1.8-5.1-1-6c-4.7,0.5-1.8,6.3-3,9.5
	c-8.3,2.9-13.4,6.7-22.1,11.5c-4.6,2.6-9.9,6.5-12.5,6.5c-3.8,0.1-7.1-3.5-9.5-6.5c0,0-5.3-4.8-7.1-5.9c-5.7-3.5-10.3-7.5-15-11.6
	c-0.8-0.7-3.4-3.7-5.5-5.5c-5-4.2-9.1-12-12-18.1c3.8-2.4,7.4,0.5,11.5,1.5c1.2-0.4-1.4-1.2-0.5-3c11.1,0.8,20.3-2.4,29.6-1.5
	c3.4,0.3,6.3,2.4,10,2c7.3,5.4,12.7,12.7,21.6,16.6c3.6-3.3-1.5-4.4-4-6.5c-1.8-1.5-4-4.4-6-6.5c-2.4-2.5-4.5-5-6-6.5
	c7-14.8,23.2-23.8,37.1-32.1c1.6-0.3,2.3,0.3,3.5,0.5c0.9-1.4,2.3-2.3,3-4c7.7-4,16.5-8,25.1-12.5c4.2-2.2,8-4.9,12-7
	c4.2-2.2,8.6-4,12.5-6c1.7-0.9,5.7,1.1,6.5,2c2.1,2.1,3.1,6.3,5,9c4.1,6,8.6,10,13.5,15.6C227.1,310,229.1,313.9,227.7,317.3z
	 M243.8,306.7c-3,2.5-5.7,6.3-9.5,6.5c-0.4-3.3-1.5-7.8-1-10.5c-4.1-4.8-9.7-8.1-12.5-14c9,3.2,20.1,4.3,27.1,9.5
	c2.4-0.1,4.8-0.1,6,1C251,302.1,247.2,304,243.8,306.7z M260.3,286.2c-1.4-1-1.8-2.2-3-3c-2.3-1.5-5.9-1.8-10-2.5
	c-5.5-1-11.9-3-17.1-5c-5.8-2.2-11.8-4.8-15-7c-1.3-0.9-5.1-4.7-5-6c0.1-2.6,1.7-3.3,5-3.5c3-2.4,7.9-2.8,11-5
	c2.3,0.8,4.1,0.3,6-0.5c1.2-0.6,2-1.6,2-3.5c7.4-4.1,12.3,1,18.6,5c2.5,1.6,5.6,2.9,9,4.5c3.9,1.9,6.4,3.4,9,6.5
	c4.6-0.8,8.4,3.3,12.5,4.5c-1.7,2.8-2.3,5.4-4,7.5c-1.5,1.8-4.4,3.6-6.5,5.5C268.4,287.8,266.3,290.7,260.3,286.2z M287.9,294.2
	c-5.4,0.8-9.4-2.2-13.5-3.5c2.3-3,5-5.7,8-8c5.9-0.5,13.9,0.6,21.1-0.5c4.5-0.7,9-2,13-3c4.9-1.2,8.4-1.9,12.5-2
	c0.9,0,2.6-0.8,3.5-0.5c3.8,1.3,2.8,6.3,7,8c-8.6-0.9-18.6,3.5-29.6,4c-0.9,0-2.1,0.3-3,0.5C300.1,290.4,293.8,293.3,287.9,294.2z
	 M293.5,304.7c3.3-3.4,9.4-3.2,15.1-4.5c1.3-0.3,2.6-1.3,4-1.5c7.2-1.2,17.5-1.5,24.1-2c1.2-0.1,5.4-0.3,7,1.5
	c4.1-1.3,11.6-1.7,15.6-1.5c-1.3,4.6,0.2,8.2,1.5,12.5c2.2,7.1,0.2,11.1-3.5,17.6c-2.9-0.6-4.7-4-7.5-5c-2.4-0.9-5.7-0.7-8.5-1.5
	c-10.9-3.2-22.9-8-35.1-11c-2.1-0.5-4.7-0.9-7-1.5C297.2,307.3,293.5,308.2,293.5,304.7z M303,324.8c0-2.5-1.4-3.7-1.5-6
	c12.2,4.7,27.8,6,39.6,11c1.1,5.5,4.4,8.7,7.5,12c-0.6,5.3-2.8,8.9-3,14.5c-5.2,2.5-8.4,14.8-16.1,14.5c-3.1-0.1-10.9-2.8-14.5-4
	c-4-1.3-10.1-3.5-14.5-5C297.4,350.1,293.8,332.7,303,324.8z M394.3,453.2c-18.1,3.8-31.6,14.8-49.2,17.6c-4.4-2.8-8.2-6.1-12.5-9
	c-3.7-6.7-8.7-12-12.5-18.6c-3.6-2.4-5.9-6.6-9-10.5c-2.8-3.4-6.6-7.1-8-11.5c-3.4-10.9,1.1-23.2-1.5-34.1c-0.5-1.9,1.2-1.4,1-3
	c-2-3.9-1.8-9.9-2.5-15v-1.5c8.6,2.4,16.9,5.1,26.1,7c5.5,10.4,14.4,17.4,21.1,26.6c5.8,3.9,10.9,8.5,15.6,13.5c4.5,1.3,8,4.4,12,7
	c5.7,3.6,12.1,5.9,15.6,11.5c1.6,1.2,1.6-1.4,3,0.5c2.7,2.7,5.7,5,7.5,8.5C399.2,446.4,396.4,449.5,394.3,453.2z M411.8,450.7
	c-3.7,1.1-8,1.7-12,2.5c-1.1-2.2,1.5-4.9,2-7c2.2,0.5,3.1,2.3,3.5,4.5c1.5-0.2,2.5-0.9,3-2c-0.8-0.9-2.1-1.3-2.5-2.5
	c0.3-2.2,2.4-2.6,4-3.5c4.1-2.5,7.8-7.7,13.5-7C419.8,440.9,414.6,444.6,411.8,450.7z M423.9,434.1c0.5-2.2,2.5-2.8,4.5-3.5
	C429,430.1,425.5,433.7,423.9,434.1z M420.9,429.6c-3.6,4.3-9.1,6.6-14,9.5c1.7-3.2,3.8-5.9,6.5-8c1.5-6.4,6.8-9,9.5-14
	c3.6,0.6,5.7,2.6,8.5,4C429.4,425.4,425.8,428.2,420.9,429.6z M428.4,414.1c1.1-0.9,5-5.4,1.5-6c3-4.2,5.3-11.1,12.5-9.5
	c-1,7.9-3.7,14-8,18.6C432,416.5,430.6,414.8,428.4,414.1z M433.4,425.6c-0.4-1.5,0.9-1.5,0.5-3c2-0.1,2.6,1.1,4,1.5
	C436.8,425.2,435.1,426.4,433.4,425.6z M495.6,463.2c1.9,0.3,3.7,0.6,4,2.5c3.3-0.1,4.9,1.4,6,3.5
	C502.4,467.2,497.9,466.3,495.6,463.2z M504.1,464.2c-0.7-0.4-1.7-1.6-2.5-2c-3.1-1.5-7-1.5-10.5-2.5c-0.5-0.2-0.8-1.4-1-1.5
	c-0.9-0.3-2.9-0.1-4-0.5c-2.7-0.9-8.1-2.8-10.5-4.5c-1.4-1-2.1-2.9-3.5-4c-1.2-0.9-3.2-1.2-4.5-2c-6-4-12.9-9.4-17.6-15.6
	c-5.4-0.9-10.5-2.2-13.5-5.5c0.4-0.1,0.5-0.5,1-0.5c5.8-0.9,10.9,3.1,17.6,3c1.5,0.2,2.5,0.9,3,2c1.5,0.1,1.5-1.1,3-1
	c8.3,3.7,19.9,4.2,22.1,14c3.6,0.9,7.2,3.9,10.5,3.5c4.4,5.8,7.4,13,13,17.6C505.9,466.2,504.5,464.4,504.1,464.2z M521.2,473.3
	c-1.9-0.4-2.4,0.6-4,0.5c1.2-1.3,3.3-1.7,4-3.5c-2.3,1.5-3.5,0.9-5,3c-2.5,0-3.9-1.1-5.5-2c0-0.8,0.2-1.9-0.5-2
	c1.7-2.6,9.4-1.5,12.5-1C522.9,470.6,521,470.9,521.2,473.3z M523.2,462.7c0.1,1.2,0.9,1.6,0,2.5c-1.1-1.1-4.5,0.1-7.5-0.5
	c-1.8-0.4-2.9-2.2-4.5-1.5c0.9-1.7,2.5-2.8,2.5-5.5c0.6-0.4,1.3-0.7,2.5-0.5c0.4-4,3.3-5.4,5.5-7.5c2,0.8,4.4,2.4,7,1
	c0.6,4.2-2.2,9.1-3.5,13C523.8,464.1,524.2,462.7,523.2,462.7z M565.3,461.7c2.4,0.4,4.7,1,5.5,3c-2.8,0.4-5,1.3-8.5,1
	C563.5,464.6,564.5,463.2,565.3,461.7z M533.2,443.2h1.5c7.1,4.8,17.2,6.5,22.6,13c3.1,0.8,4.8,0.8,7,3c-4.1,0.3-6.6,2.1-7,6
	c-11.5,1.7-17.1-0.1-31.1,0.5C528.7,458.4,531.1,450.9,533.2,443.2z M500.6,428.6c1.5-1.2,6.9-1.2,10,0c0.3,0.1,3.9,2.3,5,3
	c1.6,1,3.3,2.9,5,4c3.5,2.4,5.6,2.8,7,6c1.2,0.3,2.3,0.7,4,0.5c0.9,1-0.5,2.8-1,4c-0.8-2.5-6-1.7-7,0c-1.6-1.7-2.1-4.6-4-6
	c-1.9,0.4-3.5,1.2-4,3c0.2,3,2.8,3.5,3.5,6c-2.9,2.7-5.7,5-7,8c-0.6-0.8-1.5-1.2-1.5-2.5c-2.8,1.2-0.1,4.8-1.5,7.5
	c-1-0.3-1.9-0.8-1.5-2.5c-3.8-1.7-6.1-4.9-7-9.5c-1.7-2.8-5-4.1-6.5-7c-7.8,0.4-9.6-5.1-12.5-9.5C487.1,431.6,494,426.3,500.6,428.6
	z M486.1,427.1c-6.6,5.6-19.5,1.6-25.1-2.5c-4.4,0.3-7.9-0.4-11.5-1c-1.7-0.5-1.4-3-4.5-2c1.8-5,5.3-8.4,8-12.5
	c-0.6-2.4-3.4-2.6-4-5c1.4-3.9,4.7-6,7.5-8.5C465.9,406.6,476.8,416,486.1,427.1z M476.1,387.5c-0.7-0.3-1.3-0.7-2-1
	c-4.7,2.3-9.9,4.2-15.6,5.5c-1.7-3.2-3.5-5.2-2.5-8c1.3-3.7,17.5-9.1,20.1-12.5c0.4-0.1,0.5,0.2,0.5,0.5c2.7,3.4,7,6,12,8
	c2.6,1.1,5.9,1.2,7.5,3.5C488.9,384.3,482.4,385.9,476.1,387.5z M542.3,387.5c1.5-2,5.8-1.2,8.5-2
	C550.5,388.7,545.4,387.1,542.3,387.5z M556.8,379c-2.9,2.8-7.6,2.3-12.5,3c-6.9,0.9-14.5,2.8-21.6,2c-5.4-0.6-10.9-1.7-15-3.5
	c-0.1-3.3,1.1-5.7-1.5-7c-0.8,1.6,1.4,3.5,0,6c-10.8-1.3-18.5-4.2-25.6-10c3.7-3.2,7.7-6,11.5-9c1.4,1.5,2.4,3.3,4,4.5
	c3.6-0.9,7.8,0.5,11.5,1c1.5-4.2-3.2-4.5-7-4c-0.6-1.6-0.3-3.1,0-4.5c13.2-0.3,27.7-1.9,42.1-3.5c1.6,1.2,1.4,4.3,3,5.5
	c1.6,0.4,1-1.3,2-1.5c0.2-2.6-2.9-1.7-2.5-4.5c7.4-2.2,7.8,6.9,12.5,9C557.1,368.8,558,374.4,556.8,379z M557.8,358.4
	c-2.8,1.1-4-3.7-5-6c1.4-0.5,4-1.7,5.5-0.5C558.9,354.5,557.3,357.5,557.8,358.4z M649.1,428.6c-1.3,0.7-2.2,1.8-4,2
	c0.5-2.4,3-2.7,3.5-5C649.7,425.7,648.8,427.7,649.1,428.6z M647.6,409.6c-0.3-0.5-1.2-0.5-1-1.5c1.8-0.4,2.3-2,4.5-2
	c2.5,3.5,3.5,9.4,1,14c-0.4-0.3-0.8-0.5-1.5-0.5c0.6,2.2,0.3,0.6-1,1.5c-0.4,3.6-4.9,9.1-8,11c-2.1,1.3-5.6,1.7-8,2
	c0.1-6.1-2.9-9.9-3-18.1C637.1,414.8,640.5,410.3,647.6,409.6z M671.2,229c0.7-2.2-1-2-2-2.5c1-2.3,4.8-4.2,6.5-1.5
	c-0.1,3.6-4,6.1-7,5C668.2,228.3,670.2,229.2,671.2,229z M636.1,253.6c-1.7,4.3-4.3,7.7-6.5,11.5C625.6,261,631,254.7,636.1,253.6z
	 M632.6,271.1c3.1,0.2,3.4,0.2,6.5,0c-1.5,6.7-6.3,10.1-8.5,16.1c-5.5-1.6-5.6,6.4-11,6.5C625.3,287.6,627.6,278.1,632.6,271.1z
	 M637.6,265.1c-0.3-1,3.9-5.3,5.5-3C641.9,263.8,639.1,263.8,637.6,265.1z M641.1,267.6c-0.2,0.6-0.6,1-1.5,1
	C639.8,268,640.2,267.6,641.1,267.6z M605,321.3c-1.4-0.9-3.2-1.5-4-3c0.8-3.3,3.2-6.1,5-8.5c1.9-2.6,3.7-5.4,6.5-7
	c-0.3-3.1,2.7-3,3-5.5c3.2,0.2,4.4-1.6,8-1c0.2,2.2-2.3,1.7-3.5,2.5v2.5C614.7,307.6,609.7,314.3,605,321.3z M605.5,326.8
	c4.9,1.4,9,3.7,14,5c-2.1,2.5-6,3.1-9.5,4c-3.3,0.9-7.1,1.9-10.5,2.5C601.4,334.4,604,331.2,605.5,326.8z M624,261.1
	c0.6-0.1,0.9,0.1,1,0.5c-0.1,3.4,1.5,5.2,1.5,8.5c-7.7,2.4-14,6.1-22.6,7.5C609.8,271.2,618.8,268.1,624,261.1z M586.9,290.2
	c3.9-2.4,9.1-2.9,14-3c1.8-1.3-2.7-2.2-1-3.5c7.3-3.9,16-6.4,25.1-8.5c-0.3,1.8-1.1,3.7-2,5.5c-2.8,5.9-7.6,17.3-16.6,15.6
	c-5.2,1.6-12.4,4.4-20.1,4.5c-0.9,0-1.1-0.6-2-0.5c-6.3,0.9-14.2,4.5-18.6,0C572.2,296.2,577.8,291.4,586.9,290.2z M560.8,319.3
	c4-0.8,5.3-5.7,3.5-9.5c-1.8,0-1.8,1.9-3.5,2c0.2-3.8-1.1-6,1-8c2.8-0.7,4.6,1.3,8,1.5c4.8,0.3,9.7-2,14.6-1
	c5.8-3.6,16.1-2.6,23.6-4.5c0.6,0.1,0.5,1,0,1c-3.7,6.1-8.2,11.6-13,16.6c-12.1,2.5-23.6,6.4-35.1,8
	C560.4,323.5,560.4,321.2,560.8,319.3z M573.4,327.3c5.7-1.3,15.3-4.6,21.1-6c2.4-0.6,7.2,2,8.5,4c-2.8,4.9-5,10.4-8.5,14.5
	c-12.5,0.9-21.9,4.9-33.6,6.5c-1.1-1.1,0.5-2,0-4c3.3,0.6,6.8,0.1,9,0c-0.4-1.9,2-1.4,2.5-3.5c-3.8-0.5-7.3-1.1-11.5,0
	c-0.9-1.1-0.3-3.7-0.5-5.5c2.3,0.1,4.5-1.9,6.5-0.5c-0.4-3.5-5.5,0.6-7-1C561.5,327.5,568.1,328.5,573.4,327.3z M648.1,372.4
	c-3.2-0.3-6.2,0.1-10,0c-1.5-0.1-2.7-1-4-1c-3.8,0.1-8,0.9-11.5,1.5c-2.9,0.5-6.3,1.2-9,2c-4.2,1.2-7.7,3.6-12,4.5
	c-7,1.4-14.6,0.7-22.6-0.5c-6.3,1.6-13.8,1.4-19.6,1.5c0.3-2.8,1.3-5.1,3-6.5c3-0.2,4.8,0.9,6.5,2c2.1-0.4,2.6-2.4,4-3.5
	c-4-2.3-5.4,0.3-11.5,0c-2.8-6.6,0-13.5-1-21.6c9.8,0.2,22.8-6.7,31.1-3.5c3.3,1.3,4.1,4.2,7.5,5.5c1.2-3.2-4.8-4.7-2.5-9
	c9.6-1.5,19.2-7,29.1-5c3,4.4,6.2,8.5,10,12c0.4,2.2,1.4,6.1,3.5,5c2.6,0.1,0.9-4.2,2.5-5c3.2,2.8,6,6.1,6,12
	c0.3,2.4-3.4-1.1-3.5,1.5c-0.2,2.2,3,1,4,2C648.3,369.2,647.3,370.1,648.1,372.4z M643.6,341.8c0.2,4-4.8,2.9-6.5,5
	c-3.3-3-6.7-6-8-11C634.6,337.4,638.9,340.8,643.6,341.8z M637.1,335.3c1.1-1.4,4.1-0.9,6.5-1C643.4,336.4,638.6,336.1,637.1,335.3z
	 M644.6,339.3c1-2.4,1.8-4.9,4.5-5.5C647.3,335.3,647.2,338.6,644.6,339.3z M673.2,358.9c-2.6,4.9-1.9,12.3-7,15.5
	c-6.5-0.9-12.1-0.4-15.6-3.5c0.1-2.4-0.3-5.3,0.5-7c-0.1-1.7-1.4,0-1.5-1c-0.4-3.4-0.2-3.8,1.5-5.5c-2.9-1.8-3.8-8.1-2.5-11h1.5
	c4.3,1.9,3.2,6.9,5.5,10C659.3,361.4,665.7,359.1,673.2,358.9z M673.7,331.8c-3.4,3.3-6.8,6.5-11,9c-0.9,0.5-1.3,2.8-2.5,1.5
	c0.6-1.4,0.5-3.5,0.5-5.5c-1.1,2.7-0.9,6.8-3,8.5c-3-0.4-5.2,0.1-7-2c-0.8-0.9,0.2-3.1-2-3C650.1,330.9,663.9,331.4,673.7,331.8z
	 M670.2,313.8c-1.8,4-5.5,6.2-9.5,8C662.5,318.1,666.2,313.6,670.2,313.8z M673.7,268.1c-2.1-0.4-2.7-2.3-4-3.5
	c-0.8,1.1,2.5,2.5,3,4c0.2,7.2-3.2,10.8-4.5,16.6c0.5-6.2-3.2-11.1-2-17.6c-2.3,1.7-0.5,6.9,0.5,8.5c0.2,9.7,0,19.1-2.5,26.1
	c2.8,6.6-0.4,14.7-5.5,16.6c0-1.9-0.8-2.9-2-3.5c-1.5,0.6-2.2,4.1-0.5,5c-2.5,2.7-4.7,8.5-9,10c-2.4,0.9-7.3,0.8-10.5,1
	c-2.8,0.2-5.4,0.3-8-0.5c-1.6-1.5,1.2-4.3-1-5c-1.8,0.6-2,2.7-3,4c-1.2-0.2-0.9-1.7-2.5-1.5c-6.2,0-9.7-2.7-14-4.5
	c4.8-7.6,8.2-16.5,16.6-20.6c-1.5-2-0.1-2.7,1-4.5c4.3,0.9,8.9-0.7,11-3.5c-0.9-2.1-2.5-3.5-5-4c5.2-4.8,7.1-12.9,11-19.1
	c3.5,2.4,8.6,0.2,10.5-2c-2.2-0.8-4.8-3.8-7-3c0.4-5.7,14-3,19.6-2.5c2.3-1.9,6.1-2.3,9.5-3C675.2,265.1,674.7,266.5,673.7,268.1z
	 M664.2,259.1c-0.2,2.4-3.8,1.6-5.5,2.5C658,260.3,662,259.3,664.2,259.1z M673.7,258.1c-1.5,1-3.3,1.8-5.5,2c0.6-1.2,1.8-1.8,1.5-4
	c0-0.8-1.9-1.5-2.4-1.2c0,0.1-0.1,0.1-0.1,0.2c0-0.1,0-0.2,0.1-0.2c1.3-2.3,6.3-3.3,10.4-3.3C676.7,254.1,673.5,254.4,673.7,258.1z
	 M678.2,249.5c-1.6,0.2-1.3-1.4-2.5-1.5c-0.1-2.6,3.6-5.7,1-7.5c-2.5,1.2-1.9,4.2-3,6c-3.2,5.2-12.7,7.3-18.1,11
	c-1.4,0.2,0.4-2.7-1-2.5c-3.2,0.8-3.9,4.2-7,5c-0.5-0.9-1.1-1.6-2-2c3.5-3.5,8.2-5.9,12-9c-6.1-0.3-10.3,7.9-16.1,8
	c-1.8,2.5-4.1,4.6-7,6c1.1-5.4,3.8-9.2,6.5-13c7.3-1.4,11.9-8.1,18.6-8.5c3.7-4.2,11-4.7,16.6-7c1.1,0.4,2.2,0.8,3,1.5
	c0.9-0.4,0.6-2,2.5-1.5C680.8,239.7,679.4,244.5,678.2,249.5z M683.2,227.5c-1,0.8-3.3,0.3-4.5,1c-0.3-1.6,0.3-2.3,0.5-3.5
	c0.9-0.3,2.9,0.6,3-0.5C683.5,224.5,683.2,226.1,683.2,227.5z M685.2,232c3.8-2.4,13.1-5,16.6-0.5
	C695.4,231.4,689.9,231.6,685.2,232z"/>
</svg>
