<?xml version="1.0" encoding="utf-8"?>
<!-- Generator: Adobe Illustrator 15.0.0, SVG Export Plug-In  -->
<!DOCTYPE svg [
	<!ENTITY ns_flows "http://ns.adobe.com/Flows/1.0/">
]>
<svg version="1.2" baseProfile="tiny"
	 xmlns="http://www.w3.org/2000/svg" xmlns:xlink="http://www.w3.org/1999/xlink" xmlns:a="http://ns.adobe.com/AdobeSVGViewerExtensions/3.0/"
	 x="0px" y="0px" width="480px" height="600px" viewBox="0 0 480 600" overflow="visible" xml:space="preserve">
<defs>
</defs>
<rect fill="#CECBE6" width="480" height="600"/>
<path fill-rule="evenodd" d="M302.3,0c0.6,0,1.3,0,1.9,0c0.6,1.8,3.7,1,3.9,3.2c0.4,1.3-0.9,0.8-1,1.6c2.1,3.2,4.1,6.4,6.8,9
	c1.1-1,0.6-3.5,0-4.5c1.6-2.8,3.1-5.7,3.9-9.4c1.7,0,3.4,0,5.2,0c-2.8,2-0.7,4.4-0.6,8.4c0,2-0.8,4.1-0.6,5.5c0.3,2.6,2.3,4,2.9,5.2
	c-1,0.4-2,0.8-3.6,0.6c1.4,2,4.1,2.6,6.1,3.9c1.2-0.9,2.8-2.6,4.8-1.6c0.2,0.8,0.4,1.9,0,2.6c2.5,1.6,4.2,3.3,4.5,6.5
	c-2.5,1.3-5,0.1-6.5-1.3c-0.9-5.2-6.6-5.5-9.7-8.4c-1.7,1.8-2.9,4-4.8,5.5c0-0.5,0-1.1,0-1.6c-1.7,0.4-3.6,2.2-5.5,1.3
	c1.7-1.3,5.2-0.9,5.8-3.2c0.5-5.2-2.4-7.1-5.8-11.6C306.9,7.3,304.4,4.2,302.3,0z M316.9,10.3c-0.1,0.7-0.9,0.6-1.3,1
	c-0.4,3.6,0.3,6,3.6,5.8c0.9-1.5,0.3-2-0.3-3.2c0.2-0.9,1.5-0.8,1.3-2.3c-0.5-0.1-1.2,0.1-1.3-0.3c1.9-2.1,2.1-6.7-0.6-8.1
	C318,6.2,315.3,8.2,316.9,10.3z"/>
<path fill-rule="evenodd" d="M325,0c1.1,0,2.2,0,3.2,0c0.9,1,2.2,1.4,2.6,2.9c-2.3,0.7-3.4-2.5-4.8-0.6C325.5,1.6,325.2,0.9,325,0z"
	/>
<path fill-rule="evenodd" d="M399.9,0c1.1,0,2.2,0,3.2,0c0.1,0.4,0.4,0.7,1,0.6c-0.3,1.3,0.5,2.4,0,2.9c-1.1-0.3-1.9-0.9-2.3-1.9
	c-0.6-0.1-0.6,0.4-1,0.6C399.9,2.1,399.3,0.7,399.9,0z"/>
<path fill-rule="evenodd" d="M422.5,0c0.4,0,0.9,0,1.3,0c-0.4,1-0.2,2.6-0.6,3.6C421.8,3.6,422,0.8,422.5,0z"/>
<path fill-rule="evenodd" d="M373.1,0c0.8,0,1.5,0,2.3,0c1.1,4.8,1.8,10,4.2,13.6c1.5,0.1,3,0.2,4.5-0.3c2.8-4.1,5-8.8,7.4-13.2
	c1,0,1.9,0,2.9,0c-1.4,3.7-6.1,7-6.8,12c-0.8,5.4,1.7,10.1,4.5,13.6c0.5-0.7,0.5-1.9,1.3-2.3c1.5,1.3,2.4-0.1,4.2-0.3
	c0.5,2.3-1.4,2.3-1,4.5c1.4-0.3,1.5-1.7,3.6-1.3c-1.7,2.8-2.1,5.2-5.8,6.1c-2.4-1.9-3.1-5.5-6.5-6.5c1.1,1.6,0.2,4.6-0.6,6.1
	c0.9,1.1,2.6,0.7,3.9,1.6c0.1,0.1,0.1,1.4,0,1.3c0.6,0.7,2.5,1,3.6,1.9c4.2,3.6,10,8.6,15.8,10.3c1.3,3.1,5.8,6.6,9.7,7.1
	c-0.1,1.1,0.1,1.8,0.3,2.6c4.9,2.8,7.5,9.3,15.8,6.8c1.3,1.1,3.3,2.1,2.9,3.9c-2.3,0-4.6,0-6.5-0.3c1.3,3.6,4.5,5.4,8.1,6.8
	c0.8,0.8-0.8,1.1-0.6,2.3c2.1,1.1,4.5,1.7,5.8,3.6c-3,4.7,2.5,9.2-1.9,12.6c-2.5-1.3-3.6-3.9-3.2-8.1c-1.3-1.5-1.8-3.8-2.3-6.1
	c-0.4-0.6-2.3,0.1-2.3-1c-0.5-4.4-4-7.6-6.5-9c0.2,1.8-0.5,2.7-1,3.9c-2-1.2-1.8-3.7-0.6-5.5c-5.9-6.2-12.9-11.5-19.7-16.8
	c-0.9-0.3-1-0.3-1.9,0c-7.2-8-18.4-12-26.2-19.4c-1.2,0.2-1.6-0.6-2.9-0.3c0.2-0.8,0.9-3-0.3-3.2c-1.2,4.3-2.9,9.7-0.3,12
	c-0.6-0.5-0.9-1.3-1.9-1.3c-1.6,2.7-0.4,8.2-2.3,10.7c-0.8-3.3,0.8-6.7,0.6-10.3c-2-0.4-3.6,2.3-4.5,1c3.8-0.7,5.4-3.6,5.8-7.8
	c-0.3-1-1.3,1.7-1.6,0.6c0.2-1.6,1.7-1.7,2.3-2.9c0.1-4.5,1.6-6.9,1-10c-0.2-1-1.1-1.9-1.3-3.2C374.2,10.3,374.5,5.1,373.1,0z
	 M379.2,17.4c-0.1,6.3,1.5,10.2,6.1,12.3c0-1.5,0-3,0-4.5c0.4-0.3,0.9-0.4,1.6-0.3c1.2-3.3-0.2-7.7-2.3-9.7
	C383.6,17.1,380.8,16.8,379.2,17.4z"/>
<path fill-rule="evenodd" d="M338.5,0c3.1,0,6.2,0,9.4,0c0.8,6.2,3.5,10.5,6.5,14.5c0.8,9.7,2.9,18.2,8.1,23.6c1,0.5,3,0,2.9,1.6
	c-0.8,0.9-2.3,0.9-3.2,1.6c-1.4-4-3.5-7.2-6.1-10c-0.4,9.9-5.1,22.4,2.3,29.7c6.9,0.7,13.6,3.1,20.7,2.6c0.5-0.8,0.5-2,1.3-2.6
	c0,1.3-0.6,1.9-0.6,3.2c5.4,2.1,15.4-0.6,19.4,2.9c-6.8-1.6-13.7-0.6-20.7-1c-6.7-0.3-15.2-4.1-22.3-3.2c2.4,12.1,6.9,22,13.6,29.7
	c-0.3,3.6,3.5,7.5,3.6,10.7c-2.6-1.6-2.5-5.9-4.8-7.8c-0.7,1.3-1.1,2.8-2.3,3.6c1-2.4,1.9-5.3,0.3-7.8c-0.6-1-1,0.9-1.3,0
	c-0.2-2.6-1.1-4.6-3.6-4.2c1,4.2-1.3,8.7-0.6,12.9c-1.4-0.1-1.6,2.7-2.6,1.9c1.8-1.8,2.3-7.6-0.3-5.5c0.9-2.4,2.7-4.3,1.9-7.4
	c-0.8-0.7-3.1,0.1-3.2-1.3c1.1,0,2.2,0,3.2,0c0.3-1.9-2.8-1.7-1.9-3.2c0.6-0.1,1.9,0.4,1.6-0.6c-0.3-6.9-4.2-13-5.8-19.7
	c-4.2,1.7-6.6,3.5-11.3,4.8c-1.2,1.5-2,5.2-0.3,6.8c-0.3,0.6-1.1,0.6-1.6,1c-0.5,5.8-5,10.4-2.9,16.8c3.1-0.3,4.5,2.8,3.9,5.2
	c-2.1-0.1-2.6-1.9-4.2-2.6c0.7,3.2,0.9,7.5,2.3,10.7c0.3,0.7,1.2,0.9,1.6,1.6c0.8,1.5,0.9,3,1.6,3.9c0.2,0.2,1.4,0.1,1.6,0.3
	c0.6,0.5,1.9,2.9,1.9,2.9c0,0-1.2,0.8-1.3,1c-0.6,1.5,0.3,3.7-1,4.2c-1.4-0.5-2.8-1.8-4.5-1c-1.2-2.9-0.4-4.5-0.6-7.8
	c-0.7-0.6-2.7,0.1-2.9-1c1.7-5.5,1.2-9.7-0.6-15.2c-1.6,0.9-2.1,2.9-4.5,2.9c-2.8-3.1,1.7-5.3,4.2-6.1c-1.8-7.2,2.7-10.5,3.9-16.5
	c-1.5,0-3.2,0.2-3.6-1c0.6-1.2,2.5-1.2,3.9-1.6c-0.6-3.8,1.6-5.1,1-8.1c-1.4-0.5-2.2-1.6-3.9-1.9c-1.3,2.5-4.9,3.6-7.8,1.9
	c-0.7,1.3-2.5,3-4.2,2.3c0.9-4.6,1.5-6.3,1-9.7c2.1-1.1,3.3,0.6,4.8-0.6c0.9,2.1,3.6,3.2,6.1,2.6c0.3-1.7,0.6-3.3,2.3-3.6
	c0.7,0.2-0.3,2.2,1,1.9c7.1-0.4,10.9-5.1,11.3-11c0.2-3.8-1.6-8.1-1.9-12.6c-0.5-6.8-0.2-13.6-1.3-19.4c-0.2-0.6-1.5,0-1.6-0.6
	c0.8-3.3,1.1-8.2-2.3-9.7c0.2,1.5-0.4,2.2-0.3,3.6C340.4,6.5,342.2,1.5,338.5,0z M353.1,34.6c-0.6-5.4,1.8-14.5-2.3-18.7
	C351.6,21.9,351.4,29.8,353.1,34.6z M350.2,59.4c-1.4-0.1-3,1-3.6,2.6c4,3.4,7.1-4.7,4.2-7.4C350.6,56.2,349.9,57.3,350.2,59.4z
	 M337.6,62.7c2.5,1.1,6.4,3.1,8.7,1c-1.9,0.3-2.9-0.3-2.6-2.3c1.2-0.1,2.1-0.5,2.3-1.6C342.5,60.7,339.8,61,337.6,62.7z"/>
<path fill-rule="evenodd" d="M259.3,68.1c5.5-0.2,9.6-2.3,16.8-2.2c2.6,3.7,4.2,8.5,6.8,12.3c-1.7-4.2-0.1-6.3-2.3-9.7
	c0.9-0.6,1.2,0.2,1.9-0.6c1.4-4.6,4.5-7.3,6.5-11.3c1.5,0.9,2.4-1.4,3.9-1.6c0.2,2.8,0.7,5.3,0.6,8.4c-2.1,0-1.3,3-1.6,4.8
	c0.7,0.9,1.9,0.7,2.6,1c0.4,2,1.7,3,2.6,4.5c1.6-0.8,2.5,0.8,3.9,1.3c2.1-9.1-7.5-9.8-6.8-19.4c0.6-0.1,0.8-0.7,1.6-0.6
	c1.3,0.8,1.4,4.6,3.6,3.6c0-0.3,0.1-1.9,0.6-2.3c3.9,2.3,0.6,6.8,2.6,10c0.3-0.9,0.7-1.6,1.6-1.9c0.6,1,0.9,2.9,0.3,4.2
	c0.8,0,1.6,0,1.9,0.3c1.2,4,2.2,8.2,2.3,13.2c-1.8,1.9-3.6,3.7-5.8,5.2c2.5,1,4-2.1,6.5-2.3c1.7-0.1,3.7,2,4.5-0.3
	c-2.1,0.1-3.5-0.6-4.2-1.9c0.6-6.2-1.1-10.1-2.3-14.5c0.1-0.6,1.3-0.3,1-1.3c-3.3-1.7-4-6.7-3.6-10.3c1-0.8,2.7-0.7,3.6-1.6
	c-2.1-1-4.1-3.1-7.1-2.3c-4.6-4.3-6.2-12.6-4.5-20.4c-1.2-1.9-1.5-5.3,0-7.8c-2-4.5-2.1-11.1-4.2-16.2c0.6-1.1,1.6-1.6,1.9-2.9
	c-0.6-1.9-0.9-3-0.6-5.5h-5.2c-0.2,3.7-0.1,6.5-1.6,9.4c0.2,0.9,1.8,0.3,1.9,1.3c-1,2.3-0.8,5.8-2.9,7.1c1,3.2-0.3,9-2.3,11.3
	c-0.4-1.2-0.7-2.5-0.6-4.2c-0.5-1.2-3.1-1.8-4.5-1c-2.2,5.6,4.6,5.1,5.8,8.4c-0.9,5-0.9,10.9-3.6,14.2c1.6,3-0.2,5.7-1.6,9.7
	c-1.7,4.6-2.6,9.2-8.1,8.7c-1.3,0.1-0.2-0.7-0.3-1.3c-1.6,1.5-5.1,2.6-8.1,1.6C263.7,66.8,262,67.3,259.3,68.1z M294.3,48.8
	c1.6,0.5,3.9,2.1,4.5,4.5c-1,0.6-2.9-0.2-4.2-0.3C294.1,51.9,294.3,50.3,294.3,48.8z M285.2,38.8c0.3-2.3,1.3-5.1,1.9-8.1
	c0.8-3.8,0.5-7.7,1.3-9.7c0.2-0.5,1.2-1.2,1.3-1.6c0.7-2.3-0.4-4.1,1-5.5c2.3,2.5,1.7,6.4,1.9,10c0.3,3.5,2.1,7.4-0.3,11
	c0.1,4,1.2,12.1-0.6,16.2C285.3,49.3,284.2,46.8,285.2,38.8z M283.6,49.1c2.9,0.2,4.1,2.1,6.1,3.2c-2.5,6-7,10-10.7,14.9
	C277.9,60.2,281.8,55,283.6,49.1z"/>
<path id="branch_1_" d="M258.4,67.2c-5.4-9.5-7.3-21.5-11.3-32.6c-4-10.9-9.4-24-12.9-34.6h-26.8c-0.4,1.4,0.9,1.3,1,2.3
	c-0.6,0.3-0.9,0.8-1.6,1c-0.8,4.9-3.3,8.1-4.5,12.6c0.6-0.1,0.7,0.4,1.3,0.3c2.5-3.2,2.6-8.8,5.5-11.6c6.5,8.5,8.9,19.1,12.9,29.4
	c5.4,13.9,12.1,28.4,12.6,45.5c0.6,0.8,1.2,1.6,1.3,2.9c-0.7,5.6-2.9,9.9-4.5,14.5c-2.1,6.2-4.5,12.4-6.8,18.7
	c-3,8.4-4.2,17.6-8.7,24.9c-1.5-0.3-1.6,0.8-2.6,1c-1.8,3.3-0.1,9.4,1.9,12c-0.9,2.5-0.8,5.6-1.3,7.8c-2,9.4-2.9,14.6-8.4,21
	c-3.1,3.6-4.8,8.3-6.8,13.6c-1.5,4.2-3.9,8.1-4.8,12c-0.8,3.3-1.2,4.9-1.9,7.4c-3.5,12.6-5.1,25.7-9,37.8c-0.8,0.4-1.1,1.3-2.3,1.3
	v1.9c-5.5,2.8-11.1,6.2-18.4,3.9c-9.3,4.4-11-6.5-18.4-7.1c0-0.3-0.3-0.4-0.3-0.6c1.1-2.6,1.2-6.1,3.2-7.8
	c1.6-8.7-0.4-14.6-3.6-20.4c7.6,1.5,14.1,5.8,18.1,12c-0.6,1.2-1.2,5,1.9,4.8c0.2-0.8-0.4-2.3,0.3-2.6c0.1,4.1,0.2,9.1,5.8,8.4
	c1.5-1.8,1.9-6.2-0.3-7.4c-1.8-0.3-4-0.3-3.9-2.6c1.5,0.8,3.2,0,4.2-0.6c0.2-1.7-0.9-2.1-1.6-2.9c-2.1-0.2-2.9,1-4.5,1.3
	c-4.8-4.8-10.4-8.8-16.5-12.3c-3.8,0.5-5.9-3.1-8.4-4.2c-5.9-2.6-12.1-4.8-17.4-8.4c-0.3-0.8-1.2-1.2-1.3-2.3
	c-4.9,2-11.3-2.1-18.4-1c-1.1-1.1-0.7-2.3-1.3-4.2c-0.9-0.4-1.6-0.9-2.9-1c-0.9,1.7-0.2,4.4,0.6,5.5c-4.3,1-9,2.3-13.2,1.9
	c-5.6-0.5-4.4-5.2-7.4-8.4c-2.2,0.9-2.5-1.7-4.8-1.6c-1.7,0.7-1.4,3.3-2.9,4.2c1.1,3.1,4.5,3.9,6.8,5.8c-1.2,1.9-3.6,4-2.3,7.4
	c2.1,0.3,2.5,2.3,5.2,1.9c0.9-0.8,0.7-2.7,1.3-3.9c4.4,0.1,7.4-3.6,11.6-1.6c1-1.9,5.1-3.3,6.8-1.6c5.3-2.4,12.7-0.6,18.4,0.3
	c0,0.8,0.2,1.5,0.6,1.9c0.3-0.6,1-0.7,1.9-0.6c8.4,6.1,22.3,8.5,22.3,22c1.9,1.3,2,5.2,0,6.5c0,6.7-3.8,9.6-3.9,16.2
	c-0.8,0.1-0.7,1-1.3,1.3c-0.9-0.2-0.7-1.5-1.6-1.6c1.7,2.5-0.3,9.8-3.9,9c-2.8,4.8-4.9,10.2-9,13.6c-2.6-1.3-3.9-3.8-3.9-7.8
	c-1.6-1.6-3.3-3-5.2-4.2c-0.5,4.1,0.7,6.6,2.3,8.7c-2.4,0-2.8,1.9-3.9,3.2c1.6,1.3,4.6,0.4,5.8-0.6c0.9,1.1,2.8,1.2,3.6,2.6
	c-7.9,8.7-15.5,17.6-23.3,26.5c-6.8-4.3-12.9-9.3-19.7-13.6c-0.7-0.8-0.5-2.6-1.9-2.6c-1.3-0.5-0.1,1.4-1,1.3
	c-4.2-2.2-9.8-3.6-11.3-8.4c-1.9-5.9-6.2-5.1-11.3-7.4c0.5,4.1,3.1,9,6.8,11c0.3,0.8,0.4,1.7,0.3,2.9c6.6-0.8,9.8,1.5,14.5,3.9
	c-0.1,1.2-0.4,1.1,0.3,1.9c8.9,1.3,15.3,7.7,20.4,13.9c-0.4,4-2.5,6.4-4.5,9.7c-2.6,4.4-4.1,6.6-8.1,8.1c-0.4,1.6,1,1.4,1,2.6
	c-4.3,5.9-7.3,13.2-13.9,16.8c0.1,6.7,1.9,14.1-0.6,21c-0.2,1.4,1.7,0.6,1.3,2.3c-0.4,0-0.3-0.6-0.6-0.6c-0.1,1.1,0.8,1.7,1,2.6
	c1.8,7.9-0.8,15.5-1,23.9c-0.1,2.9-2.2,5.5-1.9,7.1c0.6,3.3,6.5,4.2,6.5,8.4c0,1.1-3.9,6.2-5.8,7.4c-2,1.3-4.7,1.8-7.1,1.3
	c-4.7,2.1-9.8,5.5-14.2,6.8c0.5-2.3,1.9-7.7,3.9-10c-1.6-2.9-1.5-4.9-1-8.1c4.3-0.1,5.6-5.6,4.2-9.4c-1.4-0.3-2.7-0.8-4.5-0.6
	c-0.5-5.1-2.9-7.7-8.4-7.1c-1.6,3-0.1,7,1.6,8.7c2.1-0.1,2.5,1.4,3.9,1.9c1.7,2.2,1,6.4-1.3,7.4c-1.7,3.1,1.9,4.9,1.9,7.4
	c0.1,2.6-4.1,9-4.8,11c1,0.2,0.9,1.5,1.3,2.3c-3.1,3.2-6.1,6.6-9.7,9.4c-0.9,0.9,0.4,0.7,0.3,1.6c-3.6,3.2-4.7,8.7-8.4,11.6
	c-3,2.4-6.7,3.5-10.7,5.2c0.5-3.1-2.1-5,0-8.1c-2.6-1-1-4.6-2.3-6.5c-2.2,0.1-6.1-1.4-7.8,1.3c0.5,1.9,1.7,3.2,3.6,3.9
	c1-0.4,2.1-0.7,3.6-0.6c-0.4,2.4,2,7-0.6,8.7c1.9,0.6,1.3,3.3,1,4.2c-1.1,2.7-5.5,4.5-7.1,8.1c-0.4,1-0.1,2.7-0.6,3.9
	c-0.3,0.6-1.1,1-1.3,1.6c-1.1,3-1.7,6.2-1.9,10c-0.6-0.1-0.7,0.4-1.3,0.3v1.9c0.8-1.4,2.8,0.4,3.6-1c-0.7-0.3-0.1-2-0.3-2.9
	c2.9-2.6,1.4-11,5.2-11.6c-0.8-3.8,3.2-8.2,7.4-9c1.3-2.9,4.8-3.6,8.1-4.5c2.5,3,3.1,7.9,5.8,10.7c-0.8-0.5-0.9,1.1-0.3,1
	c0.1-0.5,0.7-0.4,1-0.6c3.8,5,11.2,4.9,16.8,8.4c0.9,2.8,1.1,4.8,0.3,7.4c3.8,1.3,0,5.7,1,8.4c3-0.2,3.2,2.4,6.1,2.3
	c0.3-5.3-5.5-7.7-3.2-12c-0.4-0.4-1-1.4-1.3-2.3c-1.9-6.4,0.9-5,5.5-7.1c3.1-1.4,5.9-3.3,8.1-4.5c4.6-2.6,9.1-4,13.2-4.8
	c2.2-2.1,10.8-6.5,14.5-2.3c1,2.7,0.8,4.7,1.6,7.4c2.7,0.6,2,3.1,1.9,5.5c-5.1,1-10.6,4-16.5,2.3v-1c-1.3,0.3-1.7-0.5-2.9-0.3
	c1.1,2.1,2.8,3.7,5.2,4.5c5.5-1.9,12.6-2.2,17.1-5.2c0.3-6.9-2.6-8.7-4.2-13.6c2.4-0.7,5.1-1.2,6.1-3.2c-2.6-0.5-5-2.6-8.1-1.6
	c-2.6-8.5-7.2-15.8-11.3-23.6h1.9c1.1-3.1,4.6-4.6,7.1-4.5c-0.2-0.6-1.5,0-1.6-0.6c3.9-1.3,5.2-7.3,9.4-7.4c1.7,0,4.9,2.3,6.1,3.2
	c3.4,2.6,8.5,6.6,7.1,8.1c6.3,2.5,10.8,6.9,14.2,12.3c0,1.8-0.8,2.1,0.6,2.9c0.1-0.3,0.3-0.4,0.6-0.3c0.7-1.3,0.2-3.7,1-4.8
	c2.4-0.4,5.6,0.1,8.1,0.6c0.1,2.6,1.2,4.2,2.9,5.2c-0.8,1.3-1.8,2.3-1.9,4.2c5.9,3.5,16.3,2.4,18.4,9.7c3.4,1.6,5,4.9,5.8,9
	c-1.5,1.8-1.6,5.1-3.9,6.1c0-0.5-0.9-1.1-0.6,0c0.3,0.7,1.5,0.4,1.6,1.3c-1,2.3-2,4.7-4.5,5.5c0.7,0.2,2.1-0.4,2.3,0.3
	c-1,6.9-1,15.4-2.3,20.4c-6.7,3.6-8.7-4.3-14.9-2.9c-0.3,3.6,2.3,4.4,4.8,5.2c-0.5,1.4-0.9,2.9-1,4.8c1.3,1,3.3,0.4,4.5-0.3
	c0.3-1.4,0.3-1.8,0.3-3.9c2.1-0.3,5.2-1.2,6.8-1c0.2,1.8-0.9,4-0.6,5.5c1.1-1,1.3-3,1.3-5.2c2.1-1.3,4.9-2,7.8-2.6
	c0.4,1.8-0.7,2.1-0.6,3.6c1,3.4,4.6,12.9,4.2,15.8c-0.8,5.4-8.6,5.3-10.3,10.3c0.9,0.8,2.9-1.4,1.9,1c1.6-2,9.2-8.7,11-8.7
	c2.1-0.1,3,2.3,5.5,2.6c1.8-2.1,6.3-2.5,8.7-0.6c-0.9-1.5-2.4-2.3-2.6-4.5c-0.7,1.2-2.2,1.4-3.9,1.6c-0.8-1.7-0.1-2.9-0.6-4.5
	c2.8-1.9,5.1-5.5,9-5.2c0.1-0.8,0.4-1.3,0.6-1.9c5.5-2.4,11.2-4.5,15.2-8.4c1.1-3.7,4.5-5,6.8-7.4c3.1,0,7.6,1.8,10,0.3
	c-0.4,0-0.9,0.1-1-0.3c1.6-0.5,3.5-0.8,4.8,0c0.2-0.9-0.6-0.7-0.6-1.3c2.6-0.9,4.2-2.6,6.5-3.9c1.6,1.1,6.3,1.1,7.1-0.6
	c-1.6,0.9-5.1,0.9-6.5-0.3c0.9-0.9,3.8-2.8,1.6-2.9c1-1.7,2.4-3,2.9-5.2c-2.7,1-2.9,6.1-5.5,6.1c0.7,0.3-0.1,1.8-1,1.6
	c-1.1-0.2-1.7-0.9-2.6-1.3c-2.4,0.8-4.6-0.8-6.8-1.3c-3.3-6.6,1.6-15.6,1.9-24.5c0.1-3.1-1.2-5.8,0-8.7c-2.6-4.3-7.2-8-7.8-13.2
	c-5.2-2.3-7.5-7.3-11.3-11c0.2-6.2,4.3-8.2,8.1-12.6c3.1-3.5,3.9-8.2,7.2-9.7c1.6-0.7-0.1-1.4-0.4-2c2.4-4,4.4-8.3,7.1-12
	c7.3-3,12.4-8.3,19.4-11.6c0.1,8.1,3.2,14.4,3.6,21.3c0.2,0.9,1.3,0.8,1.3,1.9c0,0.5-0.8,0.3-0.6,1c1.7,0.9,2.4,2.7,2.9,4.8
	c0.4,2.4,1.3,3,1.3,6.1c-2.2,3.8-6.7,6.8-7.4,11c4.5-0.6,5.2-7.7,9.4-9.7c1.2,3.4,1.9,7.2,1.6,10.3c3.5-0.3,3.5,3,6.1,3.6
	c-2-4.5-4.7-8.2-5.2-14.2c3-2,9.5-2.6,10.3,0.6c-1.7,0.1-1.5-1.7-3.2-1.6c-1.5,0.9-2.3,2.5-2.9,4.2c0.4,0,0.7-0.2,1-0.3
	c0.3,0,0.4,0.3,0.6,0.3c-1.3-1.6,0-3.3,1.9-3.6c4.6,2.9,5.1,13.1,1.3,18.4c-1.2-0.1-2.2-0.4-2.6-1.3c0.2-0.6,1.9-1.5,1.3-1.9
	c-0.5,0.8-1.8,0.8-1.6,2.3c0.4,1.2,2,1.2,2.9,1.9c-1,3.6,2.1,8.4,0.3,11c2.2,1.2,1,5.3-0.6,6.1c1,4.4-1.8,7.3-5.2,8.4
	c1.2-1.1-0.6-3.5-0.6-2.3c1-0.3,0.6,0.7,0.6,1.3c-1,0.5-1.3,1.7-2.6,1.9c-1.2-1.6-0.1-3.3-0.3-4.8c-1.4,0-1.4,1.4-1.9,2.3
	c3.3,3.2,0,7-2.3,9c1,7.3,5,11.6,9.4,15.5c-0.3,0.6-0.9,0.8-0.6,1.9c2,1,1.7-1,3.6-1c3,1.2,4.5,5.9,8.7,3.9c0.3-4.1-4.9-4.6-6.1-8.1
	c-1.8-0.2-2.8,0.4-3.9,1c-0.4,0.8,0.9,1.3,0,1.6c-2.4-1-3.8-2.9-4.8-5.2c0.6,0.3,1.5,1.7,1.6,0c-0.5-1.6-2-0.4-2.6-0.6
	c0.2-1-0.6-1.1-0.3-2.3c-2.8-0.2-2.4-4.2-1.9-6.8c4.6-5.7,11.7-9,15.2-15.8c0.6,1.8,6.6,3.1,6.1,0.3c-1.8,2.4-4.5-0.7-5.5-1.3
	c3.5-8.5,4.3-19.6,10-25.8c-0.4-1.8,0.3-1.2,0.3-2.9c1.9-1.1,5.9-1.8,8.1-1.6c-1.1,1.7-3.9,1.7-4.8,3.6c0.3,1.1,2,0.8,1.9,2.3
	c0.9,7.2-2.6,11.4-1.9,17.8c-0.1,0.8,1.3,0.3,1,1.3c1.2,10.2,4.8,20.5,6.5,31.3c0.6,0.4,2.6-0.1,2.9-1c-3.6-11.5-8.2-26.2-6.1-39.4
	c-1.3-3.3,1.1-7.8,2.9-10c0.8,0.3,0.4,1.8,1.6,1.6c0.7-2-1.3-5.1,1-6.8c2,3.7,3.8,11,8.4,10c-0.8-0.8-1.2-2.4-0.6-3.6
	c-2-3.1-6.5-3.7-6.8-8.4c2-0.4,2.7,0.6,3.9,1c4-3.3,11.2,2.1,11,6.1c-1.1-1.5-2-3.2-3.6-4.2c1.2,3.4,4,5.3,5.2,8.7
	c-1.2,0.6-2.2-1.5-2.3,0c1.2,0.1,1.8,0.8,2.9,1c2.3,4.8,7.5,9.8,7.1,15.2c2.7-2,5.6,2,7.1,2.3c1.6,3.1,2.6,6.9,7.4,6.8
	c0.1-0.3-0.8-2.2,0.3-2.9c-1-1.7-2.2-3.2-3.9-4.2c0.1-0.8,1.4-0.9,0.6-1.6c-1.2-1.1-2.4-0.9-3.9-0.3c-0.9-0.9-2-1.7-2.9-2.6
	c0-0.6,1.7-1.1,0.6-1.6c-0.5,1-2.1,0.7-2.3-0.3c0.8-0.7-0.3-1.4,0.3-1.9c4.2,0.1,7.4-0.8,11.3-1c5.1,2.7,7.2,8.3,10,13.2
	c-0.8,0.6-1.7,1.1-1.9,2.3c0.4,1,0.7,2.1,1.9,2.3c1.7,0,1.7-1.7,3.2-1.9c1.3,2,6.9,1.9,7.1-1c-2.8-3.3-8.2-0.8-9.7-3.9
	c1.5-0.4,1.3,0.9,2.6,0.6c0.8-2.8,4.4-2.9,5.5-5.5c-1.9,0.1-3,1.4-5.5,1c-1.9-0.3-3.4-2.7-5.2-2.6c-0.9-1-0.2-3.4-1.9-3.6
	c-1.1,0.1,0.6,1.4-0.3,1.3c-1.2-0.7-2.7-1.1-3.2-2.6c5.1-0.7,9.6-2.1,13.6-3.9c6.5,2.8,14.1,4.4,18.4,9.4c-1.2,2.9-1.2,7-2.9,9.4
	c-0.1,0.8,1.3,0.3,1,1.3c-0.7,5.7,1.4,10.2,1.6,14.2c0.5,7.5,0.2,13.1,0.6,18.4c0.2,2.4,1.7,5.6,1.3,7.8c-0.7,3.3-5,4-6.1,6.8
	c1.2,1.2,2.5-1.1,3.6,0c0.6-1.6,1.3-3,2.9-3.6c1.3,4.1,1.1,8.4-0.3,12.3c0.9-0.1,1,0.7,1.9,0.6c1.1-0.3,0.4-2.4,1.9-2.3
	c-0.3,3.9-2.8,5.5-5.8,6.8c-6.8-2.2-13.5,1.1-19.4,1.9c-1.9,4.3-5.2,7.7-6.8,11.3c-4.8,2.5-11,5.1-12.9,9.4c-1-0.2-0.6,0.9-1.6,0.6
	c0-1.1-0.4-1.7-1.3-1.9c-0.7,0.4-1.6,0.5-2.3,1c-0.2,1.8,1,2.2,1.3,3.6c-0.6,0.1-0.8,0.7-1.6,0.6c-1.9-2.7-6.1-3.1-9-1
	c0.5,1.3,1,2.5,1.3,3.9c1.9,1.5,4,0.6,6.5,0.3c0,4.1,3.7,4.5,6.1,2.3c-0.1-1.7-0.5-3.2-1-4.5c1.6-1.9,2.4-4.5,5.5-4.8
	c0.6-4.3,5.4-5.6,9.4-5.5c1.4-1.6,1.6-5.1,3.9-4.8c1-10.4,14.5-11.8,23.3-9.7c2.7-0.7,4.7-5.4,7.8-5.2c2.9,0.2,11.4,5.7,13.6,7.8
	c3.1,2.9,4.7,6.1,7.1,9c1,1.2,2.6,2,3.6,3.2c3,3.9,4.4,8.3,4.5,13.9c3.7,5.4,0,13.5-0.6,19.4c0.1,0.6,1.3,0.3,1,1.3
	c0.2,7,4.4,10,5.8,15.8h1.9c-0.2-3.9-4.7-6.3-4.5-11.6c-0.9-1-2-3.1-1.3-4.5c3,0.8,4.8,0,7.8-0.3c0.5,1.8,0.2,4.3,1.3,5.5
	c-1.8,0.4-3.3,3.1-1.3,4.5c1.9-0.1,2-1.9,3.6-2.3c1.5,3.3,5.6,2.1,8.4,0.3c-2.4-1.4-5.3-4.2-8.4-2.9c-1.5-1.4-2-4-0.6-5.8
	c1.6,1,3.3-0.2,4.8-0.3c0.9,0.7-0.6,1.8,0.6,1.9c0-0.9-0.2-1.9,0.6-1.9c2.2,0.5,4.3-0.5,5.8,1c-0.3-1.2,1.3-1,0.3-1.9
	c-1.1,0.5-7.2,1-5.2-2.6c-1.5-0.2-0.9,1.7-1.9,1.9c-1.7,0-3.3-0.1-4.5-0.6c1.4-2.7,2.5-6.6,5.5-6.8c1.3-0.1,2.5,1.5,3.9,1.6
	c3.6,0.3,5.6-2.1,8.1-4.5c-2.2-2.1-8.7-4.6-11-1c0.7-1.5,0.7-3.8,0.6-6.1c-3.1,0.4-5,4.1-3.6,7.1c-3.5,4.6-6,13.7-14.2,10.7
	c-0.4-5.5,1-12,0.6-17.8c-2.9-7.3-4.1-16.3-10.7-20c-2.4-5.2-7.8-7.5-11-12c-4.1-0.7-6.5-3-9.4-4.8c1.2,0.2,2.1-0.1,2.6-0.6
	c0-3.9-2.8-7.2-2.3-10.7c0.3-2,2.7-3.1,2.3-5.5c2.4,1.7,4.5,3.7,5.2,7.1c0,1.4-1.1,1.7,0,2.6c2-0.4,0.8-4,1.9-5.2
	c7.3-1.8,13.9-4.2,20-7.1c0.9-0.3,0.8,0.5,1.6,0.3c1.7-1.7,4.4-3,8.1-3.6c0.3-1,1-1.6,1.9-1.9c2.3,0.2,3.1-1,5.2-1
	c1.5,1,2.3,1.7,1,3.2c1.9-0.3,4-3.1,6.1-4.2c4.6-0.8,8.6-0.6,12.9-1.9c4.3,2.5,9.4,6.3,12.9,10.7c-1.2,2.7-3.1,4.7-5.2,6.5
	c-0.3-1.3-1.6-0.7-2.6-0.3c-0.3,1.3,1.5,0.6,1.3,1.9c-3.5,4.2-9.6,3.2-14.5,4.2c-0.8-0.5-1.4-1.1-2.6-1.3c-1,0.1-1.1,1.1-2.3,1
	c-0.5,3.9,3.2,3.5,4.5,5.5c-0.9,1.9-1.4,2.9-0.6,5.2c1.8-0.4,1.8,1,3.6,0.6c0.5-2.1,1.5-4.8,0-6.8c1.7-0.7,3.2-1.5,5.2-1.9
	c0,1.8,0.5,3.2,1.9,3.6c1.4-0.8,1.6-3.1,0.6-4.5c5.2-3.5,8.4-7.7,13.6-11.6c1.9,1.8,1.3,4.4,1.3,6.8c1.9-0.7,2.4-2.7,3.6-4.2
	c-0.6-0.6-1.2-0.1-1.9,0c-0.4-1.2-1.2-2-1.6-3.2c2.3-1.7,6.8-2.9,10.7-1.9c0.2,1.2-0.6,1.6-0.3,2.9h5.2c0.3-1.5-1.1-1.5-1-2.9
	c1-1.6,4.1-2.7,5.2-5.2c-1.7-0.3,0.5-2.5-1-2.9c-2.9,0.6-4.1,0.9-6.5,1.9c-0.1,0.8-0.5,1.2-0.3,2.3c-1.3,2-3.5,1.2-6.5,1.6
	c-3.3,0.4-5.5,1.9-7.4,1.3c-2.4-0.7-5.3-5.7-6.8-7.1c-0.9-0.9-1.1-2.1-1.3-3.2c2.7-0.6,6-1.4,9-0.6c0.3,2.8,5.7,4.1,7.4,1.6
	c-1.3-1.4-3.4-2-4.8-3.2c5.2-1.1,9.6,2.5,13.9-0.6c0.1-1-0.4-1.8,0.6-2.9c-3.1-2.1-7.6-0.9-10-3.9c0.3-0.9,1-1.3,1-2.6
	c-10.4-2.8-6.1,10.8-16.5,9.7c-0.8-3.1-1.7-6.1-3.6-8.1c-1.1,2.9-3.2,4.9-1.6,8.1c-1.4-0.2-1,1.4-2.3,1.3c-2.2-1.7-4-5.3-1.6-8.1
	c-1.5-0.2-1.8,0.6-2.9,0c0,0.8,0.6,0.9,0.3,1.9c-2.8,0.3-2.5,3.7-3.9,5.5c-0.8-2.1-3-0.9-4.5-1.3c-2.4-0.6-3-2.5-4.8-3.6
	c0,0.6-0.3,0.8-1,0.6c0.2-0.7,1-0.6,0.3-1.3c-1.9,0.6-2.7-1.2-3.9-2.3c-1,0.7,0.1,1-0.3,1.3c-1.4-1.8-3.3-2.3-4.2-3.9
	c1.7-1.9,3.5-3.8,5.5-5.5c0.9-4.5,7.6-6.2,6.5-10.7c-4.2,3.3-7.3,9.2-11.3,12.9c-1.1,1-2.5,0.8-3.9,1.3c-2.5,1-4.8,3.6-8.4,3.2
	c-3.3,2.3-7.7,4.2-12.9,3.6c-2.3-3.1-6.2-4.6-8.4-7.8c0-2.1-1.3-2.4-1.9-3.6c-1.3-2.3-5.2-13.8-4.8-16.2c0.2-1.7,2.4-3.2,3.6-4.8
	c2.2-3.2,2.8-6.3,6.1-7.1c2.4-4,3.9-8.8,10-9c-0.9-2-2.4-3.4-5.2-3.6c-1.1,5.3-4.5,8.4-8.4,11c-2.4,4.5-5.7,8.1-8.7,12
	c-2.4-1.8-4.3-4.1-4.8-7.8c0.6,0.6,1.2,0.1,1.9,0c0.6-3.5-1.3-4.5-2.9-5.8c0-3.3-0.4-5.9-0.3-8.4c12-1.2,23.3-4.7,35.5-3.9
	c0,1-0.3,2.5,1,2.3c-1.3-4.3,3-5.2,5.5-6.8c4,1.2,6.4,1.2,9.4,2.3c5.1,1.9,6.4,8.6,13.6,5.8c-1.4-3.2-4.1-6.2-7.4-6.5
	c1.7-0.9,2.9-2.3,3.9-3.9c-3.2-1.5-6.9,0.1-8.4,2.3c-3.3,0.2-5.8-0.5-8.1-1.3c4.5-3.8,10.7-5.9,16.8-8.1c1.1,2.5,3.8,3.5,5.8,5.2
	c-1.8,2.5,0.7,7.7,3.6,7.4c0.8-0.1,2.4-1.3,2.6-1.9c0.6-2-2-3.8-2.6-5.5c1.8-1.5,5.3-1.3,5.8-4.2c-0.4-1.3-1.7-1.8-0.6-2.9
	c-3.7-1.6-9.6,2.7-7.1,5.5c-2.8-0.3-3.9-2.1-5.2-3.9c4.2-1.5,10.1-3.9,16.2-4.5c2.4,1.6,5.2,2.8,6.5,5.5c2.2-1.1,4.1,0.1,6.8-0.3
	c2.3-0.4,4-2.2,5.8-2.6c4.3-1,9.3-0.3,9-5.2c-0.6,3.1-5.1,5.6-8.4,3.9c0.3-1.8,2.9-3.1,2.6-4.5c-2.1,0.7-2,3.6-4.2,4.2
	c0-1.3-0.3-2.3-1-2.9c-0.2,1.4,0.5,1.8,0.3,3.2c-1.6,2.3-4.9,3-8.4,2.6c-0.9-0.7,0.6-1.8-0.6-1.9c-3.3,1.2-8.2-5.4-2.9-5.5
	c0.6-3.6,3.8-4.6,5.5-7.1c-0.1,1,0,1.9,0.6,2.3c0.3-1.7-0.3-2.5-0.6-3.6c0.3-1.1,3.1-3.1,1.9-3.6c-3.5,2.4-4.2,7.6-8.7,9
	c-1-0.8-1-2.7-2.6-2.9c0.2,1.8,2,1.8,1.6,4.2c-1.5,0.9-2.7,2-3.9,3.2c-3.8,0.8-8.4,2.6-12.6,2.6c-2.4,0-4.8-1-5.8,1.6
	c-2.8,1.4-5.5,1.6-9,2.9c-4.3,1.6-8,6.2-12.3,6.5c-2.5,0.2-6.4-1.5-9.4-2.3c-7.3-1.8-13.1-2.9-16.5-7.4c-3.2,0.9-7.9,1.2-10.7,0
	c0.5-1.6,0.8-3.5,2.3-4.2c0.5,0,0.3,0.8,1,0.6c2.7-2.5,5.1-5.2,9.7-5.8c-3.6-1.5,3.8-2.8,1.9-5.5c-0.9,2-3.4,5.1-5.8,3.6
	c-2.1,6-12.2,6.5-17.1,2.9c0-3.8-0.5-7.2,0.6-10.3c-1.8-0.5-1.1-5.2,0-5.8c3.9-1.2,8.3,0.1,11.6-1.6c0.8,1,1.6,2.1,3.9,1.6
	c1-0.7-0.9-2.1,0-2.6c4.2,0.3,4.9-2.1,5.8-4.5c-1.2-0.3-2.7-0.3-3.9-0.6c-2.5,0.5-3.2,2.9-5.2,4.2c-3.4,2.3-8.2,0.6-12.9,2.3
	c-2.3-1.1-2-3.4-2.9-5.8c-2.2-5.9-5.8-12-4.2-19.4c1.6,1.2,3.1,1.1,4.5,1.3c1.2,0.2,2.4,1,3.6,1.3c7,1.6,15.1,2.6,19.1,7.4
	c-5.4-8.4-21.3-6.3-28.4-12.9c-0.2-2.1-0.7-3.8-1-5.8c2.5-0.9,3.5-3.7,6.1-3.6c1,0.1,3.7,1.9,5.2,2.9c4.9,3.2,10.7,7.6,13.9,10.7
	c0.9,3.1,4.1,4.1,6.8,5.5c2.9-0.2,6.1-1.6,8.7-1c1.8-2.6,7.4-1.5,9-4.2c-1.1-1.5-3-2.2-4.5-3.2c0.5-2.4,2.4-5.1,3.2-6.3
	c-0.3,0.3-1.1,0.9-1.2,0.2c1.7-5.4,2.6-15,1.6-21c-1.3,0.7-0.6,2.6-0.6,3.9c-0.1,7.4-0.6,12.3-2.3,17.4c-0.5,0.1-0.3,1-1.3,0.6
	c0.1,2.1-0.1,4-1,5.2c-2.6,0.1-4.7-2.2-6.8-1.6c2.2,0.8,4.5,1.5,6.5,2.6c-1,5.9-15.5,8.7-15.5,1c-7.1-4.2-13.3-9.3-20-13.9
	c4.4-1.4,6.4-5.3,11.6-5.8c0.6-0.6-0.1-0.9-0.3-1.6c4.1-1.9,6.3-5.7,11-7.1c2-3.7,5.2-6.2,8.4-8.7c1.8,0.7,3,2.2,4.8,2.9
	c0.3-2.7-4.4-2-3.6-4.2c1.6,0.5,2.4,1.9,4.2,2.3c1.1-0.7,2.5-1.2,2.6-2.9c-1.2-1.8-3.6-2.2-5.2-2.9c0.8-1.5,1.4-4,0.6-6.1
	c-0.6,0-1.1-0.2-1.3-0.6c-4.4,0.4-0.9,7.3-3.6,9c-4.5-2.2-9.2-4.1-12.6-7.4c-7-2.8-14.3-5.3-20-9.4c-0.6-7.1-2.6-12.7-7.1-15.8
	c1.3,3.1,3.5,5.3,4.2,9c-0.2,1-3,1.1-1.9,2.3c0.4-0.7,1.1-1.1,1.9-1.3c0.8,2.3,1.2,4.7,0.3,7.1c-7.3,4.4-17.3,10.7-28.4,8.1
	c0.7-2.3,0.5-5.5,1.9-6.1c-0.8-6.7-2.7-14-3.2-20c-0.9-9.5,6-12.9,11.3-18.4c0.9-0.3,0.8,0.5,1.6,0.3v-1.9
	c5.4-7.6,11.3-14.7,15.5-23.6c4.2-1.5,13.9-2.4,17.1,1.3c0.3-0.4,0.5-1,1-1.3c3.7,1.7,7.2,3.5,9.7,6.5c4,0.4,10.7,4.5,9.7,8.4
	c-1.4-1.2-2.5-2.6-3.9-3.9c-0.1,1.9,2.9,3,3.6,5.2c-0.6,1-0.8,2.4-2.3,2.6c-1.5-0.5-2.8-1.1-3.9-1.9c-3,0.9-5.8-2.6-7.4-2.9
	c2.2,2.6,5.9,3.8,9.4,5.2c0.1,0.9-2.1-0.4-1.6,1c2.7,0.4,6.1-0.3,6.8-1c0.4,1.2,1.2,3.3,0,4.2c3.1,1.6,0.5,8.8,1,10.3
	c-1.1,2.7-3.3,4.3-3.2,8.1c2.5-0.5,3.1-3.7,5.5-2.6c0-1.8-0.3-3.3-1.6-4.5c0.9-4,1.2-8.1,0-12h1.6c-1.6-0.7-2.1-2.7-2.3-4.8
	c0.5-0.8,1.2-1.3,2.3-1.6c-0.1,0.8-1.1,0.6-1,1.6c1.1-0.3,1.9-0.9,1.9-2.3c-0.9-1.2-2.4,0.9-2.9,0c0.9-3.2,4.2-3.9,7.1-5.2
	c0.7,0.6,0.1,2.5,1.3,2.6c1-0.5-1.2-2.2-0.3-2.6c0.2,0.1,1.2,0.8,1.3,0c-1.4-0.9,0-0.4,0-1.3c-1.1-1.9-2-0.2-3.6-1.6
	c-0.3,3.4-3.7,2-6.5,2.6c-3.5-2.7-9.3-4.6-10.3-8.7c-3-0.6-5.3-1.6-8.7-3.2v-1.3c-4.8-0.2-10.2,0.1-12.9-2.3
	c-5.1,4.3-10.3-2.3-10.7-8.4c-4.5-3.1-6.7-10.1-8.7-14.5c4.4-7.8,7.1-17.2,11.3-25.2c1-6.2,4.3-10.1,6.1-15.5
	c-1.2-7.3,8.9-3.9,8.1,1.9c2.5-0.2,4.6,4.1,4.5,6.5c3.8,2.2,6.4,6.8,5.5,12.6c1.4,0.5,1.5-1.1,2.3-0.3c3,6.3,5,16.1,0.6,21.3
	c-1.7,0.2-2.6-0.4-3.9-0.6c0.3,1.7,3.6,0.3,3.9,1.9c-0.7,1.9-1,4.2-2.6,5.2c0.5,0.1,1.2-0.1,1.3,0.3c-1.2,2.8-2,6-4.2,7.8
	c2.1,0.3,1.9-1.8,3.6-1.9c-0.6-3.3,2.9-5.3,2.6-9.4c1-0.2,0.6,0.9,1.6,0.6c0.5-1.4-1.1-0.8-1-1.9c1.2-6.2,6.7-5.8,13.2-5.2
	c6.2,0.6,13.4,3.3,16.8,5.2c-0.2,1.9-1.5,2.8-1.3,5.2c1.4,1.8,3,3,5.5,2.9c1.8-1.8-0.6-3.5,0.3-4.8c0.5,0.6,0.2,2,1,2.3
	c0.2-1.8,0.3-3.2,0.6-4.8c4.3,1.1,6.7-1.8,9-3.6c-1.7-2.6-5.9-3.5-10-2.6c-3.5,5-9.1,0.5-13.2-0.6c-5.6-1.5-13.7-1.1-17.4-2.6
	c-0.1-1.6,0.4-2.6,1-3.6c-2-4.5,3.7-5.2,4.2-7.1c-1,1-2.5,1.6-4.2,1.9c-1.1-2.9,0.3-7.9,0-10c-1.5,2.4-0.9,6.9-1.9,9.7
	c-1.5-2.2-2.5-4.8-3.2-7.8c1.6,0.2,1.3-1.5,2.3-1.9c-0.6-0.6-2.1-0.2-3.2-0.3c-2.8-5.1-7.2-10.3-2.6-16.5c-0.7-1.3-2.8-1.1-3.6-2.3
	c0.3-1.8,1.5-3.8,0.6-5.8c1.2-0.7,5.1-1.2,6.1,0c1.2-1.8,5.2-1.5,7.4-1.3c3.4-3.2,11-2.1,14.2-5.5c-4.1,0.2-6.9,2.9-11,1.3
	c-3.1,1.8-9.6,3.5-13.6,2.3c0-1.2,0.5-1.9,0.6-2.9c-1.2,4.5-7.4,2.8-9.7,1.6c-0.7,0.1,0,1.8-1,1.6c-2.4-0.9-4.4,1.1-7.4,0.3
	c-2.3,3.3-5.3,5.9-7.4,9.4c-0.5,1-0.3,2.1,0.3,2.9c-6.2,12.9-10.8,27.3-18.4,38.8c-6.3,4.4-13.5,7.8-21,11
	c-0.2-6.9,3.2-11.5,3.2-17.4c0-4.1-1.9-8-3.2-10.7c-5.3-10.7-13.2-21.7-16.8-32.3c-4.3-5.2-7.6-11.3-12.3-16.2
	c-2-0.4-3.6-1.2-4.5-2.6c-0.5-0.9,0-1-0.3-2.3c-5.8-3.4-7-11.4-9.4-18.4c-3.1-9.4-5.6-21-8.4-30.7c0.5-0.4,0.6-1.1,0.6-1.9
	c-3.4-1.9,1.1-8-2.3-10.3C262.2,75.9,259.6,70.2,258.4,67.2z M398.6,355.6c1.1,0.4,2.2,0.8,2.9,1.6c-0.4,1.5-3.1,0.8-4.2,1.6
	C397.6,357.6,398.3,356.8,398.6,355.6z M344.7,454.8c-0.6,0.1-0.8,0.7-1.6,0.6c0.5-1,0.1-1.5-0.3-2.3c-1.2-0.3-0.9,0.8-1.9,0.6
	c-0.5-1-0.8-2.2-1.3-3.2C341.3,451.9,344.4,451.9,344.7,454.8z M365,404.7c0-1.6-2.7-1.9-1.9-3.2c2.8,0.6,5.6,1.1,7.4,2.6
	c-0.8,2.1-1.1,4.4-2.6,5.2c-0.6,0.3-3.6,0.4-4.5,0c-2.1-0.8-5.3-7-6.5-8.7C361.2,399.1,361.1,404.8,365,404.7z M320.4,401.5
	c-2.3,5.1-8.6,6.3-13.6,8.7c1.6-3.6,9.1-2.5,8.4-7.4c-6,1.4-9.9,7.8-15.8,10.3c7-7.2,12.3-16.1,22-20.7c1.6,1.7,2.2,5.5,0,7.1
	c-0.8-0.9-2.8-0.6-4.5-0.6C317.1,400.7,318.8,401.2,320.4,401.5z M315.3,356.9c1.6-0.6,2.6,0.1,4.5,0c0.1,3.2,2.2,4.5,2.6,7.4
	c-2-0.6-2.6,2.8-2.6,4.2c-1.2-0.2-1.9,0.3-3.9,0.3c0.2-2.8-2.1-5.7-1.9-8.1C314.1,359.2,316.1,358.7,315.3,356.9z M315.9,354.7
	c1-1.6,1.6-3.6,2.3-5.5c1.2,1,1.1,3.4,1.3,5.5C318,355.2,317.6,354.7,315.9,354.7z M332.4,329.5h-2.3c-0.3,2.9,2.1,2.9,4.2,3.9
	c3.1,1.5,4.9,5,7.8,6.5c0.4,0.5,0.4,0.8,0,1.3c3.8,1,5.4,4.3,6.8,7.8c-6.6,0.6-10.3-4.2-16.5-5.2c-0.4-0.7,0.2-1.3-0.6-1.9
	c-1.4,1.1-5,0.7-6.5,0c-0.3-4.6-2.8-10-1.3-14.2c-0.9-2.1-2.6-5.1-1.6-8.1c2.1,1.3,2.8,3.9,5.5,4.5
	C327.4,327.5,331.8,326.5,332.4,329.5z M338.2,332.7c1.2,0.4,3.2,0.8,4.8,1.6c-0.6,0.8-0.7,2.1-0.6,3.6c-1.6-0.9-2.8-2.2-4.2-3.2
	C338.5,334.4,338.9,332.8,338.2,332.7z M351.1,347.3c-2.3-2.4-4-5.5-6.5-7.8c0.1-1.8,0.5-3.1-0.6-4.2c2,0.3,5.5,1.9,6.1,4.5
	c-0.6,1.4-1.9-1.1-3.6-0.6C346.7,343.3,351.4,342.8,351.1,347.3z M342.7,331.1c2.3,0.2,3.5-0.6,5.5-0.6c0.7,1.3,0.8,3.3,1,5.2
	C347.1,334.1,343.7,333.8,342.7,331.1z M323,315.3c-3-0.8-2.1-5.5-3.2-8.1c2-0.2,3,3.3,4.5,4.5C324.4,313.4,323.4,314,323,315.3z
	 M315.9,371.5c0.6,0,0.7,0.4,1.3,0.3c-1.4-0.8,0.5-0.6,1.3-1c-0.8,1.3,0.9-0.2,1.9,0c0.6,0.3,0.7,1,1,1.6c4.7,0.5,5,5.6,4.8,11
	c-1.6,1.3-2.7,3.1-4.8,3.9C317.6,384.4,312.8,378.2,315.9,371.5z M325.9,394.7c0.8,0.1,1.2,0.5,2.3,0.3c0.5,5.2-1.1,8.3-2.6,11.6
	c-2.1,0.1-3.6-0.3-4.8-1C322.8,402.3,325.2,399.4,325.9,394.7z M326.6,345.3c7,1.2,13.1,4,19.1,7.1c-1.8,5.6-2.6,12.3-4.2,18.1
	c-1.2-0.3-1.9-0.2-2.6,0.6c-0.3,1.5,1.7,0.6,2.3,1.3c-0.7,1.3,0.2,4.1-1.9,3.9c0.9,4.5-3.3,3.8-4.8,5.8c-1.5-7.2-3.1-15.1-4.2-22.6
	c1.5,0.3,2.1,1.3,3.6,1.6c0.7-1.9-2.3-2.9-3.9-3.6C329.7,352.5,327.2,349.9,326.6,345.3z M330.5,399.6c1.7,3.3,2.9,7.2,4.2,11
	c-2.5-0.4-4.6-1.3-6.1-2.6C329.2,405.4,329.6,402.7,330.5,399.6z M334.3,385c0.3-1.2,1.3,0.1,2.3,0c1.5-1.7,3.4-1.3,4.2,0.6
	c1.5,0,1.7-1.3,3.2-1.3c0.9,3.4,4.8,5.4,4.8,8.7c0.8,1.2,2.4,1.5,2.6,3.2c-4.9-1-9.2-2.4-14.9-2.6
	C335.4,391.3,335.6,387.5,334.3,385z M353.7,399.3c2.5,4.4,5.2,8.6,8.4,12.3c-4.5,2.6-9.7,0.5-16.2,0.3c-4.5-3.5-6.9-9.1-8.4-15.5
	C343.5,396.7,347.9,398.7,353.7,399.3z M355,368.9c2,6.8,6.5,12.4,5.5,20.4c1,2.3,0.8,6.6-0.6,8.4c-5.9,0.3-8.3-3.9-8.4-8.4
	c-1.4-0.4-1.3,0.7-1.6,1.3c-2.2-2.6-5.1-5-4.2-9.7c-0.3-0.8-0.6-1.6-1.9-1.3c0.1-1.6,0-3-1.9-2.6c1.7-4.1,1.9-9.8,2.9-15.2
	c0.7-3.6,2.8-6.4,4.2-8.7c1.7,0.6,3.2,1.6,4.5,2.6C354.1,360.6,353.9,365,355,368.9z M353.1,345.3c0.6-3.2-1.6-3.6-1.6-6.1
	c2.4,0.5,3.7,2.1,5.5,3.2C356.4,344.1,354.8,344.7,353.1,345.3z M348.2,308.2c2.6-1.2,5-3.9,7.4-4.5c4-1,7.2,0.9,11.3,3.9
	c4.6,0.5,9.8,3.1,12.9,6.1c3.7-0.1,6.8,3,10.3,4.2c-0.5,2.9-3.5,3.2-5.5,4.5c-3.2,4.9-7.5,8.9-12.9,11.6c0.3-1.3-0.1-1.5,0-3.2
	c-1.6,0.1-2.5,2.1-1.6,3.6c-2.3,3.6-6.4,5.4-10.7,7.1c-0.2-0.3-0.3-0.7-0.3-1.3c-3.7-0.1-5.1-2.5-8.1-3.2c-0.2-1.6-0.4-3.2-0.3-5.2
	c0.8,0.1,1.2,0.5,2.3,0.3c0.4-1,0.1-1.3-0.3-2.3c5.7-0.3,10.9-3.4,17.4-4.5c1.6,1.8,4.7,1.4,6.8,0.6v-2.6c3.4-1.5,3.6-4.5,5.5-7.1
	c-4.1-1-7.8-0.4-10,1.9c-0.9,5.4-6.2,6.3-11.6,7.1c1.5-1.2,2.7-2.7,2.9-5.2c-3.7-2.1-5.6,2.7-6.1,5.8c-1.7,0.8-4.3,2.2-6.1,1
	c1.3-3.5,2.5-6.4,0.3-9.4c-0.9-0.7-1.1,1.9-2.6,1.6c-0.2-3.6-1.4-6.1-4.2-7.1c-2.3,3.4,0.4,7,1.9,9.4c-3.8,4.3-13.8-5.6-17.1-7.8
	C336.2,311.7,342.4,310.9,348.2,308.2z M344,325.6c0.7,0.7-0.3,1,0.3,1.6c1-0.5,2.9-0.5,2.9,1c-3.1,1.4-6.8-1.6-8.1,0.6
	c-2.6-1.3-5.1-2.7-6.8-4.8c0.8-3-0.4-5.7-2.9-6.5c-0.6,0.8-1.1,1.7-1.6,2.6c-1.7-0.7-2.8-1.9-3.9-3.2c0.3-1.5,1.1-2.5,1.9-3.6
	C331.5,317.9,337.7,321.8,344,325.6z M326.3,302c-0.3,1.4-2.7,0.8-2.6,2.6c0.7,1,1.8-0.3,2.9,0c-0.2,1.5-0.3,3.2-1,4.2
	c-9.3-7.5-7.5-22.7-8.7-36.5c1.9,1.1,3.1,3,5.8,3.2C323.8,283.5,326.6,292.7,326.3,302z M314.3,228.1c6-2.1,11.3-5.7,17.1-8.7
	c2.9-1.5,4.6-3.1,8.1-2.6c1,3,3.2,4.7,4.2,7.8c-1.3,0.2-2.1,0.9-2.9,1.6c0.5,0.5,0.3,1.9,0.3,2.9c2-0.1,3.5-0.6,4.8-1.3
	c1.3,3.6,5.6,5.7,4.8,11c-0.5,3.1-4.9,10.4-7.8,12c-0.1,1.3,0.4,1.3,0,2.3c-1.8,2.8-6,6.7-8.7,11c-0.9,1.4-7.2,7.5-8.7,8.1
	c-4.1,1.6-7-2-9.4-4.2c0.5-5.4-1.5-8.5-1-12.3c1.9-0.3,2.8,1.8,4.5,0.6c-0.1-2.5-2.8-2.4-4.2-3.6
	C314.1,245.1,313.2,236.8,314.3,228.1z M313.3,317.2c0.6,2.8,0.5,5.2-0.6,7.4c0.1,1.3,1.8,1,1.9,2.3c-0.1,2.4-2.4,2.5-4.2,3.2
	c-0.4,2.7-2.7,3.5-2.3,7.1c3.3-0.1,3.5-3.4,6.5-3.9c0.2-1.6-1-2.6,0.6-2.9c-0.4,4.1,2.2,7.4,1.9,11c-0.2,3.6-3.7,9-4.8,12.3
	c-0.9-0.7-1.7-0.9-1.9-1.9c-0.1-0.4,0.6-1.6,0.6-1.6c-0.6-1.2-1.9-1.2-3.2-2.3c0.1-0.9-0.7-1-0.6-1.9c-5.5-4.6-5.2-15.1-10-20.3
	c1.2-3.1,3.7-4.9,5.8-7.1c-2.8-0.7-6.4,2.9-9,4.5c0.4,1.3,1.7-0.2,2.3,0.6c-0.9,2.7-3.4,4.6-1.9,8.7c-3-1.6-4.3-5-6.8-7.1
	c1.9-4.3,8-4.5,9.4-9.4c-4.7-1.5-7.2,2.1-8.1,5.5c-1.5,0.3-1.9,0-3.9,0c-7.7-10.3-16.7-20.8-17.8-35.2c2.4-3.3,1.2-8.1,3.9-10.7
	c1.8-1.8,6.7-2,10.3-4.2c5.5-3.3,8-6,14.5-7.1c3.2,9.6,9,16.7,13.9,24.6C309.7,298.7,311.5,308.4,313.3,317.2z M313.3,369.5
	c-0.8,0.9-1,2.4-1.9,3.2c-4.8-4.4-7.4-12.6-7.4-20.7c-0.1-1.7-1.8-1.7-1.6-3.6c1.3,0.7,3.4,1.7,2.6,3.6c5,1.1,5.8,8.5,3.2,12.6
	c0.6,1.4,2.7,0,3.6-0.3c-0.4-0.9-0.4-2.2-0.3-3.6c2.8,0.6,1.8,5.1,2.3,8.1c-1-0.3-0.7-0.3-1.3,0.3
	C312.4,369.6,313,369.5,313.3,369.5z M238.1,349.8c-0.5,1.7-1.3,3.2-2.3,4.5c-0.6-1.3-0.6-3-1-4.5c-2.5,1-1.8,3.7-2.3,6.5
	c-0.7,4.4-4.7,7.2-8.1,9.4c-1.8,3.4-4.9,5.4-8.1,7.4c-1.5,3.4-5.9,4-9,5.8c-2,0.2-2.9-0.5-4.8-0.3c-5.9-2.5-9.4-7.9-14.2-12.3
	c-2.5-2.3-5.2-3.7-6.5-6.8c2.6-8.1,6.8-14.8,10.7-21.6c2.8,0.8,4.5,2.6,6.5,4.2c0.7-1.1,5,1.4,5.5,3.6c0.5-0.4,0.3-1.4,1.6-1
	c-0.7,2.7-2.7,4-3.9,6.1c-1.9,0.5-3.8,1-4.2,2.9c0.3,1.3,1.6,0.3,2.6,0.3c-1.2,2.4,0,4.8,1,6.8c4.1-1.4,1.8-5.4,2.3-8.4
	c0.5-3,3-4.3,4.2-6.8c4,2.2,9.3,4.1,14.5,5.8c1.3,0.4,3.7,2.2,4.5,0.3c-6.2-2.2-12.4-4.4-18.1-7.1c2.9-4,5.4-8.4,9.7-11
	c0.5-2.9,2.6-4.1,3.6-6.5c1-0.2,1.3,0.8,1.6-0.3c-0.1-0.5,0.3-0.6,0.3-1c3,1.5,6.8,2,9,4.2c2.3-1.3,5.3,1,8.7,0.6
	c1.3,2.7,2.7,5.3,3.9,8.1c-1.5,2.4-5.3,2.4-5.8,5.8c-1.6-0.1-3,0.1-4.2,0.3C236.1,347.1,235.4,350.2,238.1,349.8z M221.9,297.8
	c-0.5,4,0.2,9.3-2.3,11.3c0.6,1.3,1.8,1.8,1.3,4.2c-1.3,0.1-3.5-1.6-4.2-3.2c-2.2,0.2-4.2-1.6-6.5-2.3
	C213.6,303.9,216.9,300.1,221.9,297.8z M215.8,281c2.9,1.3,4.5,3.9,6.1,6.5c-1.6,1.5-2.8,3.4-5.5,3.9
	C214.5,288.9,213.9,284,215.8,281z M213.5,292c-0.5,0.4-1.1,0.9-2.3,0.6c-1.6,3.5-2.6,7.5-6.1,9c0.2,1.8,1,2.1-0.3,3.2
	c-2.9-1.9-0.4-5.9-2.3-8.7c5.8-0.7,5.6-7.3,10.3-9C213.5,288.4,213.6,290.1,213.5,292z M204.8,319.8c1.3-2.4,1.1-5.5,2.6-8.1
	c4.9,2.5,9.9,5,13.9,8.4c-1,11.3-8.8,16-13.9,23.3c-5.4-1.5-9.3-4.5-13.6-7.1c2.7-4,4.7-9.8,8.1-13.9
	C202.7,321.4,204.2,320.9,204.8,319.8z M200.3,308.5c-3.6,5.7-9.1,9.4-13.9,13.9c-0.4-4.7-3.9-11.1-1-15.2
	C189.8,306,196.6,306.4,200.3,308.5z M194.5,302c1.6-2.2,4.1-3.5,6.8-4.5c0.2,2.1,0.2,3.7,0.3,6.5
	C199.5,303.1,196.9,302.6,194.5,302z M197,320.1c0.8,0,0.4,0.2,0.3,0.6c-2.5,3.9-4.7,8.2-7.1,12.3C184.2,328,195.1,324.2,197,320.1z
	 M238.7,325.3c1.6,0.1,1.5,1.9,1.9,3.2c-1.6,0.1-2.6-0.4-3.9-0.6C237,326.6,238.9,327,238.7,325.3z M233.5,326.6
	c-3.7-0.6-6.6-2.1-8.7-4.2c3.3,0,8.4,1.1,12.6,1.3C236.7,325.2,234.5,325.2,233.5,326.6z M245.2,331.7c1.4-0.9,3.5,0,5.2,0
	c2.1,3.8,1.2,9.1,0.3,13.9C249.8,340.9,246.8,336.7,245.2,331.7z M251.3,329.2c-2.2,0.9-5.2-0.1-7.4-0.3c-1.1-1.6-1.8-3.6-1.6-6.5
	c3.3-3.2,7.7-5.2,10.7-8.7C253.3,317.2,252.5,325.1,251.3,329.2z M247.4,311.1c-0.6,0.5-1.7,0.4-2.3,1c-2.3,2-3.2,4.3-5.5,5.2
	c-3.6,1.3-11.8,1.1-16.2-1.6c0-2-1-3.9,1-4.8c-1.7-5.4,0.5-11,0.3-16.2c2.7-2.6,5-5.2,9-6.8c1.7-0.7,3.4-2.7,4.8-3.2
	c0.8-0.3,1.6,0,2.3-0.3c1.4-0.7,2-2,4.2-1.9c1.1,0,2.1,0.8,3.2,1c3.3,0.4,6-0.9,9-1.9c-0.5,6.8-3.1,14.3-3.9,22
	C251.6,305.9,250.5,308.7,247.4,311.1z M240.3,275.5c2.6-5.6,4.3-12.1,10.7-13.9c0.8-0.8-0.5-0.6-0.3-1.6
	c4.3-5.2,10.1-8.6,16.8-10.7c0.3-2.2,1.9-3.1,2.9-4.5c5.1,2.5,9.8,5.5,13.8,9.1c0.1,0.1,0.3,0.2,0.4,0.3c-0.1-0.1-0.2-0.2-0.4-0.3
	c-1.7-1.1-4.3,1.2-6.1,0c0.1-1.6-0.1-3-0.3-4.2c-3.3,0-1.6,5.3-1,7.1c1.4-0.6,3.1-0.7,5.2-0.6c-2,3.3-5.4,3.3-9.7,4.5
	c-6.4,1.9-9.5,7.3-12.6,12.9C253.9,276.7,247.8,275.6,240.3,275.5z M300.1,246.1c-1.2,0.2-0.7-1.2-1.6-1.3c-1.1,0.8-1.6,2.5-1,4.2
	c-2-1.1-3.7-2.6-3.9-5.5c-1-0.6-3.1-0.2-3.2-1.6c5,0.9,6.2-5.3,10.3-5.2C300.5,239.9,301.3,244,300.1,246.1z M294.3,250.7
	c-1.5-0.1-2.3,0.5-3.2,1c-4.6-2.5-9.2-5-13.2-8.1c1.6-1.4,4.5-0.2,6.1-1C287.5,244.9,293.2,246.9,294.3,250.7z M306.5,262.9
	c0.2,5.7,1.8,9,1.9,15.2c-4.4-4-6.8-9.9-9-16.2C302.4,259.9,304.5,260.7,306.5,262.9z M224.8,172.5c1.3-7.3,2.5-16.6,5.5-21.6
	c2-18.6,10.3-33.9,15.5-50.4c3.7,9.8,6.7,21,10,31.3c1.5,4.6,3.8,8.1,4.5,13.2c0.2,1.2-0.4,3,0,4.2c0.3,1,1.8,1.4,0.6,3.2
	c0.6,1.2,2.2,1.2,1.9,3.2c0.9,0.4,1.7,0.9,2.9,1c2,10.1,0.5,24.5-3.2,34.6c1.4,0.3,2.8,1.5,3.2,3.6c1.3,0.1,1.3-1.1,2.9-0.6
	c1.4-8.8,3-24.3,4.8-34.6c7.3,2,9.4,9.4,12.6,15.5c3.3,3.4,5.6,7.8,7.1,12.9c2.4,3.1,6.4,6.3,7.8,11c2.6,9.1-0.3,20.8-0.6,30.4
	c-4.1,2.4-8.6,7.7-14.2,6.5c0.3-0.2,1.5-0.4,2.3-1c0.2-3.2-0.5-4.8-1.3-7.8c-2.8-0.6-2.8,1.5-5.5,1c-1,3.5,1.2,4.3,1.3,7.4
	c-1.8,0.7-4.4,0.8-5.8,1.9c-2.7-0.5-4.6,0.1-5.8-1.6c-1.2-0.2-1.8,0.8-2.6,0c-7.7-3.8-11.7-11.3-18.1-16.5c-0.3-0.7,0.1-2-0.6-2.9
	c-7-2.3-8.4-10.2-12.6-15.2c-0.3-1.2,0.8-1.1,1-1.9c-5.2-5-8.3-12.2-13.6-17.1C222.9,179.5,224.2,176.2,224.8,172.5z M219,253.3
	c0.7-0.2,0.5,0.6,1,0.6c0.4-0.8,1.7-1.7,1-2.6c-3.6,1-7.4,4.4-10.3,7.1c0.8-2.9,1.5-5.8,3.6-7.4c0.8-0.8-0.5-0.6-0.3-1.6
	c1-1.3-0.2-2.6,1-3.6c-0.1-6.6-1.6-17.3-2.6-25.5c-0.2-1.8-0.1-3.8,0-5.5c0.8-9,4.6-17.7,7.1-26.5c4.8,3,7.1,8.4,9.7,13.6
	c6.1,6.5,9,16.2,16.2,21.6c0.1,0.8,0.5,1.2,0.3,2.3c1,0.4,0.2-1,1.3-0.6c0.9,1.2,0,2.3,1.6,2.9c-0.2,3.2,0.2,3.7,1.3,6.5
	c1,0,1.3-0.7,1.9-1c-1.1-1.3-1.7-3.1-1.6-5.5c3.6,2.6,6.9,6.4,10.7,9.7c2,1.7,3.6,2.7,4.2,5.5c-0.4,0.4-1.5,0.2-1.9,0.6
	c-4.1,5-8,10.3-12.9,14.5c-1,0.2-0.6-0.9-1.6-0.6c-3.8,5.6-7,11.7-11.3,16.8v1.6c-1.7,0.3-1.9,2.2-3.9,2.3c0.1-1.9-0.4-3.1-0.6-4.5
	c-2,1.1-2.9,3.3-2.6,6.8c-3,5.4-9.2,2.2-11.6-1.9c0.2-1.6,2.1-1.3,1.6-3.6c1.6-2,6.1-4.2,4.5-7.1c-2.5,3-5.1,5.9-8.1,8.4
	c-3.5-2.1-5.4-5.8-9-7.8c0.6-5.5,3.2-9.1,7.4-11C214.5,255.6,217.4,254.5,219,253.3z M214.5,279.1c-0.5,2.4-2.9,2.9-3.6,5.2
	c-1.3-0.7-2.2-1.9-3.6-2.6c-1.2,2.2,2.5,2,2.9,3.6c-1.8,4-4.8,6.8-8.7,8.7c-0.2-0.9,0.6-0.7,0.6-1.3c-3-3.2-0.9-9.7-1-14.2
	c1.7-0.1,2.2,1,3.9,1c0.9-1.7,1.3-3.9,1.6-6.1C209.4,275.1,212.4,276.7,214.5,279.1z M193.8,238.1c0.3-5.4,2.1-11.1,3.6-16.5
	c0.8-2.8,1.1-5.9,1.9-8.4c0.6-1.8,2.1-3.1,2.6-4.8c1.2-4.4,1.3-9,3.9-12.9c-0.3,8.4-4.6,15.6-5.5,24.5c1.7,1.4,0.3,4.1,2.9,4.8
	c0.5,3.1,1.9,6,0,8.7c6.2,8.1-3,18.6-3.2,28.4c-2.9-1.3-7-2.6-7.4-5.5c-2.1,0.9-2.4-1.3-3.6-2.3C189.7,249,193.5,243.7,193.8,238.1z
	 M137.3,264.2c0.3,1.4-0.4,1.9-0.3,3.2c0.9-1.3,1.1-3.3,0.6-5.2h1.3c-0.9-1.7,0.8-2.6,1-4.2c3.4-2.1,5.2,0.6,8.1,1.6
	c-0.6,2,1.2,1.6,1.3,2.9c-4.5,2-9.9,4.4-13.9,5.8C135.9,267,136,265,137.3,264.2z M136.6,273.9c1.3-1,2.6-2.5,3.6-2.9
	c0.5-0.2,1.5,0.2,1.9,0c2.4-1.1,4.5-2.8,7.4-3.2c1.4-0.2,2.9,0.2,4.5,0c3-0.3,5.9-1.7,8.7-1.6c2.5,0.1,5,1.2,7.8,1
	c5.6-0.5,9.4-5.7,14.2-5.8c2,2.9,5.7,7.4,4.5,11.3c0.5,0.6,1,1.2,1.6,1.6c1,0,1.1-0.8,1.9-1c-1.9-3.8-3.9-7.5-5.2-12
	c2.8-0.7,7.4,1.9,9.7,4.5c0,0.6,1.2-0.5,1.6,0.3c0.3,3.4-0.3,7-1.3,9.7c0.3,0.9,0.8,1.6,1.9,1.6c-1.5,7.5-7.3,12.5-6.8,21
	c1.1,0.1,0.7-1.3,1.6-1.3c-0.5-4.8,1.5-9.6,4.5-12c1,4-1.2,7.6,1.3,9.7c-3,2.1-6.5,3.7-9,6.1c-4.2-1.4-6,4.3-10,1.9
	c-0.9,0.1-0.7,1.2-1.3,1.6c-1.9-0.4-3.4-1.1-5.2-1.6c0.4-1.5,1.8-1.8,2.9-2.6c-0.1-1.1-0.9-1.4-1.3-2.3c-1.1,1.5-2.7,4.2-4.8,3.6
	c-3,2.6-11.6,4.1-15.5,1.9c-2.5-1.3-5-6.4-7.8-8.4c-4-3-7-6.9-11.6-8.7c8.3-1.6,16.3-2.5,24.2-3.9c1.1,0.3,0.7,2.1,1.3,2.9
	c1.5,0,3.2,0.1,4.2-0.3c0.3-1.9-0.9-2.3-1.3-3.6c3.7-1,6.4-2.6,6.1-6.8c-8.2-2.4-6.5,7.7-15.2,5.8c0-1.6-0.4-1.8,0-3.2
	c-1-0.8-2.7-0.1-3.6,0.3c0.1,1,0.8,2.4,0,3.2c-1.1-0.1-0.8-0.8-0.6-1.6c-3.4-0.9-5.2,2.7-8.1,3.6c-4.4,1.4-8.5,0.8-13.2-0.3
	C131.6,278.1,133.2,276.6,136.6,273.9z M131.1,269.4c0.6,0.8,0.4,0.3,1.6,0.3c-0.2,1.9-0.9,3.4-2.6,3.9c-0.2-1.2,0.7-1.2,0.6-2.3
	c-1.2,0.3-0.8,2.5-1.3,2.6C127.7,272.6,130.8,270.7,131.1,269.4z M71.1,402.5c-0.2-1.4,0.1-4.2,1.6-4.8c-0.4-3.4-0.1-4.3,0.3-6.8
	h1.6c0.3-1.2-1.5-0.3-1.3-1.3c0.6-1.9,1-3.9,1.6-5.8c-1.4-5.6-3.4-11.5-1.6-16.8c-4.8-16,7.5-26.8,15.2-36.2
	c2.6-6.4,5.5-12.6,10.7-16.5c3.3-9.6,12.6-13.3,17.1-21.6c0.7,2.2,0.6,5.2,2.6,6.1c0.2-1-1.4-2.9-1.6-4.5c0.6,0,0.7,0.4,1.3,0.3
	c-1.9-1.9-0.3-4.9,1.3-6.1c1-0.4,1.1-0.1,1.9,0.3c1.1-0.5-0.7-0.8-0.3-1.6c1.5-0.4,5.9,0.4,6.8-2.3c6.2,3.3,11.8,7.1,17.4,11
	c0.3,0.4,0.4,0.9,0.3,1.6c5.4,3.6,8.8,9.1,13.2,13.6c-3.8,0.7-6.3,2.8-9,4.5c-0.2,0.9,0.6,0.7,0.6,1.3c4-1,7-3.1,10-5.2
	c1-0.4,0.2,1,1.3,0.6c4.2-4.3,10.6-6.7,17.8-4.2c2.2,2,3.1,5.7,4.2,10.3c1.1,4.7,0.5,6.7-2.6,9c-2.3,1.7-5.9,3.5-8.7,4.5
	c-9,3.9-13.7,12.2-20.7,18.1c-5,8.4-12.2,14.8-19.4,21c-1,0.2-0.9-1.1-1.6-0.3c-4.2,5-10.2,11-16.5,8.7c-3.9,1.8-9.6,8.9-12.6,2.3
	c-0.2-1,0.9-0.6,0.6-1.6c0.1-0.7-1.1-0.1-1.6-0.3c-1.2-2.2,0-3,0.6-4.8c-1.5-0.3,0.2,1.1-0.6,1c-2.5-0.7-1.3-3.3-2.9-4.8
	c-1.7-0.4-4.7-0.7-5.5,0.6c5-1.2,6.4,3.9,6.8,8.4c-0.5,0.5-1.7,0.3-2.6,0.3c3.4,2.4,6.2,5.4,7.4,10c-6,0.6-7.8,5.4-13.2,6.5
	c-3.7,5.1-10.7,7-14.2,12.3C74.2,408.8,71.5,405.4,71.1,402.5z M141.8,371.5c0.6-2.6,4.2-4.9,5.8-7.4
	C148.9,367.7,145.3,370.6,141.8,371.5z M116.6,384.4c-0.8,2.8-5.1,4.8-9.4,5.2c-0.3-0.6-0.5-1.2-0.6-1.9
	C109.1,385.8,113.1,385.3,116.6,384.4z M86.9,451.9c0,1-0.2,2-0.6,2.6c0.9,1.2,3.1,1.3,2.9,3.6c-4.2,1.9-9.5,4.2-13.9,4.8
	c-6.9,3.9-14,6-20.4,10c-1.4,0.4-1.6-0.5-2.6-0.6c-0.4,0.1-1.5,1-0.6,1.3c-4.4,1-11.7,0.6-14.2-2.9c-0.9-0.3-0.8,0.5-1.6,0.3
	c-3.4-3.1-6.5-6.4-8.4-11c2.4-7.6,6.2-13.8,12-18.1c4.4-7.6,11.4-14.2,21.3-15.2c0.8,0,1.8-1.4,2.3-0.6c0.1,1.2-0.3,0.1-1,0.3
	c-0.2,1.5,1.8,0.8,2.9,1c-2,5.3-6.6,8-8.7,13.2c1,0.5,2.8,1,4.5,1.6c2-5.7,4.5-12.6,9.4-16.5c1,0.2,1.7,0.9,1.9,1.9
	c0.2,0.9,1,1.2,1.9,2.8c0.8,1.4,1.3,3.1,1.3,4.3C81.3,438.3,83.6,445.6,86.9,451.9z M94,421.2c-3.5,2.9-6.8,5.9-10.7,8.4
	c-1-0.6-2.5-0.7-4.2-0.6c0.4,1,2.2,0.6,3.6,0.6c-0.5,1.3-2.4,1.3-3.6,1.9c-0.3-1-1.3-1.3-1.9-1.9c0.3-0.5,0.8-0.7,1.6-0.6
	c-0.4-0.6-1.7-0.3-2.3-0.6c-0.8-1.9-1.9-3.5-3.2-4.8c-0.3-1.6,0.4-2.1,0.6-3.2c1.5-0.1,1.6,1.2,2.6,1.6c1.9-0.2,2.6-1.7,3.9-2.6
	c2,0.3,3.5,0.4,4.5-1c-1.2-1.3-1.1-2.2-1.6-3.9c-1.9,0.2-2.5,0.2-3.6-1c2.9-3.3,5.8-6.7,10-8.7c1.3,0.4,0.1,2.8,0.3,4.2
	c0.6,3.3,3.4,5.8,3.9,9.4C94.1,419.3,93.5,420.3,94,421.2z M97.2,417.3c-2-4.5-3.2-8.7-3.2-14.2c4.5-3.9,9.1-8.3,15.8-9
	c0.1,2.5-2.4,4.1-2.9,6.8c-0.3,2,0.7,4.5-0.3,6.5c-0.8,1.6-3.2,3.6-4.5,5.2C100.5,414.4,98.9,416.2,97.2,417.3z M125,439.6
	c-3.2-1.8-5.3-4.6-8.4-6.5c0.1-0.6,0.9-0.6,0.6-1.6c-7.4-2.4-10.7-8.9-17.4-12c3.1-5.1,6.7-9.7,11-13.6c0.1-0.8-1.3-0.3-1-1.3
	c2.5-2.7,2.9-5.8,2.9-10.7c1.7-1.4,3-2.3,5.5-2.3c1-0.3-0.7-0.5-0.3-1.3c3.7-3.5,8.9-5.6,11.6-10c0.8,0.1,0.7-0.6,1.6-0.3
	c3.8-4.2,10.1-6,16.2-8.1c-0.2,4.6,4.6,4.9,6.5,1.9c0.7-2.8-2.7-3.2-2.6-4.5c0.1-2.3,5.2-2.2,4.8-6.1c-0.4-1.2-1.5-1.7-1.6-3.2
	c-2.1-0.1-3.2,0.9-4.2,1.9c1.2-2.3,2.8-4,4.5-5.8c4.1-4.4,7.5-10.3,12.6-14.2c6-4.6,14.6-5.4,19.4-11c0.1,6.3-10.2,8.4-12.3,13.9
	c0.1,0.7,1.6,0.1,2.3,0.3c1.6-4.5,7-7.5,11.6-10c-4.1,7.3-7.5,15.3-11.3,22.9c-0.8,0.7-2.5,0.5-3.6,1v1.6c0,1.2,2.1,0.3,2.6,1
	c-2.8,7.5-4.9,15.8-10,21c-2,6.6-6.1,11.1-11.6,14.2c-0.1,3.1-2.1,4.3-3.6,6.1c0.1,0.9,1.9,0.3,2.3,1c1-0.2,0.5-1.9,1.6-1.9
	c4.9-0.2,10.9,1.6,15.2,3.9c-0.3,0.7-0.7,1.3-0.6,2.3c1.4,0.3,2.4-0.1,3.2-1.3c2.9,0.6,5.5,1.4,7.1,3.2c-2.7,4.2-4.4,8.5-8.7,11.6
	c-1-0.5-1.2-1.9-2.9-1.6c-0.4,0.1-0.2,0.6-0.6,0.6c1,2.6,3.4,3.9,2.9,8.1c-1.7-0.5-4.1-0.8-4.8-1.3c1.1-1.5,0-0.5,0-1.9
	c-2.7-0.4-3.6,1.2-4.5,2.6c-6.6,0.3-12.6,3.8-14.9,9.4C142.7,445.7,133.1,439.2,125,439.6z M142.1,450.3c0.2-1.8-0.1-2.9,1-4.2
	c7.5,1,11.3,5.7,12.3,13.2C151.4,457.2,146,453.6,142.1,450.3z M152.8,446.4c-3.7,0.1-5.2-2.1-8.1-2.9c1.5-1.8,3.5-3.1,4.5-5.5
	c0.4-0.8,0.8-0.8,1-1.1c0.3-0.7,1.5-1.5,1-3.1c3.4-1.5,6-3.9,10.3-3.6c3.5,0.3,7.6,3.6,10.7,0.3c0.1-6.2,2.8-9.9,5.8-13.2
	c3.2,1.6,5.3,4.3,7.8,6.8c0.4,1.3-0.9,0.8-1.3,1.3c1,0.9,0.7,1.9,1.6,2.6c3.4,2.6,6.4-0.4,5.8,5.8c-0.2,2.4,0.1,6.6-1.6,8.4
	c1-2.3,0.9-6.2-1.3-7.1c-0.9,1.1-1.3,2.8-1.3,4.8c-3.4-2.4-2.8-6-2.9-10c-2.6-1-5.3-0.7-8.4-2.3c-0.5,7.1,8.7,7.2,9.7,13.9
	c0.2,1.2-1.4,0.3-1.6,1.6c-0.3,2.2,2.5,1.3,3.9,1.9c1.6,1.7,2.1,4.6,0,6.1c1.2,4.1-0.8,9.8-2.9,12.6c-4.8,0.4-9.2,2.8-14.5,1.6
	c-3.1,3.5-8,3.7-10.3,0C157.6,460.9,156.3,451,152.8,446.4z M161.8,503.6c-2.4,0.6-5.5,2-7.4,0.3c1.1-5.5,0.3-11.4,1.6-17.1
	c1.6-1.3,0.4-2.1,1.6-4.2c1.2,1.6,2.1,3.5,4.5,3.9C162.7,492.5,161.1,496.4,161.8,503.6z M159.9,477.1c0.4,0.4,1.4,0.3,2.3,0.3
	c0,3.2-0.1,4.8,0.3,8.1C158.9,484.9,157.6,480,159.9,477.1z M172.8,469.4c3.3-2.4,9.4-2,13.9-3.2c-0.4,1.6,1.1,1.2,1.6,1.9
	c2.6,5.7,5.9,10.7,9,15.8c-0.2,1.7,0.4,4.3-0.3,5.5c-0.7,0.7-1.4,1.4-1.9,2.3c-0.7,0.6-0.4-0.1-1-0.3c-0.5,0.3-0.5,1-0.6,1.6
	c-1.4,0.2-1.8-0.7-2.6,1c-2.4-0.6-3.3-0.6-4.8,0.6c-0.2-2.2,0.4-3.7,1.6-4.5c-0.6-0.9-1.2,0.9-2.3,0.6c0.2,1.6-0.3,2.5-0.3,3.9
	c-2.3,0.5-3.9-1.2-5.5-0.3c0.9,1.6,2.7,0.3,4.2,1.3c-5.9,2.1-13.3,7.9-20,4.2c1.1-6.1,0.1-15.2,1.9-21c-0.7-1.1-1.8-3.6-2.6-5.5
	C165.2,470.8,169,468.9,172.8,469.4z M197.7,490c0.7-0.2,0.6,0.5,0.6,1c1.2,0.1,1.5-0.7,1.9-1.3c0.6,0.4,1.3,0.7,1.3,1.6
	c-1.4,0.4-3.1,0.7-4.5,0.3c-0.6,0.8-1.3,1.5-2.6,1.6C195.4,492,196.6,491,197.7,490z M196.4,504.9c0.9,1.8-1.3,2.4-2.3,3.2
	c-1.4,0.1-1.4-1-2.6-0.3c-0.7,0-0.1,1.4-0.3,1.9c-6.8,2.2-11.4,6.7-17.1,10c-1.2-3.3-7.7-5.6-7.4-1c0.1,2,2.2,3,4.8,3.2
	c-0.2,1.7-1.1,2.6-1.3,4.2c-4.5-2.5-4.3-9.7-6.1-14.9c0.3-0.8,0.6-1.6,1-2.3c-1.1-0.6-0.9-2.6-1.3-3.9c5.1-1.1,11-4.5,17.4-6.1
	c0.5,0.5-0.1,1.6-0.3,2.3c1.5,1.3,2.1,3.5,3.2,5.2c2.3-1-1.8-2.4,0.6-3.6c-0.9-0.3-0.8,0.5-1.6,0.3c0-1.4-0.9-1.9-1-3.2
	c0.8,0.3,1.6,0.8,2.9,0.6c-0.3-1.2-2.5-0.5-2.6-1.9c1.3-0.8,3.1-0.9,4.2,0.3c0.3,1.3-1,1-0.6,2.3c1.9-0.1,0.8-3.5,0.3-4.2
	c6.4-1,10.8-2.8,16.8-3.6C206,499.2,199.6,502.3,196.4,504.9z M219.7,492.6c-0.3,2.4-1.5,3.9-3.2,4.8c-0.8-0.1-0.9-1-2.3-0.6
	c0.4-0.4,0.4-1.5,0-1.9c-1.2,0.2-1.6,1.5-1,2.6c-0.9,0.4-2.2,0.4-3.6,0.3c-0.8-2.3-4.1-2.2-4.2-5.2c2.8-0.7,5.3-1.6,7.4-2.9
	C215,490.8,216.9,492.2,219.7,492.6z M213.5,475.8c-2,8.8-0.5,14.4-9.7,14.9c-0.3-1.5-1.2-2.5-1.9-3.6c0.8-0.7,0.9-2.1,1.3-3.2
	c-1.4-0.2-1.4,0.9-2.6,1c-3-6.5-7.3-11-10-18.4c0.8,0.1,1.2-0.1,1.6-0.3c-4.6-2.3-0.5-10.1,0.6-13.6c4.6,5.1,8.6,10.8,14.9,14.2
	c-1.6,4.2-1.7,7.9-3.9,11.3c0.4,1,1.7,1.1,3.2,1c-0.2-0.3-0.6-0.5-1-0.6c1.7-3.6,1.7-9.1,5.5-10.7c0.2-2.5,1.9-4.9,3.6-4.8
	C215.6,467.3,214.5,471.2,213.5,475.8z M204.2,445.1c5.6,2.5,7.4,8.8,10,14.2c-1.6,1.4-2.6,3.5-4.5,4.5c0-2.1,0.3-4.2,0-5.8
	c-1.6,1.3-0.1,3.9-1.3,5.8c-7-3-11-9.1-15.5-14.5c0-1.6,0.5-2.6,0.8-3.8c0.2-0.7,0.9-4.6,1-5.4c0.2-2,0.1-4.1,0.8-5.6
	C198.9,437.5,202.9,440,204.2,445.1z M212.9,406c-0.6-1.5-1.1-3-1.9-4.2c-2.1,1.8-1.5,4.8-0.3,7.1h-1.3c0.1,0.6,1.3,0.3,1,1.3
	c-3.4,7.1-8.6,12.3-14.5,16.8c-4.8-4.4-7.2-11.3-11.3-16.5c0.6-1.4,1.5-2.3,2.6-2.9c0.9-0.4,2.2-0.4,3.2-1.3
	c5.2-6.1,15.6-10.4,26.8-8.4C216,401,214.2,403.3,212.9,406z M190.3,399.6c0.1-1.2-0.1-2.1-0.3-2.9c-1.9-0.1-2.5,0.9-3.9,1.3
	c-2.8-3-0.9-13.2-7.1-10c-0.2,3,1.1,4.5,3.2,5.2c1.8,5.2,2.8,8.7-1.3,12c-2.4-0.5-5.5-0.3-6.5-2.3c-5.1,0.2-9.1-3.1-13.6-4.5
	c3.2-3.4,5-8.1,9-10.7c3.2-8.2,6.8-16.1,10-23.6c6.4,4.1,11.5,9.6,17.4,14.2c-0.3,0.9,0.5,0.8,0.3,1.6c4.2,1.6,6.7,5,8.7,8.7
	c3.6,1.7,10.1,0.5,11.6,4.2C207.3,392.5,197.3,395.2,190.3,399.6z M242.6,369.9c0.1,0.8,1.1,0.6,1,1.6c-2.3,3.7-3.9,9.6-8.7,9.7
	c-1.3,3.8-7,5.6-11,7.8c-1.1,0.5-0.4-2.4-1.3-1c-0.1,0.1,0.1-3.6-1-4.5c-2.5,0.4-3.6,2.2-3.2,5.5h-1.6c-0.2-1.5,1.1-3.2-0.6-3.6
	c-0.4,0.4,0.9,1.9,0,2.9c-6.5,1-10.1-3.4-13.2-6.8c2.7-0.8,4.9-0.2,6.5,1c0.8-0.2,0.7-1.2,1-1.9c3.1-1.3,5.2-3.7,8.1-5.2
	c1.8-3.7,5.6-5.3,8.7-7.8c2.2-3.6,4.7-6.9,8.7-8.7c0.3-1.2-0.8-0.9-0.6-1.9c2.8-2,4-5.6,6.1-8.4c3.4-0.8,4.3-4.1,5.8-6.8
	c-0.2,0.8,0.4,2.3-0.3,2.6c2.5,2,3,5.6,2.3,8.7C247.8,358.4,246.4,367.5,242.6,369.9z M252,412.2c2.7-1,5.2,0.8,7.1,1.6
	C257.9,415.8,250.8,415.2,252,412.2z M265.8,430.3c1.7-0.2,2,1,2.6,1.9c-1,2-2.7,3.1-3.9,4.8C263.6,434.7,265.7,432.6,265.8,430.3z
	 M266.8,452.2c-2.3-0.7-2.5-3.5-3.2-5.8c0.7-0.3,1.1-0.8,2.3-0.6c0.1-0.5-2-0.5-1.9,0c-2.1-5.2,1.2-10.1,4.8-11.6
	c-0.2-0.3-0.3-0.5-0.3-1C273.3,438.2,267.8,446.3,266.8,452.2z M275.2,425.7c2,2.6-0.3,6.3-2.6,7.4c-0.5-0.9-1.4-1.4-1.6-2.6
	c0.7-1,1.6-1.6,2.3-2.6c-1.6-0.2-1.1,1.7-2.6,1.6c-1.3-1.3-2.5-5-1.3-6.8c1.8-0.3,5.7-0.2,7.8-0.3
	C277.4,424.5,275.9,424.7,275.2,425.7z M265.2,417.3c3.1-0.8,8.8,1.1,12.6,1.6C273.8,420.7,267.7,419.2,265.2,417.3z M278.4,424.5
	c-0.3-4.1,6.8-0.4,9-1.9C285.5,424.2,281.7,424.1,278.4,424.5z M295.9,407.3c0.7,4.2-1.6,6.4-4.2,9c-1.5,0.1-2.8-0.1-3.2-1
	c-1.6-0.1-1.6,1.4-2.9,1.6c-5,0-6.2-0.2-8.7-1.9c-0.5-3.4-1.6-5.6-0.6-9.4c-2.4,3-0.8,9.6,0,11.3c-3.8-0.5-7.5-1.1-10.3-2.6
	c1.5-4,2.2-9,4.2-12.6h2.6c-1.6-1.3-5.1,0.6-6.8,1.3c-0.7-0.5-0.2-2.1-1.3-2.3c-1.9,1.6,0.4,5.8,0.6,7.4c0.3,0.1,0.1-2-0.3-2.3
	c0.4-1,1.9-0.9,2.6-1.6c1.2,0.8-0.3,3.5-0.6,4.8c-0.8,0.8-0.9-0.5-1.6-0.6c0,0.6,0.2,1.1,0.6,1.3c-0.9,1.6-3.7,1.5-4.5,3.2
	c-3.8-1-5.5-3.9-8.1-6.1c-1.1-0.5-0.2,1.1-1,1c-1.1-0.2-1.7-0.9-2.9-1c-0.3-3-2.2-6.3-2.6-10.3c-0.4-4.7-0.4-9.8-1.6-13.6
	c2.1-5,4.4-10.6,6.5-16.8c1.3-4,1.9-8.1,3.2-12c4.6-13.6,1.8-33.3,7.1-46.8c-0.6-2.6,0.1-7,1-10c5.7,10.2,11.6,20.2,19.1,28.7
	c-0.2,1,0.6,1.1,0.3,2.3c0.3,0.7,1.2,0.7,2.3,0.6c4.4,5.4,9.1,10.5,12.9,16.5c0,2.7,2.2,5.1,1,7.1c0.4,0.7,1.3,0.9,1.6,1.6
	c2,15.4,10.6,24.3,18.1,34.2c-4.4,4.1-9.7,8.2-13.9,12.9c-1.9,2.1-2.6,5.2-6.5,5.5c1.5-3.1,2.9-6.4,6.1-7.8c0.8-0.8-0.9-0.7-0.6-1.9
	c3.2-0.4,2.4-5.9,1.3-8.1c-2.5,1.2-6.1,3.4-4.2,7.1c-0.5,0.4-0.7,1.1-1.6,1c1.4,2.6-0.1,6.4-1.9,7.8c0-1.6-0.6-2.6-1.6-3.2
	C292.7,403.4,295.6,405.5,295.9,407.3z M305.6,425.1c2.5,0.2,4.6,0.7,6.8,1.3C310.7,428.3,306.2,427.8,305.6,425.1z M317.9,444.8
	c-2.9-0.8-4.1-5.7-5.8-8.4c-1.4-2.1-3.5-3.9-2.9-6.5c0.3,0,0.3-0.4,0.3-0.6c1.7-0.8,3.7-1.5,5.5-2.3c5.7,4.6,10,10.5,14.5,16.2
	C325,442.9,321.3,445.7,317.9,444.8z M340.8,440.6c-1.8,2.2-6.9,2.3-9.4,1.9c-3.5-6-9.4-9.7-12.3-16.5c-0.1-1.1,1.1-1.1,1.3-1.9
	c-0.6-0.6-1.9-0.4-2.6-1c-4.1,2.8-9.3-0.7-14.2-1c-0.1-0.7,0.7-2.8,2.3-2.9c-2.2-1.3-2.2,2.3-3.9,2.6c-1.7-0.5-4-0.3-5.8-0.6
	c1.4-2.9,4.4-4.2,6.1-6.8c6.8-2.3,13.4-8.6,22.3-5.8c0,1.9-1.8,2.1-2.3,3.6c4,3.6-1,9.2-1,12.6c3.7-2.7,3.6-9.3,7.4-12
	c0.2-1-0.6-1.1-0.3-2.3c2.5,0.2,3.7,1.7,6.5,1.6c0.4,1.4-1.3,0.7-1,1.9c0.8,1.1,1.7,0.5,2.6,1c3,8.4,6.7,16.1,10.7,23.6
	C345.4,439.4,343,441.3,340.8,440.6z M351.8,434.5c-2.8-5.4-5.8-10.6-7.4-17.1c5.2-1.2,7.1,4.9,9.7,7.8c1.1,1.2,2.4,1,2.6,2.3
	C357.1,430.2,353.5,432.5,351.8,434.5z M353.7,436.1c2.2-2.4,3.1-6.2,6.8-7.1c0.7,4.4,2.6,7.7,3.6,12
	C360.8,439.1,356.8,438.1,353.7,436.1z M360.8,420.3c0.4-1.6,2.9-1.2,3.9-2.3C364.1,419.2,362.2,422,360.8,420.3z M364.7,416.4
	c-1.4,0.8-3,1.3-3.9,2.6c-1.3-0.2-1.6-1.5-1.9-2.6c2.2-0.2,3.2-1.6,5.5-1.6C364.1,415.7,364.8,415.6,364.7,416.4z M366.6,434.8
	c-0.4-1.6-3.6-6.2-0.3-6.5C366.5,430.4,366.7,432.4,366.6,434.8z M367.6,424.5c-1.1-2.4,2.6-2.5,2.3-5.2c-0.2-1.3-2.3-0.7-3.2-1.3
	c-0.6-3.1,2-4.8,3.9-6.5c0.9,1,5.8-2.1,9-1.6c1.1,0.2,2.4,1,3.6,1.6c5.8,3,14.2,5.3,21.6,6.8c-4.5,2.8-12.3,4.6-18.1,3.9
	c-0.2,0-1.7-1-1.9-1c-1.1,0-4.9,1.9-6.8,2.3C374.1,424.3,371.1,424.9,367.6,424.5z M368.6,455.1c0.9,0,1.2,0.7,1.6,1.3
	c-0.2,1.8-0.8,3.3-1.6,4.5C367.3,459,369.2,457.7,368.6,455.1z M371.2,495.8c1.1,0.3,2.2,0.6,3.2,1c0.3,3.9-1.3,6-1.9,9
	C372,503.6,369.5,499.2,371.2,495.8z M373.7,513.6c-0.7-2.7-1.1-4.1,0.3-6.1C374.8,509,375.7,513.1,373.7,513.6z M375,480.3
	c0.8,4-1.1,10-4.8,11.6c-1.9-10.6,0.1-18.7-2.3-28.4h2.3c0-1.4,1.2-3.2,1.9-4.8c3.3,3.4,2.9,10.5,4.8,15.2
	C375.8,476.1,376.8,478.6,375,480.3z M377,493.6c0.4-5.5,2.9-11.7,3.6-18.1c7.5,5.2,13.9,11.5,21.6,16.5
	C395.5,496.2,384.9,496.7,377,493.6z M381.2,497.5c3.3-0.3,6.6,1.7,9.7,1.6c4.8-0.1,8.8-4.2,13.2-4.8c0.5-0.1,0.6,0.3,1,0.3
	C399.2,497.2,384.2,506.1,381.2,497.5z M423.5,488.4c-0.4-1.4-0.2-1.8,0.3-2.9c-0.3-0.6-1-0.7-1.9-0.6c-1.4,3.6-6,3.7-11.3,4.8
	c-2.3,0.5-4.6,1.7-5.5,1.6c-3.3-0.3-7.6-5.7-9-8.1c3.7-0.8,6-3,10.3-3.2c1.8-1.8,4.5-2.6,8.1-2.6c1.6,1.4,4.1,2,4.8,4.2
	c4.1,0.4,8.6,2.7,11.6,5.2C429.3,488.2,426.2,488.1,423.5,488.4z"/>
</svg>
