<?xml version="1.0" encoding="utf-8"?>
<!-- Generator: Adobe Illustrator 15.0.0, SVG Export Plug-In  -->
<!DOCTYPE svg [
	<!ENTITY ns_flows "http://ns.adobe.com/Flows/1.0/">
]>
<svg version="1.2" baseProfile="tiny"
	 xmlns="http://www.w3.org/2000/svg" xmlns:xlink="http://www.w3.org/1999/xlink" xmlns:a="http://ns.adobe.com/AdobeSVGViewerExtensions/3.0/"
	 x="0px" y="0px" width="480px" height="480px" viewBox="0 0 480 480" overflow="visible" xml:space="preserve">
<defs>
</defs>
<rect fill="#FFFFFF" width="480" height="480"/>
<path d="M454.5,0c5.8,0,11.6,0,17.4,0c1.4,0.8,2.8,1.5,4.5,2c0.5-0.4,0.7-1.2,0.7-2c0.6,0,1.2,0,1.7,0c-0.3,0.9-0.7,1.6-1.2,2.2
	c0.4,1,1.7,0.9,2.5,1.5c0,1.1,0,2.1,0,3.2c-4.3-2.4-9.8-3.4-13.4-6.4c-1-0.2-1.3,0.4-2.2,0.2c0.6,1.7,2.8,1.8,4.2,2.7
	c0.7,0.5,0.1,0.8,0.5,1.5c3.3,2.9,7,5.4,10.9,7.7c0,1.9,0,3.8,0,5.7c-5.5-3.3-9.8-7.8-16.1-10.2c-1-2.1-4.3-2-5.2-4.2
	C455.8,5.5,453.9,2.9,454.5,0z M457.4,3.2c0.1-1.1-0.6-1.4-1.5-1.5C455.7,3,456.8,2.9,457.4,3.2z"/>
<path d="M0,114c0.6,1.4,2.1,1.9,2.5,3.5c-0.5,0.9-1.4,2.5-2.5,2C0,117.7,0,115.9,0,114z"/>
<path d="M103.4,0c2,0,4,0,5.9,0c3.8,7.6,8.6,16.7,13.1,24.3c0.8,1.3,1.4,2.7,2.2,4c0.9,1.3,2,2.2,2.5,3.5c0.3,0.8,0.2,1.8,0.5,2.5
	c1,2.3,2.9,3.1,4.5,5c0.6,0.7,0.1,1.1,0.5,1.7c1.1,1,2.3,2.3,3.2,3.5c2.9,3.6,5.8,7.6,8.7,11.4c3.9,5.1,7.3,10.5,11.9,14.9
	c1.3-7,3.8-12.7,6.7-18.1c-5.8-0.3-9.6-5.4-14.9-4c-0.4,0.9,0.6,2.3,0.2,4c-2.3,2-5.9-0.3-6-3.5c0.7-0.6,0.9-1.8,1.7-2.2
	c1.1,0.1,1.7,0.8,2.7,1c1.2-0.8,3-1.1,4.5-1.7c1,0.3,2,1.2,3.7,0.7c1.7,1,4.3,4,6.9,4c1.4,0,3.3-1.4,4.7-2.2
	c1.6-0.9,3.2-1.8,4.2-2.7c1.9-0.2,3.9-1.1,5.7-2c2.9-1.4,6.1-2.4,7.7-5c1.1-1.7,1.6-4.1,2.5-6c0.9-1.9,1.8-3.5,3-5.2
	c-2.2-2.1-2.4-6.6,1.5-6.9c1.2-0.1,1.4,1.6,2.2,1c1.9-0.8,2.4-3,4-4.2c1-0.8,2.5-0.8,3.7-1.5c0.9-0.5,1.2-1.4,2.2-1.7
	c2.3-0.5,4.7-0.2,6.4-1c0.8-0.4,0.9-1.2,1.5-1.7c0.7-0.6,1.7-0.5,1.7-1.5c-2.7-1.7-3.4-5.4-5.5-7.7c-0.9-1-2.4-1-2.7-2.5
	c1.1,0,2.1,0,3.2,0c0,0.3,0,0.7,0,1c2.4,2.8,4.4,5.8,6.9,8.4c1.6-0.6,1.8-2.5,2.7-3.7c1.3-1.8,3.4-3.2,4-5.7c1.7,0,3.3,0,5,0
	c-0.5,0.7-1,1.6-1.7,2.7c-0.5,0.6-0.8,1.5-1.2,2c-0.2,0.3-0.8,0.1-1,0.5c-0.8,1.4-0.8,3.2-1.7,4.2c-0.4,0.5-1.4,0.7-2,1.2
	c-0.3,0.2-1.6,0.9-0.7,1.2c4.4-0.7,8.8-1.5,13.1-2.2c-0.5-3.4-1.5-6.2-2-9.7c1.9,0,3.8,0,5.7,0c0.7,2.8,1.3,5.7,2,8.4
	c1.9-0.4,3.9-0.7,6.2-0.7C243.4,5,241,2.5,240,0c0.8,0,1.7,0,2.5,0c1,1.8,1.9,3.7,4,4.5c0.7-1.5,1.4-2.9,2-4.5c0.7,0,1.5,0,2.2,0
	c-0.7,2.3-2.2,3.8-2.5,6.4c0.7,1.4,2.8,1.4,3,3.2c1.6,1,3.7,1.4,4,3.7c1,0.2,1.3-0.4,2.2-0.2c1.9,1,1.6,3.2,1.2,5
	c-1.5,0.8-1.6,2-4,1.5c-1-0.7-1.1-4.2-0.2-5.2c-0.8-1.9-3.5-1.8-4.7-3.2c1.2,6.4,4.3,10.9,6.7,16.1c0.3,0.5,1.1,0.3,1.5,0.7
	c2.3,6.1,6,11.6,10.9,17.4c2.8,3.2,6.4,7.5,10.4,10.7c1.3,1,3.4,2.5,4.5,2.5c0.9-0.1,0.8-0.6,1.7-1.2c1.4-0.9,3.1-1.4,4-2.7
	c2.5-0.9,5.2-1.5,8.4-0.5c1.6,0.5,2.9,1.9,4.5,2c3.9,4.3,8.9,8.9,14.9,7.4c1.9-0.5,4-1.8,6.2-2.7c0.6-0.2,1.2-0.9,1.7-1
	c1.9-0.5,4.3-0.2,6.4-0.7c1.3-0.3,2.8-0.7,4-1.2c3.3-1.4,5.4-4.3,8.9-2.2c4.2-2.3,2.7-11.7,1.7-16.4c-0.1-0.7,0.1-1.5,0-2.2
	c-0.3-2.4-0.9-5.2-1.5-7.7c-1.1-4.9-2.5-10-3.5-14.9C340,8.9,338.8,4,337.2,0c6.4,0,12.9,0,19.3,0c0,0.1,0,0.2,0,0.2
	c2.6,1.7,2.8,6,6.9,5.7c0.9-0.1,4.2-1.2,5.5-1.7c1.2-0.5,2.4-1.4,3.5-2c1.3-0.7,2.8-1.3,3.2-2.2c5.2,0,10.4,0,15.6,0
	c0,0.1,0,0.2,0,0.2c8.9,2.7,16.6,9.5,27.3,9.9c2.1,0.1,3.2-0.5,4.7,0c1.3-1.6,3.3-0.8,5.7-1.2c0.7-0.1,1.3-0.6,2-0.7
	c2.1-0.3,5.7,0,7.9-1c1.7-0.8,2.9-2.5,4.2-3.7c1.5-1.4,3.2-2.1,4.5-3.5c0.7,0,1.3,0,2,0c-2,3.2-6.1,4.3-7.4,8.2
	c1.1,0.7,2.9-0.2,3.2,0.7c-0.2,0.7,0.4,0.6,0.2,1.2c-2.6,0.7-5.4,0.9-7.7,1.7c-2.7,1.1-5.5,2.5-6.9,4.7c1.6,3.7,0.5,10,1.2,13.9
	c-0.8,1.3-0.9,2.5-0.7,4c-0.7,1.1-1.3,2.6-1.5,4.2c-0.2,1.1,0.6,2.8-0.7,3.2c-0.7,0.7-0.7-0.6-1-1c-0.9-0.2-1.5,0.7-1.7-0.2
	c0.1-2.5,1.8-3.5,2.5-5.5c0-0.8-0.4-1.2-0.2-2.2c-0.3-0.9,0.6-0.7,0.5-1.5c-1-3.9,1.8-10.3,0-13.9c-0.2-0.5-1.4-1.7-2-2
	c-0.7-0.4-1.5,0-2.2-0.2c-0.9-0.3-1.7-1.4-3-1c-1.2,1-2.2,2.9-4.2,2.2c-1.2-0.4-1.1-2.1-1.5-3c-3.7-1.1-7.5-2.8-10.9-3.5
	c-5.7-3.2-14.6-8.2-22.1-8.4c-1,0-1.2,0.7-2.2,1.2c-1.3,0.6-2.2,0.3-2.7,1.5c-2.8,0.3-5,1.7-7.2,2.7c-2.2,1.1-4.4,1.8-6.7,3
	c2,2.1,3.5,4.7,5.5,7.2c1.9,2.3,4.3,4.2,5.9,6.4c0.8,1.1,1.3,2.6,2.2,3.7c0.4,0.5,1.1,1,1.5,1.5c0.5,0.6,0.7,1.4,1.2,1.7
	c1.2,0.9,4,1.6,5.5,2c1.6,0.4,3.3,0.3,5,0.7c3.8,0.9,8.4,3,12.4,4.2c2.5,3.9,7.7,4.8,9.4,9.9c0.2,0.6,0.1,1.4,0.2,2
	c0.4,1.3,1.3,3.2,2.2,4.2c2.1,2.4,5.6,3.7,7.9,6c0.6,0.6,1,1.5,1.7,2.2c1.3,1.4,3.1,3.1,4.2,5c0.4,0.7,1.1,2.3,1.2,3.2
	c0.1,1-0.5,2.2-0.5,3.2c0,0.6,0.6,1.2,0.7,1.7c0.1,0.5-0.1,1,0,1.5c0.6,2.8,1.7,6.5,2,10.2c2.3,0.5,4.6,1.8,7.2,2
	c2.3,0.1,4.5-1,6.9-1.2c1.5-0.2,3,0.1,4.7,0c5-0.4,9.5-1.7,14.6-2c0.3-4.5-2.3-6.1-2-9.9c-2.9-1.9-7.6-1.3-10.7-2.5
	c0-1.5-0.1-3,1-3.5c1.9,0,3.8,0,5.7,0c1.1,1,4,1.9,5.7,0.7c0.3-0.7-0.2-1.3,0-2.5c3.9-4,5.5-10.2,7.9-15.6c-1.4,0-1.6,0.7-2.7,0.2
	c-0.8-1-1-1.9-0.7-3.5c1.8-1.1,3.5,0.2,5-0.7c1.7-1.1,1.6-4,2.7-6c-3.3,0.3-7.4,0.4-10.2,1.2c-0.9,0.8,1.1,1.4,0.2,2.2
	c-0.3,2-2.7,2.8-5,2c-0.6-0.9-0.9-2-0.7-3.7c1.1-0.7,2.7-1.7,4.2-0.7c1.4-1.3,4-1.4,5.7-2.5c1.6,0.7,3.4-0.3,4.7-0.7
	c1-0.2,1.3,0.4,2.2,0.2c0-0.5,0.2-0.8,0.5-1c0,5.9,0,11.7,0,17.6c-0.1,0-0.2,0-0.2,0c-1.1,3.1-3,6.6-4.2,10.2
	c-0.1,0.4-0.1,0.8-0.3,1.2c-0.3,0.8-0.7,1.7-1,3c-0.2,0.7-0.1,1.5-0.2,2c-0.4,1.2-1.5,2-1.7,4c-0.1,0.8,0.2,2.5,0.5,4
	c0.1,0.7-0.1,2,0.7,2.5c3.6-0.2,3.9-3.5,6.4-4.7c0,1.3,0,2.6,0,4c-1.5,1.3-2.5,3.7-2.7,6.7c-0.1,1.2,0.4,2.6,0.2,4
	c-0.3,3-1.6,6-1.5,7.9c0.1,1.1,0.7,2.6,1,4c0.7,3.6,0.8,6.3,3,8.2c0,3.1,0,6.1,0,9.2c-4.9-3.6-7.7-9.1-10.4-14.9
	c-2-0.3-3.7-3.4-1-4.2c-0.3-0.9-1-1.5-0.7-3c-1.1-0.1-1.2,0.8-1.7,1.2c-0.2-1-0.9-0.6-1.7-0.5c0.8-1.3,2.2-2,2.5-3.5
	c0.4-2.4-0.9-5.1-1-7.7c0-1.2,0.6-2.1,0.2-3.2c-6.5,0.4-13.3,1.9-19.1,3c-1,0.2-2.1,0-3,0.2c-2.8,0.9-4.7,3.2-6.4,5
	c-1.2,1.2-2.5,2-3.5,3.5c0.6,2.2,0.2,5.4,1,7.4c-0.3,0.4-0.8,0.5-0.7,1.2c0,4.2-0.8,8.3,1.5,11.2c-0.4,1.9-1,3.6-1.7,5.2
	c0.9,1.5,1.9,1.4,1.7,2.7c-0.3,2.4-5,2.7-5-0.2c0-1.4,1-1.5,2.2-2.2c1-2.9,1.3-6.4-0.7-8.4c-2.1,4.1-5.6,6.8-6.4,12.1
	c0.6,0.6,1.7,0.8,1.7,2c-0.6,2.6-5,2.5-4.7,0c0.1-1.2,1.1-0.9,2-1.7c0.2-9,9.1-11.9,6.9-21.6c0.6-1.4,0.5-3.4,0.5-5.5
	c-1.6,0-2.1,3.1-4.2,3.5c0.9,2.2,2.2,3.1-0.2,4.2c-0.5-1-0.4-2.6-1.5-3c-3,2.4-9.4,1.4-12.4,3.7c-0.1,1.5-0.9,2.4-0.7,4.2
	c-1.8,1.4-1.7,4.6-4,5.5c-0.4,1.8-0.9,3.4-1.5,5c3.4,1.2,0.9,6.5-2.5,4.2c0.2-1.7-0.1-3.7,1.7-4.2c0.5-4.5,2.7-7.2,4-10.9
	c0-1.3-1.6-1.1-1.7-2.2c0-1.4-0.2-3,0.7-3.5c0.9-0.7,2.1,0.1,3,0.2c0.2-1.3,0.7-2.3,1-3.5c-4.8,0.8-10.3-1.1-14.9-0.2
	c-0.3,2.4-1,4.2-4,3.5c-2-1.8-1.6-5.4,1-6.2c1,0.3,1.6,1.3,2.7,1.5c1.3,0.2,3-0.4,4.5-0.5c3.1-0.1,6.3,0.7,9.4,0.5
	c2.1-1.7,4.1-3.5,5.2-6.2c1.8-1.2,2.8-3.1,3.7-5.2c-2.2-1.4-4.3,0.1-5.7,0.5c-1.5,0.5-3,0.2-3.7,1.2c-0.3,0.5,0.2,1.8,0,3
	c-1.4,2.5-6,1.5-5-2.5c-2.4-0.2-3.8-0.7-5.7-0.2c-1.2-0.3-1.4-0.8-2.7-0.5c0.3,2.6-1.4,3.2-3.5,3.5c-4.5-1.9,0.1-7.4,3.5-4.5
	c1.4-1.8,4.8,0.5,7.4-0.5c0.1-1.1-0.9,0.2-1.2-0.5c0-0.9-0.1-1.7-1-1.7c-0.2-0.6-1.4-0.1-2-0.2c-1.7-1-3.3-3.1-5.2-4
	c-0.6-0.3-1.2-0.4-2-0.2c0.1-0.7-0.5-0.9-0.7-1.2c-3.5-1.1-6.4-2.7-8.9-4.7c-4.1-1.4-8.1-3-11.9-4.7c-3.5,2.3-1.2,6.1,0,9.2
	c0.7,1.8,1.8,3.5,2.2,5.2c0.7,2.5,1.2,5.3,1.7,7.2c1.5,5,3.2,8.9,5,13.4c0.9,2.4,2.2,4.2,2.2,6.7c2,3.3,1.9,7.3,2.7,10.7
	c0.4,1.5,1.3,2.9,1.7,4c0.6,1.4,0.9,2.6,1.2,3.7c0.8,2.5,3.1,5.2,5,7.2c1.8,1.9,3.7,3.6,5.5,5.5c7.3,7.8,14.2,16.8,23.8,22.1
	c0.1,0.8-0.4,1-0.2,2c1,2.3,3,3.8,5,5.2c0.7,3.3,4.2,3.9,5.5,6.7c-0.8,0.9-2.2,2-3.2,2.5c-1.4,0.6-1.6-0.2-3-0.5
	c-0.9-0.2-1.8,0.2-2.2,0c-1-0.5-2.2-2-3.2-3c-1.1-1.1-2-2.5-3.2-3c-1.1,3.8-3.5,7.6-4,11.2c0.6-1,2-1.1,2.5-2.2
	c-2.1-6.9,9.4-2.8,3.7,1c-0.9-0.1-1.8,0.5-2.5,1.2c-1.6,0.2-2.8,0.7-3.5,1.7c0.3,1.1,0.4,2.4,0.7,3.5c0.3,0.1,0.4,0.3,0.5,0.5
	c4.2,1.8,6.6,5.5,12.1,5.9c1.4,1.2,3.3,2.3,5.5,3.2c0.9,0.4,1.4,1.6,2.2,2.2c1.6,1.3,4.1,2.9,6,3c1.1,0.1,2.6-0.4,4-0.7
	c1.3-0.3,2.8-0.3,3.7-1.2c6.8-0.7,15.3-0.4,23.1-0.7c0.5-0.4-0.2-0.6,0-1.5c2.2-3.6,3.5-8.1,4.5-12.9c-1.5-1.1-3.4-1.3-5.2-2.2
	c-0.8-0.4-1.3-1.4-2.2-1.7c-1-0.4-2.5-0.5-3.7-0.7c-3.9-0.9-7.5-1.7-11.2-2.5c-1.6-2.2-6-1.6-7.4-4c-1.4-0.1-2.1-0.8-3.7-0.7
	c-0.3,0.8,0,1.9-0.7,2.7c-2.8,1.4-6.6-2.3-3.7-5.2c1.2-0.1,3.2,0.6,4.2,1.5c2.2-0.7,4.2-0.8,6.4-1c1.1-1,2.1-1.4,3-2.2
	c1.1-1,1.8-2.2,2.7-3.2c1.3-1.4,3.1-2.5,3.7-4.5c-6.9-0.9-12.8-2.7-19.8-4c-1.8-1.9-4.6-1.5-7.2-2.2c-1.1-0.3-1.7-0.9-2.5-1.2
	c-1.7-0.7-3.2-0.4-5.2-0.2c-1.3,6.1-6.8-1-2.5-2.7c1.2,0.1,1.2,1.4,2.2,1.7c2.7-0.8,4.6,0.2,6.9,0.5c0.7,0.1,1.3-0.1,2,0
	c1.7,0.4,3.3,1.6,5.2,2c0.5,0.1,1.2-0.2,1.7,0c1.6,0.4,3.1,1,4.7,1.5c2.8,0.8,5.7,2,8.7,2.5c5.6,1,9.8,0,14.6-1.2
	c0.9-1.6,4.2-0.8,4.7-2.7c-3.9-4-8.5-7.3-12.1-11.7c-0.3-0.3-0.2-1.2-0.5-1.5c-3-1.9-4.3-5.4-8.4-6.2c-0.4,1-1.7,1.1-2.7,1.5
	c-4.1-1.8,2.1-8.3,2.7-2.7c1.9,0.2,2.8,1.4,4,2c1,0.5,2.1,0.5,2.7,1c1.7,1.3,2.1,3.9,4.2,4.7c2.8,4.6,6.4,8.3,11.2,10.9
	c1.4-3.3,2.5-7.1,5-9.4c0,2,0,4,0,6c-1.3,0.8-1.4,2.9-2,4.5c0.7,0.5,1,1.3,2,1.5c0,1.2,0,2.3,0,3.5c-1.3,0.2-1.5,1.5-2.2,2.2
	c1,4.2,1,8.3,2.2,11.9c0,4.7,0,9.4,0,14.1c-0.1,0-0.2,0-0.2,0c-0.8,3.7-2.3,6.8-3,10.7c1.4-0.4,2.2-1.5,3.2-2.2c0,5.1,0,10.2,0,15.4
	c-0.1,0-0.2,0-0.2,0c-1,1.3-1.4,3.8,0.2,4.7c0,0.6,0,1.2,0,1.7c-0.6-0.1-0.7-0.7-1.5-0.7c-0.4,3.3,0.8,5.5-0.2,7.4
	c-1.1,2-3.6,1.9-5,4c-0.5,0.6,0.9,1.4,0.5,2.7c-1.9,1.5-5.5,0.6-4.7-2.7c0.7-0.7,2-0.9,3.2-0.5c1.8-1.8,4.7-2.7,5-6.7
	c0.1-2.1,0.3-4.8-0.7-6.4c-2.6,1.7-5,3.6-7.9,5c-3.7,8.2-9.6,14-14.9,20.6c-3.8,1.7-6.4,5.7-9.9,7.9c-2.4,1.5-6,1.5-10.2,2.2
	c-0.4,0.6,0.5,1.8,0,2.5c-2.6,1.7-5.6-1.6-3.5-3.7c1.1-0.5,1.6,0.1,3,0.5c2.8-1,6.3-1.3,9.2-2.2c2.1-2.1,4.8-3.4,7.2-5.5
	c0.7-0.6,1.8-1.4,2.2-2c0.4-0.4,0.4-1.3,0.7-1.7c0.8-1.1,2.3-1.7,3.2-2.7c3.8-4.1,7.1-8.7,9.9-13.6c-3.7,0.7-6.6,3-10.7,2.5
	c-0.5,0.7-1.7,0.6-2.2,1.2c0.7,3.9-5.1,3.8-4.5,0c0.9-1.7,1.7-1.1,3.7-0.7c3-1.5,6.3-2.6,10.2-3.2c1.6-1.2,3.2-2.6,5.2-3.5
	c0.2-1,1-1.5,1.2-2.5c-6.5,1.1-14.1,3.5-21.3,2.5c-1.4-0.2-2.6-1.1-4.5-0.5c-1,1.6-1.1,2.7-2.5,2.7c-2.2,0-2.8-3.6-1.2-4.5
	c1.5-0.8,1.8,0.6,3.2,1c1.1-0.5,2.4-0.1,3.7-0.2c0.5-0.1,0.4-0.5,0.7-0.5c1.5-0.1,3.3,0.8,5,0.7c0.8,0,1.5-0.6,2.5-0.7
	c2-0.2,4.2,0.2,6.2,0c2.9-0.3,6.3-0.6,7.9-1.5c1.1-0.6,2.1-1.9,3.2-3.2c1.7-1.9,3.9-3.3,1.7-5.7c-1.9,0.6-3.6,2.1-3.7,3.7
	c-0.1,1.2,1.6,1.6,0.7,3c-1.6,0.1-1-2.1-2.7-2c-0.1-2.2,1-3.5,2-5.2c0.8-0.3,2.6-0.9,2-1.7c-3.9,0.3-9.1,0.1-13.9,0.5
	c-1.6,0.1-3.5,0.8-5.2,1c-0.6,0.1-1.4-0.1-2,0c-1.5,0.3-2.8,1.5-4.2,1.7c-0.8,0.2-1.7-0.1-2.5,0c-3,0.3-6.3,2-9.4,3
	c-6.3,2-12.3,3.9-18.3,6.4c-2.9,1.2-5.5,3-8.2,4.2c-1.8,0.8-3.5,1.4-5.2,2.2c-1.5,0.8-3.3,1.4-4.5,2.7c1.7,0.5,2.6-1.6,4.7-1.5
	c1.2,0.9,2.4,1.1,2.5,2.7c0,1.4-1.7,3-3.2,2.7c-1.5-0.3-1.3-1.5-2.7-2.2c-1.6,0.9-3.2,0.3-4.5-0.5c-1.8,0.7-2.8,2.2-4.7,2.7
	c-1.1,2.5-2.8,4.6-3,7.7c-0.1,2.3,0.7,4.9,1.2,7.4c1.3,6.6,3.6,14.4,6.2,19.6c-0.5,2.8,2,5.9,3.2,9.2c0.6,1.8,1.4,3.7,2.7,4.7
	c1.8,1.3,5.7,2.5,8.7,2.7c0.7,0.1,1.5-0.2,2.2,0c0.6,0.1,1.2,0.7,1.7,0.7c1.4,0.2,1.8,0.1,3-0.2c0.7,0.7,2.1,0.8,3,1.5
	c1.1,0,1.5-0.7,2.7-0.5c0.3,0.6,1.2,0.6,1.5,1.2c0.2,1.8-1.1,3.9-4.2,3.2c-0.7-1.2-0.9-2.5-0.7-3.5c-1.9-0.2-4.3,0.3-6.7,0
	c-1.8-0.2-4.9-1.5-6.9-2.2c-1.1-0.4-2.3-0.7-3.2-1.2c-0.9-0.5-1.7-1.7-2.7-1.2c1,2,0.7,3.7,1.2,5.9c0.6,0.7,1,1.7,1.5,2.5
	c0,0.6-1.1,0.3-0.7,1.2c1.2,4,2.3,8.1,4,11.7c0.1,0.8-0.4,0.9-0.2,1.7c1.3,2.3,2.9,4.3,4.2,6.7c1.7,0.3,3,1,3.5,2.5
	c-0.5,1.7-3,3-5,1.7c-1.4-1.5,0.8-3,0.5-4c-0.3-1.5-1.5-2.1-2.7-2.7c-0.3-1.6-1.4-2.4-1.5-4.2c-0.3-0.6-1.2-0.6-1.2-1.5
	c-0.7-4-2.1-7.3-2.7-11.4c-1.1,0.1-1.7-0.2-2.2-0.7c-0.7-1.5,0.2-2.3,0.7-3.2c-1.4-1-0.1-3.7-1-5.5c-1.5,1.5-2.2,3.6-3.2,5.5
	c-1,1.9-2.2,3.5-3,5.5c-1.5,0-1.7,3-3.2,1.5c0-0.8,0.6-0.7,1-1.2c0.4-0.6,0.2-1.3,0.5-1.7c0.5-0.8,1.3-1.6,2-2.5
	c1.2-1.7,2.2-3.3,3.5-5.5c1-1.7,1.9-2.5,1.5-5.5c-1.7-2.6-2.1-6.5-3.5-9.4c-0.5-0.7-0.6,0.9-1-0.2c-0.3-5.7-2.6-9.9-4-14.6
	c-1-3.6-1.2-7.3-2.5-11.2c-0.6,6.1-3.2,10.4-4.2,16.1c-1.4,0.4-1.4,2.1-3.5,1.7c0.1,0.8,1.3,2.7,0.2,4.2c-2.2,1.4-5.3,0-4-3
	c1.2-1,3-1.4,4.2-2.5c1.5-3,2.8-6.1,4-9.4c0.3-1.3-1.8-0.2-1.5-1.5c0-1.2,1.7-0.8,2-1.7c-0.5-2.3,1.5-4,0.7-6.4c1.3-1.2,1-4,1.7-5.7
	c-2.1,1.1-3.2,3.1-4.7,4.7c-1.5,1.6-3.6,2.8-4.5,5c0.9,2,2.7,1.3,3,3c0.5,3.1-4.2,3.8-5,1.2c-0.3-1.2,1.1-1.6,1.2-3.5
	c-1.4,0.1-1.8,1.5-2.7,2.2c-0.4,0.3-1.2,0.4-1.7,0.7c-1.8,1.2-4.2,2.7-5.7,4.5c-0.9,1-1.1,1.6-2.2,2.5c-1.3,1-2.4,3.6-3.5,5.5
	c0.5,0.7,1.2,1.1,1.2,2.2c-0.8,1.5-2.6,2-3.7,3.2c-0.8,0-0.8-0.7-1.7-0.5c-1.6,2.3-3.5,4.4-5,6.9c-0.3,0.6,0.4,1.2,0,2
	c-0.4,0.9-1.7,1.3-3,1.2c-2.5,3.2-4.5,7.7-5.2,11.9c1.1,2.1,1.5,6.5-1,7.9c-1-1.9-1.7-5.1-2-6.9c-1.8,0.6-1.7,3.3-4,3.5
	c-1.3-1.1-0.3-2.1,0.2-3.2c1.2-2.5,2.6-4,4-6.4c0.9-1.6,1.8-3,2.2-5.2c1-1.7,2.9-2.6,3-5.2c3.6-3.7,9.5-8.1,9.9-14.4
	c0.1-1.5-0.7-2.8-0.2-4.5c-1.2,0-2.1,0.6-3.2,1c-1,0.4-2.3,0.5-3.5,1c-2.2,0.9-4,3-6,3.7c-1,0.4-3.1,1-4-0.2c0.4-1.6,2-2.1,3-3.2
	c3.7-0.7,6.8-2,8.9-4.2c0.6-0.5,0.1-2.1,0.2-3c-7,3.4-13.7,7.1-21.3,9.9c-0.5-0.1-0.6-0.5-1.2-0.5c-3.8,1.5-7.9,2.7-11.4,4.5
	c-0.5-0.1-0.7-0.6-1.5-0.5c-3.4,1-6.7,0.8-9.7,2c-0.5,0.7-0.2,2.3-1.5,2.2c-1.4,0.1-1.4-1.3-2.5-1.5c-0.8,1-2.2,1.4-2.7,2.7
	c2.1,1.6,5,3.5,8.2,3.2c0.7,1.4,2,2.2,3.7,2.5c6.4,9,13.8,17,22.3,23.8c0,0.6,0,1.2,0.2,1.5c4.8,4.8,9.6,9.7,13.9,15.1
	c1.5,2.8,3.5,5.4,5.2,8.4c1.4,2.4,2.5,4.6,4.2,6.7c0.9,0.4,2.2,0.2,2.5,1.2c0.3,0.7,0.3,1.8,0,2.5c2,2.3,4,4.8,6,7.2
	c-0.2,0.3-0.3,0.7-0.2,1.2c5,6.8,10.9,14.3,16.1,21.3c1.7,2.3,3.3,5.1,5.7,6.9c1.6,1.2,3.6,1.5,5,3c1.7-0.2,2.4,0.6,3.7,0.7
	c2.9-2.7,7.3,1.2,4.7,4.7c-1.4-0.2-1.9,1.2-3.2,1.2c-1.1,0-2.2-0.6-3-1.5c-0.6-1.4,0.4-2.5,0-3.5c-1.8,0-4.4-0.6-5,0
	c-2.8-0.9-3.8-2.7-5.9-5c-7.3-7.8-13.1-18.7-19.8-27c-0.3-0.6-1.6-0.2-1.7-1c-1.3-2.5-2.9-4.9-4.5-7.2c-1.1,0.1-1.5,0.2-2.5-0.2
	c-0.7-1-1.1-2.9-0.2-4c-1.7-2.1-2.8-4.7-5-6.2c0.2-0.9-0.4-1.1-0.2-2c-1.8-1-1.9-3.2-3-4.7c-0.4-0.6-1.3-0.9-1.7-1.5
	c-0.5-0.7-0.5-1.7-1-2.2c-0.4-0.6-1.2-0.9-1.7-1.5c-3.1-3.7-6.3-8.1-10.2-11.4c-0.2,0.4-0.2,1-1,0.7c-0.3-0.7-0.4-1.6-0.7-2.2
	c-3-3.1-6.8-6.9-9.9-10.4c-0.9-1-1.6-2.6-3-2.7c0.6,3.4,1.7,6.2,3,8.9c-1,1.3,0.3,2,0.7,3.2c-0.6,0.9-0.5,2,0,3
	c4.1,0.5,3.3,5.8-1,5.5c-0.7-0.7-1.4-1.6-1.7-2.7c0.2-1.3,1.5-1.5,1.7-2.7c-1.6-1.3-1.3-4.5-2.7-5.9c-0.2-1.4-0.4-3-0.7-4.5
	c-0.3-1.3-0.4-3.1-1.5-3.7c-0.6,0.1-0.9,0.6-1.2,1c0,2.4,2.9,2.1,2,5.5c-1.6,1.7-5,1.3-5.7-1c0.4-1.7,1.8-2.5,2.7-3.7
	c0-0.9-0.6-1.2-0.7-2c0.9-0.7,1.7-1.4,2.5-2.2c-0.9-2.6-1.8-4-4.2-6c-2-1.7-3.5-2.4-6.2-3.7c-2.3-1.1-3.3-1.8-5.2-1
	c-0.3,3.2-2.5,5.7-2.2,8.7c4.9-0.2,4.7,4.7,6.9,7.2c1.9-0.1,3.2,0.5,3.7,1.7c-1,2.3-1.9,3.7-5.2,3.2c-0.6-0.7-1.1-1.4-1.2-2.5
	c-0.2-1.4,1.4-1.1,1.2-2.5c-1.5-2.6-3.7-6.1-6.9-5.7c-1.4,0.2-3.7,2.6-5.2,4c-5.5,4.8-9.4,10.4-12.9,17.1c-0.8,0.7-1.6,1.4-2,2.5
	c2.7,1.9,0.2,5.6-2.5,5.5c-1.3-0.1-3.3-1.4-3.2-3.2c0.2-3.3,5.5-2.1,6.4-5.2c-0.3-2.2,0.6-2.6,1.5-4c0.9-1.3,1.6-1.9,1.5-3.7
	c2.9-3.4,5.8-6.6,9.4-9.7c1.4-1.1,3.2-2.4,4.2-3.7c0.2-0.2,0.2-0.9,0.5-1.5c0.2-0.4,0.9-0.7,1-1c0.4-1,0.3-2.6,0.7-3.7
	c0.2-0.5,1.3-1.4,1.5-2.2c0.3-1.2,0.1-2.8,0-4.2c-2.7,1.4-5.5,3.4-9.2,2.5c-2.4,3-5.9,5.2-8.2,8.4c-1,1.4-1.3,3.3-2.7,4.5
	c0,0.7,0.1,1.6-0.2,2c-1.5-0.7-1,0.9-2.2,0.2c-0.5,1-0.1,1.5-0.7,2.2c-2.9,0.8-4.4,3.1-6.7,5c-1.5,1.2-3.1,2.3-4.5,3.5
	c-3,2.5-5.6,5.2-8.2,7.9c-5.3,5.5-11.2,10.2-15.9,16.1c-0.7,0.1-1.1,0.6-1.7,0.7c-2.3,2.9-5.3,5.1-6.9,8.7c-2.6,2.4-7.3,5.7-8.4,9.7
	c-0.1,0.4-0.3,1.5-0.2,2c0,1.4,1.9,3.4-0.2,4.2c-1-0.5-0.6-2.3-1.5-3c-0.3,1.8,0.1,3.1-0.2,4.5c-0.3,1.1-1.2,1.9-1.5,3
	c-0.3,1.1,0.4,2.3-0.2,3.7c0.3,0.5,0.5,1.1,0.7,1.7c-0.6,1.7,1.6,4.9-1,4.5c-1.4,0.2,0.4-2.1-0.7-1.7c-1.4,6.5-2.1,13.6-2.5,21.1
	c1,0.7,0.6,1.8,1.2,2.7c0.6,0.8,1.7,1.1,2.2,2c1.1,1.7,1.4,4.1,2.2,6.2c0.8,2,1.7,3.8,2.5,5.7c0.4,0.3,1,0.3,1.2,0.7
	c-0.2,1.3,2,1.6,2.2,3.2c1.9,1.2,4,2.3,5.7,3.7c0.8-0.3,1.8-0.6,2.7-0.7c2.2,2.2-0.7,6.2-3.5,4.2c0-0.9,0-1.8,0-2.7
	c-1.2-0.7-2.1-1.7-3.7-2c-0.3-0.6-1.2-1-2-1.5c-0.6-0.4-1.6-1.5-1.7-0.7c0.7,0.5,0.1,1.4,0.5,2.5c0.3,0.8,1,1.1,1,2c0,1-1.2,2-1.5,3
	c-0.3,1.1-0.1,2.3-0.2,3.5c-0.1,0.8-0.6,1.6-0.7,2.5c-0.3,1.5-0.1,3.1-0.2,4.7c-0.5,5.1-2.3,10.6-1.2,14.6c0.8,0.8,1.8,0.6,2.5,1.5
	c0.5,0.6,0.5,1.9,1,2.7c-1.7,4.7-7.7,1.4-5.2-2.7c-0.9-0.4-0.1-1-0.2-1.7c-0.2-1-1-2.1-1-3.2c0-1.8,1.1-4.3,1.5-6.7
	c0.7-3.9,1.4-7.6,0.7-11.4c1.3-3.2,1.3-7.6,0.5-11.2c-0.4-0.5-1-0.6-1.2-1.2c-0.6-3.8-1.5-7-3.5-10.7c-1.1-2.1-2.7-5.3-4.7-5.2
	c-1.5,0.1-3.4,3-4.5,4.2c-1.5,1.8-2.7,3.2-4,4.7c-0.5,1.2,0.4,1.2,0,2.2c-0.9,0.5-1-0.5-2,0.2c-5.2,7.2-8.9,15.7-11.2,25.8
	c-2,0.7-2.1,3.5-2.5,5.2c-1.1,0.1-1.7,0.4-2.5-0.2c0.9-2,2.3-4.1,2.2-6.2c3.4-5.7,5.4-13,8.2-19.3c-2.1,1-4.9,1.4-7.2,2.2
	c1.4,1.4,3.3,2.1,3,5.2c-0.8,1.3-2.5,2.9-4.2,2.5c-1.2-0.5-1.6-1.9-2.5-2.7c-5.5,0.3-8.6-4.7-14.4-2c-1.5,2.8,0.1,4.9-0.7,7.7
	c-1.7,1.2-4,1.5-5.5,0c-0.9,1-1.1,1.9-2.5,2c-1.5,0.1-2-1.1-3.2-1.5c-1.3,1.7-1.1,4.2-0.7,6.7c-0.6,1.3-0.9,2.6-0.7,3.7
	c0.1-0.4,1.4,0.2,2,0.2c0.6,1.4,0.9,2.3,1,3.7c-1.2,2.6-5.5,3-6.7,0.2c0.4-1.5,0.3-3.5,1.7-4c-1.5-3.1,0.9-7.2,0.7-10.7
	c-1.9-0.2-4.6,0.6-6.4,1.2c-0.4,1.9,0.5,6.3-2.7,6.2c-0.5-0.8,0.7-4.5-0.2-5c-0.8-0.7-0.7,1.6-1,2.2c-1.2,0.5-1.6,1.8-3,2
	c-1.4,0.2-2.8-1-4.2-1.2c-2.3-2.9-0.6-6.6,3.2-6.4c1.5,0.1,3,1.7,4.5,1c0.2-1.3,1.6-1.4,2.5-2c0.3-1.1-0.2-1.5-0.2-2.7
	c0.6-0.3,0.9-0.8,1-1.5c1.1-0.2,1.7-1,2.2-1.7c0.7-0.1,2.1-1.7,1.2-1.7c-4.3,0-8.7-0.1-12.4,0.5c-4.3-1.9-15.2,1.7-17.1-3.2
	c-4.7,2.5-7.1-3-4.5-6.2c1.5-0.1,2.4-0.9,4-1c0.5,1.1,1.6,1.6,2,2.7c0.3,1.3-0.7,1.3-0.5,2.5c2.6,3.2,9,2.6,14.6,2.7
	c0.6-0.2,0.8-0.8,1.5-1c5.3,0.3,10.6,0.7,15.9,1c1-0.4,1-1.8,2-2.2c3.1-0.4,5.1-1.8,7.4-3c0.1-1.9-1.8-4.2-0.5-5.7
	c-1.7-0.6-2.5-2-2.7-4c0.7-1.3,2.1-1.9,3.7-2.2c0.8,0.9,1.7,1.8,2.2,3c-1.4,1.7-2.9,6.3-0.5,8.2c1.4-0.5,1.9-1.9,3-2.7
	c-1-1.1,0.1-3.9,0.5-5.2c2.5-1,4.2,0.1,5.5,1.5c4.2-2.3,7.3-5.8,10.7-8.9c0.1-0.6,0.4-1.1,0.2-2c6.1-3.7,10-10.6,14.4-16.9
	c3.7-5.3,7-10.9,10.7-15.9c0-0.7,0-1.5,0-2.2c0.8-1.7,2.2-2.7,3-4.5c-6.4,1.9-13.3,3.3-20.8,4c-0.7-0.7-1.4-1.4-1.7-2.5
	c1.4-2.7,4.6-0.2,7.9-0.2c3.7-0.1,9.5-1.9,12.9-3.2c1.4-0.6,2.9-0.9,3.7-1.5c2-1.4,3.6-4.3,5.5-6.4c0.7-0.9,1.9-1.6,2.7-2.5
	c0.8-0.8,1.7-1.9,2.5-2.7c1.8-1.9,3.9-3.5,5.2-5.2c0.7-0.9,1-2.1,1.7-3c0.9-0.9,2.4-1.6,3.5-2.5c7.2-5.8,14.6-13.7,20.8-20.3
	c2.9-1.6,5.2-3.8,7.7-6c0.1-1.9,1.1-2.8,1.5-4.5c-10.8-1.1-23.1-3-34-3.5c-2.6-0.1-5.4,0.6-7.9,0.2c-0.6-0.1-0.9-0.5-1.2-0.5
	c-3.4-0.3-6.2,0.7-8.9,1c-3.5,0.3-7.1-0.5-10.4,0c-3.5,0.5-5.9,2.5-8.7,4.2c-2,1.2-3.7,2.3-5.5,3.5c-10.7,7-21.8,13.2-33.7,19.3
	c-7.7,1.2-15.3,2.7-23.1,4.2c-3.5,0.7-6.5,1.6-10.4,1.2c-1,0.7-2.5,1-3.5,1.7c-0.6-0.2-0.4-1.1-1.5-0.7c-10.9,2.8-22.5,4.9-33,8.2
	c-1.6-1.1-4.8,0.2-7.4-0.7c-1,0.4-2.1,1.1-3,0.3c-0.3-1,0.8-0.5,0.5-1.5c0.1-1-1-1.4,0-2c2.5,0.9,7.2,2.5,9.7,0.5
	c9.9-1,20.1-3.8,29.8-6c1-1.1,1.7-2.1,3-2.7c0.4-0.2,0.7,0.3,1.2,0c0.5-0.3-0.2-0.9,0.7-0.7c5.8,0.6,12.6-0.6,18.6-1.2
	c-0.1-1-1-1.5-1.5-2.2c-1.6-2.4-3-5.5-4.7-8.4c-2.4-4.1-4.4-7.8-7.7-10.7c-4-1.3-6.7-4-10.2-5.9c-0.8-0.3-0.9,0.1-2,0
	c-1.7-1.9-3.9-3.6-6.2-5.2c-5.4-3.8-10.9-7.4-16.6-11.9c-1.1-0.8-2.6-2.1-3.2-2.2c0,0-1,0.9-1.7,0.2c-0.2,1.9-1.1,3.3-1.7,5
	c-1.1,2.7-2.3,4.8-2,8.4c0.1,0.9,1.2,2.7-0.5,3c-0.5-1.1-0.1-2.3-0.5-3.2c-0.4-0.9-1.2-0.8-1.5-1.7c0.9-0.5,0.1-0.9,0-1.7
	c0.8-0.3,0.2,0.8,1,0.5c-0.2-4,3.3-6.5,3.7-9.9c0.3-3-1.9-4.4-1.7-7.9c-1.9-3.7-4.9-6.2-7.9-8.7c-0.2,3.2,0.5,7.2-0.5,9.7
	c0.8,0.5,1,1.7,1.7,2.2c1.4-0.1,2.1-0.1,3.5,0.2c0.6,0.7,0.9,1.8,0.7,3.2c-0.9,0.8-1.9,1.4-2.7,2.2c-3.5-0.1-4.1-2.5-2.5-5
	c-0.8-1.3-1.9-1.5-2.5-3c-1-2.7,0.9-6.4,0.5-9.4c-0.3-2.4-2.4-5.1-6.4-4.5c-0.5-0.4-0.6-1.3-0.7-2c-1.7,0.3-2.1,1.9-3.2,2.7
	c-2.6,2-6.5,4.5-7.7,7.9c-0.6,1.6-0.8,3.8-1.2,5.7c-0.4,1.9-0.9,3.9-1.2,5.7c-0.8,3.8-1.8,7.5-2.7,11.2c-1.8,7.5-4.7,14.5-5.9,21.6
	c-0.5,0.4-0.9,0.8-1.2,1.2c-0.6,4.7-2.4,9-1.2,12.9c1.2,4.1,5.6,7.3,7.7,10.7c0.1,0.7-0.9,0.8-0.2,1.5c1,1.4,2,2.8,3.7,3.5
	c0,0.3,0,0.7,0,1c1.9,0.6,2.5,2.5,4.2,3.2c1.7-1,4,0.3,4.2,1.7c0.4,2.8-4.1,5.5-6.2,2.7c-0.3-1.4-0.1-2.4,0.2-4
	c-1.2-1.4-2.4-2.8-4.5-2.7c-3.5-3.8-6.1-8.6-8.9-13.1c-0.9-1.4-1.5-3.2-3-4.2c-2.6,2.5-4.9,5.2-7.4,7.7c-2.5,2.5-5.1,4.9-7.4,7.7
	c-0.8-0.2-0.9,0.3-1.5,0.2c-2.3,2.7-6.3,6.9-9.7,10.4c-0.2,0.2-3.6,2.5-3.5,3.2c0.2,1.4,3.8,1.4,5,1.5c2.5,1.6,8.6,2,13.4,2.2
	c3.1,0.2,6.2-0.1,9.2,0c0.3,0.6,0.9,0.9,1.5,1.2c9.8,0.7,20.3,1.9,29-0.5c-0.2,0.2-0.6,0.3-0.5,0.7c3.2-0.5,5.2-2.2,9.2-2
	c0.9-1,1.5-2.3,2.7-3c0.7,0.4,1.4,0.9,2.5,1c0.8,1.7,0.7,1.7,1,3.5c-1,1.5-1.6,3-3.2,3c-1.9-0.1-2.1-2.2-3.5-3.2
	c-4-0.2-5.6,2-8.9,2.5c-0.6,0.2-0.6,1.1-1.5,1c-7,0.5-13.7-0.1-20.6-0.7c-2.3-0.2-4.6-0.7-6.2-0.5c-0.6,0.1-1.3,0.5-2,0.5
	c-1.5,0-3.3-0.5-5-0.7c-4.8-0.6-9.9-1-14.9-1.7c-1.2,2.1-2.6,4.1-6,3.5c0.4,3.6,3.2,5.9,4.7,8.7c0.7,1.3,1.1,2.5,2,3.7
	c0.8,1.1,1.5,2.2,2.5,3.2c1-0.8,1.9-1.9,3.2-2c0.3,0,1.7,0.8,2.2,0.5c0.2,0.9,1.2,0.9,1.5,1.7c-1,0.2,0,1,0.2,1.5
	c-1.1,1-1.2,2.2-2.7,2.5c-1.5,0.3-3.4-1.4-4.7-0.2c-1.6-1.7-1.8-3.9-3-5.7c-1.1-1.7-2.8-2.8-4-4.5c-2.6-3.6-3.8-7.9-5.5-12.6
	c-1.3-0.4-2.6-0.7-3.5-1.5c-0.1-1.7,1.6-2.8-0.2-3.7c0-1.4,0-2.8,0-4.2c1.2,0.5,1.7,2.5,3.2,2.5c1,0,3-1.9,4.2-3
	c3.5-2.9,7.9-7.5,10.7-10.2c0.3-0.6,0.2-1.5,0.5-2c5.3-4.1,10.9-7.7,14.1-13.9c0.5-0.9,1.1-1.6,1.5-2.5c1.1-2.8,0.6-6,2.2-8.9
	c-0.5-0.6-1.3,0.3-1.5-0.7c3.8-5.2,6-12,7.9-18.8c2-6.9,3.8-14.2,5.2-21.6c-0.6-0.8-2.5-0.3-2.5-1.7c0.6-1.7,2.7-2.2,2-4.5
	c-2.7-0.8-5.4-1-7.9-1.5c-9.1-1.8-17.1-5-28-5.2c-0.9-0.1-1.2-0.9-2.2-1c-2.2,0-3.6,1.3-5.2,2c-1.5,0.7-3.2,0.8-4.2,2c0-1,0-2,0-3
	c1.4-0.7,2.4-1.9,3-3.5c-0.7-0.8-1.9-1.3-3-1.7c0-0.8,0-1.7,0-2.5c1.2,0.4,1.7,1.4,3.2,1.5c1.2-0.5,0.8-2.5,1.7-3.2
	c1,0.6,1.3-0.8,2.2,0c-0.7,0.7-0.3,1.4-0.5,2.2c-0.4,0.5-1.4,1.4-1,2c2.2,0.3,4.2,1.8,6.7,1c4,1.7,9.8,2.5,15.6,4
	c5.5,1.4,11.3,3.1,16.1,3.5c1.7,0.1,3.7,0.3,5.2,0c1.1-0.2,1.9-1.4,3-2.2c1.8-1.4,3.5-2.2,4.5-4c1.1-0.4,2.8-1.2,2.5-2.2
	c-3.9-2.6-7.9-5.2-12.6-6.9c-0.3,1.5,0.6,1.7,0.7,2.7c-0.9,0.3-0.8,1.5-1.7,1.7c-1.5-1.5-2.5-3.4-3-6c-2-1.1-2.8-3.6-4.2-5.2
	c-1.4-1.6-3.1-3.1-4.5-4.7c-2.4-2.8-4.6-5.8-7.7-7.7c0.2,5.4-8.8,3.4-5.5-1.2c-1-1.4-2.2-3.3-4-3.2c-1.6-1.6-2.8-3.7-5-4.7
	c-0.7-1.8-1.8-3.2-3.7-3.7c-0.5,3.3,1.4,4.3,4.2,4.2c1.1,1.7,1.2,3,0,4.2c-0.4,0.4-0.8,0.6-1.2,0.7c-0.3,0.1-2.6,0.1-3,0
	c-1.2-0.4-1.9-2-1.7-3.2c0.2-1.1,0.9-0.8,1.5-2.2c-1.7-0.9-2.7-2.8-1.7-5c-2-1.3-4-2.4-6.2-3.5c0-2.2,0-4.5,0-6.7
	c0.8,1.4,2.6,3,4.5,2.5c-0.6-2.5-2.3-4-4.5-5c0-1.2,0-2.3,0-3.5c3,0.5,4.6,3.6,7.9,3.7c1.6,0.1,5.7-1.4,7.2-2.2
	c1.1-0.6,1.9-1.9,3-2.2c1.3-0.2,3.8-0.8,4.5-2.5c-1.3-2.5-3.4-4.2-5-6.4c-0.3-1,0.7-1.7-0.2-2c-2,1.2-4.9-0.1-5.2-2.5
	c-0.2-1.5,0.5-2.2,1-3.7c-1.1-1.2-2.3-2.3-2.7-4.2c-1-0.7-2.2-1.1-2.7-2.2c-2.6-1-4.9-2.3-7.7-3.2c0-0.7,0-1.5,0-2.2
	c2.9,1,5.5,2.3,8.2,3.5c-1.8-4.1-3.2-7.1-5.9-10.2c0.3-2.2-1.4-4.3-2.2-6.2c0-2.8,0-5.6,0-8.4c0.6,0.9,0.6,2.3,1.5,3
	c0.4,3.5,1.2,6.7,2.5,9.4c1.3,1.1,2,2.7,2.7,4.5c0.4,0.6,1.4,0.6,1.7,1.2c0.9,1.7,1.2,4,2.7,5c1.5-5.8,5.3-9.3,7.2-14.6
	c2-0.4,2.4-3.6,4.5-3c0.7,2-2.1,3-1.5,5c-1.3,0.7-1.4,2.3-2.2,3.5c-0.7,1.1-1.7,2.1-2.5,3.2c-1.6,2.2-3.6,4.5-3.7,7.2
	c0,0.3,0.4,2.4,0.5,2.7c0.2,0.6,1,1.2,1.5,2c1.2,2,2.3,4.1,3.5,6.2c1.2,0.3,2,0.8,2.7,1.7c0.4,0.6,0.2,1.3,0.5,2
	c0.2,0.4,0.7,0.7,1,1.2c1.6,3.1,3.5,7,5.5,9.9c2.4,0.2,4.8,0.5,7.2,1c2.2,0.4,4.7,0.6,6.7,1.2c0.5,0.2,0.6,0.8,1,1
	c2.2,0.9,4.7,0.1,7.4,0.5c0.3,0,1.2,0.4,2.2,0.7c2.9,1,5,2.9,8.7,1.7c4.2,1.2,1.2,7.1-2,6.4c-1.6-0.3-1.9-2.1-2-4.5
	c-1.8-0.9-3.8-2.5-6.4-2.5c-0.8,0-1.7,0.5-2.5,0.5c-2.7,0.1-5-1.5-7.2-0.7c-3.1-1.8-7.4-2.5-11.4-3.5c2.2,4.7,5.6,9,8.2,13.6
	c2.6,4.7,4.2,10.1,8.2,13.6c1.2-0.4,2.2-0.9,3.7-0.5c1-0.5,2.2-2,3.2-1.7c0.9,0.5,0.5,1.1,1,2.2c-2.2,0.6-4,1.6-6.2,2.2
	c0.8,1.6,2.3,2.5,3.5,4c1.1,1.3,1.8,3,3,4.2c0.8,0.9,2,1.4,2.7,2.2c0.4,0.5,0.5,1.2,1,1.7c0.6,0.7,1.9,1.4,3,2.5
	c1.5,1.5,2.4,2.5,4.2,4c2.7,2.2,8.1,1.9,12.4,0.2c1-0.4,3.2-0.1,5-0.2c7-0.5,14.6-1.6,21.3-3c0.7-0.1,2.3,0.5,2.2-1
	c-0.1-1.2-1.8-1.8-3-2.7c-1.1-0.9-2.2-2-3.2-2.7c0.7,0.1,0.8-0.6,1.5-0.5c-4.5-5-9.1-9.7-14.1-14.1c-0.4-1.9-2-2.4-3-3.7
	c-1.4,0.3-2.5,0.3-2.7-1c1-1.2,1.6-2.7,3.5-3c1.4,2.1,2,4.9,4.7,5.7c6.2,8.1,13.3,15.3,21.8,21.1c-2.7-8.8-1.7-21.5-4.5-30.2
	c0.2-0.9,0.7-1.4,1-2.2c0.2-1.4-0.5-4.2,0.7-5c1.4,0.5,2.8,0.8,3.2,2.2c0,0.8-1.1,0.5-1.5,1c0,0.8-0.6,1.4,0,2
	c2.1,1.2,3.4-2,5.7-2.2c1.6-2,3.9-3.2,5.9-4.7c5.9-4.4,11.5-9.9,18.1-13.9c0.4-0.4,0.1-1.5,0.7-1.7c7.3-4,14-8.5,21.6-12.6
	c1.2-0.7,2.4-1.3,3.7-2c3.8-2.1,7.2-5.1,12.1-6.2c-0.9-6.8-2.9-12.5-4.2-18.8c-0.4-0.6-1.8-0.3-2-1.2c0.6-4.4,0.4-8.6,0-12.6
	c1.5-4.8,1.8-12.2-1.2-15.4c-0.6,1.7-2,2.7-3.5,3.5c1.1-1.4,1.2-2.3,1.5-5c0.2-1.5,0.6-2.1,0-3.7c-0.5-1.4-1.4-3.2-2.2-4.7
	c-0.8-1.5-2.1-2.7-3-4c-2.2-3.5-3.4-7.3-6-9.2c-0.8,3.9,1.5,4.8,2.5,6.9c-0.1,4.6-6.8,3.6-6.9,0.2c-0.1-2.3,2-2.2,3.2-3.7
	c-0.1-1.8,0.1-3.2,0.2-4.7c-2.2-4.3-5.3-7.9-8.2-11.7c-1-1.3-1.6-2.7-2.5-4c-3.5-5.1-7.8-9.6-11.2-14.9c-1.8,0.7-3.4,0.7-5,1.2
	c-0.6-1.2-1.2-2.5-1.2-4.2c-2.3-3.8-4.4-7.7-6.9-11.4c-2.5-3.6-4.1-7.9-6.2-11.9c-2-3.9-4.1-8-6.2-11.9C107.4,8.1,105.7,4,103.4,0z
	 M297.8,102.1c0,1.1,1.4,0.9,0.7,2c-1.1,0.2-2.1,0.6-3.2,0.7c0.4-2-1.2-2.3-2-3.7c0.5-0.5,1.2-0.9,2.5-0.7c1.5-1.9,3.7-3.1,3.7-6.4
	c1.9-1.1,2-3.1,3-5c2.5-5,5.6-9.7,8.4-14.1c1.2-1.9,2.7-3.9,3-6.2c-2.7-0.3-4.1-1.3-6.2-2.5c-2.3-1.3-3.9-2.2-5.7-3.5
	c-1-0.7-2.3-1.2-3-1.7c-0.7-0.6-1-1.3-1.7-1.7c-2-1.1-3.9,0.4-6.2-0.2c-1.5,1-2.6,2.5-4.2,3.5c-0.3,0.5-0.3,1.1-0.7,1.7
	c-0.3,0.4-1.2,0.8-1.5,1.2c-0.8,1.2-1.3,3.1-2,4.5c-0.6,1.3-2.2,3.4-0.2,4.2c-0.5-2.3,1.5-2.2,3-2.5c0.5,0.8,2.1,1.5,2.5,3
	c0.4,1.8-0.1,4-1.7,4.2c-2.1,0.3-4.3-3.3-5.7-3.7c-4.5,11.1-10,21.2-14.4,32.5c-2.5,0.2-2.1,3.3-3,5.2c4.8,5.4,7.8,12.5,14.9,15.6
	c0.7-0.2,1.5-0.3,2.2-0.5c2,0.7,3.3,2,5.7,2.2c0.8,0.6,1.3,1.4,2.2,2c0.4,0.2,0.9,0,1.5,0.2c0.6,0.3,1.3,1.4,2,1.7
	c5.1,2.7,12.6-1.9,16.6-3.5c0.7-0.3,0.8-1.4,1.5-1.7c1.7,2.3-1.3,3.5-2,5c-3.3,0.4-6.7,2.3-10.4,2.7c-3.7,0.4-7.5-0.6-11.2-0.2
	c-0.3,1.5-1.1,2.6-1.5,4c0.3,1.4,2,1.5,2.7,2.5c-0.5,0.4-0.3,1.5-1,1.7c-1.9-0.9-2-3.5-5-3.2c0.5,1.7,2.2,2.5,3.5,3.5
	c1.2,1,2.6,2.2,4.2,2.7c1.3,1.9,3,3.3,5.2,4.2c0.9,3.5,4.1,5.8,6.4,8.7c0.5,0.7,0.9,1.5,1.5,2.2c0.6,0.7,1.2,1.3,2,2
	c0.6,0.5,1.5,0.9,2.2,1.5c0.9,0.7,1.3,1.7,2,2c4.9,1.9,8.9-1.8,12.1-2.7c2.1-0.6,4-0.3,6-1.2c1.7-2.1,3-4.6,3.7-7.7
	c-1.7-0.5-2.6-0.5-3-1.5c-1.2-3,3.2-5.9,4.5-2.5c0.2,0.5-0.2,1.3-0.2,2c0,1.4,0.4,2.6,0.5,4c-1.2,2.7-3.5,4.3-4.5,7.2
	c4.2,3.3,11.1,3.9,17.6,5c1.5-0.8,1.7-1.4,2.7-1.5c3.4-0.4,4.9,5.7,0.5,5.5c-1.1-0.1-1.3-0.8-2.2-1.5c-2.8-0.2-4.1-0.9-6.4-1.5
	c-3.6-0.9-7.1-1.5-10.2-2.7c-1.7-0.7-3.3-1.7-4.7-1.7c-1.4-0.1-2.5,0.7-3.7,1c-3.1,0.8-6.4,1.5-9.9,2.2c4.9,4.8,8.4,10.9,14.4,14.6
	c0,0.6,0,1.2,0.2,1.5c3,2.6,5.9,5.3,9.2,7.7c2.7-0.8,4.3-3.3,6.2-5.2c4.7-4.7,10.2-9.1,14.6-13.9c0.9-1,2.1-2.1,2.7-3
	c0.6-0.9,0.7-2.1,1.2-3c1.4-2.1,3.6-3.8,5-6c0.5-0.8,0.5-2,1.2-2.7c0.2-3.5,2-5.2,3-7.7c0.7-1.9,1.2-3.8,2-5.5
	c1.6-3.3,4-6.1,5.5-9.4c0.7-3.2-0.6-4.9-1.2-6.9c-0.4-1.3-0.7-2.7-1-4.2c-0.3-1.4-0.9-2.9-1-4c-0.1-1.1,0.4-2.3,0.2-3.5
	c-0.1-0.6-0.5-1.3-0.7-2c-0.7-2.4-1.2-4.5-2-6.4c-1-2.7-2.1-5.3-3.2-7.9c0,1.6-0.8,3.1-0.2,4.5c-2.3,2-2,6.5-5.2,7.7
	c-0.1-0.5-1.1-0.1-1-0.7c0.5-3,3.4-5,2.2-8.2c1.5-1.1,1.2-2.8,1.7-5.2c0.3-1.5,0.8-2.4,0.7-3.5c-0.2-1.9-1.8-4-2.5-6.2
	c-0.4-1.4-0.5-2.9-1-4.5c-0.6-2-1.7-4.5-2.2-6c-2.2-6.4-4.4-13.1-6.9-18.6c-0.5-1.2-0.9-3-2.5-3.2c-0.9,0.9-2.7,2.2-2.7,3.2
	c0.9-0.5,1.5,0.7,1.7,1.2c0.2,0.5,0.2,2.8-0.2,3.5c-0.3,0.5-1.6,0.1-1.2,1c0,2.5,0.4,4.7,1.2,6.4c-1.3,0.8-0.3,2.3-2.2,2.5
	c-0.6-0.7-0.7-2-1.5-2.5c0.8-1.9,0-6,0-8.7c-1.5-1-2-2.9-3.7-3.7c-1,0-1.1,0.8-2.2,0.7c-0.8,0.1-1.2-0.2-1.7-0.2
	c-2.6,1.1-5.5,1.6-8.2,2.5c-1.3,0.4-2.7,1-4,1.2c-0.7,0.1-1.5-0.2-2.2,0c-1.5,0.4-3.3,1.6-4.5,2.5c-1.4,1.1-2.4,2.5-4,3.2
	c-3,5-6.6,10.7-9.2,16.1c-1.2,2.5-2.4,5.4-2.5,7.7c-0.7,0.4-1.3,1-0.5,1C300.5,97.8,299.7,100.6,297.8,102.1z M353.6,11.2
	c0.7,1.8,2.4,3.6,2.7,5.2c1.2,6.1,0.9,11.7,3.2,16.9c-2.1,4.4,0.8,6.9,1.5,10.7c0.6,3,0.4,6.4,1.2,8.7c0.6,1.6,2.1,3.1,3,4.5
	c1.1,1.8,2,3.4,3,4.7c0.5,0.5,1.4,0.6,1.7,1.2c-0.1,2.6,1.8,3.3,2,5.7c1.5,0.6,2.1,2.5,3.5,3.5c1.6,1.2,4.6,1.8,6.9,2.7
	c2.3,0.9,4.6,2.1,6.7,3.2c3.4,1.9,6.5,3.4,9.9,4.7c1.9,0.7,3.1,1.6,5,2c0.3,0.5,0.7,1,0.7,1.7c3.1,0.2,3.4,4.6,5.9,5
	c2.2,0.3,2.9-2,5.5-2.2c-0.4-2.1-1.3-3.9-3.2-4.5c-1.1,2.2-3.5,3.4-4.7,1.2c-1.8-3.3,4.5-6.3,5.2-2.2c2.2-0.3,2.2,1.6,3.7,2
	c-0.1,0.8,0.4,0.9,0.2,1.7c1.7-0.5,3.2-1.1,4.2-2.2c0-0.5,0-1,0-1.5c0-0.7-1.5,0.2-1.5-0.5c1.5-4.7,0.3-10.5-0.7-15.1
	c-4.9-2.5-12.7-4.1-18.8-3.2c-0.2,1.1,0.3,1.5,0.2,2.5c-2,4.4-8.3-0.7-4.2-3.7c1.5-0.2,2.4,0.2,3.5,0.5c2.6-2.3,7.7-0.7,10.9-1.5
	c2.4,1.2,5.1,2.2,7.7,3.2c-0.8-3.9-3.1-6.5-4.5-9.9c-1.6-0.6-2-2.1-3.5-2c-1.4,0.2-2.5,3.2-4.2,4.5c-0.7,0.5-1.4,0.6-2,1
	c-0.5,1-0.9,1.9-1.7,2.5c-0.4-0.4-1-0.6-1-1.5c0.3-1.2,1.5-1.3,2.2-2c0.7-0.7,1.2-1.8,2-2.5c0.6-0.6,1.7-0.7,2.2-1.5
	c0.9-1.2,1.3-3.2,1.2-4.2c-0.2-3.5-4.7-6.1-6.7-8.4c-1-0.2-0.9,0-1.5-0.2c-4-3.1-9.1-4.4-14.9-5.2c-1.8-0.8-4.8-1.6-6.5-1.7
	c0.3,1.6,0.9,2.9,1.7,4c-0.5,0.7-1.4,1-2,1.5c-0.8-0.2-1.1-1.7-2-1c0.3,2.3-0.3,4.4-0.5,5.7c-0.2,1.5,0.2,3.2-0.7,4.2
	c-0.7-0.2-1.3-0.4-1.7-0.7c-0.2-3.6,1.8-7,0.5-10.2c0.6-0.7,0.3-1.9,0.5-2.5c-1.3-1.9-1.2-4.3-2.2-6.2c-0.4-0.7-1.2-1-1.7-1.7
	c-1.6-2.1-2.8-4.3-4.2-6.2c-2-2.7-3.7-5.7-6.2-7.9c0,1.4,0.3,3.3-1,3.5c-1.4-0.2-1.5-1.7-1.7-3c-2.5-2.8-3.6-6.8-6.7-8.9
	C352.7,7.1,352.8,9.1,353.6,11.2z M440.3,7.7c-3.9,2.3-9.5,2.6-14.1,3.5c2.9,2.9,8,0,10.7-1c1.6-0.6,3.7-0.5,4.5-1.7
	C441.4,7.8,441,7.6,440.3,7.7z M237.5,10.7c2.8,16,4.3,32.3,6.2,48.6c0.3,0.8,1,1.1,1,2.2c-1.2,2.4-1,5-1,7.9
	c0.1,5.2,0.6,10.6,0.7,16.6c1.3-1,3.3-1.6,5.2-0.7c1.3-0.6,1.6-2,2.2-3.2c1.7-0.2,2.2-1.6,3.5-2.2c6.2-0.6,10.4-3.2,15.4-5
	c0.6-1.4,2.1-1.9,2.5-3.5c2.3-0.7,3.8-2.2,5.2-3.7c0.7-0.6-0.5-1.6,0.2-2.2c0.7-0.9,3.1-1.3,3-3c-0.1-1-2.7-2.2-4-3.2
	c-4.2-3.4-8-7.8-10.9-11.4c-5-6.1-8.9-11.9-12.6-17.1c0.1-0.9,0-1.6-0.2-2.2c-3-5-5.1-10.9-8.2-15.9c-0.3-0.5-0.2-1.4-0.5-2
	C243.2,9.4,239.8,10.1,237.5,10.7z M220.4,14.4c3.2,1,0.7,6-2.7,5c-0.7-1.6-0.8-2.7-0.2-4.5c-2.1-0.5-3.2,0.4-5,1
	c-1.8,2.4-3.6,4.3-4,7.4c-0.1,0.6,0.6,1.9,0.5,2.7c-0.1,0.6-0.5,0.5-0.5,1c0.1,1.8,0.8,3.4,0.5,5.2c-0.1,0.8-0.7,1.4-0.7,2.2
	c-0.2,1.2,0.7,1.3,0.5,2.5c-0.8,0.1-1.7,0.9-2.5,0.2c-0.1-1.5,0.4-2.2,1-3c-0.8-3.2,0.4-8.6-0.5-12.6c-4.5,1.3-8.9,2.7-10.9,6.4
	c-2.2,0.9-3.8,2.5-5,4.5c-0.4,1.5,0.4,2.7,0.2,4.2c-0.1,0.5-0.6,1.2-0.7,1.7c-0.8,3.4,1.3,4.7,2.2,6.9c0.3,0.6,0,1.3,0.2,2
	c0.3,0.8,1,1.5,1.2,2.2c0.2,0.6,0.1,1.4,0.2,2c1,3,3.1,5.1,4.2,7.4c-0.7,1.3,0.6,2.5,1,3.5c-0.4,0.6-0.1,1.5,0,2.7
	c1.6,0.9,3.4,2.5,3,4.5c-0.4,2-3.1,2.3-5,1.5c-0.3-1.7-1-2-0.7-3.5c0.2-1.3,1.5-1.7,1.5-3c0-1-0.9-1.2-1.2-2c-0.3-0.7,0.3-1.2-0.2-2
	c-2.2-2.4-2.1-7-4.7-8.9c0.5,1.4,1.4,2.4,1.5,4.2c-0.5,0.9-1.2,1.6-2.2,2c-4.3-0.1-5-6-0.5-6.4c1.1-3.9-2.1-6.4-2.7-10.2
	c-1,0.6-1.2-0.2-2.2-0.2c-4.1,3.5-9.7,5.3-14.1,8.4c-0.5,0-1,0-1.5,0c-0.4,0.9-1.5,0.8-2.2,1.2c-4.3,2.9-8,10.7-8.7,16.4
	c-0.2,1.5,0.3,3,0,4.2c-0.2,0.8-1.3,1.2-1,2.2c0.9,1.3,2.4,2.1,2.2,4.5c1,0.1,1.3,0.9,1.7,1.5c0.9,1.3,1.8,2.9,2.7,4.2
	c0.9,1.4,2.2,2.6,3,4c0.6,1,0.9,2.2,1.5,3.2c0.6,1,1.3,1.8,2,2.7c1.3,1.9,3,3.8,3.5,6.2c1.2-0.6,1.4,1,2.2,1.5
	c11.9,9.3,24.3,18.1,38.2,25.3c2.3-2.6,4.7-5.3,6.7-8.2c2.1-3,4-6.1,5.7-9.4c2.3-2.1,4.2-4.8,6-7.4c1.7-2.6,3.8-5.8,4.5-8.9
	c0.7-3.2,0.2-5.5,0-8.4c-0.1-1.6,0-3.3-0.2-4.7c-0.7-3.2,0.3-7.1,0.5-10.2c0.2-2.6-0.5-4.6-0.7-6.9c-0.2-2,0.1-4,0-6
	c-0.4-7.2-1.3-14.5-2.2-21.6c-1.1-7.9-2.2-15.6-3.7-23.1C228.2,12.9,223.6,12.9,220.4,14.4z M202.1,17.9c-0.9,0.7-1.8,1.3-3.2,1.5
	c-0.8,1.8-3.4,1.9-4,4c1.2-0.1,1.4-1.2,2.2-1.7c2.7-1.7,6.6-1.4,8.7-3.5c0-0.3,0.4-0.6,0-0.7C204.9,18,203.4,18.3,202.1,17.9z
	 M474.3,50.8c0.7,0.1,0.6-0.5,0.7-1C474.4,49.8,474.2,50.2,474.3,50.8z M420.7,64.5c0.7-0.2,1.5-0.1,2-0.5c-1.1-1-2.1-2.2-3.2-3.2
	C419.6,62.3,420.6,62.9,420.7,64.5z M422.5,69.9c1,2,0.8,5.1,1,7.4c0.2,2.1-0.1,4,1,5c0.8-1.2,1.7-2.2,1.7-4.2
	c2.8-1.8,1.1-5.4,0-7.9C425.2,70.1,423.9,69.3,422.5,69.9z M278.9,71.2c0.6,0.3,1.1-0.8,0.5-1C279.3,70.5,279.1,70.8,278.9,71.2z
	 M275.2,75.1c-0.1,1.7,0,3.7-1.5,4c-0.8-0.6-1.1-1.7-1.7-2.5c-6.3,2.3-11.9,5.3-18.6,7.2c-0.8,0.8-1.1,2.1-2.5,2.2
	c-0.2,1.3,0.9,1.4,1,2.5c-0.5,3.7-4.3,4.1-6.7,2.5c0.9,4.6,4.4,7.4,6.9,10.4c2.7,3.1,5.3,6.2,8.4,8.9c1-1.5,1.9-3.1,1.5-4.7
	c3.7-4.3,6.1-9.9,8.7-15.4c2.5-5.4,5.8-10.8,7.2-16.4C276.5,73.8,276.3,74.9,275.2,75.1z M426.4,84.5c1.4-0.3,1.6-1.7,3-2
	c-0.3-1,0.1-2.8-1-3C427.8,81.1,426.2,83,426.4,84.5z M428.7,86.3c0.3-0.4,1.2,0.6,2.2,0.2c0.2-0.4,0.1-2.1-0.5-2.5
	C430.2,85,428.2,85.4,428.7,86.3z M473.3,86.8c0.2,1.9-0.8,4.4-0.5,7.2c0.8,0.8,1.2,2.1,2,3c0.5-3.8,0.7-7.7,0.5-10.2
	C474.9,86.4,473.7,86.4,473.3,86.8z M420.2,88.3c0.6,0,1,1.5,1.5,0.7c-0.1-0.2-0.2-1.2,0-1.5C420.9,87.4,420.7,87.9,420.2,88.3z
	 M427.7,87.5c-0.6,3.1-1.8,5.7-3.2,7.9c0.7,2.5,1.6,4.9,2.5,7.2c1.1-0.5,1.7-1.4,2.7-2.2c0.8-0.7,2.2-1.3,2.5-2.5
	c0.3-1.3-0.3-3.2-0.5-4.7c-0.2-1.7-0.3-3.2-0.5-5C430.1,87.9,429.2,87.4,427.7,87.5z M433.9,96.2c2.4-1.7,4.6-3.7,6.4-6
	c-2.4-0.5-4.6-1.1-7.2-1.5C432.9,90.8,433.8,93.7,433.9,96.2z M422.2,94.7c-2.3,4.5-6.3,7.3-7.4,12.9c2.3-0.2,5-1.2,6.4-1.7
	c1.6-0.5,3.9-0.4,4.7-2c0.1-1-0.5-1.3-0.7-2c-1.8,1.7-6.1,1.8-6-1.7c1.7-1.5,4-2.3,4-5.5C422.9,94.7,422.6,94.7,422.2,94.7z
	 M424.2,98.9c-0.3,0-0.3-0.4-0.2-0.7C422.6,98,423.8,99.7,424.2,98.9z M243.5,99.9c0,3.6,0.7,6,1.2,9.2c0.9,5.9,2.3,11.5,3.2,17.1
	c0.2,1.1-0.1,2.5,1,3.2c3.4-4.5,7.3-8.4,9.7-13.9c-4.3-5.8-10.1-10.3-14.1-16.4c-0.2,0-0.5,0-0.7,0
	C243.7,99.5,243.6,99.7,243.5,99.9z M237.8,103.4c0.4,0.8,1.3,2.5,0.7,3.5c-0.2,0-0.3,0.2-0.5,0.2c-1.2,0.1-0.9-1.4-1.2-2.2
	c-1.8,0.4-1.7,2.6-2.2,4.2c-0.6,0.1-0.5-0.5-1.2-0.2c-4.5,6.8-8.9,13.7-13.6,20.3c0.9,0.5,1.7,1.1,2.7,1.5c1,2.2,3.1,2.7,5,4
	c2.6,1.7,5.8,3.7,7.9,5.7c1.2,1.1,2.9,1.6,4.5,2.2c0.5-1.6,2.2-2,2-4.2c1.6-1.5,3.1-3.2,4.2-5.2c-0.1-0.7-0.9-0.8-0.7-1.7
	c0-10.5-2.9-20.2-4.5-30C239.3,101.6,238.6,102.5,237.8,103.4z M179.3,108.3c-0.1-0.3-0.3-0.2-0.5,0c-0.8,0.8,0.6,0.9,0.5,1.7
	c-0.5,0.4-1,0.8-1.7,1c-1,0.2-0.4-1.1-1.5-0.7c-0.4,4,0.6,7.3,0.2,10.4c-0.1,0.8-0.6,1.5-0.7,2.2c-0.1,0.4,0.4,1.5,0.2,2.2
	c-0.1,0.4-0.7,0.9-0.7,1.2c0,0.1,0.5,0.9,0.5,1.2c0.1,1.3,0,2.5,0.7,4c0.2,0.8-0.7,0.5-0.5,1.2c1,0.6,0.4,1.7,0.5,2.5
	c0.7,4.4,2.5,9.9,3.5,13.6c0.3,1.3,0.1,2.7,1,3.7c1.1-1.2,2.1-2.5,4-3c1.4-1.5,2.5-2.9,4-3.5c0.3-0.1,1.4-0.5,2-0.5
	c2.2,0,4.2,2.2,5.9,2c1.8-0.3,2.3-2.4,3.2-4c4.6-4.4,9.2-8.7,12.9-13.9C200.7,123.6,190.1,115.9,179.3,108.3z M270.2,130.2
	c-3.6-3.8-5.4-10.1-10.2-11.9c0,0.4-0.6,0.2-0.7,0.5c-1.8,3.3-5.6,8.2-8.2,11.7c-1.1,1.5-2.5,2.8-2.7,4c-0.3,1.3,0.2,3.5,0.2,5.2
	c0.1,2.8,0.4,5.8,0.3,8.7c4.1,1.7,8.9,2,12.9,4c1.2,0.6,2.3,1.6,3.5,2.2c4,2,7.6,4.2,11.4,5.9c-0.6-6.5-1.9-12.4-2.7-18.8
	c-0.5-0.4-1.4-0.3-1.7-0.7c-1.7,0.8-2.3,2.7-3.5,4c-1.5-1.5,0.3-3.6,1-4.5c-0.7-0.7-2.3-0.5-2.7-1.5c0.3-0.7-0.3-1.7,0.7-2
	c1.8,0.2,2.4,1.6,4.2,1.7C273.4,136.1,270.1,133.6,270.2,130.2z M284.1,134.6c-0.2-1.1-2.2-1.9-3.5-2.5c-2.1-1-3.1-0.7-4.7,0.2
	c0,3.6,2,5.3,3.5,7.4c1,0.2,1.3-0.4,2.2-0.2C282.4,137.7,284.6,136.7,284.1,134.6z M231.1,143.1c-3.1-3.2-6.3-6.4-11.4-7.7
	c-1.2-1-2-2.5-3.7-3c-5.3,7.1-12.2,12.6-15.9,21.3c0.7,1.7-0.2,2.6-0.5,3.7c-0.5,2-0.7,4.9-1,7.4c-0.5,3.6-0.9,7-0.5,10.2
	c-0.3,0.6-1,0.8-1.2,1.5c-0.4,5-2.3,10.9-1.2,15.9c-1,0.9-0.2,3,0,4.2c-1.7,2.7,1,7.1-0.5,8.9c0.8,2.6,1.3,4.4,0.7,6.9
	c0.6,1.5,1.1,3.2,1.5,5c-1-0.2-1.4,0.2-2.2,0.2c0.1-5.2-2.6-7-1.5-12.1c0.1-0.9-0.9-0.6-0.7-1.5c1.1-2.9-0.3-5.6-0.5-8.2
	c-0.1-1.4,0.8-2.9-0.2-4.2c1.2-0.8,0.6-2.7,0.7-4.2c0.4-4.1,1.8-8.3,2.2-12.1c0.3-1.1-0.8-0.8-0.7-1.7c2.6-3.7,2.4-10.2,3.2-15.6
	c-0.7-0.7-1.8-1-2.2-2c-0.3,0.8-0.5,1.7-0.7,2.5c-0.3,0.6-1.5,0.2-1.2,1.2c0,0.2,0,0.3-0.2,0.2c0.6,2.2,1.4,2.9,1,4.5
	c-1,3.8-7.1,2.8-6.2-1.5c0.3-1.6,1.9-1.9,3.5-2.7c-0.8-2.6,2.2-4,2.7-6.7c-4.3,2.8-9.2,6.2-9.2,12.6c0,1.2,0.6,2.6,0.5,3.7
	c-0.1,0.7-0.5,1.1-0.5,1.7c0,0.9,0.5,1.9,0.5,2.7c0,0.3-0.4,0.3-0.5,0.5c-0.4,1.2,0.3,3.8,0.2,5c0,0.6-0.4,0.9-0.5,1.5
	c0,0.3,0.5,0.8,0.5,1.2c0,0.5-0.5,0.6-0.5,1c0,0.8,0.4,1.7,0.5,2.5c-1.2,3.6-0.6,9-0.7,14.1c-1.4,1.4-1.2,4.4-1.2,7.2
	c0.1,0.9-1.1,0.5-0.7,1.7c0.5,0.6,1.6,0.5,2,1.2c0.7,1.5,0,3.2-1.2,3.5c-1.1-0.8-3,0.5-3.7-1.5c0-0.1,0.3-1,0-1.5
	c0.2-1.1,1.8-0.8,2-2c-0.2-0.6-0.7-0.9-0.7-1.7c2-5.7,0.9-12.4,2.2-19.3c-2.9-0.8-3.5-5-0.2-5.5c-0.2-4.2-0.1-7,0.2-11.2
	c-0.4-0.8-1-1.5-1.7-2c-0.4-4.7-1-9.3-2.5-12.9c-1.4,0.5-2.6,1-3.7,1.7c0.7,0.9,1.5,1.8,1,3.2c1.4,0.9,1.9,1.8,1.5,4
	c-2.3,2.7-7.1,0.8-6.4-2.7c0.3-1.5,1.8-1.3,2.2-3c-1.5-0.9-3,0.4-4.2,1c-9.6,4.7-18.8,10.6-26.5,16.9c-0.3-0.2-0.7-0.3-1.2-0.2
	c-9.4,6.5-17.3,14.6-26.8,21.1c-0.8,0.1-0.8-0.5-1.2,0c1.3,2.2,0.6,5.2-2.2,5.2c0.4,8.7,0,18.1,2.5,25.5c2.2,1.8,4,4.1,7.4,4.7
	c2.8,3,6.4,5,9.9,7.2c7.6,4.7,14.7,10.1,22.1,14.9c0.5-0.1,0.9-0.1,1.2,0c1.5,0.6,3.1,2.7,4.7,4c1.7,1.3,3.6,2.7,5.2,3.7
	c3.4,2.3,7.5,4.2,11.4,6.2c6.6,3.3,13.3,6.7,22.1,7.7c1.7,0.2,3.2,1.6,5,2c1.9,0.4,4.1,0.1,6.2,0.2c2-1.7,4.1-0.5,6.4-0.2
	c2.1,0.3,5,0.3,7.2,0c0.7-0.1,1.3-0.5,2-0.5c1.4,0,3.2,0.5,5,0.7c1.8,0.2,3.6,0.3,5.5,0.5c8,0.9,16.6,2.3,24,2.7
	c2.8,0.2,5.7,0.6,8.2,0.2c2.8-0.4,5-2.6,6.7-4.2c2-2,2.9-4.9,5.5-5.9c0.2-4.6,0.8-9.2,1-14.9c0-0.6-1.1-0.3-0.7-1.2
	c1.2-3.9,0.6-8,1.7-11.9c-1.7-0.5-4.5-1-6.2-0.7c-0.5-0.7-1.2-1.3-2-1.7c-4.1,0.4-5.7,3.4-8.9,4.7c-1.3-1.5,0.3-2.6,1.2-3.2
	c1.6-1.1,4.4-1.8,5.2-3.5c-0.3-2-0.7-4.2,1.7-4.2c1.9,0.7-0.2,3,0,3.5c1.4,0.7,3.9,1.1,5,0.7c1,0.8,2.1,1.4,3.5,1.7
	c1.4-2.6,1.5-6.4,1.2-10.2c-0.4-5.3-1.4-10.9-2.5-14.9c-2,0.6-3,2.3-5,3c0.9,0.3,1.1,1.2,1.5,2c-1.6,1.5,0.4,1.8-0.5,3.5
	c-1.3,2.2-4.9,0.7-5-1.2c0-0.5,0.6-1.6,1.2-2c0.5-0.9,2.3,0.6,2.2-0.5c-2.5-2.6-6.5,0.7-9.4,0c-2.4,1-3.4,3.3-6.4,3.7
	c-4,2.9-5.7,7.7-7.7,12.9c-1.5,3.7-3,7.5-4.2,10.9c-2.6,2.3-4.2,5.7-7.4,7.4c0.2,0.8,0.7,1.5,0.5,2.7c-1.6,2.7-5.9,0.6-5-3
	c1-1,2.8-1.7,4-0.5c1.2-1.3,2.4-2.6,3.7-3.7c0.2-1.4,1-2.3,2-3c0.4-1.8,1.5-3.4,2.2-5c2.3-5,4.4-10,6.2-15.4
	c-4.1,0-9.7-0.3-13.1-1.7c0.4,1.4-0.1,2.7-1,3c-2.9,1-5.4-3.8-2-5c0.2,0.5,1.3,0.2,1.5,0.7c4.1-0.9,8.6,2.4,12.9,1.7
	c2.1-0.3,3.1-1.8,5-2.7c-1-1.3-1.3-3.2,0-4.5c3.8,1.1,5.2-0.9,8.7-0.5c4.2-2.7,10-5,12.9-8.9c1.6-2.1,1.4-5,1.5-8.2
	c0.1-3.6,0.4-7.5,0-11.7c-2,0.8-4.5,1.1-6,2.5c0.1,0.9,0.3,1.7,0.5,2.5c-2.4,2.7-5.9-2-2.7-3.5c3,0.6,4.6-2.4,7.2-3
	c-0.1-8.4,0-14.9-0.5-23.6c-8-5.9-15.8-12-27.8-13.9c0.7,3.5-0.4,5.9,1.2,8.7c-0.2,0.6-1.1,0.5-1,1.5c0.6,3.9,0.2,7.2-0.7,9.9
	c0.1,0.8,0.6,1.7-0.7,2c-1.1-0.7-0.5-2.4-0.5-3.7c0-1.3,0.2-2.6,0.2-4c0.1-2.4,0.5-4.6-0.2-5.9c-2.1,2.3-4,4.3-7.4,4.7
	c-0.5-0.3-0.8-2-0.2-2.5c0.6-0.6,0.8,0.5,1.7,0.2c0.9-1.4,2.5-1.2,3.5-2c0.9-0.7,1.6-2,1.7-3.5c0.1-1.1-0.8-2.7-0.7-4
	c0-1,0.8-1.4,0.5-2.5c-3.8,0.1-4.9-2.1-7.7-3.5c-2.9,2-0.5,5.5-2,8.2c0.8,1.2,2,2,1.7,3.7c-0.3,1.9-3,2.7-4.5,2.2
	c-3.2-1.1-2.2-7.7,1.5-6.7c-1.2-2-0.6-7,0.5-8.9C234.7,145.1,233.4,143.6,231.1,143.1z M241.2,144.3c1.6,1,3.4,1.7,5.5,2.2
	c-0.4-3.1,0.6-6.2-0.5-9.2C245.2,140.3,242,141.1,241.2,144.3z M279.4,157.4c0.3,1.9,0.1,4,0.5,5.2c0.8,2.1,3.5,3.1,5.5,4
	c2.4,2.7,5.8,4.5,8.9,6.4c3.2,2,6.6,3.6,9.9,5.5c1.3-1,2.9-1.6,3-3.7c-1.2-0.9-2-2.3-3.2-3.2c-1.2,0.8-0.9,1.8-2.5,2
	c-3.9,0.4-3.7-6.6,0.7-5.7c1,1.4,2.7,2.1,4,3.2c-2.7-2.9-5.6-5.5-8.2-8.4c-1.2-1.4-2-3.1-3.2-4.5c-0.5-0.6-1.4-0.9-2-1.5
	c-0.2-0.2-0.2-0.9-0.5-1.2c-0.3-0.3-0.8-0.5-1-0.7c-1.5-1.7-2.7-3.5-5-4.2c-2.3-3.2-6.2-4.8-8.7-7.9c-0.2,0-0.5,0-0.7,0
	C277.7,146.9,278.9,153.5,279.4,157.4z M413.3,181c0.1-0.5-0.1-1.3,0-2c0.1-0.6,0.7-1.3,0.7-1.7c0.4-2.6-1.1-5.6-2.2-6.9
	c-1.8-2.2-3.3-3.5-5.2-5.5c-1.3-1.4-2.6-2.8-4-4c-1.5-2.4-3.3-3.9-5.7-6.4c-2.2-2.3-4.5-4.5-6.4-6.4c-1-1-1.8-2.8-2.7-3.5
	c-1.1-0.8-2.5-0.8-3.5-1.7c0,0-0.2,0-0.2,0c-1.4,2-2.3,4.5-3.7,6.9c-1.2,2.1-2.9,4.1-3.5,6.2c-0.5,1.7-0.2,3.5-0.7,5.2
	c-0.5,1.5-1.9,3.1-2.7,4.5c-1,1.5-2,3-3,4.2c-0.1,0.8,0.4,1.1,0.2,2c-1.9,1.6-3.2,4.3-2.7,7.7c-1.2,0.4-1.8,0.9-3.5,1.2
	c-0.8-0.2-1.1-0.9-1.2-1.7c-3.3,2.7-6.6,5.6-9.4,8.4c-1,1-2.4,1.9-3,3.2c-1.8,0.5-2.8,2.3-4,3.5c-1.2,1.2-2.7,2.3-3.5,4
	c1.4,1.1,4.1,0.8,5.2,2.2c2.6,0.6,4.3-1.6,6.2-2.5c3.7,0.3,3.3,5.1,0,5.7c-1.3-0.5-1.6-2.1-2.7-2.7c-1.1,1.5-3.5,1.2-5,1
	c0.4,0.2,0.8,0.4,0.7,1c-0.9,1.1-0.8,2.2-2.2,3c0.6,4.6,1.6,8.8,1.2,14.4c5.4,0.6,9.6,2.4,15.9,2.2c1,1.1,1.4,1.5,3,2.2
	c1.2,0.6,3.3,1.5,4.7,1.5c2.5-0.1,5.3-2.1,8.4-3.2c1.4-0.5,3-0.9,4.5-1.5c1.4-0.6,2.9-1.5,4.2-1.7c0.3-0.1,1,0.3,1.2,0.2
	c1.6-0.2,2.9-1.4,4.5-1.5c0.7-0.6-0.3-1.2,0.2-1.7c3.6-3.2,5.9-7.7,8.7-11.7c-0.5-2.2,1.3-2.6,1.5-4.7c-5,0-7.8-2.1-11.9-3
	c0.3,1.3-0.7,2.5-2.2,2.7c-1.1-0.7-2.2-1.7-2-3c0.4-1.8,2.4-1.7,4-0.7c4.4-0.7,9.5,4.4,14.6,1.5c0.8-2.3,2.2-4.1,3-6.4
	c-1-0.3-2.2-0.5-2.2-1.7c1.1-0.6,1.8-0.2,3.2,0C410.9,187.2,412.8,183.4,413.3,181z M187.4,151c-1.6,1.2-3,2.7-4.5,4
	c-0.8-0.7-1.3,0.5-2.2,0.5c0.2,1.1,0.5,2.4,0.7,3.7c0.3,2.1,0.1,4.7,1.5,6c-0.6-1.4,0.4-3-0.2-4.5c0.7-0.7,1.4-1.5,1.5-2.7
	c1.5-0.9,2.1-2.4,3.5-3.5c1.6-1.2,3.8-2,5-3.7C190.7,149.5,189.3,151.1,187.4,151z M195.9,154.2c1,0.2,1.7-1.2,1-2
	C196.5,152.9,195.8,153.1,195.9,154.2z M473.6,165.4c0.2,0,0.5,0,0.7,0c0-0.3,0-0.7-0.2-0.7C474,165,473.4,164.8,473.6,165.4z
	 M476,177.5c0.2-3.1-0.2-4.3-0.5-6c-0.1-0.9,0.1-2.2-0.3-3c-0.9-2.1-2.7-1.6-4.7-1.2c-3.5,0.7-7.3,1.1-9.4,3c-1.3,1.1-2.2,2.8-3.2,4
	c-2.7,3.1-4.9,6.5-10.2,6.2c1.2,0.6,2.5,0.3,3.7,0.7c1.5,0.6,2.7,2.1,4.2,2.5c0.7-0.3,1-0.3,1.7,0c3,1.6,6.8,2.5,10.7,3.2
	c0.2-3.2-2.5-3.5-3.5-5.5c-1.6,0.2-1.9,1.6-4,1.2c-1.1-1.1-0.7-3,0.2-4c0.5-0.5,1.8-0.2,2.7-0.2c1,3.3,6.9,4,5.7,7.9
	c3.3,1.3,6,3.1,8.9,4.7c0.9-2-0.7-3.5-0.5-5.7c-1.1-0.4-2-1.2-1.7-3c0-0.8,1.5-0.2,1.2-1.2C477,179.8,476.8,178.4,476,177.5z
	 M281.4,186.2c0.2,2.6-0.7,5.4,0.5,7.9c-0.7,1.4-0.2,5.3,0,6.9c0.2,2.3-0.2,4.5,0,5.7c0.5,3.8,3.6,5.6,6.2,7.4
	c4.3,3,8.7,8.1,11.9,10.9c1,2.5,2.8,4.2,3.5,6.9c0.9,0.1,1,1,2.2,0.7c4.7-4,7.6-9.7,11.2-14.9c-1.8-1.1-0.6-2.1-2.2-3
	c-1.7,0.4-1.5,1.9-3.2,1.7c-1.4-0.1-2.5-2.1-2.2-3.7c0.2-1.1,1.1-1.3,1.5-2.2c-0.8-1.2,0.2-2.5,0.5-3.5c-1.1-0.3-0.9-1.9-2-2.2
	c-1.6-3.5-3.3-6.8-3.7-11.4c-2.6,1-3.5,3.7-6,5c-1.3,0.7-2.7,0.7-4.2,1.5c-0.3-0.9-1.4-0.3-2,0c0.4,1.5-1.1,4.5-4,3.5
	c-0.9-1.4-1.8-3.5,0-4.5c2.6,0.1,4.7,0.4,5.9-1.2c2.5,0.6,3.1-0.7,5.2-2.2c1-0.8,2.3-1.4,3-2.2c0.5-0.7,0.3-0.9,0.7-1.7
	c0.8-1.4,2.1-3.7,1.5-5.2c0.6-0.6,0.7-1.6,1-2.5c-1.3-0.4-2-1.9-3.5-2c-1.1-0.1-2.4,1.1-4,1.2c-0.5,0-1.1-0.3-1.5-0.2
	c-2.3,0.4-4.5,1.9-5.7,2.7c1.6,4.9-4.6,4.1-4.5,0.7c0-1,0.6-1.6,1.5-2.2c1,0,2,0,2.7,0.2c1.6-0.9,3.5-2.1,5.5-2.7
	c1.4-0.5,3.1-0.2,4-1.5c-5-2.9-9.7-6-15.1-8.4c-1.7,1,0.2,4.9-0.7,5.7c-1.7-0.1-1.6-2-1.7-3.7c-0.9-0.9-1.2-2.3-1.2-3.5
	c-0.8-0.3-0.9-1.4-1.5-2c-0.2,0-0.5,0-0.7,0C280.3,175,281,181.4,281.4,186.2z M327.8,191.4c-1.2-1.3-2.2-2.8-3.5-4
	c-0.4,0-0.8,0-1.2,0c-3.2-4.5-6.9-8.4-10.7-12.4c-1.5,0.1-1.6,1.7-3.2,1.7c-0.2,1.7-0.2,3.4-0.5,5c4.1,2.4,8.1,4.8,12.9,6.4
	c0.2,0.7,0.8,1.1,1,1.7c3.4,1.3,5.4,4,8.9,5.2C330.7,193.4,328.9,192.7,327.8,191.4z M305.7,180c0.7,0,0.8,0.6,1.5,0.7
	c-0.3-1.1,0.8-2.1-0.2-2.5C306.7,179,305.7,179,305.7,180z M308.2,187.4c-3.3,5.4-0.1,13.2,3,16.6c-0.7,1.5,1.3,1.2,0.5,3
	c1.6,0.3,3,0.8,3.2,2.5c-0.2,0.8-0.7,1.3-1.2,1.7c0.2,0.4,0.9,2.4,1,2.5c0.9,1,2.8,0.7,3.5,2c5.1-5.2,9.9-10.8,14.1-16.9
	c-2.1-0.6-3.2-2.3-5.5-2.7c-1.3-2-4.5-2.2-6-4c-0.9,0-0.7,0.3-1.5,0c-3-2.9-7.1-4.8-10.9-6.9C308.2,185.8,308.2,186.2,308.2,187.4z
	 M46.6,220.2c-2.6-5.5-7.1-11.1-10.7-17.6c-1.6-2.9-2.9-5.8-5-9.2c-1.1-1.7-4.3-7.5-6.2-7.9c-2.1-0.5-4.3,1.2-5.5,1.7
	c-4,1.8-9.2,2.7-12.9,4c0.2,0.9,0.3,1.9,0.5,2.7c2.7-0.4,3.5,1.2,4.2,2.7c0.3,0.7-1.3,1.2-0.7,2.2c5.5,3.6,11,7.2,16.6,10.7
	c0.3,0.3,0.2,1.2,0.5,1.5c10,8.8,17.2,20.4,31.5,25c1.5,1,3.4,3.9,5.2,1.7C57.8,232.4,52.2,226.3,46.6,220.2z M412.3,196.4
	c0.9-0.2,2.6,0.4,2.7-0.5c-0.8-0.5-0.7-2-1.5-2.5C413.2,194.4,412.4,195.1,412.3,196.4z M3.7,195.4c0.5,0.1,0.8,0.7,1.2,0.2
	C5,194.8,4,194.8,3.7,195.4z M333.5,196.1C334.3,196.9,334.2,195.2,333.5,196.1L333.5,196.1z M411.3,197.9
	c-3.4,6.9-7.7,13-11.2,19.8c1.9,0,3.2,0.4,4.7,0.7c0.9-0.8,2-1.5,3.7-1.5c2.3,1.9,0.3,5.9-2.2,5.9c-1.1-0.6-1.7-1.7-2-3.2
	c-1.5-0.4-3.1-0.7-5-0.7c-1.7,1.4-2.6,3.6-3.7,5.5c-1,1.7-2.3,3.1-3.2,4.7c-0.4,0.6-1.6,1.4-0.7,2.2c1.1,0.4,2-0.8,3-1.2
	c3.9-1.9,9-3.5,11.9-6c5.6-1.9,10.9-4.3,16.4-6.4c5.6-2.2,11.5-3.7,17.4-5.7c-1.9-2.2-4.8-2.8-7.2-4.5c-0.7-0.5-1.2-1.5-2-2
	c-0.3-0.2-1,0-1.5-0.2c-0.5-0.3-0.6-0.6-1-0.7c-0.5-0.2-1.2-0.2-1.7-0.5c-0.7,0.2-0.9,1-2,0.7c-0.6-0.5,0.5-1.4-0.2-2
	C420,201.5,417.6,196.7,411.3,197.9z M345.9,201.3c-1.5-0.4-2.4-1.4-4.2-1.5C342.2,201,344.8,201.4,345.9,201.3z M343.9,209.8
	c-0.1-0.4,0.1-1.1,0-1.5c-0.5-1.3-3.5-4.7-4.7-4.7c-1.3,0-3,1.9-3.5,3c-0.5,1.1-0.1,2.8-0.7,4c-0.5,0.9-1.7,0.8-2,1.7
	c0.4,1.2,0.2,2.7,0,4c3.1,1.7,7.7,3.4,11.9,3.2C345.4,215.5,344.3,212.4,343.9,209.8z M23.1,213c-1.1-1.6-2.8-3.9-4.7-4
	C20,210.3,20.6,212.5,23.1,213z M475.5,210.7c0.2,1-0.4,2.7,0.5,3c0.2-1.4,2.1-1.2,2.2-2.7C477.7,210.1,476.5,210.8,475.5,210.7z
	 M283.6,242.7c5,1.3,9-1.6,11.9-4c2.4-0.8,4.6-1.8,6.9-2.7c-0.8-4.8-3.1-8.3-5.5-11.2c-0.8-1-1.5-1.9-2.2-2.7
	c-3.9-4.6-8.5-7.1-12.6-11.2c-0.2,0-0.5,0-0.7,0C281.5,222.6,284.5,231.2,283.6,242.7z M332.2,212.2c0.1-0.5,0.5-0.6,0.5-1.2
	C332,210.9,331.4,212.1,332.2,212.2z M277.9,212.2c-2.1,3.2-6.1,4.5-8.7,7.2c3.7-0.6,5.9-2.7,8.9-4c0.1-1.1,0.2-2.2,0.5-3.2
	C278.4,212.2,278.2,212.2,277.9,212.2z M476.8,216.4c0.4,0.5,0.4,1.4,0.7,2c0.9-0.1,0.7-1.3,1.5-1.5c0-0.8-0.8-0.7-0.5-1.7
	C477.4,215.1,476.9,215.6,476.8,216.4z M327.5,217.2c-0.9,1.5-2.8,2-3,4.2c1.1-0.1,1.5,0.4,2.7,0.2c0.7-1.4,4-0.1,4.5-1.7
	C332,218.3,329.4,217.5,327.5,217.2z M471.8,223.6c-0.5,0.3-1.5,0.2-1.5,1c2.7-1,7.9-3.9,4.5-6.2
	C474.1,220.5,471.7,220.8,471.8,223.6z M333.5,220.4c0.1,0.7,1.7,0.2,2,1.2c-0.5,3.7,4.2,4.4,1.7,7.9c1.6,1.5,3.5,2.6,5.2,4
	c1.1-3.5,2-7.2,2.2-11.7C340.9,221.5,337.2,220,333.5,220.4z M389,224.6c1.1-0.6,2.3-2.4,2-3.7C389,221.6,387.3,222.7,389,224.6z
	 M345.9,234c0,1-1.3,0.7-1.5,1.5c4,3,7.6,7.8,14.4,6.7c4.8-0.8,6.9-5.3,10.4-7.7c-1-4-3-7.1-6.4-8.7c-0.2,0.4-0.8,0.4-1.2,0.5
	c-4-2.3-9.6-2.9-14.9-4C346.4,226.3,345.3,230.1,345.9,234z M323.1,222.6c-1.2,2-2.8,3.6-3.7,6c2.5,0.2,4-2.6,5.5-4.2
	C324.4,223.6,324.3,222.6,323.1,222.6z M326.8,224.1c-1.2,0.6-1,2.3-1.7,3.2c-1,1.3-2.7,1.3-4,2.5c4.1,0.3,10.2,0,14.9,0.5
	c0.7-1.7,0.8-5.1-1.5-5.7c-0.8,0.1-1.2,0.6-2.2,0.5c-1.1-0.2-0.7-1.8-1.7-2C330,224.2,328.5,224.2,326.8,224.1z M384.3,225.4
	c-0.3-1.1,1.6-1.8,0-2c-5.1,1.4-9.7,3.4-14.9,4.7c0,0.4-0.2,0.6-0.5,0.7c0.9,3.1,2.2,5.9,3,9.2c3.1-0.5,5.6-1.6,8.7-2.2
	c0-0.7,0-1.5,0-2.2c2.8-0.9,4.6-2.8,5.7-5.5C385.3,227.5,384.6,226.6,384.3,225.4z M316.6,234c-3.7,3.9-5.8,9.4-9.2,13.6
	c0.1,0.9,0.6,1.4,0.7,2.2c-1.2,1.4,0.4,4.8-0.7,6.7c2,1.2,5.2,0.6,6.9,0.2c3.9-0.9,11-1.1,13.4-3c4.5-0.4,9.2-1.6,13.6-3
	c5.1-1.5,11.8-2.9,14.6-6.2c0.6,0,1.3,0,1.2-0.7c-6.6-0.3-9.4-4.3-13.9-6.7c0.2,1-0.9,0.8-1.5,1.5c-0.8,0.9-1.4,3.3-3.2,2.2
	c-0.1-1.4,1.4-1.2,1.5-2.5c0.4-1.1,0.9-2.1,1.5-3c-2.4-0.9-3.5-3.5-6.7-4c-4.7-0.8-10,1.3-13.9-0.2
	C321.6,234.2,318.7,235.3,316.6,234z M303.5,234.3c0.2,0,0.3,0,0.5,0c0-0.2,0-0.3,0.2-0.2c0-0.2,0-0.3,0-0.5
	C303.3,233.2,303.2,233.4,303.5,234.3z M176,275.2c-5.8-2.6-10.8-6-16.1-8.7c-2.6-2.6-6.3-4.1-9.7-6c0.2-0.9-0.3-1-0.5-1.5
	c-1.5-0.7-2.8-1.7-4.2-2.7c-5.4-3.9-11.4-7.9-17.1-11.2c-2.3-1.3-4.7-2.9-6.7-4c-0.8-0.4-1.7-0.6-2.5-1c-1.5-0.8-2.5-2.2-4-3.2
	c-2.1-1.5-7-2.1-9.2-2c-6.7,0.4-14.7,1.6-21.1,2.7c-2.3,0.4-4.5,1.3-6.7,1.5c-0.5,0.1-1.2-0.3-1.7-0.2c-2.2,0.1-4.1,1.3-6,1.2
	c-2.6,5.2,4.2,9,8.9,7.7c0.1,0.8,0.9,1.7,0.5,2.2c0,0.7-1.7-0.2-1.7,0.5c0.6,1.6,2.6,2.2,3.5,3.5c0.6,0.9,0.7,1.9,1.2,3
	c0.9,1.9,2.2,3.5,3.2,5.2c0.6,1,0.9,2.1,1.5,3c1.1,1.6,3.7,3.3,5.7,4.7c2.1,1.5,4.4,3,6.2,4.2c2,1.4,4.1,2.9,6.2,4.2
	c2.1,1.4,4.3,3,6.9,3.5c0.1,0.7,0.6,1.1,0.7,1.7c3.1,1.5,5.9,3.4,9.4,4.5c0.5,0.3,0.5,1,1,1.2c5.3,2.7,10.4-1.6,14.1-4.2
	c0.5-0.5,0.6,0,1.2,0c0.5-0.7,1.6-2.1,2.7-3c2-1.6,4.9-1.2,5.2,2.2c0,0.6-0.7,0.7-1.2,1.2c-0.5,0.6-0.4,1.3-1.2,1.5
	c-1.6,0.4-2.3-0.5-3.7-1.2c-0.6,0.4-0.7,1.4-1.5,1.7c-4.3,1-7,3.7-11.7,4.5c0.8,1.5,3.1,1.6,3.5,3.5c-0.9-0.2-1.2,0.1-1,1
	c1.1,1.6,2.4-0.2,4-0.2c1.6,0.5,2.1,2.4,1.7,4.2c-1.2,0.6-2.5,1.1-3.5,2c1.9,2.6,3.6,5.5,5.7,7.9c-0.2,1.2,0.3,1.7,0.7,2.2
	c5.5-0.7,11-1.2,14.6-3.7c17.2-5.9,29.9-16.2,44.1-25c-2-1.6-3.3,1.1-4.5,1c-0.8-0.8-0.1-1.7,0.2-2.7
	C187.9,279.3,181.7,277.8,176,275.2z M367.2,239.5c1.1-0.2,2.3-0.4,3-1c-0.6,0.1,0.1-1.1-0.7-0.7
	C368.8,238.5,367.5,238.5,367.2,239.5z M373.1,241c0.2,0.9,0.6,1.6,0.7,2.5c1.6-0.8,2.7-2.2,3.7-3.7
	C375.9,240.4,374.8,240.5,373.1,241z M303.2,240.5c-1.2,1.7-4,1.8-5.5,3.2c-0.3,0-0.7,0-1,0c0,2.2,0.7,3.5,2.5,4.5
	c1.7-2.3,3.4-4.7,4.7-7.4C303.7,240.7,303.6,240.4,303.2,240.5z M359.5,246.2c0.5,1.4-0.6,2.9-1.5,3.7c-0.7,0.2,0.3,0.6,0,1.2
	c-0.4,0.5-1.2,0.6-2.2,0.5c0.2,0.8-0.3,0.9-0.2,1.5c1.1,0.3,2.5,0.4,3.7,0.7c5.4-2,9.2-5.5,12.9-9.2c-1.2-0.4-0.8-2.4-1.7-3
	C366.9,243.4,362.4,244,359.5,246.2z M282.6,250.2c-1.1,1-0.6,2.4-0.7,4.2c-0.3,3.4-1,9.2-0.2,14.9c-0.3,0.1-1.2,0.8-0.5,1
	c2.1-2,4.4-3.9,5.7-6.7c1.1-0.7,2.4-1,2.5-2.7c-0.6-0.8-0.7,0.9-1.7,0.5c-1.1-1-0.1-2.5,0.5-3.2c0.2-2.9-0.9-6.2-0.5-8.9
	c0.2-1.6,0.5-2.5-0.2-3.7c-1.3-0.3-3-0.1-4.2-0.5C283.1,246.7,282.1,248.6,282.6,250.2z M292.8,256.4c1.8-2.3,4-4.3,5.5-6.9
	c-0.8-0.6-1.4-1.1-1-2.2c-1.2-0.4-1.5,1.3-3.2,0.5c-0.3-0.7-0.5-1.5-1.2-1.7C290.7,247.9,290.8,254.3,292.8,256.4z M303.7,253.9
	c0.5,0.7,1.1,1.4,2.2,1.5c0.3-1.1,1.1-4,0-5C305.2,251.5,304.1,252.4,303.7,253.9z M328,256.9c-0.7,0.1-0.8-0.6-1.5-0.5
	c-3.8,0.7-8.2,2.4-12.1,3.2c-1.4,0.3-2.7,0.1-4,0.7c-0.6,0.3-0.9,1.1-1.5,1.5c-1.7,1.2-2.8,1.7-4.2,3c-0.7,0.6-1.6,1.4-1.7,2.2
	c1.4,0.8,2.4-0.6,3.5-1c2.6-0.8,5.4-0.3,7.9-1c1.3-0.3,2.5-1.3,3.7-1.7c2.8-0.9,5.6-1.3,8.4-2.2c0.6-0.3,0.7-1.1,1.5-1.2
	c8.5-1.3,14.1-5.6,20.8-8.7c0.1-0.3,0.4-0.5-0.2-0.5C342.1,253.1,334.6,254.5,328,256.9z M354.3,251.9c0-0.3,0.1-0.5,0.2-0.7
	c-0.2,0-0.5,0-0.7,0C353.8,251.6,354,251.8,354.3,251.9z M299,261.3c-1.7,1.2-3.2,2.6-4.2,4.5c0.4,1.6,1.7,2.3,2,4
	c2.3-1.4,4-3.4,6.2-5c0.3-2.1,1.5-3.3,2.7-4.5c-0.4-1.2,0.7-1.3,0.5-2.5c-0.3-1.4-2.3-2.1-3.5-2.7
	C301.2,256.9,299.9,258.9,299,261.3z M356.8,261.1c0.1-1.4,2-1.2,1.5-3.2c-0.4-0.4-1.5-0.2-2.2-0.3
	C357,259.1,355.6,260.5,356.8,261.1z M291.6,269c-1.6,2.2-3.6,4-5,6.4c3.4-0.2,5.4-1.7,7.2-3.5c-0.7-0.8-1.4-1.5-1.5-3
	C292.1,269,291.8,269,291.6,269z M186.7,388.3c-0.6,0-0.7-0.4-1.5-0.2c-4.7,4.4-9,9.2-14.1,13.1c-2.4-0.5-5.1,2.2-3.2,4.5
	c2.3,0.5,4.5-0.8,6.7-1.5c2.1-0.7,4.3-1.5,6.4-2.2c5.4-1.8,12.4-3,15.9-6.4c1.1-1.1,1.7-2.7,2.7-4c2-2.6,5.1-4.1,6.4-6.9
	c1.6-3.3,0.9-7.8,2-11.4c-1.5,0.8-0.8,2.3-1.7,3.5c-0.6-0.3-0.6-1.2-1.2-1.5c1.3-1.7,2.4-4.5,3-6.7c0.2-0.9,0-1.9,0.2-2.7
	c0.2-0.5,0.8-0.9,1-1.5c0.9-2.8,0-5.6,0.7-8.2c-0.1-0.2-0.2-0.3-0.5-0.2C201.6,366.3,195,378.2,186.7,388.3z M179,405.6
	c5.2-0.5,10.3-1.1,13.1-4c0-0.3-0.1-0.6-0.5-0.5C187.6,402.8,183.1,404,179,405.6z M158.2,407.9c2.1-0.1,4.8,0.3,6.4-0.2
	C165.1,402.2,159.3,406.1,158.2,407.9z M178,409.6c1.5,0.1,1.8,1.3,3.5,1.2c0.3-1.1,1-1.8,1.7-2.5C181.6,408.9,179,408.4,178,409.6z
	 M151,412.8c-0.3-0.3-0.9-0.3-1.2,0c-1.1,1.5-2.4,2.7-3,4.7c6.4,0.7,6.7-4.7,11.2-6c0-1,0.7-1.3,1.2-1.7
	C154.7,409.1,152.9,411,151,412.8z M159.9,414c-0.3,0.2-0.9-0.1-0.7,0.5c1.1-0.3,1.2,0.4,2,0.5c0.5-0.7,0.9-1.5,2.2-1.2
	c0.3-0.8,1.5-1.9,1.2-2.5C163.2,411.5,161.5,413.2,159.9,414z"/>
<path d="M0,132.4c0-2,0-4,0-6c0.4,0.4,0.4,1.1,0.5,1.7c3.2-3,5.4-7.4,4.5-13.9c-0.9-1.5-2.9-1.9-2.5-4.7c0.3-1,2-0.5,2.2-1.5
	c1.1-2.1-0.5-3.5-1-5.2c-0.4-1.6-0.2-2.7-1-3.7C1.6,98.9,0.9,98,0,97.4c0-0.7,0-1.5,0-2.2c0.2,0.1,0.4,0.3,0.7,0.2
	c0.5-0.6-0.1-1.7-0.7-2c0-3.9,0-7.8,0-11.7c3.5,1.8,8.3,3.5,13.4,4.2c1.6,0.2,3.4-0.1,5,0.2c2.3,0.4,4.5,1.6,6.7,2.2
	c1.7,0.5,3.4,0.3,4.7,0.7c2.4,0.8,4,3.6,6.4,3.5c2.1-0.1,5.4-3.4,6.4-5c1.4-0.6,2.6-1.5,3.5-2.7c0.3-2.6-1-4.9-1.5-7.2
	c-0.1-0.5,0.3-0.9,0.2-1.5c0-0.8-0.5-1.4-0.5-2c0-0.6,0.7-1.5,0.7-2.5c0.1-1.3,0-2.5,1.2-3.5c4.6-1.4,7.9,6.5,2.7,6.9
	c-0.8,0.1-0.9-0.3-1.5-0.5c-0.1,0-0.9-0.9-1,0c1,3.8,0.3,9,1.7,11.2c4.2-0.2,10.7,0.4,14.9,0.2c1.3,0.8,3.4,1.1,5.2,0.7
	c1.6,0.9,3.3,1.7,5,2.5c5.2-2,5.5,5.1,1,5.5c-1.7-0.7-2.2-2.9-2-4.7c-2.3-1.4-6.7-1.6-9.7-1c-4.7-1.5-11.6-2-16.4-0.7
	c-2.8,2.8-6.2,5-10.4,6.4c-0.4,1.6,1.3,3,2.2,4.7c0.5,1,0.6,2.1,1.2,3c1.1,1.7,3.9,4,5.2,4c1.6,0,2-1.6,3.5-2.2
	c1.6,0.7,2.7-1.2,4-1.7c2.6,0.3,3.4-0.4,6,0c1.2-3.4,5.8-1.2,4.7,2.5c-0.2,0.6-1.8,1.9-2.5,2c-1.4,0.2-1.4-0.4-2.5-1
	c-0.5-0.6-0.1-2-1-2.2c-2.8-0.2-5.8,1.7-7.7,3.2c-0.6,0.1-1.5,0-1.5,0.7c0.9,0.3,1.3,1.2,2,1.7c3.1-0.3,4.9,0.7,6.9,2
	c2.1-0.8,4-0.7,4.7,0.7c0.9,1.7-0.4,4.4-2.5,4.5c-2.6,0-2.7-2.9-3.2-4.7c-2-0.9-3.8,0.4-6-0.7c-0.3,1.9-2.4,4-5.5,3
	c-0.1-0.9-1.1-0.9-1.2-1.7c0.6-1.7-1-1.4-0.7-3.2c-1-0.4-1-1.8-2.2-2c-0.1,1.2-1.1,1.6-1.2,2.7c1,3.4,3.4,5.4,4.2,8.9
	c3.5,5.4,6.7,9.6,14.6,10.9c2.1,0.4,4.4,0.2,6.7,1c-0.2,1.3,0.6,1.9-0.2,2.5c-4.4-1.4-9.1-2.1-13.1-4c-1.3-0.6-2.4-1.7-4-1.7
	c-0.2,3.5-0.9,9.4-1,12.9c-1,1.8-2,5.2-1.5,6.9c-1.2,1.9-1.5,5.6-1.7,7.7c1.4,1.3,3.2,1.5,2.7,3.5c-0.6,2.5-7,2-6.7-1
	c0.1-1.3,1.3-1.5,2.7-2c0.9-6,1.3-10.4,2-15.9c1.4-3.7,2.5-8.4,1.7-12.1c-0.8-3.8-3.6-6.5-5.2-9.2c-0.9-2.9-2-5.6-3.5-7.9
	c-0.2-2.7-1.8-5.1-3.5-7.7c-2.4-3.6-4.2-7.6-7.2-9.9c-1.6-1.2-4-1.9-6.2-3c-0.7-0.1-0.8,0.6-1.5,0.5C12.9,89.1,6.6,88,2,86.8
	c0.2,2.4,1.2,4.1,1.7,6.2c0.9,0.8,1.7,1.6,2,3c1.3,1.5,3.3,2.4,4.2,4.2c0.9-0.1,1.4,0.1,2,0.2c0.9,1,1.7,2.1,2.7,3
	c0.3,0.5,1.5,0.1,2,0.5c0.1,0.9,0.6,1.5,0.5,2.7c1.3-0.1,1.4,0.5,2.5,0.5c1.2,0,1.8-1.3,3.2-0.7c2.7,1,0.9,5.6-2.2,5.5
	c0.7,3.1,2.8,4.8,3.5,7.9c-3.4-0.1-3.4-3.7-5-5.7c-1-0.2-1.7-0.8-2.5-1.2c-0.4-2-1.6-3.2-2.5-4.7c-2,1.3-4.5-1.1-6.4,0.2
	c-1,1.2,0.5,1.3,0.5,2.7c-3.2,8.4,3.1,17.6,10.4,20.8c0.7,1.4,2.3,2.5,3.7,3.2c0.5,0.2,1.2,0,1.7,0.2c1.2,0.5,2.3,1.8,3.5,2.5
	c1,0.5,2,0.9,3,1.5c1,0.6,2,1.3,2.7,1.5c1.1,0.3,2.5-0.6,3.2,0.7c1.8,4.5-6.1,5.7-4.2,0.2c-1.4-0.9-2.3-2.1-4-2.7
	c-1.3-0.5-3-0.4-4.2-1c-1.9-1-3.8-3.5-6.7-3.7c-1.8-2.4-4.5-3.9-6.4-6.2c-1.5-1.7-2.2-4.4-4.5-5.5C4.4,126,2.2,129.3,0,132.4z
	 M35.5,100.4C34.7,96.9,33,94.2,30,93C31.5,95.7,33.1,98.5,35.5,100.4z M12.1,105.9c-1.9,0.3-2.3-0.9-3.7-1
	C8.6,106.5,11.2,107.1,12.1,105.9z M37.9,107.6c0-0.5,0.7-0.3,0.5-1c-0.8,0.2-0.5-0.7-1.2-0.5C37.4,106.7,37.3,107.5,37.9,107.6z
	 M18.8,109.6c0-0.7,0.1-1.4-0.2-1.7c-0.4,0-0.8,0-1.2,0C17.4,108.9,18,109.3,18.8,109.6z M44.9,109.6c0-0.7-0.4-1.1-1.2-1
	C43.5,109.5,44.1,109.6,44.9,109.6z"/>
</svg>
