<?xml version="1.0" encoding="utf-8"?>
<!-- Generator: Adobe Illustrator 15.0.0, SVG Export Plug-In  -->
<!DOCTYPE svg PUBLIC "-//W3C//DTD SVG 1.1//EN" "http://www.w3.org/Graphics/SVG/1.1/DTD/svg11.dtd" [
	<!ENTITY ns_flows "http://ns.adobe.com/Flows/1.0/">
]>
<svg version="1.1"
	 xmlns="http://www.w3.org/2000/svg" xmlns:xlink="http://www.w3.org/1999/xlink" xmlns:a="http://ns.adobe.com/AdobeSVGViewerExtensions/3.0/"
	 x="0px" y="0px" width="198px" height="270px" viewBox="0 0 198 270" overflow="visible" enable-background="new 0 0 198 270"
	 xml:space="preserve">
<defs>
</defs>
<linearGradient id="sky_2_" gradientUnits="userSpaceOnUse" x1="99.0005" y1="270" x2="99.0005" y2="4.882812e-04">
	<stop  offset="0" style="stop-color:#9CCDE9"/>
	<stop  offset="0.3933" style="stop-color:#FFFFFF"/>
	<stop  offset="0.4782" style="stop-color:#F9FAFC"/>
	<stop  offset="0.5933" style="stop-color:#E8EDF3"/>
	<stop  offset="0.7258" style="stop-color:#CBD8E4"/>
	<stop  offset="0.8699" style="stop-color:#A4BAD0"/>
	<stop  offset="1" style="stop-color:#7A9ABB"/>
</linearGradient>
<rect id="sky_1_" fill="url(#sky_2_)" width="198" height="270"/>
<g id="hair_1_">
	<g>
		<path fill="none" stroke="#443300" stroke-linecap="round" stroke-linejoin="round" d="M45.5,191c6,0-5-85.673,0-85.673l1,82.952
			c1,0-6-89.679,0-89.679c0,0-6,95.638,1,95.638v-92.653c1,0-3,78.804,2,78.804c7,0-4-75.775,0-75.775l1,93.742
			c7,0-8-100.168,0-100.168c0,0-2,87.758,2,87.758V90.918c0,0-8,96.786,2,96.786s0-88.898,0-88.898s0,96.29,2,96.29
			c0,0-12-93.969,0-93.969c5,0,2,96.027,2,96.027V105.99c5,0-3,93.508,1,93.508c2,0,0-97.979,0-97.979c3,0,1,96.187,1,96.187
			c4,0,0-103.864,0-103.864s-2,94.419,2,94.419c5,0-4-96.791,0-96.791c0,0,0,102.265,1,102.265c0,0-10-93.162,0-93.162
			c6,0,1,85.992,1,85.992s-7-93.043,0-93.043l2,105.015c3,0,0-98.417,0-98.417c12,0-7,91.127,2,91.127v-88.649l1,96.163V108.94
			c1,0-8,87.892,1,87.892c4,0,0-88.068,0-88.068l2,90.344c0,0-11-90.182,0-90.182c9,0,1,88.546,1,88.546c1,0,0-95.418,0-95.418
			c1,0-5,89.886,2,89.886v-84.431c4,0-4,87.203,1,87.203c9,0-5-96.378,0-96.378c12,0-10,102.724,1,102.724c10,0,0-102.124,0-102.124
			l2,95.465c5,0,0-104.425,0-104.425l2,102.062c8,0,0-88.092,0-88.092l1,95.143c12,0-3-97.901,0-97.901c8,0,2,94.688,2,94.688
			c1,0,0-99.723,0-99.723s-10,111.914,2,111.914c10,0-3-114.844,0-114.844l1,107.658c0,0-7-101.125,0-101.125
			c11,0-11,104.353,1,104.353c6,0-13-107.641,0-107.641c2,0,1,115.722,1,115.722s-4-119.753,0-119.753c12,0,2,104.294,2,104.294
			c9,0-6-94.424,0-94.424c0,0-7,104.312,2,104.312c0,0-12-109.864,0-109.864c2,0-13,114.854,1,114.854c0,0-8-106.428,0-106.428
			l1,92.775v-97.277c0,0,0,103.682,2,103.682V101.693l2,99.724c13,0-6-100.921,0-100.921l2,97.443v-91.137c8,0,0,108.025,1,108.025
			c0,0-11-120.036,0-120.036c3,0,2,105.31,2,105.31c1,0,0-105.944,0-105.944s0,118.294,2,118.294c7,0,0-108.584,0-108.584
			s-6,100.805,2,100.805c0,0-12-98.162,0-98.162l1,94.234c12,0,0-108.095,0-108.095c10,0,2,101.611,2,101.611
			c5,0-9-104.508,0-104.508c4,0,1,111.948,1,111.948c13,0,0-97.834,0-97.834c5,0-8,103.509,1,103.509c3,0-3-108.798,0-108.798
			c0,0-11,99.363,2,99.363c11,0,0-107.898,0-107.898c9,0-6,102.945,2,102.945c0,0-11-92.907,0-92.907c8,0-11,98.731,2,98.731
			c3,0-3-104.008,0-104.008c0,0,0,108.002,1,108.002V101.65c3,0,2,98.211,2,98.211c10,0,0-96.013,0-96.013s-8,102.011,2,102.011
			c11,0-8-97.408,0-97.408c0,0-9,93.031,1,93.031c3,0-3-110.524,0-110.524c2,0-9,108.101,2,108.101c1,0-11-107.606,0-107.606
			c9,0-9,96.876,2,96.876c7,0-11-95.841,0-95.841c12,0-1,103.824,1,103.824c0,0-5-99.757,0-99.757l2,90.438c0,0-3-85.129,0-85.129
			s-3,103.098,1,103.098v-98.364c10,0-7,92.796,2,92.796V91.817l1,104.804c7,0,0-98.313,0-98.313s-1,95.881,2,95.881
			c4,0,0-100.85,0-100.85s-6,109.354,1,109.354V93.093l2,105.636V94.577l1,94.622c0,0-5-87.758,0-87.758c11,0,2,97.987,2,97.987
			c2,0-3-102.043,0-102.043l2,85.403c1,0-1-79.586,0-79.586c2,0-8,95.443,2,95.443V91.513l1,108.542c7,0,0-92.538,0-92.538
			c1,0,1,74.158,1,74.158v-77.605c0,0-9,87.757,2,87.757c0,0-1-97.826,0-97.826"/>
	</g>
</g>
<polygon id="shirt_1_" fill="#CC9933" points="71.833,198 18,225 18,270 180,270 180,225 126,198 "/>
<polygon fill="#CCCC33" points="72,171 126,171 126,207 99,243 72,207 "/>
<g>
	<path fill="#DDDD33" d="M144,135c18-27,45-54,45-81c-18,18-45,54-45,54V135z"/>
	<path fill="#EEEE66" d="M147,109.005c3.593-4.749,22.566-29.648,38.089-46.56c-3.478,16.655-16.353,33.824-28.864,50.505
		c-3.072,4.096-6.208,8.278-9.225,12.476V109.005z"/>
</g>
<g>
	<path fill="#DDDD33" d="M54,135C36,108,9,81,9,54c18,18,45,54,45,54V135z"/>
	<path fill="#EEEE66" d="M51,125.426c-3.016-4.198-6.153-8.379-9.225-12.476C29.264,96.269,16.389,79.1,12.911,62.445
		C28.433,79.356,47.408,104.256,51,109.005V125.426z"/>
</g>
<polygon fill="#DDDD33" points="47,90 45,135 99,207 153,135 151,90 99,63 "/>
<g>
	<path d="M72,132c-3.309,0-6-2.691-6-6s2.691-6,6-6s6,2.691,6,6S75.309,132,72,132z"/>
</g>
<g>
	<path d="M126,132c-3.309,0-6-2.691-6-6s2.691-6,6-6s6,2.691,6,6S129.309,132,126,132z"/>
</g>
<line fill="none" stroke="#66CC33" stroke-width="2" stroke-miterlimit="10" x1="90" y1="180" x2="108" y2="180"/>
<path fill="#CCCCCC" stroke="#999999" stroke-width="2" stroke-miterlimit="10" d="M99,18L45,90l16.212,21.616
	C64.22,109.355,67.947,108,72,108c9.941,0,18,8.059,18,18c0,5.889-2.84,11.1-7.212,14.385L99,162l16.212-21.615
	C110.84,137.1,108,131.889,108,126c0-9.941,8.059-18,18-18c4.053,0,7.779,1.355,10.788,3.616L153,90L99,18z"/>
<g>
	<g>
		<g>
			<path fill="#CC3333" d="M99,97c-3.86,0-7-3.14-7-7s3.14-7,7-7c3.859,0,7,3.14,7,7S102.859,97,99,97z"/>
			<path fill="#CC3333" d="M99,97c-3.86,0-7-3.14-7-7s3.14-7,7-7c3.859,0,7,3.14,7,7S102.859,97,99,97z"/>
		</g>
		<g>
			<g>
				<g>
					<path fill="#CC3333" d="M99,121c-2.206,0-4-1.794-4-4s1.794-4,4-4c2.206,0,4,1.794,4,4S101.206,121,99,121z"/>
					<path fill="#CC3333" d="M99,121c-2.206,0-4-1.794-4-4s1.794-4,4-4c2.206,0,4,1.794,4,4S101.206,121,99,121z"/>
				</g>
				<g>
					<path fill="#CC3333" d="M99,148c-2.206,0-4-1.794-4-4s1.794-4,4-4c2.206,0,4,1.794,4,4S101.206,148,99,148z"/>
					<path fill="#CC3333" d="M99,148c-2.206,0-4-1.794-4-4s1.794-4,4-4c2.206,0,4,1.794,4,4S101.206,148,99,148z"/>
				</g>
				<g>
					<path fill="#CC3333" d="M99,67c-2.206,0-4-1.794-4-4s1.794-4,4-4c2.206,0,4,1.794,4,4S101.206,67,99,67z"/>
					<path fill="#CC3333" d="M99,67c-2.206,0-4-1.794-4-4s1.794-4,4-4c2.206,0,4,1.794,4,4S101.206,67,99,67z"/>
				</g>
				<g>
					<path fill="#CC3333" d="M99,40c-2.206,0-4-1.794-4-4s1.794-4,4-4c2.206,0,4,1.794,4,4S101.206,40,99,40z"/>
					<path fill="#CC3333" d="M99,40c-2.206,0-4-1.794-4-4s1.794-4,4-4c2.206,0,4,1.794,4,4S101.206,40,99,40z"/>
				</g>
			</g>
			<g>
				<g>
					<path fill="#CC3333" d="M99,121c-2.206,0-4-1.794-4-4s1.794-4,4-4c2.206,0,4,1.794,4,4S101.206,121,99,121z"/>
					<path fill="#CC3333" d="M99,121c-2.206,0-4-1.794-4-4s1.794-4,4-4c2.206,0,4,1.794,4,4S101.206,121,99,121z"/>
				</g>
				<g>
					<path fill="#CC3333" d="M99,148c-2.206,0-4-1.794-4-4s1.794-4,4-4c2.206,0,4,1.794,4,4S101.206,148,99,148z"/>
					<path fill="#CC3333" d="M99,148c-2.206,0-4-1.794-4-4s1.794-4,4-4c2.206,0,4,1.794,4,4S101.206,148,99,148z"/>
				</g>
				<g>
					<path fill="#CC3333" d="M99,67c-2.206,0-4-1.794-4-4s1.794-4,4-4c2.206,0,4,1.794,4,4S101.206,67,99,67z"/>
					<path fill="#CC3333" d="M99,67c-2.206,0-4-1.794-4-4s1.794-4,4-4c2.206,0,4,1.794,4,4S101.206,67,99,67z"/>
				</g>
				<g>
					<path fill="#CC3333" d="M99,40c-2.206,0-4-1.794-4-4s1.794-4,4-4c2.206,0,4,1.794,4,4S101.206,40,99,40z"/>
					<path fill="#CC3333" d="M99,40c-2.206,0-4-1.794-4-4s1.794-4,4-4c2.206,0,4,1.794,4,4S101.206,40,99,40z"/>
				</g>
			</g>
			<g>
				<g>
					<path fill="#CC3333" d="M99,121c-2.206,0-4-1.794-4-4s1.794-4,4-4c2.206,0,4,1.794,4,4S101.206,121,99,121z"/>
					<path fill="#CC3333" d="M99,121c-2.206,0-4-1.794-4-4s1.794-4,4-4c2.206,0,4,1.794,4,4S101.206,121,99,121z"/>
				</g>
				<g>
					<path fill="#CC3333" d="M99,148c-2.206,0-4-1.794-4-4s1.794-4,4-4c2.206,0,4,1.794,4,4S101.206,148,99,148z"/>
					<path fill="#CC3333" d="M99,148c-2.206,0-4-1.794-4-4s1.794-4,4-4c2.206,0,4,1.794,4,4S101.206,148,99,148z"/>
				</g>
				<g>
					<path fill="#CC3333" d="M99,67c-2.206,0-4-1.794-4-4s1.794-4,4-4c2.206,0,4,1.794,4,4S101.206,67,99,67z"/>
					<path fill="#CC3333" d="M99,67c-2.206,0-4-1.794-4-4s1.794-4,4-4c2.206,0,4,1.794,4,4S101.206,67,99,67z"/>
				</g>
				<g>
					<path fill="#CC3333" d="M99,40c-2.206,0-4-1.794-4-4s1.794-4,4-4c2.206,0,4,1.794,4,4S101.206,40,99,40z"/>
					<path fill="#CC3333" d="M99,40c-2.206,0-4-1.794-4-4s1.794-4,4-4c2.206,0,4,1.794,4,4S101.206,40,99,40z"/>
				</g>
			</g>
		</g>
	</g>
</g>
</svg>
