<?xml version="1.0" encoding="utf-8"?>
<!-- Generator: Adobe Illustrator 15.0.0, SVG Export Plug-In  -->
<!DOCTYPE svg PUBLIC "-//W3C//DTD SVG 1.1//EN" "http://www.w3.org/Graphics/SVG/1.1/DTD/svg11.dtd" [
	<!ENTITY ns_flows "http://ns.adobe.com/Flows/1.0/">
]>
<svg version="1.1"
	 xmlns="http://www.w3.org/2000/svg" xmlns:xlink="http://www.w3.org/1999/xlink" xmlns:a="http://ns.adobe.com/AdobeSVGViewerExtensions/3.0/"
	 x="0px" y="0px" width="180px" height="180px" viewBox="78.6 78.6 180 180"
	 style="overflow:visible;enable-background:new 78.6 78.6 180 180;" xml:space="preserve">
<style type="text/css">
<![CDATA[
	.st0{fill:#333;}
	.st1{fill:#dc6;}
	.st2{fill:#ddd;}
]]>
</style>
<defs>
</defs>
<rect x="78.6" y="78.6" class="st0" width="180" height="180"/>
<g id="unit_9_">
	<g>
		<g>
			<polygon class="st2" points="90,176.6 98,168.6 90,160.6 105.2,160.6 113.2,168.6 105.2,176.6 			"/>
			<polygon class="st2" points="90,176.6 98,168.6 90,160.6 105.2,160.6 113.2,168.6 105.2,176.6 			"/>
		</g>
		<g>
			<polygon class="st2" points="99,185.6 116,168.6 99,151.6 114.2,151.6 131.2,168.6 114.2,185.6 			"/>
			<polygon class="st2" points="99,185.6 116,168.6 99,151.6 114.2,151.6 131.2,168.6 114.2,185.6 			"/>
		</g>
		<g>
			<polygon class="st2" points="108,194.6 134,168.6 108,142.6 123.2,142.6 149.2,168.6 123.2,194.6 			"/>
			<polygon class="st2" points="108,194.6 134,168.6 108,142.6 123.2,142.6 149.2,168.6 123.2,194.6 			"/>
		</g>
		<g>
			<polygon class="st2" points="117,203.6 152,168.6 117,133.6 132.2,133.6 167.2,168.6 132.2,203.6 			"/>
			<polygon class="st2" points="117,203.6 152,168.6 117,133.6 132.2,133.6 167.2,168.6 132.2,203.6 			"/>
		</g>
		<g>
			<polygon class="st2" points="232,176.6 224,168.6 232,160.6 247.2,160.6 239.2,168.6 247.2,176.6 			"/>
			<polygon class="st2" points="232,176.6 224,168.6 232,160.6 247.2,160.6 239.2,168.6 247.2,176.6 			"/>
		</g>
		<g>
			<polygon class="st2" points="223,185.6 206,168.6 223,151.6 238.2,151.6 221.2,168.6 238.2,185.6 			"/>
			<polygon class="st2" points="223,185.6 206,168.6 223,151.6 238.2,151.6 221.2,168.6 238.2,185.6 			"/>
		</g>
		<g>
			<polygon class="st2" points="214,194.6 188,168.6 214,142.6 229.2,142.6 203.2,168.6 229.2,194.6 			"/>
			<polygon class="st2" points="214,194.6 188,168.6 214,142.6 229.2,142.6 203.2,168.6 229.2,194.6 			"/>
		</g>
		<g>
			<polygon class="st2" points="205,203.6 170,168.6 205,133.6 220.2,133.6 185.2,168.6 220.2,203.6 			"/>
			<polygon class="st2" points="205,203.6 170,168.6 205,133.6 220.2,133.6 185.2,168.6 220.2,203.6 			"/>
		</g>
		<g>
			<polygon class="st2" points="160.6,105.2 160.6,90 168.6,98 176.6,90 176.6,105.2 168.6,113.2 			"/>
			<polygon class="st2" points="160.6,105.2 160.6,90 168.6,98 176.6,90 176.6,105.2 168.6,113.2 			"/>
		</g>
		<g>
			<polygon class="st2" points="151.6,114.2 151.6,99 168.6,116 185.6,99 185.6,114.2 168.6,131.2 			"/>
			<polygon class="st2" points="151.6,114.2 151.6,99 168.6,116 185.6,99 185.6,114.2 168.6,131.2 			"/>
		</g>
		<g>
			<polygon class="st2" points="142.6,123.2 142.6,108 168.6,134 194.6,108 194.6,123.2 168.6,149.2 			"/>
			<polygon class="st2" points="142.6,123.2 142.6,108 168.6,134 194.6,108 194.6,123.2 168.6,149.2 			"/>
		</g>
		<g>
			<polygon class="st2" points="133.6,132.2 133.6,117 168.6,152 203.6,117 203.6,132.2 168.6,167.2 			"/>
			<polygon class="st2" points="133.6,132.2 133.6,117 168.6,152 203.6,117 203.6,132.2 168.6,167.2 			"/>
		</g>
		<g>
			<polygon class="st2" points="168.6,239.2 160.6,247.2 160.6,232 168.6,224 176.6,232 176.6,247.2 			"/>
			<polygon class="st2" points="168.6,239.2 160.6,247.2 160.6,232 168.6,224 176.6,232 176.6,247.2 			"/>
		</g>
		<g>
			<polygon class="st2" points="168.6,221.2 151.6,238.2 151.6,223 168.6,206 185.6,223 185.6,238.2 			"/>
			<polygon class="st2" points="168.6,221.2 151.6,238.2 151.6,223 168.6,206 185.6,223 185.6,238.2 			"/>
		</g>
		<g>
			<polygon class="st2" points="168.6,203.2 142.6,229.2 142.6,214 168.6,188 194.6,214 194.6,229.2 			"/>
			<polygon class="st2" points="168.6,203.2 142.6,229.2 142.6,214 168.6,188 194.6,214 194.6,229.2 			"/>
		</g>
		<g>
			<polygon class="st2" points="168.6,185.2 133.6,220.2 133.6,205 168.6,170 203.6,205 203.6,220.2 			"/>
			<polygon class="st2" points="168.6,185.2 133.6,220.2 133.6,205 168.6,170 203.6,205 203.6,220.2 			"/>
		</g>
	</g>
</g>
<g id="unit_8_">
	<g>
		<g>
			<polygon class="st1" points="180,86.6 188,78.6 180,70.6 195.2,70.6 203.2,78.6 195.2,86.6 			"/>
			<polygon class="st1" points="180,86.6 188,78.6 180,70.6 195.2,70.6 203.2,78.6 195.2,86.6 			"/>
		</g>
		<g>
			<polygon class="st1" points="189,95.6 206,78.6 189,61.6 204.2,61.6 221.2,78.6 204.2,95.6 			"/>
			<polygon class="st1" points="189,95.6 206,78.6 189,61.6 204.2,61.6 221.2,78.6 204.2,95.6 			"/>
		</g>
		<g>
			<polygon class="st1" points="198,104.6 224,78.6 198,52.6 213.2,52.6 239.2,78.6 213.2,104.6 			"/>
			<polygon class="st1" points="198,104.6 224,78.6 198,52.6 213.2,52.6 239.2,78.6 213.2,104.6 			"/>
		</g>
		<g>
			<polygon class="st1" points="207,113.6 242,78.6 207,43.6 222.2,43.6 257.2,78.6 222.2,113.6 			"/>
			<polygon class="st1" points="207,113.6 242,78.6 207,43.6 222.2,43.6 257.2,78.6 222.2,113.6 			"/>
		</g>
		<g>
			<polygon class="st1" points="322,86.6 314,78.6 322,70.6 337.2,70.6 329.2,78.6 337.2,86.6 			"/>
			<polygon class="st1" points="322,86.6 314,78.6 322,70.6 337.2,70.6 329.2,78.6 337.2,86.6 			"/>
		</g>
		<g>
			<polygon class="st1" points="313,95.6 296,78.6 313,61.6 328.2,61.6 311.2,78.6 328.2,95.6 			"/>
			<polygon class="st1" points="313,95.6 296,78.6 313,61.6 328.2,61.6 311.2,78.6 328.2,95.6 			"/>
		</g>
		<g>
			<polygon class="st1" points="304,104.6 278,78.6 304,52.6 319.2,52.6 293.2,78.6 319.2,104.6 			"/>
			<polygon class="st1" points="304,104.6 278,78.6 304,52.6 319.2,52.6 293.2,78.6 319.2,104.6 			"/>
		</g>
		<g>
			<polygon class="st1" points="295,113.6 260,78.6 295,43.6 310.2,43.6 275.2,78.6 310.2,113.6 			"/>
			<polygon class="st1" points="295,113.6 260,78.6 295,43.6 310.2,43.6 275.2,78.6 310.2,113.6 			"/>
		</g>
		<g>
			<polygon class="st1" points="250.6,15.2 250.6,0 258.6,8 266.6,0 266.6,15.2 258.6,23.2 			"/>
			<polygon class="st1" points="250.6,15.2 250.6,0 258.6,8 266.6,0 266.6,15.2 258.6,23.2 			"/>
		</g>
		<g>
			<polygon class="st1" points="241.6,24.2 241.6,9 258.6,26 275.6,9 275.6,24.2 258.6,41.2 			"/>
			<polygon class="st1" points="241.6,24.2 241.6,9 258.6,26 275.6,9 275.6,24.2 258.6,41.2 			"/>
		</g>
		<g>
			<polygon class="st1" points="232.6,33.2 232.6,18 258.6,44 284.6,18 284.6,33.2 258.6,59.2 			"/>
			<polygon class="st1" points="232.6,33.2 232.6,18 258.6,44 284.6,18 284.6,33.2 258.6,59.2 			"/>
		</g>
		<g>
			<polygon class="st1" points="223.6,42.2 223.6,27 258.6,62 293.6,27 293.6,42.2 258.6,77.2 			"/>
			<polygon class="st1" points="223.6,42.2 223.6,27 258.6,62 293.6,27 293.6,42.2 258.6,77.2 			"/>
		</g>
		<g>
			<polygon class="st1" points="258.6,149.2 250.6,157.2 250.6,142 258.6,134 266.6,142 266.6,157.2 			"/>
			<polygon class="st1" points="258.6,149.2 250.6,157.2 250.6,142 258.6,134 266.6,142 266.6,157.2 			"/>
		</g>
		<g>
			<polygon class="st1" points="258.6,131.2 241.6,148.2 241.6,133 258.6,116 275.6,133 275.6,148.2 			"/>
			<polygon class="st1" points="258.6,131.2 241.6,148.2 241.6,133 258.6,116 275.6,133 275.6,148.2 			"/>
		</g>
		<g>
			<polygon class="st1" points="258.6,113.2 232.6,139.2 232.6,124 258.6,98 284.6,124 284.6,139.2 			"/>
			<polygon class="st1" points="258.6,113.2 232.6,139.2 232.6,124 258.6,98 284.6,124 284.6,139.2 			"/>
		</g>
		<g>
			<polygon class="st1" points="258.6,95.2 223.6,130.2 223.6,115 258.6,80 293.6,115 293.6,130.2 			"/>
			<polygon class="st1" points="258.6,95.2 223.6,130.2 223.6,115 258.6,80 293.6,115 293.6,130.2 			"/>
		</g>
	</g>
</g>
<g id="unit_7_">
	<g>
		<g>
			<polygon class="st1" points="0,86.6 8,78.6 0,70.6 15.2,70.6 23.2,78.6 15.2,86.6 			"/>
			<polygon class="st1" points="0,86.6 8,78.6 0,70.6 15.2,70.6 23.2,78.6 15.2,86.6 			"/>
		</g>
		<g>
			<polygon class="st1" points="9,95.6 26,78.6 9,61.6 24.2,61.6 41.2,78.6 24.2,95.6 			"/>
			<polygon class="st1" points="9,95.6 26,78.6 9,61.6 24.2,61.6 41.2,78.6 24.2,95.6 			"/>
		</g>
		<g>
			<polygon class="st1" points="18,104.6 44,78.6 18,52.6 33.2,52.6 59.2,78.6 33.2,104.6 			"/>
			<polygon class="st1" points="18,104.6 44,78.6 18,52.6 33.2,52.6 59.2,78.6 33.2,104.6 			"/>
		</g>
		<g>
			<polygon class="st1" points="27,113.6 62,78.6 27,43.6 42.2,43.6 77.2,78.6 42.2,113.6 			"/>
			<polygon class="st1" points="27,113.6 62,78.6 27,43.6 42.2,43.6 77.2,78.6 42.2,113.6 			"/>
		</g>
		<g>
			<polygon class="st1" points="142,86.6 134,78.6 142,70.6 157.2,70.6 149.2,78.6 157.2,86.6 			"/>
			<polygon class="st1" points="142,86.6 134,78.6 142,70.6 157.2,70.6 149.2,78.6 157.2,86.6 			"/>
		</g>
		<g>
			<polygon class="st1" points="133,95.6 116,78.6 133,61.6 148.2,61.6 131.2,78.6 148.2,95.6 			"/>
			<polygon class="st1" points="133,95.6 116,78.6 133,61.6 148.2,61.6 131.2,78.6 148.2,95.6 			"/>
		</g>
		<g>
			<polygon class="st1" points="124,104.6 98,78.6 124,52.6 139.2,52.6 113.2,78.6 139.2,104.6 			"/>
			<polygon class="st1" points="124,104.6 98,78.6 124,52.6 139.2,52.6 113.2,78.6 139.2,104.6 			"/>
		</g>
		<g>
			<polygon class="st1" points="115,113.6 80,78.6 115,43.6 130.2,43.6 95.2,78.6 130.2,113.6 			"/>
			<polygon class="st1" points="115,113.6 80,78.6 115,43.6 130.2,43.6 95.2,78.6 130.2,113.6 			"/>
		</g>
		<g>
			<polygon class="st1" points="70.6,15.2 70.6,0 78.6,8 86.6,0 86.6,15.2 78.6,23.2 			"/>
			<polygon class="st1" points="70.6,15.2 70.6,0 78.6,8 86.6,0 86.6,15.2 78.6,23.2 			"/>
		</g>
		<g>
			<polygon class="st1" points="61.6,24.2 61.6,9 78.6,26 95.6,9 95.6,24.2 78.6,41.2 			"/>
			<polygon class="st1" points="61.6,24.2 61.6,9 78.6,26 95.6,9 95.6,24.2 78.6,41.2 			"/>
		</g>
		<g>
			<polygon class="st1" points="52.6,33.2 52.6,18 78.6,44 104.6,18 104.6,33.2 78.6,59.2 			"/>
			<polygon class="st1" points="52.6,33.2 52.6,18 78.6,44 104.6,18 104.6,33.2 78.6,59.2 			"/>
		</g>
		<g>
			<polygon class="st1" points="43.6,42.2 43.6,27 78.6,62 113.6,27 113.6,42.2 78.6,77.2 			"/>
			<polygon class="st1" points="43.6,42.2 43.6,27 78.6,62 113.6,27 113.6,42.2 78.6,77.2 			"/>
		</g>
		<g>
			<polygon class="st1" points="78.6,149.2 70.6,157.2 70.6,142 78.6,134 86.6,142 86.6,157.2 			"/>
			<polygon class="st1" points="78.6,149.2 70.6,157.2 70.6,142 78.6,134 86.6,142 86.6,157.2 			"/>
		</g>
		<g>
			<polygon class="st1" points="78.6,131.2 61.6,148.2 61.6,133 78.6,116 95.6,133 95.6,148.2 			"/>
			<polygon class="st1" points="78.6,131.2 61.6,148.2 61.6,133 78.6,116 95.6,133 95.6,148.2 			"/>
		</g>
		<g>
			<polygon class="st1" points="78.6,113.2 52.6,139.2 52.6,124 78.6,98 104.6,124 104.6,139.2 			"/>
			<polygon class="st1" points="78.6,113.2 52.6,139.2 52.6,124 78.6,98 104.6,124 104.6,139.2 			"/>
		</g>
		<g>
			<polygon class="st1" points="78.6,95.2 43.6,130.2 43.6,115 78.6,80 113.6,115 113.6,130.2 			"/>
			<polygon class="st1" points="78.6,95.2 43.6,130.2 43.6,115 78.6,80 113.6,115 113.6,130.2 			"/>
		</g>
	</g>
</g>
<g id="unit_6_">
	<g>
		<g>
			<polygon class="st1" points="180,266.6 188,258.6 180,250.6 195.2,250.6 203.2,258.6 195.2,266.6 			"/>
			<polygon class="st1" points="180,266.6 188,258.6 180,250.6 195.2,250.6 203.2,258.6 195.2,266.6 			"/>
		</g>
		<g>
			<polygon class="st1" points="189,275.6 206,258.6 189,241.6 204.2,241.6 221.2,258.6 204.2,275.6 			"/>
			<polygon class="st1" points="189,275.6 206,258.6 189,241.6 204.2,241.6 221.2,258.6 204.2,275.6 			"/>
		</g>
		<g>
			<polygon class="st1" points="198,284.6 224,258.6 198,232.6 213.2,232.6 239.2,258.6 213.2,284.6 			"/>
			<polygon class="st1" points="198,284.6 224,258.6 198,232.6 213.2,232.6 239.2,258.6 213.2,284.6 			"/>
		</g>
		<g>
			<polygon class="st1" points="207,293.6 242,258.6 207,223.6 222.2,223.6 257.2,258.6 222.2,293.6 			"/>
			<polygon class="st1" points="207,293.6 242,258.6 207,223.6 222.2,223.6 257.2,258.6 222.2,293.6 			"/>
		</g>
		<g>
			<polygon class="st1" points="322,266.6 314,258.6 322,250.6 337.2,250.6 329.2,258.6 337.2,266.6 			"/>
			<polygon class="st1" points="322,266.6 314,258.6 322,250.6 337.2,250.6 329.2,258.6 337.2,266.6 			"/>
		</g>
		<g>
			<polygon class="st1" points="313,275.6 296,258.6 313,241.6 328.2,241.6 311.2,258.6 328.2,275.6 			"/>
			<polygon class="st1" points="313,275.6 296,258.6 313,241.6 328.2,241.6 311.2,258.6 328.2,275.6 			"/>
		</g>
		<g>
			<polygon class="st1" points="304,284.6 278,258.6 304,232.6 319.2,232.6 293.2,258.6 319.2,284.6 			"/>
			<polygon class="st1" points="304,284.6 278,258.6 304,232.6 319.2,232.6 293.2,258.6 319.2,284.6 			"/>
		</g>
		<g>
			<polygon class="st1" points="295,293.6 260,258.6 295,223.6 310.2,223.6 275.2,258.6 310.2,293.6 			"/>
			<polygon class="st1" points="295,293.6 260,258.6 295,223.6 310.2,223.6 275.2,258.6 310.2,293.6 			"/>
		</g>
		<g>
			<polygon class="st1" points="250.6,195.2 250.6,180 258.6,188 266.6,180 266.6,195.2 258.6,203.2 			"/>
			<polygon class="st1" points="250.6,195.2 250.6,180 258.6,188 266.6,180 266.6,195.2 258.6,203.2 			"/>
		</g>
		<g>
			<polygon class="st1" points="241.6,204.2 241.6,189 258.6,206 275.6,189 275.6,204.2 258.6,221.2 			"/>
			<polygon class="st1" points="241.6,204.2 241.6,189 258.6,206 275.6,189 275.6,204.2 258.6,221.2 			"/>
		</g>
		<g>
			<polygon class="st1" points="232.6,213.2 232.6,198 258.6,224 284.6,198 284.6,213.2 258.6,239.2 			"/>
			<polygon class="st1" points="232.6,213.2 232.6,198 258.6,224 284.6,198 284.6,213.2 258.6,239.2 			"/>
		</g>
		<g>
			<polygon class="st1" points="223.6,222.2 223.6,207 258.6,242 293.6,207 293.6,222.2 258.6,257.2 			"/>
			<polygon class="st1" points="223.6,222.2 223.6,207 258.6,242 293.6,207 293.6,222.2 258.6,257.2 			"/>
		</g>
		<g>
			<polygon class="st1" points="258.6,329.2 250.6,337.2 250.6,322 258.6,314 266.6,322 266.6,337.2 			"/>
			<polygon class="st1" points="258.6,329.2 250.6,337.2 250.6,322 258.6,314 266.6,322 266.6,337.2 			"/>
		</g>
		<g>
			<polygon class="st1" points="258.6,311.2 241.6,328.2 241.6,313 258.6,296 275.6,313 275.6,328.2 			"/>
			<polygon class="st1" points="258.6,311.2 241.6,328.2 241.6,313 258.6,296 275.6,313 275.6,328.2 			"/>
		</g>
		<g>
			<polygon class="st1" points="258.6,293.2 232.6,319.2 232.6,304 258.6,278 284.6,304 284.6,319.2 			"/>
			<polygon class="st1" points="258.6,293.2 232.6,319.2 232.6,304 258.6,278 284.6,304 284.6,319.2 			"/>
		</g>
		<g>
			<polygon class="st1" points="258.6,275.2 223.6,310.2 223.6,295 258.6,260 293.6,295 293.6,310.2 			"/>
			<polygon class="st1" points="258.6,275.2 223.6,310.2 223.6,295 258.6,260 293.6,295 293.6,310.2 			"/>
		</g>
	</g>
</g>
<g id="unit_2_">
	<g>
		<g>
			<polygon class="st1" points="0,266.6 8,258.6 0,250.6 15.2,250.6 23.2,258.6 15.2,266.6 			"/>
			<polygon class="st1" points="0,266.6 8,258.6 0,250.6 15.2,250.6 23.2,258.6 15.2,266.6 			"/>
		</g>
		<g>
			<polygon class="st1" points="9,275.6 26,258.6 9,241.6 24.2,241.6 41.2,258.6 24.2,275.6 			"/>
			<polygon class="st1" points="9,275.6 26,258.6 9,241.6 24.2,241.6 41.2,258.6 24.2,275.6 			"/>
		</g>
		<g>
			<polygon class="st1" points="18,284.6 44,258.6 18,232.6 33.2,232.6 59.2,258.6 33.2,284.6 			"/>
			<polygon class="st1" points="18,284.6 44,258.6 18,232.6 33.2,232.6 59.2,258.6 33.2,284.6 			"/>
		</g>
		<g>
			<polygon class="st1" points="27,293.6 62,258.6 27,223.6 42.2,223.6 77.2,258.6 42.2,293.6 			"/>
			<polygon class="st1" points="27,293.6 62,258.6 27,223.6 42.2,223.6 77.2,258.6 42.2,293.6 			"/>
		</g>
		<g>
			<polygon class="st1" points="142,266.6 134,258.6 142,250.6 157.2,250.6 149.2,258.6 157.2,266.6 			"/>
			<polygon class="st1" points="142,266.6 134,258.6 142,250.6 157.2,250.6 149.2,258.6 157.2,266.6 			"/>
		</g>
		<g>
			<polygon class="st1" points="133,275.6 116,258.6 133,241.6 148.2,241.6 131.2,258.6 148.2,275.6 			"/>
			<polygon class="st1" points="133,275.6 116,258.6 133,241.6 148.2,241.6 131.2,258.6 148.2,275.6 			"/>
		</g>
		<g>
			<polygon class="st1" points="124,284.6 98,258.6 124,232.6 139.2,232.6 113.2,258.6 139.2,284.6 			"/>
			<polygon class="st1" points="124,284.6 98,258.6 124,232.6 139.2,232.6 113.2,258.6 139.2,284.6 			"/>
		</g>
		<g>
			<polygon class="st1" points="115,293.6 80,258.6 115,223.6 130.2,223.6 95.2,258.6 130.2,293.6 			"/>
			<polygon class="st1" points="115,293.6 80,258.6 115,223.6 130.2,223.6 95.2,258.6 130.2,293.6 			"/>
		</g>
		<g>
			<polygon class="st1" points="70.6,195.2 70.6,180 78.6,188 86.6,180 86.6,195.2 78.6,203.2 			"/>
			<polygon class="st1" points="70.6,195.2 70.6,180 78.6,188 86.6,180 86.6,195.2 78.6,203.2 			"/>
		</g>
		<g>
			<polygon class="st1" points="61.6,204.2 61.6,189 78.6,206 95.6,189 95.6,204.2 78.6,221.2 			"/>
			<polygon class="st1" points="61.6,204.2 61.6,189 78.6,206 95.6,189 95.6,204.2 78.6,221.2 			"/>
		</g>
		<g>
			<polygon class="st1" points="52.6,213.2 52.6,198 78.6,224 104.6,198 104.6,213.2 78.6,239.2 			"/>
			<polygon class="st1" points="52.6,213.2 52.6,198 78.6,224 104.6,198 104.6,213.2 78.6,239.2 			"/>
		</g>
		<g>
			<polygon class="st1" points="43.6,222.2 43.6,207 78.6,242 113.6,207 113.6,222.2 78.6,257.2 			"/>
			<polygon class="st1" points="43.6,222.2 43.6,207 78.6,242 113.6,207 113.6,222.2 78.6,257.2 			"/>
		</g>
		<g>
			<polygon class="st1" points="78.6,329.2 70.6,337.2 70.6,322 78.6,314 86.6,322 86.6,337.2 			"/>
			<polygon class="st1" points="78.6,329.2 70.6,337.2 70.6,322 78.6,314 86.6,322 86.6,337.2 			"/>
		</g>
		<g>
			<polygon class="st1" points="78.6,311.2 61.6,328.2 61.6,313 78.6,296 95.6,313 95.6,328.2 			"/>
			<polygon class="st1" points="78.6,311.2 61.6,328.2 61.6,313 78.6,296 95.6,313 95.6,328.2 			"/>
		</g>
		<g>
			<polygon class="st1" points="78.6,293.2 52.6,319.2 52.6,304 78.6,278 104.6,304 104.6,319.2 			"/>
			<polygon class="st1" points="78.6,293.2 52.6,319.2 52.6,304 78.6,278 104.6,304 104.6,319.2 			"/>
		</g>
		<g>
			<polygon class="st1" points="78.6,275.2 43.6,310.2 43.6,295 78.6,260 113.6,295 113.6,310.2 			"/>
			<polygon class="st1" points="78.6,275.2 43.6,310.2 43.6,295 78.6,260 113.6,295 113.6,310.2 			"/>
		</g>
	</g>
</g>
</svg>
