<?xml version="1.0" encoding="utf-8"?>
<!-- Generator: Adobe Illustrator 15.0.0, SVG Export Plug-In  -->
<!DOCTYPE svg PUBLIC "-//W3C//DTD SVG 1.1//EN" "http://www.w3.org/Graphics/SVG/1.1/DTD/svg11.dtd" [
	<!ENTITY ns_flows "http://ns.adobe.com/Flows/1.0/">
]>
<svg version="1.1"
	 xmlns="http://www.w3.org/2000/svg" xmlns:xlink="http://www.w3.org/1999/xlink" xmlns:a="http://ns.adobe.com/AdobeSVGViewerExtensions/3.0/"
	 x="0px" y="0px" width="612px" height="612px" viewBox="0 0 612 612" style="overflow:visible;enable-background:new 0 0 612 612;"
	 xml:space="preserve">
<style type="text/css">
<![CDATA[
	.st0{fill:#C01;}
	.st1{fill:#FB4;}
	.st2{fill:#F0C;}
	.st3{fill:#FFF;}
]]>
</style>
<defs>
</defs>
<rect class="st1" width="204" height="204"/>
<rect x="2" y="2" class="st0" width="200" height="200"/>
<path class="st1" d="M155,151.5l27-4.5l-5-5h-31.5l-23.3-23.3l25.2-4.2c0.9-0.2,1.7-0.8,2-1.7s0-1.8-0.6-2.5l-5-4.9
	c-0.5-0.5-1.1-0.5-1.8-0.5h-37v37c0,0.7,0,1.3,0.5,1.8l4.8,5c0.5,0.5,1.1,0.7,1.8,0.7c0.3,0,0.5,0,0.8-0.1c0.9-0.3,1.5-1,1.7-2
	l4.2-25.2l23.3,23.3V177l5,5l4.5-27l20.5,20.5V202c10,0,10-20,10-20s20,0,20-10h-26.5L155,151.5z"/>
<path class="st1" d="M143.8,98.5l5-4.8c0.7-0.7,0.9-1.6,0.6-2.5c-0.3-0.9-1-1.5-2-1.7l-25.2-4.2L145.5,62H177l5-5l-27-4.5L175.5,32
	H202c0-10-20-10-20-10s0-20-10-20v26.5L151.5,49L147,22l-5,5v31.5l-23.3,23.3l-4.2-25.2c-0.2-0.9-0.8-1.7-1.7-2
	c-0.2-0.1-0.5-0.1-0.7-0.1c-0.7,0-1.2,0.3-1.7,0.7l-4.9,5c-0.5,0.5-0.5,1.1-0.5,1.8v37h37C142.7,99,143.3,99,143.8,98.5z"/>
<path class="st1" d="M93.8,55.2c-0.5-0.5-1.1-0.7-1.8-0.7c-0.3,0-0.5,0-0.8,0.1c-0.9,0.3-1.5,1-1.7,2l-4.2,25.2L62,58.5V27l-5-5
	l-4.5,27L32,28.5V2C22,2,22,22,22,22S2,22,2,32h26.5L49,52.5L22,57l5,5h31.5l23.3,23.3l-25.2,4.2c-0.9,0.2-1.7,0.8-2,1.7
	c-0.3,0.9,0,1.8,0.6,2.5l5,4.9C60.7,99,61.3,99,62,99h37V62c0-0.7,0-1.3-0.5-1.8L93.8,55.2z"/>
<path class="st1" d="M60.2,105.5l-5,4.8c-0.7,0.7-0.9,1.6-0.6,2.5s1,1.5,2,1.7l25.2,4.2L58.5,142H27l-5,5l27,4.5L28.5,172H2
	c0,10,20,10,20,10s0,20,10,20v-26.5L52.5,155l4.5,27l5-5v-31.5l23.3-23.3l4.2,25.2c0.2,0.9,0.8,1.7,1.7,2c0.3,0.1,0.5,0.1,0.8,0.1
	c0.7,0,1.2-0.3,1.6-0.7l4.9-5c0.5-0.5,0.5-1.1,0.5-1.8v-37H62C61.3,105,60.7,105,60.2,105.5z"/>
<rect x="204" y="204" class="st1" width="204" height="204"/>
<rect x="206" y="206" class="st0" width="200" height="200"/>
<path class="st1" d="M359,355.5l27-4.5l-5-5h-31.5l-23.3-23.3l25.2-4.2c0.9-0.2,1.7-0.8,2-1.7s0-1.8-0.6-2.5l-5-4.9
	c-0.5-0.5-1.1-0.5-1.8-0.5h-37v37c0,0.7,0,1.3,0.5,1.8l4.8,5c0.5,0.5,1.1,0.7,1.8,0.7c0.3,0,0.5,0,0.8-0.1c0.9-0.3,1.5-1,1.7-2
	l4.2-25.2l23.3,23.3V381l5,5l4.5-27l20.5,20.5V406c10,0,10-20,10-20s20,0,20-10h-26.5L359,355.5z"/>
<path class="st1" d="M347.8,302.5l5-4.8c0.7-0.7,0.9-1.6,0.6-2.5c-0.3-0.9-1-1.5-2-1.7l-25.2-4.2l23.3-23.3H381l5-5l-27-4.5
	l20.5-20.5H406c0-10-20-10-20-10s0-20-10-20v26.5L355.5,253l-4.5-27l-5,5v31.5l-23.3,23.3l-4.2-25.2c-0.2-0.9-0.8-1.7-1.7-2
	c-0.2-0.1-0.5-0.1-0.7-0.1c-0.7,0-1.2,0.3-1.7,0.7l-4.9,5c-0.5,0.5-0.5,1.1-0.5,1.8v37h37C346.7,303,347.3,303,347.8,302.5z"/>
<path class="st1" d="M297.8,259.2c-0.5-0.5-1.1-0.7-1.8-0.7c-0.3,0-0.5,0-0.8,0.1c-0.9,0.3-1.5,1-1.7,2l-4.2,25.2L266,262.5V231
	l-5-5l-4.5,27L236,232.5V206c-10,0-10,20-10,20s-20,0-20,10h26.5l20.5,20.5l-27,4.5l5,5h31.5l23.3,23.3l-25.2,4.2
	c-0.9,0.2-1.7,0.8-2,1.7s0,1.8,0.6,2.5l5,4.9c0.5,0.5,1.1,0.5,1.8,0.5h37v-37c0-0.7,0-1.3-0.5-1.8L297.8,259.2z"/>
<path class="st1" d="M264.2,309.5l-5,4.8c-0.7,0.7-0.9,1.6-0.6,2.5s1,1.5,2,1.7l25.2,4.2L262.5,346H231l-5,5l27,4.5L232.5,376H206
	c0,10,20,10,20,10s0,20,10,20v-26.5l20.5-20.5l4.5,27l5-5v-31.5l23.3-23.3l4.2,25.2c0.2,0.9,0.8,1.7,1.7,2c0.3,0.1,0.5,0.1,0.8,0.1
	c0.7,0,1.2-0.3,1.6-0.7l4.9-5c0.5-0.5,0.5-1.1,0.5-1.8v-37h-37C265.3,309,264.7,309,264.2,309.5z"/>
<rect x="408" y="408" class="st1" width="204" height="204"/>
<rect x="410" y="410" class="st0" width="200" height="200"/>
<path class="st1" d="M563,559.5l27-4.5l-5-5h-31.5l-23.3-23.3l25.2-4.2c0.9-0.2,1.7-0.8,2-1.7s0-1.8-0.6-2.5l-5-4.9
	c-0.5-0.5-1.1-0.5-1.8-0.5h-37v37c0,0.7,0,1.3,0.5,1.8l4.8,5c0.5,0.5,1.1,0.7,1.8,0.7c0.3,0,0.5,0,0.8-0.1c0.9-0.3,1.5-1,1.7-2
	l4.2-25.2l23.3,23.3V585l5,5l4.5-27l20.5,20.5V610c10,0,10-20,10-20s20,0,20-10h-26.5L563,559.5z"/>
<path class="st1" d="M551.8,506.5l5-4.8c0.7-0.7,0.9-1.6,0.6-2.5c-0.3-0.9-1-1.5-2-1.7l-25.2-4.2l23.3-23.3H585l5-5l-27-4.5
	l20.5-20.5H610c0-10-20-10-20-10s0-20-10-20v26.5L559.5,457l-4.5-27l-5,5v31.5l-23.3,23.3l-4.2-25.2c-0.2-0.9-0.8-1.7-1.7-2
	c-0.2-0.1-0.5-0.1-0.7-0.1c-0.7,0-1.2,0.3-1.7,0.7l-4.9,5c-0.5,0.5-0.5,1.1-0.5,1.8v37h37C550.7,507,551.3,507,551.8,506.5z"/>
<path class="st1" d="M501.8,463.2c-0.5-0.5-1.1-0.7-1.8-0.7c-0.3,0-0.5,0-0.8,0.1c-0.9,0.3-1.5,1-1.7,2l-4.2,25.2L470,466.5V435
	l-5-5l-4.5,27L440,436.5V410c-10,0-10,20-10,20s-20,0-20,10h26.5l20.5,20.5l-27,4.5l5,5h31.5l23.3,23.3l-25.2,4.2
	c-0.9,0.2-1.7,0.8-2,1.7s0,1.8,0.6,2.5l5,4.9c0.5,0.5,1.1,0.5,1.8,0.5h37v-37c0-0.7,0-1.3-0.5-1.8L501.8,463.2z"/>
<path class="st1" d="M468.2,513.5l-5,4.8c-0.7,0.7-0.9,1.6-0.6,2.5s1,1.5,2,1.7l25.2,4.2L466.5,550H435l-5,5l27,4.5L436.5,580H410
	c0,10,20,10,20,10s0,20,10,20v-26.5l20.5-20.5l4.5,27l5-5v-31.5l23.3-23.3l4.2,25.2c0.2,0.9,0.8,1.7,1.7,2c0.3,0.1,0.5,0.1,0.8,0.1
	c0.7,0,1.2-0.3,1.6-0.7l4.9-5c0.5-0.5,0.5-1.1,0.5-1.8v-37h-37C469.3,513,468.7,513,468.2,513.5z"/>
<rect x="204" class="st1" width="204" height="204"/>
<rect x="206" y="2" class="st0" width="200" height="200"/>
<path class="st2" d="M359,151.5l27-4.5l-5-5h-31.5l-23.3-23.3l25.2-4.2c0.9-0.2,1.7-0.8,2-1.7s0-1.8-0.6-2.5l-5-4.9
	c-0.5-0.5-1.1-0.5-1.8-0.5h-37v37c0,0.7,0,1.3,0.5,1.8l4.8,5c0.5,0.5,1.1,0.7,1.8,0.7c0.3,0,0.5,0,0.8-0.1c0.9-0.3,1.5-1,1.7-2
	l4.2-25.2l23.3,23.3V177l5,5l4.5-27l20.5,20.5V202c10,0,10-20,10-20s20,0,20-10h-26.5L359,151.5z"/>
<path class="st1" d="M347.8,98.5l5-4.8c0.7-0.7,0.9-1.6,0.6-2.5c-0.3-0.9-1-1.5-2-1.7l-25.2-4.2L349.5,62H381l5-5l-27-4.5L379.5,32
	H406c0-10-20-10-20-10s0-20-10-20v26.5L355.5,49L351,22l-5,5v31.5l-23.3,23.3l-4.2-25.2c-0.2-0.9-0.8-1.7-1.7-2
	c-0.2-0.1-0.5-0.1-0.7-0.1c-0.7,0-1.2,0.3-1.7,0.7l-4.9,5c-0.5,0.5-0.5,1.1-0.5,1.8v37h37C346.7,99,347.3,99,347.8,98.5z"/>
<path class="st2" d="M297.8,55.2c-0.5-0.5-1.1-0.7-1.8-0.7c-0.3,0-0.5,0-0.8,0.1c-0.9,0.3-1.5,1-1.7,2l-4.2,25.2L266,58.5V27l-5-5
	l-4.5,27L236,28.5V2c-10,0-10,20-10,20s-20,0-20,10h26.5L253,52.5L226,57l5,5h31.5l23.3,23.3l-25.2,4.2c-0.9,0.2-1.7,0.8-2,1.7
	s0,1.8,0.6,2.5l5,4.9c0.5,0.5,1.1,0.5,1.8,0.5h37V62c0-0.7,0-1.3-0.5-1.8L297.8,55.2z"/>
<path class="st1" d="M264.2,105.5l-5,4.8c-0.7,0.7-0.9,1.6-0.6,2.5s1,1.5,2,1.7l25.2,4.2L262.5,142H231l-5,5l27,4.5L232.5,172H206
	c0,10,20,10,20,10s0,20,10,20v-26.5l20.5-20.5l4.5,27l5-5v-31.5l23.3-23.3l4.2,25.2c0.2,0.9,0.8,1.7,1.7,2c0.3,0.1,0.5,0.1,0.8,0.1
	c0.7,0,1.2-0.3,1.6-0.7l4.9-5c0.5-0.5,0.5-1.1,0.5-1.8v-37h-37C265.3,105,264.7,105,264.2,105.5z"/>
<rect x="408" y="204" class="st1" width="204" height="204"/>
<rect x="410" y="206" class="st0" width="200" height="200"/>
<path class="st2" d="M563,355.5l27-4.5l-5-5h-31.5l-23.3-23.3l25.2-4.2c0.9-0.2,1.7-0.8,2-1.7s0-1.8-0.6-2.5l-5-4.9
	c-0.5-0.5-1.1-0.5-1.8-0.5h-37v37c0,0.7,0,1.3,0.5,1.8l4.8,5c0.5,0.5,1.1,0.7,1.8,0.7c0.3,0,0.5,0,0.8-0.1c0.9-0.3,1.5-1,1.7-2
	l4.2-25.2l23.3,23.3V381l5,5l4.5-27l20.5,20.5V406c10,0,10-20,10-20s20,0,20-10h-26.5L563,355.5z"/>
<path class="st1" d="M551.8,302.5l5-4.8c0.7-0.7,0.9-1.6,0.6-2.5c-0.3-0.9-1-1.5-2-1.7l-25.2-4.2l23.3-23.3H585l5-5l-27-4.5
	l20.5-20.5H610c0-10-20-10-20-10s0-20-10-20v26.5L559.5,253l-4.5-27l-5,5v31.5l-23.3,23.3l-4.2-25.2c-0.2-0.9-0.8-1.7-1.7-2
	c-0.2-0.1-0.5-0.1-0.7-0.1c-0.7,0-1.2,0.3-1.7,0.7l-4.9,5c-0.5,0.5-0.5,1.1-0.5,1.8v37h37C550.7,303,551.3,303,551.8,302.5z"/>
<path class="st2" d="M501.8,259.2c-0.5-0.5-1.1-0.7-1.8-0.7c-0.3,0-0.5,0-0.8,0.1c-0.9,0.3-1.5,1-1.7,2l-4.2,25.2L470,262.5V231
	l-5-5l-4.5,27L440,232.5V206c-10,0-10,20-10,20s-20,0-20,10h26.5l20.5,20.5l-27,4.5l5,5h31.5l23.3,23.3l-25.2,4.2
	c-0.9,0.2-1.7,0.8-2,1.7s0,1.8,0.6,2.5l5,4.9c0.5,0.5,1.1,0.5,1.8,0.5h37v-37c0-0.7,0-1.3-0.5-1.8L501.8,259.2z"/>
<path class="st1" d="M468.2,309.5l-5,4.8c-0.7,0.7-0.9,1.6-0.6,2.5s1,1.5,2,1.7l25.2,4.2L466.5,346H435l-5,5l27,4.5L436.5,376H410
	c0,10,20,10,20,10s0,20,10,20v-26.5l20.5-20.5l4.5,27l5-5v-31.5l23.3-23.3l4.2,25.2c0.2,0.9,0.8,1.7,1.7,2c0.3,0.1,0.5,0.1,0.8,0.1
	c0.7,0,1.2-0.3,1.6-0.7l4.9-5c0.5-0.5,0.5-1.1,0.5-1.8v-37h-37C469.3,309,468.7,309,468.2,309.5z"/>
<rect y="204" class="st1" width="204" height="204"/>
<rect x="2" y="206" class="st0" width="200" height="200"/>
<path class="st3" d="M155,355.5l27-4.5l-5-5h-31.5l-23.3-23.3l25.2-4.2c0.9-0.2,1.7-0.8,2-1.7s0-1.8-0.6-2.5l-5-4.9
	c-0.5-0.5-1.1-0.5-1.8-0.5h-37v37c0,0.7,0,1.3,0.5,1.8l4.8,5c0.5,0.5,1.1,0.7,1.8,0.7c0.3,0,0.5,0,0.8-0.1c0.9-0.3,1.5-1,1.7-2
	l4.2-25.2l23.3,23.3V381l5,5l4.5-27l20.5,20.5V406c10,0,10-20,10-20s20,0,20-10h-26.5L155,355.5z"/>
<path class="st1" d="M143.8,302.5l5-4.8c0.7-0.7,0.9-1.6,0.6-2.5c-0.3-0.9-1-1.5-2-1.7l-25.2-4.2l23.3-23.3H177l5-5l-27-4.5
	l20.5-20.5H202c0-10-20-10-20-10s0-20-10-20v26.5L151.5,253l-4.5-27l-5,5v31.5l-23.3,23.3l-4.2-25.2c-0.2-0.9-0.8-1.7-1.7-2
	c-0.2-0.1-0.5-0.1-0.7-0.1c-0.7,0-1.2,0.3-1.7,0.7l-4.9,5c-0.5,0.5-0.5,1.1-0.5,1.8v37h37C142.7,303,143.3,303,143.8,302.5z"/>
<path class="st3" d="M93.8,259.2c-0.5-0.5-1.1-0.7-1.8-0.7c-0.3,0-0.5,0-0.8,0.1c-0.9,0.3-1.5,1-1.7,2l-4.2,25.2L62,262.5V231l-5-5
	l-4.5,27L32,232.5V206c-10,0-10,20-10,20s-20,0-20,10h26.5L49,256.5L22,261l5,5h31.5l23.3,23.3l-25.2,4.2c-0.9,0.2-1.7,0.8-2,1.7
	s0,1.8,0.6,2.5l5,4.9c0.5,0.5,1.1,0.5,1.8,0.5h37v-37c0-0.7,0-1.3-0.5-1.8L93.8,259.2z"/>
<path class="st1" d="M60.2,309.5l-5,4.8c-0.7,0.7-0.9,1.6-0.6,2.5s1,1.5,2,1.7l25.2,4.2L58.5,346H27l-5,5l27,4.5L28.5,376H2
	c0,10,20,10,20,10s0,20,10,20v-26.5L52.5,359l4.5,27l5-5v-31.5l23.3-23.3l4.2,25.2c0.2,0.9,0.8,1.7,1.7,2c0.3,0.1,0.5,0.1,0.8,0.1
	c0.7,0,1.2-0.3,1.6-0.7l4.9-5c0.5-0.5,0.5-1.1,0.5-1.8v-37H62C61.3,309,60.7,309,60.2,309.5z"/>
<rect x="204" y="408" class="st1" width="204" height="204"/>
<rect x="206" y="410" class="st0" width="200" height="200"/>
<path class="st3" d="M359,559.5l27-4.5l-5-5h-31.5l-23.3-23.3l25.2-4.2c0.9-0.2,1.7-0.8,2-1.7s0-1.8-0.6-2.5l-5-4.9
	c-0.5-0.5-1.1-0.5-1.8-0.5h-37v37c0,0.7,0,1.3,0.5,1.8l4.8,5c0.5,0.5,1.1,0.7,1.8,0.7c0.3,0,0.5,0,0.8-0.1c0.9-0.3,1.5-1,1.7-2
	l4.2-25.2l23.3,23.3V585l5,5l4.5-27l20.5,20.5V610c10,0,10-20,10-20s20,0,20-10h-26.5L359,559.5z"/>
<path class="st1" d="M347.8,506.5l5-4.8c0.7-0.7,0.9-1.6,0.6-2.5c-0.3-0.9-1-1.5-2-1.7l-25.2-4.2l23.3-23.3H381l5-5l-27-4.5
	l20.5-20.5H406c0-10-20-10-20-10s0-20-10-20v26.5L355.5,457l-4.5-27l-5,5v31.5l-23.3,23.3l-4.2-25.2c-0.2-0.9-0.8-1.7-1.7-2
	c-0.2-0.1-0.5-0.1-0.7-0.1c-0.7,0-1.2,0.3-1.7,0.7l-4.9,5c-0.5,0.5-0.5,1.1-0.5,1.8v37h37C346.7,507,347.3,507,347.8,506.5z"/>
<path class="st3" d="M297.8,463.2c-0.5-0.5-1.1-0.7-1.8-0.7c-0.3,0-0.5,0-0.8,0.1c-0.9,0.3-1.5,1-1.7,2l-4.2,25.2L266,466.5V435
	l-5-5l-4.5,27L236,436.5V410c-10,0-10,20-10,20s-20,0-20,10h26.5l20.5,20.5l-27,4.5l5,5h31.5l23.3,23.3l-25.2,4.2
	c-0.9,0.2-1.7,0.8-2,1.7s0,1.8,0.6,2.5l5,4.9c0.5,0.5,1.1,0.5,1.8,0.5h37v-37c0-0.7,0-1.3-0.5-1.8L297.8,463.2z"/>
<path class="st1" d="M264.2,513.5l-5,4.8c-0.7,0.7-0.9,1.6-0.6,2.5s1,1.5,2,1.7l25.2,4.2L262.5,550H231l-5,5l27,4.5L232.5,580H206
	c0,10,20,10,20,10s0,20,10,20v-26.5l20.5-20.5l4.5,27l5-5v-31.5l23.3-23.3l4.2,25.2c0.2,0.9,0.8,1.7,1.7,2c0.3,0.1,0.5,0.1,0.8,0.1
	c0.7,0,1.2-0.3,1.6-0.7l4.9-5c0.5-0.5,0.5-1.1,0.5-1.8v-37h-37C265.3,513,264.7,513,264.2,513.5z"/>
<rect y="408" class="st1" width="204" height="204"/>
<rect x="2" y="410" class="st0" width="200" height="200"/>
<path class="st2" d="M155,559.5l27-4.5l-5-5h-31.5l-23.3-23.3l25.2-4.2c0.9-0.2,1.7-0.8,2-1.7s0-1.8-0.6-2.5l-5-4.9
	c-0.5-0.5-1.1-0.5-1.8-0.5h-37v37c0,0.7,0,1.3,0.5,1.8l4.8,5c0.5,0.5,1.1,0.7,1.8,0.7c0.3,0,0.5,0,0.8-0.1c0.9-0.3,1.5-1,1.7-2
	l4.2-25.2l23.3,23.3V585l5,5l4.5-27l20.5,20.5V610c10,0,10-20,10-20s20,0,20-10h-26.5L155,559.5z"/>
<path class="st1" d="M143.8,506.5l5-4.8c0.7-0.7,0.9-1.6,0.6-2.5c-0.3-0.9-1-1.5-2-1.7l-25.2-4.2l23.3-23.3H177l5-5l-27-4.5
	l20.5-20.5H202c0-10-20-10-20-10s0-20-10-20v26.5L151.5,457l-4.5-27l-5,5v31.5l-23.3,23.3l-4.2-25.2c-0.2-0.9-0.8-1.7-1.7-2
	c-0.2-0.1-0.5-0.1-0.7-0.1c-0.7,0-1.2,0.3-1.7,0.7l-4.9,5c-0.5,0.5-0.5,1.1-0.5,1.8v37h37C142.7,507,143.3,507,143.8,506.5z"/>
<path class="st2" d="M93.8,463.2c-0.5-0.5-1.1-0.7-1.8-0.7c-0.3,0-0.5,0-0.8,0.1c-0.9,0.3-1.5,1-1.7,2l-4.2,25.2L62,466.5V435l-5-5
	l-4.5,27L32,436.5V410c-10,0-10,20-10,20s-20,0-20,10h26.5L49,460.5L22,465l5,5h31.5l23.3,23.3l-25.2,4.2c-0.9,0.2-1.7,0.8-2,1.7
	s0,1.8,0.6,2.5l5,4.9c0.5,0.5,1.1,0.5,1.8,0.5h37v-37c0-0.7,0-1.3-0.5-1.8L93.8,463.2z"/>
<path class="st1" d="M60.2,513.5l-5,4.8c-0.7,0.7-0.9,1.6-0.6,2.5s1,1.5,2,1.7l25.2,4.2L58.5,550H27l-5,5l27,4.5L28.5,580H2
	c0,10,20,10,20,10s0,20,10,20v-26.5L52.5,563l4.5,27l5-5v-31.5l23.3-23.3l4.2,25.2c0.2,0.9,0.8,1.7,1.7,2c0.3,0.1,0.5,0.1,0.8,0.1
	c0.7,0,1.2-0.3,1.6-0.7l4.9-5c0.5-0.5,0.5-1.1,0.5-1.8v-37H62C61.3,513,60.7,513,60.2,513.5z"/>
<rect x="408" class="st1" width="204" height="204"/>
<rect x="410" y="2" class="st0" width="200" height="200"/>
<path class="st3" d="M563,151.5l27-4.5l-5-5h-31.5l-23.3-23.3l25.2-4.2c0.9-0.2,1.7-0.8,2-1.7s0-1.8-0.6-2.5l-5-4.9
	c-0.5-0.5-1.1-0.5-1.8-0.5h-37v37c0,0.7,0,1.3,0.5,1.8l4.8,5c0.5,0.5,1.1,0.7,1.8,0.7c0.3,0,0.5,0,0.8-0.1c0.9-0.3,1.5-1,1.7-2
	l4.2-25.2l23.3,23.3V177l5,5l4.5-27l20.5,20.5V202c10,0,10-20,10-20s20,0,20-10h-26.5L563,151.5z"/>
<path class="st1" d="M551.8,98.5l5-4.8c0.7-0.7,0.9-1.6,0.6-2.5c-0.3-0.9-1-1.5-2-1.7l-25.2-4.2L553.5,62H585l5-5l-27-4.5L583.5,32
	H610c0-10-20-10-20-10s0-20-10-20v26.5L559.5,49L555,22l-5,5v31.5l-23.3,23.3l-4.2-25.2c-0.2-0.9-0.8-1.7-1.7-2
	c-0.2-0.1-0.5-0.1-0.7-0.1c-0.7,0-1.2,0.3-1.7,0.7l-4.9,5c-0.5,0.5-0.5,1.1-0.5,1.8v37h37C550.7,99,551.3,99,551.8,98.5z"/>
<path class="st3" d="M501.8,55.2c-0.5-0.5-1.1-0.7-1.8-0.7c-0.3,0-0.5,0-0.8,0.1c-0.9,0.3-1.5,1-1.7,2l-4.2,25.2L470,58.5V27l-5-5
	l-4.5,27L440,28.5V2c-10,0-10,20-10,20s-20,0-20,10h26.5L457,52.5L430,57l5,5h31.5l23.3,23.3l-25.2,4.2c-0.9,0.2-1.7,0.8-2,1.7
	s0,1.8,0.6,2.5l5,4.9c0.5,0.5,1.1,0.5,1.8,0.5h37V62c0-0.7,0-1.3-0.5-1.8L501.8,55.2z"/>
<path class="st1" d="M468.2,105.5l-5,4.8c-0.7,0.7-0.9,1.6-0.6,2.5s1,1.5,2,1.7l25.2,4.2L466.5,142H435l-5,5l27,4.5L436.5,172H410
	c0,10,20,10,20,10s0,20,10,20v-26.5l20.5-20.5l4.5,27l5-5v-31.5l23.3-23.3l4.2,25.2c0.2,0.9,0.8,1.7,1.7,2c0.3,0.1,0.5,0.1,0.8,0.1
	c0.7,0,1.2-0.3,1.6-0.7l4.9-5c0.5-0.5,0.5-1.1,0.5-1.8v-37h-37C469.3,105,468.7,105,468.2,105.5z"/>
</svg>
