<?xml version="1.0" encoding="utf-8"?>
<!-- Generator: Adobe Illustrator 15.0.0, SVG Export Plug-In  -->
<!DOCTYPE svg PUBLIC "-//W3C//DTD SVG 1.1//EN" "http://www.w3.org/Graphics/SVG/1.1/DTD/svg11.dtd" [
	<!ENTITY ns_flows "http://ns.adobe.com/Flows/1.0/">
]>
<svg version="1.1"
	 xmlns="http://www.w3.org/2000/svg" xmlns:xlink="http://www.w3.org/1999/xlink" xmlns:a="http://ns.adobe.com/AdobeSVGViewerExtensions/3.0/"
	 x="0px" y="0px" width="400px" height="500px" viewBox="102.4 86.9 400 500"
	 overflow="visible" enable-background="new 102.4 86.9 400 500" xml:space="preserve">
<defs>
</defs>
<rect x="102.4" y="86.9" display="none" fill="#660033" width="400" height="500"/>
<g id="old_x5F_rays_1_">
	<defs>
		<rect id="SVGID_7_" x="102.4" y="86.9" width="400" height="500"/>
	</defs>
	<clipPath id="SVGID_8_">
		<use xlink:href="#SVGID_7_"  overflow="visible"/>
	</clipPath>
	<g clip-path="url(#SVGID_8_)">
		<circle fill="#660033" cx="305.4" cy="305.4" r="105.4"/>
		
			<circle fill="none" stroke="#990033" stroke-width="400" stroke-miterlimit="10" stroke-dasharray="19.4808,19.4808" cx="305.4" cy="305.4" r="105.4"/>
	</g>
</g>
<g id="rays_1_">
	<defs>
		<rect id="SVGID_6_" x="102.4" y="86.9" width="400" height="500"/>
	</defs>
	<clipPath id="SVGID_9_">
		<use xlink:href="#SVGID_6_"  overflow="visible"/>
	</clipPath>
	<radialGradient id="SVGID_10_" cx="305.4116" cy="305.4116" r="305.4111" gradientUnits="userSpaceOnUse">
		<stop  offset="0" style="stop-color:#666666"/>
		<stop  offset="1" style="stop-color:#333333"/>
	</radialGradient>
	<path clip-path="url(#SVGID_9_)" fill="url(#SVGID_10_)" d="M305.4,610.8c-41.1,0-81.2-8.1-118.9-24.1c-36.4-15.4-69-37.4-97-65.4
		c-28-28-50-60.6-65.4-97C8.1,386.6,0,346.6,0,305.4c0-41.1,8.1-81.2,24.1-118.9c15.4-36.4,37.4-69,65.4-97c28-28,60.6-50,97-65.4
		C224.3,8.1,264.3,0,305.4,0s81.2,8.1,118.9,24.1c36.4,15.4,69,37.4,97,65.4c28,28,50,60.6,65.4,97c16,37.8,24.1,77.8,24.1,118.9
		s-8.1,81.2-24.1,118.9c-15.4,36.4-37.4,69-65.4,97c-28,28-60.6,50-97,65.4C386.6,602.7,346.6,610.8,305.4,610.8z"/>
	<radialGradient id="SVGID_11_" cx="305.4116" cy="306.0249" r="305.1046" gradientUnits="userSpaceOnUse">
		<stop  offset="0" style="stop-color:#CCCCCC"/>
		<stop  offset="1" style="stop-color:#999999"/>
	</radialGradient>
	<path clip-path="url(#SVGID_9_)" fill="url(#SVGID_11_)" d="M336.8,305.4v-6l268.7-50.5c-3.5-18.5-8.7-36.8-15.6-54.4l-253.1,98.7
		v-7.4l227.8-141.8c-9.9-15.9-21.3-30.9-34-44.8L336.8,276.7v-13.1L489.1,61.4c-15-11.3-31.1-21.3-47.9-29.6L327.3,261.6h-9.6
		l70.6-250.2c-18.1-5.1-36.8-8.5-55.5-10.2l-23.4,260.4h-8.3L276.9,1.3c-18.7,1.7-37.4,5.3-55.5,10.4L293,261.6h-9.6L168.7,32.3
		c-16.8,8.4-32.9,18.4-47.8,29.8l151.4,199.6l0,0v13.7L79.5,99.9c-12.6,13.9-24,29-33.8,44.9l226.7,139.9v7.9L20.5,195.4
		c-6.8,17.6-12,35.9-15.4,54.5l267.2,49.3v6.3L0,305.8c0,18.7,1.8,37.5,5.2,55.9l267.1-50.1v6.8L20.7,416.1
		c6.8,17.5,15.3,34.5,25.3,50.5l226.3-140.7v9.9L79.9,511.4c12.6,13.8,26.6,26.5,41.5,37.8l152.8-202.5h10.8L169.3,578.8
		c16.9,8.4,34.7,15.3,52.8,20.4l71.5-252.6h8.2l-24.2,262.8c9.2,0.8,18.6,1.3,27.8,1.3c9.4,0,18.8-0.4,28.1-1.3l-24.4-262.8h8.1
		L389,599.2c18.1-5.2,35.9-12,52.8-20.5l-115.9-232h10.9l0,0L489.6,549c14.9-11.3,28.9-24,41.5-37.9L336.8,334v-9.3L565,466.3
		c9.9-16,18.4-33,25.2-50.6l-253.4-98.2v-6.5l268.8,50.2c3.4-18.4,5.1-37.2,5.1-55.9v-0.2L336.8,305.4z"/>
</g>
<path fill="#333333" d="M410.4,472.5c-10.5-4.3-12.6-9.2-19.8-20.6s-17.2-16.2-17.2-16.2s-147-9-158-4.4c-11,4.6-9.4,15.8-13.8,30.4
	c-3.7,12.4-77.5,44-99.2,53.1v72.1h400V519C481.5,499.4,419.5,476.2,410.4,472.5z"/>
<path d="M191.6,499.3c0,0,16.4,27.6,22.8,34.8s17.2,23.6,20,23.6s11.6,2.4,20,0c8.4-2.4,22.5-9.2,22.5-9.2s-15.6,11.7-31.5,15
	c-15.9,3.3-22.5-0.6-28.2-8.7C211.5,546.7,191.6,499.3,191.6,499.3z"/>
<path fill="#444444" d="M405.6,472.5c3.3,26.8,24,11.2,36.4,44.8C438.4,503.3,433.2,481.7,405.6,472.5z"/>
<path d="M390.6,539.7c0,0,12.6-16.4,31.2-14c18.6,2.4,17.8,13.6,17.8,13.6s-20.4,2-26-3.2C408,530.9,390.6,539.7,390.6,539.7z"/>
<path d="M226.4,431.3c0,0-15.2,3.6,0,24.8S226.4,431.3,226.4,431.3z"/>
<path d="M348.4,586.9c0,0,10.2-17.1,14.2-22.2c4-5.1-24.2-12-24.2-12s14.6,10,14.6,13s-9.8,16-9.8,21.2H348.4z"/>
<path fill="#999999" d="M356.2,586.9c0,0,0.2-3.8,3.6-3.8c3.4,0,3.2,3.8,3.2,3.8"/>
<path d="M279.3,547c0,0,12.9-8.3,20.7-7.3s18,13,18,13s-9.9,10.5-23.4,5.7S279.3,547,279.3,547z"/>
<path d="M373.4,442.9c0,0,10.6,12.3,10.6,16.5s-3.1,13.6-3.1,13.6H366L373.4,442.9z"/>
<path fill="#666666" d="M373.4,414.3v51.4c0,0,19.4,14.4,17,35.2c-0.5,4.5-5.4,11.5-7.6,20.4c-1.8,7.6,2.8,15.3-4.4,21.6
	c-9.9,8.6-16.4,22.8-16.4,22.8s-34-23.8-53.5-30.2c-6.9-2.2-13.6-5.7-17.9-8.2c-24.6-14.4-55.6-52.2-64.2-70v-47.5"/>
<path fill="#666666" d="M272.5,443.1c0,0,20,8.6,45.8,7.1c25.8-1.5,52.5-33.9,52.5-33.9c-20.9,35.3-49.9,40.7-49.2,43.5
	c0.8,2.8,31.2-5.1,47.1-21.8c-10.5,19.3-25.7,25.3-25.7,25.3l-38.1,1l-32.4-14.8V443.1L272.5,443.1z"/>
<path fill="#333333" d="M227.2,411.1c0,0,8.1,36.7,50.1,47.9c41.9,11.2,65.7,4.4,65.7,4.4s-51.4,3.6-77-26.8
	C240.4,406.1,227.2,411.1,227.2,411.1z"/>
<path fill="#999999" d="M305.4,466.9c28.2-0.2,40.2,0.6,43.2,12s-8.4,29.4-8.4,29.4s31.8-8.4,36,0c4.2,8.4-25.8,44.4-25.8,44.4
	s-61.8-24-64.8-34.2c-3-10.2,20.4-4.8,20.4-4.8s-25.2-15-25.2-28.2C280.8,472.3,291,467,305.4,466.9z"/>
<path id="hair_2_" d="M208.4,321.7c0,0-16.3-42.6-16.3-63.6s6.9-36.3,6.9-41.1c0-4.8-2.4-10.2-2.4-13.2s6-1.5,6-5.4
	s-6.3-12.9-6.3-15.9s4.5-3.9,6.6-9.9s-2-18.5,3.2-25.7c5.2-7.2,17.6-3.2,20.4-6.4c2.8-3.2,1.6-10.4,4.4-12.4s7.2,1.2,10.8,0
	c3.6-1.2,16.7-17.2,30.8-16.8c14,0.4,20.4,5.2,27.2,4.8c6.8-0.4,13.1-14.4,20.7-14.8s6.8,6.4,9.6,6.4c2.8,0,8.4-4,12.8-2.4
	c4.4,1.6,9.6,18.8,14,21.2c4.4,2.4,9.6,2,14.4,6s4.8,14.4,7.6,16.4c2.8,2,12-7.2,20.4,0c8.4,7.2,6,12.4,6.4,15.6
	c0.4,3.2,10.4,3.6,13.6,6.4s6,22,6,22s-3.6-6.7-10-13.7c-6.4-7.1-7.4,2.3-6,5.3c3,6.6,8,12.4,8.4,16c0.4,3.6,7.2,12.8,7.6,14.8
	c0.4,2-7.6-1.2-8,8.4c-0.4,9.6,2,33.2-2,45.6s-2.4,12.7-2.4,16.7s-1.9,28.6-0.8,50.2"/>
<path fill="#CCCCCC" d="M278.4,183.7c0,0,20.4-6,37.8-4.2c17.4,1.8,27.6,13.2,32.4,15c4.8,1.8,16.8,4.8,24,19.8s0,33.6,3.6,40.8
	c3.6,7.2,19.8,44.4,19.2,67.8c-0.6,23.4-8.4,78.6-27,97.8s-32.4,31.8-61.8,31.2c-6-0.1-12.4-1.1-18.9-2.7
	c-25.7-6.4-77.7-92.7-78.9-107.1c-1.2-14.4,36.8-129.1,46.9-130.8c3.5-0.6,6.7-1.7,8.9-3.6C273,200.5,278.4,183.7,278.4,183.7z"/>
<path fill="#666666" d="M255.7,211.3c0,0,1.1,43.2,3.1,49.8c2,6.6,16,7.4,16,7.4s3.2,2.9,6,7.6c2.8,4.8-29.2-7.4-36.8-6.8
	s-3.4,7.9-3.4,7.9s3.4,8.5,5.8,11.3c2.4,2.8-12.8,13.2-12.8,13.2s-12.8,28-4,56.4c8.8,28.4,17.5,51.2,24.1,52c0.7-6,2.3-14,5.9-14.4
	c3.6-0.4,19.6,38,32.8,38.8c13.2,0.8,44-4.4,44-4.4s-19.8,19-48.7,19.1l0,0c-25.7-6.4-53.3-23.3-63.3-42.9
	c-12.6-24.6-14.4-49.8-15.6-64.2c-1.2-14.4,0-39.6,3.6-51c3.6-11.4,8.4-19.2,8.4-24.6s0.6-31.2,3.6-38.4c3-7.2,8.4-17.4,8.4-17.4
	S245.6,213,255.7,211.3"/>
<path fill="#CCCCCC" d="M388,366.2c0,0,2.8,9.5,11.6,9.5s23.2-23.1,25.6-39.5c2.4-16.4,3.6-27.7,0-34.9c-3.6-7.2-12-9.2-20.4-2.4
	c-8.4,6.8-6.4,14.4-6.4,19.2c0,4.8,0.8,20-5.6,9.2C386.4,316.5,388,366.2,388,366.2z"/>
<path fill="#FFFFFF" d="M413.2,304.8c0,0-10.6,13.1-9.4,16.1c1.2,3,7.6,1,8.2,3.8c0.6,2.8,1.2,14.8-3.4,18.8c-4.6,4-5.4,7.6-3.6,9.2
	c1.8,1.6,3.6,2.4,3.6,2.4l9.8-15.3l1.8-26.5L413.2,304.8z"/>
<path fill="#666666" d="M408.6,355.1c0,0,11.4-20.2,10.6-33.8s-6.6-15.2-6.4-18c0.2-2.8,8.7-1.5,9.6,3.2
	C424.2,315.5,422.4,342.7,408.6,355.1z"/>
<path fill="#999999" d="M396.9,331c0,0,1.3,6.3,1.3,8.1c0,1.8-2.4,8.2,0,8.2c2.4,0,5.4,0.2,7.8-4.4c2.4-4.6,7.8-17.2-7.6-19.8
	C398.5,327.3,398.1,328,396.9,331z"/>
<path fill="#666666" d="M199.6,295.9c0,0-16-0.3-17.2,12s1.2,37.8,7.2,51s13.5,21.3,18.8,19.4c5.3-1.9,4.8-3.8,4.8-3.8l4.9-64.9
	L199.6,295.9z"/>
<path fill="#333333" d="M196.2,302.8c2.3,1.7-6.3,2.4-7.5,6.9c-1.2,4.5-2.7,16.8-2.7,16.8S184.2,294.1,196.2,302.8z"/>
<path fill="#333333" d="M191.2,346.3c0,0,10.1,17.4,11.6,14.7C204.3,358.3,194.7,353.2,191.2,346.3z"/>
<path fill="#333333" d="M207.7,353.8c2.9-0.9-4.7-3.7-6.3-12.6C202.6,352.6,203.8,355,207.7,353.8z"/>
<path fill="#999999" d="M307.3,318.1c0,0,1.9,6.6,4.9,9.9c3.1,3.3,9.1,3.9,9.1,6.6c0,2.7,0.7,4.6-2.2,5.1c-2.9,0.5-8.9-7.5-13.4-5.4
	s-2.4,12.6-8.4,12.6c-6,0-6.3-0.3-6.3,1.5s24.6,3.9,26.1,0c3.8-9.9,9.9-12.6,9.3-15.6S307.4,323.5,307.3,318.1z"/>
<path fill="#666666" d="M334,348.9c0,0,18,8,18,12.4c0,4.4-1.6,6-3.6,6s-1.3-4-4.5-6.8C340.8,357.7,334,348.9,334,348.9z"/>
<path fill="#666666" d="M293.4,348.9c0,0-12.6-8.3-12-16.1c0.6-7.8,8.7-18.6,9.9-28.2c1.2-9.6,2.7-28.4-16.5-36.1
	c-19.2-7.7-12,5.5-12,5.5s18.3,3.6,17.4,22.8c-0.9,19.2-22.1,31.2-18.7,47.7c5.5-8.1,5.5-5.1,5.5-5.1S268.2,362.3,293.4,348.9z"/>
<path d="M368.8,285.7c0,0-6.4-18-20-21.6c-13.6-3.6-31.2-5.6-29.6,3.6c0.8,4.7,13.6,0.8,23,2.8C351.6,272.5,361.6,276.9,368.8,285.7
	z"/>
<path d="M226.4,288.5c0,0,7.6-21.2,15.6-22.4c8-1.2,32.5-5.7,32.8,2.4c0.4,10-28.8,2.6-32,6.1C239.6,278.1,233.2,287.7,226.4,288.5z
	"/>
<path fill="#FFFFFF" d="M237.9,297.1c27-24,39.3-1.5,39.3-1.5s-6.9,3.3-17.7,3.3C248.7,298.9,237.9,297.1,237.9,297.1z"/>
<path fill="#FFFFFF" d="M353.1,295c-24-21.6-37.5,2.1-37.5,2.1s12.6,2.4,20.4,1.8C343.8,298.3,353.1,295,353.1,295z"/>
<path fill="#333333" d="M343,288.1l-7.2-2.1l-7.7,0.8l-1.3,0.5c0,0-3.2,11.8,8.6,11.8c4.8,0,7.4-4.2,7.6-5.8
	C343.2,291.7,343,288.1,343,288.1z M339.8,293.2c-2.4-0.3-2-4.2,0-4C341.7,289.3,342.2,293.5,339.8,293.2z"/>
<path fill="#333333" d="M269,288l-8.5-1.9l-8.6,1.9c0,0-0.7,11.4,9,11.3C270.6,299.1,269,288,269,288z M265.2,293.8
	c-2.4,0-1.8-4.7,0-4.7C267,289.2,267.6,293.8,265.2,293.8z"/>
<path d="M277.1,295.7c-2.4-2.9-5.4-5.3-8.6-6.8c-3.3-1.5-6.9-2.2-10.6-1.7s-7.2,1.8-10.5,3.7c-3.3,1.8-6.4,4-9.4,6.5l-0.1-0.1
	c2.8-2.6,5.7-5.1,9-7.2c3.3-2,6.9-3.7,10.8-4.4c1.9-0.4,4-0.5,6-0.2c2,0.2,4,0.8,5.8,1.8c1.8,1,3.4,2.2,4.7,3.7
	c1.3,1.4,2.5,3.1,3.2,4.9L277.1,295.7z"/>
<path d="M315.5,297.1c0.7-1.7,1.8-3.3,3-4.8c1.2-1.5,2.6-2.8,4.2-3.9c1.6-1.1,3.3-2,5.2-2.5s3.8-0.8,5.7-0.7
	c3.9,0.1,7.5,1.3,10.8,3.1c3.3,1.8,6.2,4.2,8.8,6.7l-0.1,0.1c-2.8-2.3-5.8-4.5-9.1-6c-3.3-1.6-6.8-2.5-10.3-2.4
	c-3.5,0.1-6.8,1.5-9.8,3.3c-3,1.9-5.7,4.3-8.1,7.1H315.5L315.5,297.1z"/>
<path d="M277.2,337.3c-4.5,5.6,8.1,6,8.1,6S280.9,332.8,277.2,337.3z"/>
<path d="M302.4,343.3c0,0,2.3-9.1,6.6-6.7C319.1,342.1,302.4,343.3,302.4,343.3z"/>
<circle cx="334.4" cy="291.5" r="3.9"/>
<circle cx="260.4" cy="291.6" r="3.9"/>
<path fill="#666666" d="M291,375.7c0,0-29.8,0.4-36.2-4.6S286,375.7,291,375.7z"/>
<path fill="#999999" d="M306.4,375c0,0,32.1-2.3,31.1-5.8C336.7,366.6,310.3,374.6,306.4,375z"/>
<g>
	<defs>
		<path id="SVGID_5_" d="M260.4,371.3c0,0,5.4,14,31.8,14c26.4,0,36.8-14,36.8-14"/>
	</defs>
	<clipPath id="SVGID_12_">
		<use xlink:href="#SVGID_5_"  overflow="visible"/>
	</clipPath>
	<path clip-path="url(#SVGID_12_)" fill="#AAAAAA" d="M260.4,371.3c0,0,5.4,14,31.8,14c26.4,0,36.8-14,36.8-14"/>
</g>
<g>
	<defs>
		<path id="SVGID_4_" d="M260.4,371.3c0,0,5.4,14,31.8,14c26.4,0,36.8-14,36.8-14"/>
	</defs>
	<clipPath id="SVGID_13_">
		<use xlink:href="#SVGID_4_"  overflow="visible"/>
	</clipPath>
	<path clip-path="url(#SVGID_13_)" fill="#BBBBBB" d="M305.1,383.2c0,0-3-7.5,2.4-7.5c5.4,0,5.4,5.1,5.4,5.1
		S312.9,396.6,305.1,383.2z"/>
</g>
<g>
	<defs>
		<path id="SVGID_3_" d="M260.4,371.3c0,0,5.4,14,31.8,14c26.4,0,36.8-14,36.8-14"/>
	</defs>
	<clipPath id="SVGID_14_">
		<use xlink:href="#SVGID_3_"  overflow="visible"/>
	</clipPath>
	<path clip-path="url(#SVGID_14_)" fill="#999999" d="M285.3,389.2c0,0-9.2-4.2-9.1-15.1c0.1-11-24.4-8.9-24.4-8.9
		S264.6,412.9,285.3,389.2z"/>
</g>
<g>
	<defs>
		<path id="SVGID_2_" d="M260.4,371.3c0,0,20.2-4.8,24.9-4.8c4.7,0,6,0.9,7.2,0.9c1.2,0,26.3-3.1,36.5,3.9c0,0-20.8,4.4-34.3,4.4
			S260.4,371.3,260.4,371.3z"/>
	</defs>
	<clipPath id="SVGID_15_">
		<use xlink:href="#SVGID_2_"  overflow="visible"/>
	</clipPath>
	<path clip-path="url(#SVGID_15_)" fill="#888888" d="M260.4,371.3c0,0,20.2-4.8,24.9-4.8c4.7,0,6,0.9,7.2,0.9
		c1.2,0,26.3-3.1,36.5,3.9c0,0-20.8,4.4-34.3,4.4S260.4,371.3,260.4,371.3z"/>
</g>
<g>
	<defs>
		<path id="SVGID_1_" d="M260.4,371.3c0,0,20.2-4.8,24.9-4.8c4.7,0,6,0.9,7.2,0.9c1.2,0,26.3-3.1,36.5,3.9c0,0-20.8,4.4-34.3,4.4
			S260.4,371.3,260.4,371.3z"/>
	</defs>
	<clipPath id="SVGID_16_">
		<use xlink:href="#SVGID_1_"  overflow="visible"/>
	</clipPath>
	<path clip-path="url(#SVGID_16_)" fill="#777777" d="M293.4,375.7c0,0-18.7-12.6-32.3-6C247.5,376.3,293.4,375.7,293.4,375.7z"/>
</g>
<path fill="#666666" d="M246.9,369.1c-2.4,0.6-3.9-9.3,0-12.9c3.9-3.6,13.9-3,13.5,0s-7.6,3.8-8.6,5.2S249.3,368.5,246.9,369.1z"/>
</svg>
