<?xml version="1.0" encoding="utf-8"?>
<!-- Generator: Adobe Illustrator 15.0.0, SVG Export Plug-In  -->
<!DOCTYPE svg PUBLIC "-//W3C//DTD SVG 1.1//EN" "http://www.w3.org/Graphics/SVG/1.1/DTD/svg11.dtd" [
	<!ENTITY ns_flows "http://ns.adobe.com/Flows/1.0/">
]>
<svg version="1.1"
	 xmlns="http://www.w3.org/2000/svg" xmlns:xlink="http://www.w3.org/1999/xlink" xmlns:a="http://ns.adobe.com/AdobeSVGViewerExtensions/3.0/"
	 x="0px" y="0px" width="216px" height="360px" viewBox="0 3 216 360" overflow="visible" enable-background="new 0 3 216 360"
	 xml:space="preserve">
<defs>
</defs>
<filter  id="shadow" filterUnits="objectBoundingBox">
	<feGaussianBlur  stdDeviation="2" result="blur" in="SourceAlpha"></feGaussianBlur>
	<feOffset  dy="1" dx="0" result="offsetBlurredAlpha" in="blur"></feOffset>
	<feMerge>
		<feMergeNode  in="offsetBlurredAlpha"></feMergeNode>
		<feMergeNode  in="SourceGraphic"></feMergeNode>
	</feMerge>
</filter>
<linearGradient id="SVGID_1_" gradientUnits="userSpaceOnUse" x1="107.9995" y1="3" x2="107.9995" y2="363.0005">
	<stop  offset="0" style="stop-color:#5080B1"/>
	<stop  offset="0.1178" style="stop-color:#477DAE"/>
	<stop  offset="0.3137" style="stop-color:#2D73A7"/>
	<stop  offset="0.5621" style="stop-color:#04649C"/>
	<stop  offset="0.5843" style="stop-color:#00639B"/>
	<stop  offset="1" style="stop-color:#004E8C"/>
</linearGradient>
<rect y="3" fill="url(#SVGID_1_)" width="216" height="360"/>
<polygon fill-rule="evenodd" clip-rule="evenodd" fill="#CC3300" points="75,232.8 80,232.8 80,238.8 85,238.8 85,243.8 80,243.8 
	80,248.8 90,248.8 90,243.8 95,243.8 95,258.8 90,258.8 90,253.8 80,253.8 80,258.8 85,258.8 85,263.8 80,263.8 80,268.8 90,268.8 
	90,263.8 95,263.8 95,268.8 105,268.8 105,263.8 100,263.8 100,253.8 105,253.8 105,258.8 110,258.8 110,253.8 115,253.8 115,263.8 
	110,263.8 110,268.8 115,268.8 115,273.8 110,273.8 110,278.8 115,278.8 115,288.8 110,288.8 110,283.8 105,283.8 105,288.8 
	100,288.8 100,278.8 105,278.8 105,273.8 95,273.8 95,278.8 90,278.8 90,273.8 80,273.8 80,278.8 85,278.8 85,283.8 80,283.8 
	80,288.8 90,288.8 90,283.8 95,283.8 95,298.8 90,298.8 90,293.8 80,293.8 80,298.8 85,298.8 85,303.8 80,303.8 80,308.8 90,308.8 
	90,303.8 95,303.8 95,308.8 105,308.8 105,303.8 100,303.8 100,293.8 105,293.8 105,298.8 110,298.8 110,293.8 115,293.8 115,303.8 
	110,303.8 110,308.8 120,308.8 120,303.8 125,303.8 125,308.8 135,308.8 135,303.8 130,303.8 130,298.8 135,298.8 135,293.8 
	125,293.8 125,298.8 120,298.8 120,288.8 125,288.8 125,283.8 120,283.8 120,273.8 125,273.8 125,278.8 130,278.8 130,273.8 
	135,273.8 135,283.8 130,283.8 130,288.8 145,288.8 145,283.8 140,283.8 140,273.8 145,273.8 145,278.8 150,278.8 150,273.8 
	155,273.8 155,283.8 150,283.8 150,288.8 155,288.8 155,298.8 150,298.8 150,293.8 140,293.8 140,298.8 145,298.8 145,303.8 
	140,303.8 140,308.8 150,308.8 150,303.8 155,303.8 155,313.8 150,313.8 150,318.8 155,318.8 155,328.8 150,328.8 150,323.8 
	145,323.8 145,328.8 140,328.8 140,318.8 145,318.8 145,313.8 135,313.8 135,318.8 130,318.8 130,313.8 120,313.8 120,318.8 
	125,318.8 125,323.8 120,323.8 120,328.8 130,328.8 130,323.8 135,323.8 135,338.8 130,338.8 130,333.8 120,333.8 120,338.8 
	125,338.8 125,343.8 120,343.8 120,348.8 130,348.8 130,343.8 135,343.8 135,348.8 145,348.8 145,343.8 140,343.8 140,333.8 
	145,333.8 145,338.8 150,338.8 150,333.8 155,333.8 155,343.8 150,343.8 150,348.8 155,348.8 155,358.8 150,358.8 150,353.8 
	140,353.8 140,358.8 145,358.8 145,363.8 140,363.8 140,368.8 150,368.8 150,363.8 155,363.8 155,373.8 150,373.8 150,378.8 
	155,378.8 155,388.8 150,388.8 150,383.8 145,383.8 145,388.8 140,388.8 140,378.8 145,378.8 145,373.8 130,373.8 130,378.8 
	135,378.8 135,388.8 130,388.8 130,383.8 125,383.8 125,388.8 120,388.8 120,378.8 125,378.8 125,373.8 120,373.8 120,363.8 
	125,363.8 125,368.8 135,368.8 135,363.8 130,363.8 130,358.8 135,358.8 135,353.8 125,353.8 125,358.8 120,358.8 120,353.8 
	115,353.8 115,358.8 110,358.8 110,353.8 100,353.8 100,358.8 105,358.8 105,363.8 100,363.8 100,368.8 110,368.8 110,363.8 
	115,363.8 115,373.8 110,373.8 110,378.8 115,378.8 115,388.8 110,388.8 110,383.8 105,383.8 105,388.8 100,388.8 100,378.8 
	105,378.8 105,373.8 90,373.8 90,378.8 95,378.8 95,388.8 90,388.8 90,383.8 85,383.8 85,388.8 80,388.8 80,378.8 85,378.8 
	85,373.8 80,373.8 80,363.8 85,363.8 85,368.8 95,368.8 95,363.8 90,363.8 90,358.8 95,358.8 95,353.8 85,353.8 85,358.8 80,358.8 
	80,348.8 85,348.8 85,343.8 80,343.8 80,333.8 85,333.8 85,338.8 90,338.8 90,333.8 95,333.8 95,343.8 90,343.8 90,348.8 100,348.8 
	100,343.8 105,343.8 105,348.8 115,348.8 115,343.8 110,343.8 110,338.8 115,338.8 115,333.8 105,333.8 105,338.8 100,338.8 
	100,323.8 105,323.8 105,328.8 115,328.8 115,323.8 110,323.8 110,318.8 115,318.8 115,313.8 105,313.8 105,318.8 100,318.8 
	100,313.8 90,313.8 90,318.8 95,318.8 95,328.8 90,328.8 90,323.8 85,323.8 85,328.8 80,328.8 80,318.8 85,318.8 85,313.8 70,313.8 
	70,318.8 75,318.8 75,328.8 70,328.8 70,323.8 65,323.8 65,328.8 60,328.8 60,318.8 65,318.8 65,313.8 55,313.8 55,318.8 50,318.8 
	50,313.8 40,313.8 40,318.8 45,318.8 45,323.8 40,323.8 40,328.8 50,328.8 50,323.8 55,323.8 55,338.8 50,338.8 50,333.8 40,333.8 
	40,338.8 45,338.8 45,343.8 40,343.8 40,348.8 50,348.8 50,343.8 55,343.8 55,348.8 65,348.8 65,343.8 60,343.8 60,333.8 65,333.8 
	65,338.8 70,338.8 70,333.8 75,333.8 75,343.8 70,343.8 70,348.8 75,348.8 75,358.8 70,358.8 70,353.8 60,353.8 60,358.8 65,358.8 
	65,363.8 60,363.8 60,368.8 70,368.8 70,363.8 75,363.8 75,373.8 70,373.8 70,378.8 75,378.8 75,388.8 70,388.8 70,383.8 65,383.8 
	65,388.8 60,388.8 60,378.8 65,378.8 65,373.8 50,373.8 50,378.8 55,378.8 55,388.8 50,388.8 50,383.8 45,383.8 45,388.8 40,388.8 
	40,378.8 45,378.8 45,373.8 40,373.8 40,363.8 45,363.8 45,368.8 55,368.8 55,363.8 50,363.8 50,358.8 55,358.8 55,353.8 45,353.8 
	45,358.8 40,358.8 40,353.8 35,353.8 35,358.8 30,358.8 30,353.8 20,353.8 20,358.8 25,358.8 25,363.8 20,363.8 20,368.8 30,368.8 
	30,363.8 35,363.8 35,373.8 30,373.8 30,378.8 35,378.8 35,388.8 30,388.8 30,383.8 25,383.8 25,388.8 20,388.8 20,378.8 25,378.8 
	25,373.8 10,373.8 10,378.8 15,378.8 15,388.8 10,388.8 10,383.8 5,383.8 5,388.8 0,388.8 0,378.8 5,378.8 5,373.8 0,373.8 0,363.8 
	5,363.8 5,368.8 15,368.8 15,363.8 10,363.8 10,358.8 15,358.8 15,353.8 5,353.8 5,358.8 0,358.8 0,348.8 5,348.8 5,343.8 0,343.8 
	0,333.8 5,333.8 5,338.8 10,338.8 10,333.8 15,333.8 15,343.8 10,343.8 10,348.8 20,348.8 20,343.8 25,343.8 25,348.8 35,348.8 
	35,343.8 30,343.8 30,338.8 35,338.8 35,333.8 25,333.8 25,338.8 20,338.8 20,323.8 25,323.8 25,328.8 35,328.8 35,323.8 30,323.8 
	30,318.8 35,318.8 35,313.8 25,313.8 25,318.8 20,318.8 20,313.8 10,313.8 10,318.8 15,318.8 15,328.8 10,328.8 10,323.8 5,323.8 
	5,328.8 0,328.8 0,318.8 5,318.8 5,313.8 0,313.8 0,303.8 5,303.8 5,308.8 15,308.8 15,303.8 10,303.8 10,298.8 15,298.8 15,293.8 
	5,293.8 5,298.8 0,298.8 0,288.8 5,288.8 5,283.8 0,283.8 0,273.8 5,273.8 5,278.8 10,278.8 10,273.8 15,273.8 15,283.8 10,283.8 
	10,288.8 25,288.8 25,283.8 20,283.8 20,273.8 25,273.8 25,278.8 30,278.8 30,273.8 35,273.8 35,283.8 30,283.8 30,288.8 35,288.8 
	35,298.8 30,298.8 30,293.8 20,293.8 20,298.8 25,298.8 25,303.8 20,303.8 20,308.8 30,308.8 30,303.8 35,303.8 35,308.8 45,308.8 
	45,303.8 40,303.8 40,293.8 45,293.8 45,298.8 50,298.8 50,293.8 55,293.8 55,303.8 50,303.8 50,308.8 60,308.8 60,303.8 65,303.8 
	65,308.8 75,308.8 75,303.8 70,303.8 70,298.8 75,298.8 75,293.8 65,293.8 65,298.8 60,298.8 60,283.8 65,283.8 65,288.8 75,288.8 
	75,283.8 70,283.8 70,278.8 75,278.8 75,273.8 65,273.8 65,278.8 60,278.8 60,273.8 50,273.8 50,278.8 55,278.8 55,288.8 50,288.8 
	50,283.8 45,283.8 45,288.8 40,288.8 40,278.8 45,278.8 45,273.8 40,273.8 40,268.8 45,268.8 45,263.8 40,263.8 40,253.8 45,253.8 
	45,258.8 50,258.8 50,253.8 55,253.8 55,263.8 50,263.8 50,268.8 60,268.8 60,263.8 65,263.8 65,268.8 75,268.8 75,263.8 70,263.8 
	70,258.8 75,258.8 75,253.8 65,253.8 65,258.8 60,258.8 60,243.8 65,243.8 65,248.8 75,248.8 75,243.8 70,243.8 70,238.8 75,238.8 
	75,232.8 "/>
<g>
	<g>
		<polygon fill="#E2C675" points="90,111 54,111 72,75 		"/>
		<polygon fill="#E2C675" points="54,111 36,147 72,147 		"/>
		<polygon fill="#E2C675" points="90,111 72,147 108,147 		"/>
		<polygon fill="#E2C675" points="162,111 126,111 144,75 		"/>
		<polygon fill="#E2C675" points="126,111 108,147 144,147 		"/>
		<polygon fill="#E2C675" points="162,111 144,147 180,147 		"/>
		<polygon fill="#E2C675" points="126,39 90,39 108,3 		"/>
		<polygon fill="#E2C675" points="90,39 72,75 108,75 		"/>
		<polygon fill="#E2C675" points="126,39 108,75 144,75 		"/>
	</g>
</g>
<g>
	<g>
		<circle fill="#FF0000" cx="90" cy="39" r="3"/>
		<circle fill="#FF0000" cx="126" cy="39" r="3"/>
		<path fill="#FF0000" d="M108,6c-1.654,0-3-1.346-3-3s1.346-3,3-3c1.654,0,3,1.346,3,3S109.654,6,108,6z"/>
		<circle fill="#FF0000" cx="180" cy="147" r="3"/>
		<circle fill="#FF0000" cx="162" cy="111" r="3"/>
		<circle fill="#FF0000" cx="144" cy="75" r="3"/>
		<path fill="#FF0000" d="M108,78c-1.654,0-3-1.346-3-3s1.346-3,3-3c1.654,0,3,1.346,3,3S109.654,78,108,78z"/>
		<circle fill="#FF0000" cx="72" cy="75" r="3"/>
		<circle fill="#FF0000" cx="54" cy="111" r="3"/>
		<circle fill="#FF0000" cx="90" cy="111" r="3"/>
		<circle fill="#FF0000" cx="36" cy="147" r="3"/>
		<circle fill="#FF0000" cx="72" cy="147" r="3"/>
		<path fill="#FF0000" d="M108,150c-1.654,0-3-1.346-3-3s1.346-3,3-3c1.654,0,3,1.346,3,3S109.654,150,108,150z"/>
		<circle fill="#FF0000" cx="144" cy="147" r="3"/>
		<circle fill="#FF0000" cx="126" cy="111" r="3"/>
	</g>
</g>
<g opacity="0.7">
	<g>
		<path fill="#858E8D" d="M89.256,240.583c-0.591,1.114-1.108,1.967-1.669,2.896c-0.553,0.908-1.115,1.794-1.686,2.671
			c-1.144,1.75-2.326,3.457-3.551,5.131c-2.449,3.345-5.064,6.558-7.869,9.614c-5.608,6.088-12.001,11.642-19.427,15.676
			c-3.702,2.006-7.667,3.598-11.776,4.552c-4.104,0.963-8.344,1.26-12.444,0.851c-4.105-0.399-8.05-1.491-11.697-3.065
			C15.482,277.338,12.115,275.301,9,273c6.97,3.338,14.618,5.211,21.865,4.474c7.259-0.673,13.804-3.896,19.221-8.407
			c5.447-4.52,9.911-10.231,13.667-16.366c1.875-3.074,3.574-6.27,5.098-9.534c0.763-1.631,1.481-3.281,2.148-4.935
			c0.333-0.827,0.653-1.655,0.955-2.477c0.291-0.8,0.607-1.686,0.791-2.338L89.256,240.583z"/>
		<path fill="#858E8D" d="M107.463,240.063c-2.103,4.761-4.163,9.765-6.142,14.713c-1.982,4.969-3.901,9.971-5.747,14.999
			c-3.689,10.059-7.106,20.224-10.075,30.511c-2.948,10.287-5.506,20.703-7,31.276c-0.729,5.283-1.195,10.613-1.039,15.94
			c0.085,2.661,0.324,5.323,0.854,7.94c0.531,2.611,1.347,5.193,2.686,7.557c-1.653-2.155-2.857-4.665-3.77-7.257
			c-0.915-2.599-1.541-5.296-2.009-8.013c-0.921-5.443-1.205-10.971-1.212-16.475c0.022-11.02,1.15-21.982,2.689-32.85
			c1.56-10.871,3.588-21.659,5.909-32.384c1.162-5.363,2.401-10.709,3.713-16.044c1.323-5.354,2.675-10.617,4.217-16.042
			L107.463,240.063z"/>
		<path fill="#858E8D" d="M107.975,228.671c-0.753,5.329-1.37,10.917-1.905,16.418c-0.532,5.525-0.971,11.066-1.31,16.613
			c-0.67,11.095-0.96,22.219-0.599,33.309c0.396,11.073,1.343,22.173,3.936,32.891c1.326,5.335,3.073,10.599,5.802,15.356
			c1.369,2.367,3.002,4.598,5.009,6.483c1.998,1.885,4.4,3.398,7.093,4.259c-2.78-0.493-5.461-1.701-7.805-3.389
			c-2.354-1.684-4.392-3.802-6.163-6.097c-3.54-4.619-6.101-9.884-8.222-15.243c-4.185-10.777-6.676-22.062-8.604-33.354
			c-1.891-11.313-3.115-22.709-3.947-34.124c-0.413-5.71-0.722-11.426-0.934-17.152c-0.205-5.751-0.342-11.412-0.301-17.312
			L107.975,228.671z"/>
		<path fill="#858E8D" d="M116.933,238.097c-0.459,2.278-0.879,4.81-1.257,7.25c-0.378,2.466-0.718,4.943-1.018,7.424
			c-0.599,4.963-1.042,9.942-1.271,14.904c-0.224,4.959-0.239,9.909,0.116,14.758c0.363,4.832,1.078,9.622,2.575,13.868
			c1.503,4.241,3.842,7.779,7.402,9.021c0.446,0.162,0.914,0.293,1.401,0.386c0.242,0.051,0.49,0.087,0.742,0.119l0.356,0.044
			l0.483,0.031c1.16,0.079,2.362,0.101,3.521,0.045c2.326-0.109,4.6-0.527,6.599-1.435c1.995-0.9,3.687-2.335,4.762-4.28
			c1.086-1.935,1.532-4.321,1.391-6.726c-0.142-2.406-0.826-4.85-2.046-7.017c-0.614-1.079-1.368-2.095-2.307-2.924
			c-0.932-0.822-2.085-1.469-3.385-1.566c1.301-0.096,2.616,0.392,3.724,1.118c1.119,0.729,2.077,1.689,2.901,2.744
			c1.64,2.125,2.779,4.644,3.342,7.342c0.555,2.689,0.504,5.637-0.543,8.416c-1.021,2.786-3.123,5.217-5.63,6.812
			c-2.509,1.622-5.315,2.547-8.089,3.093c-1.398,0.275-2.773,0.453-4.19,0.564l-0.483,0.039l-0.609,0.023
			c-0.393,0.01-0.788,0.012-1.186-0.008c-0.796-0.029-1.603-0.122-2.404-0.277c-3.237-0.586-6.281-2.345-8.562-4.535
			c-2.309-2.197-4.01-4.742-5.388-7.315c-2.726-5.183-4.289-10.556-5.5-15.893c-1.188-5.349-1.948-10.701-2.487-16.046
			c-0.533-5.345-0.834-10.682-0.97-16.019c-0.067-2.669-0.091-5.337-0.073-8.012c0.023-2.699,0.068-5.303,0.215-8.145
			L116.933,238.097z"/>
		<path fill="#858E8D" d="M98.532,239.865c-1.192,2.928-2.384,5.636-3.622,8.404c-1.234,2.749-2.497,5.477-3.789,8.188
			c-2.583,5.422-5.276,10.78-8.088,16.077c-5.631,10.585-11.718,20.94-18.531,30.837c-6.833,9.86-14.355,19.375-23.352,27.453
			c-4.506,4.004-9.41,7.643-14.836,10.308C20.921,343.796,14.905,345.394,9,345c5.91-0.37,11.422-2.658,16.201-5.823
			c4.804-3.175,8.979-7.191,12.753-11.52c7.52-8.718,13.519-18.675,18.834-28.923c5.293-10.278,9.855-20.945,13.95-31.775
			c2.044-5.417,3.966-10.88,5.769-16.373c0.901-2.746,1.772-5.5,2.608-8.255c0.828-2.738,1.655-5.555,2.354-8.196L98.532,239.865z"
			/>
		<path fill="#858E8D" d="M126,227.944c-0.746,9.156,0.116,18.727,1.689,28.419c1.579,9.691,3.885,19.454,6.267,29.284
			c2.354,9.838,4.913,19.751,6.449,29.964c0.732,5.1,1.222,10.312,0.748,15.521c-0.249,2.595-0.763,5.192-1.751,7.609
			c-0.979,2.413-2.477,4.608-4.402,6.258c1.662-1.921,2.756-4.222,3.333-6.608c0.585-2.392,0.699-4.863,0.571-7.312
			c-0.283-4.908-1.469-9.742-2.893-14.496c-2.914-9.51-6.83-18.776-10.622-28.177c-3.814-9.397-7.63-18.911-10.819-28.861
			c-1.593-4.976-3.025-10.062-4.178-15.307c-1.146-5.219-2.014-10.704-2.393-16.184L126,227.944z"/>
		<path fill="#858E8D" d="M143.999,236.861l-0.028,0.425l-0.015,0.211l-0.011,0.077l-0.028,0.155l-0.015,0.253
			c-0.021,0.34-0.026,0.691-0.017,1.053c0.021,0.724,0.092,1.485,0.23,2.272c0.266,1.575,0.771,3.242,1.453,4.912
			c1.381,3.347,3.48,6.684,6.022,9.741c5.104,6.122,11.919,11.255,19.582,14.286c3.833,1.509,7.895,2.478,12.035,2.701
			c4.137,0.229,8.353-0.309,12.384-1.688c4.036-1.365,7.861-3.573,11.288-6.38c3.433-2.806,6.466-6.192,9.119-9.88
			c-2.012,4.072-4.477,7.986-7.553,11.494c-3.068,3.503-6.769,6.593-11.034,8.882c-4.252,2.301-9.041,3.771-13.957,4.317
			c-4.921,0.557-9.944,0.223-14.804-0.807c-9.735-2.097-18.834-6.743-26.59-13.363c-3.87-3.336-7.423-7.205-10.358-11.833
			c-1.457-2.321-2.761-4.835-3.773-7.608c-0.51-1.384-0.938-2.836-1.272-4.351c-0.166-0.757-0.308-1.53-0.417-2.32l-0.08-0.594
			l-0.066-0.693l-0.094-0.985L143.999,236.861z"/>
		<path fill="#858E8D" d="M121.12,228.998c0.69,0.389,0.988,0.606,1.39,0.879c0.371,0.258,0.713,0.51,1.041,0.762
			c0.656,0.502,1.259,1.004,1.84,1.512c1.157,1.015,2.215,2.05,3.216,3.107c1.996,2.114,3.758,4.312,5.367,6.566
			c3.21,4.511,5.802,9.235,7.981,14.048c4.346,9.638,7.066,19.602,8.887,29.562c1.805,9.97,2.68,19.965,2.959,29.905
			c0.276,9.942-0.056,19.835-0.801,29.66c-0.755-9.824-1.925-19.59-3.675-29.196c-1.75-9.602-4.075-19.052-7.195-28.11
			c-3.122-9.042-7.05-17.728-12.048-25.396c-2.494-3.825-5.263-7.39-8.283-10.48c-1.508-1.543-3.081-2.967-4.683-4.199
			c-0.799-0.614-1.605-1.183-2.391-1.672c-0.392-0.242-0.779-0.468-1.139-0.655c-0.18-0.094-0.353-0.178-0.503-0.244
			c-0.121-0.051-0.35-0.149-0.204-0.044L121.12,228.998z"/>
	</g>
</g>
<g opacity="0.7">
	<polyline fill="#858E8D" points="99,129 99,156 90,165 108,174 126,165 117,156 117,129 "/>
	<g filter="url(#shadow)">
		<polygon fill="#858E8D" points="101,130 108,146.999 115,130 	"/>
	</g>
	<polygon fill="#858E8D" points="72,75 108,147 144,75 "/>
</g>
<line fill="none" stroke="#FFFFFF" stroke-width="4" stroke-miterlimit="10" x1="99" y1="111" x2="99" y2="93"/>
<line fill="none" stroke="#FFFFFF" stroke-width="4" stroke-miterlimit="10" x1="117" y1="111" x2="117" y2="93"/>
<g>
	<polygon fill="#93278F" points="126,165 153,174 144,192 144,237 71,237 71,192 62,174 90,165 108,174 	"/>
	<polygon fill="#93278F" points="126,165 153,174 144,192 144,237 71,237 71,192 62,174 90,165 108,174 	"/>
	<polygon fill="none" stroke="#662D91" stroke-width="4" stroke-miterlimit="10" points="126,165 153,174 144,192 144,237 71,237 
		71,192 62,174 90,165 108,174 	"/>
</g>
<g>
	<g>
		<line fill="none" stroke="#E2C675" stroke-width="2" stroke-miterlimit="10" x1="99" y1="212.411" x2="81" y2="243.589"/>
		<line fill="none" stroke="#E2C675" stroke-width="2" stroke-miterlimit="10" x1="94.659" y1="210.613" x2="85.341" y2="245.387"/>
		<line fill="none" stroke="#E2C675" stroke-width="2" stroke-miterlimit="10" x1="90" y1="210" x2="90" y2="246"/>
	</g>
</g>
<g opacity="0.7">
	<g>
		<polyline fill="none" stroke="#858E8D" stroke-width="8" stroke-miterlimit="10" points="144,183 162,219 126,210 		"/>
		<g>
			<circle fill="#858E8D" cx="126" cy="210" r="9.023"/>
		</g>
	</g>
</g>
<g opacity="0.7">
	<g>
		<polyline fill="none" stroke="#858E8D" stroke-width="8" stroke-miterlimit="10" points="72,183 54,219 90,228 		"/>
		<g>
			<circle fill="#858E8D" cx="90" cy="228" r="9.023"/>
		</g>
	</g>
</g>
<polyline fill="#93278F" stroke="#662D91" stroke-width="4" stroke-miterlimit="10" points="71,201 71,192 62,174 90,165 108,174 
	126,165 153,174 144,192 144,201 "/>
</svg>
