<?xml version="1.0" encoding="utf-8"?>
<!-- Generator: Adobe Illustrator 15.0.0, SVG Export Plug-In  -->
<!DOCTYPE svg PUBLIC "-//W3C//DTD SVG 1.1//EN" "http://www.w3.org/Graphics/SVG/1.1/DTD/svg11.dtd" [
	<!ENTITY ns_flows "http://ns.adobe.com/Flows/1.0/">
]>
<svg version="1.1"
	 xmlns="http://www.w3.org/2000/svg" xmlns:xlink="http://www.w3.org/1999/xlink" xmlns:a="http://ns.adobe.com/AdobeSVGViewerExtensions/3.0/"
	 x="0px" y="0px" width="216px" height="360px" viewBox="0 3 216 360" overflow="visible" enable-background="new 0 3 216 360"
	 xml:space="preserve">
<defs>
</defs>
<filter  id="shadow" filterUnits="objectBoundingBox">
	<feGaussianBlur  stdDeviation="2" result="blur" in="SourceAlpha"></feGaussianBlur>
	<feOffset  dy="1" dx="0" result="offsetBlurredAlpha" in="blur"></feOffset>
	<feMerge>
		<feMergeNode  in="offsetBlurredAlpha"></feMergeNode>
		<feMergeNode  in="SourceGraphic"></feMergeNode>
	</feMerge>
</filter>
<linearGradient id="SVGID_1_" gradientUnits="userSpaceOnUse" x1="107.9995" y1="3" x2="107.9995" y2="363.0005">
	<stop  offset="0" style="stop-color:#5080B1"/>
	<stop  offset="0.1178" style="stop-color:#477DAE"/>
	<stop  offset="0.3137" style="stop-color:#2D73A7"/>
	<stop  offset="0.5621" style="stop-color:#04649C"/>
	<stop  offset="0.5843" style="stop-color:#00639B"/>
	<stop  offset="1" style="stop-color:#004E8C"/>
</linearGradient>
<rect y="3" fill="url(#SVGID_1_)" width="216" height="360"/>
<g>
	<g>
		<polygon fill="#E2C675" points="90,111 54,111 72,75 		"/>
		<polygon fill="#E2C675" points="54,111 36,147 72,147 		"/>
		<polygon fill="#E2C675" points="90,111 72,147 108,147 		"/>
		<polygon fill="#E2C675" points="162,111 126,111 144,75 		"/>
		<polygon fill="#E2C675" points="126,111 108,147 144,147 		"/>
		<polygon fill="#E2C675" points="162,111 144,147 180,147 		"/>
		<polygon fill="#E2C675" points="126,39 90,39 108,3 		"/>
		<polygon fill="#E2C675" points="90,39 72,75 108,75 		"/>
		<polygon fill="#E2C675" points="126,39 108,75 144,75 		"/>
	</g>
</g>
<g>
	<g>
		<circle fill="#FF0000" cx="90" cy="39" r="3"/>
		<circle fill="#FF0000" cx="126" cy="39" r="3"/>
		<path fill="#FF0000" d="M108,6c-1.654,0-3-1.346-3-3s1.346-3,3-3c1.654,0,3,1.346,3,3S109.654,6,108,6z"/>
		<circle fill="#FF0000" cx="180" cy="147" r="3"/>
		<circle fill="#FF0000" cx="162" cy="111" r="3"/>
		<circle fill="#FF0000" cx="144" cy="75" r="3"/>
		<path fill="#FF0000" d="M108,78c-1.654,0-3-1.346-3-3s1.346-3,3-3c1.654,0,3,1.346,3,3S109.654,78,108,78z"/>
		<circle fill="#FF0000" cx="72" cy="75" r="3"/>
		<circle fill="#FF0000" cx="54" cy="111" r="3"/>
		<circle fill="#FF0000" cx="90" cy="111" r="3"/>
		<circle fill="#FF0000" cx="36" cy="147" r="3"/>
		<circle fill="#FF0000" cx="72" cy="147" r="3"/>
		<path fill="#FF0000" d="M108,150c-1.654,0-3-1.346-3-3s1.346-3,3-3c1.654,0,3,1.346,3,3S109.654,150,108,150z"/>
		<circle fill="#FF0000" cx="144" cy="147" r="3"/>
		<circle fill="#FF0000" cx="126" cy="111" r="3"/>
	</g>
</g>
<g opacity="0.7">
	<g>
		<path fill="#858E8D" d="M89.256,240.583c-0.591,1.114-1.108,1.967-1.669,2.896c-0.553,0.908-1.115,1.794-1.686,2.671
			c-1.144,1.75-2.326,3.457-3.551,5.131c-2.449,3.345-5.064,6.558-7.869,9.614c-5.608,6.088-12.001,11.642-19.427,15.676
			c-3.702,2.006-7.667,3.598-11.776,4.552c-4.104,0.963-8.344,1.26-12.444,0.851c-4.105-0.399-8.05-1.491-11.697-3.065
			C15.482,277.338,12.115,275.301,9,273c6.97,3.338,14.618,5.211,21.865,4.474c7.259-0.673,13.804-3.896,19.221-8.407
			c5.447-4.52,9.911-10.231,13.667-16.366c1.875-3.074,3.574-6.27,5.098-9.534c0.763-1.631,1.481-3.281,2.148-4.935
			c0.333-0.827,0.653-1.655,0.955-2.477c0.291-0.8,0.607-1.686,0.791-2.338L89.256,240.583z"/>
		<path fill="#858E8D" d="M107.463,240.063c-2.103,4.761-4.163,9.765-6.142,14.713c-1.982,4.969-3.901,9.971-5.747,14.999
			c-3.689,10.059-7.106,20.224-10.075,30.511c-2.948,10.287-5.506,20.703-7,31.276c-0.729,5.283-1.195,10.613-1.039,15.94
			c0.085,2.661,0.324,5.323,0.854,7.94c0.531,2.611,1.347,5.193,2.686,7.557c-1.653-2.155-2.857-4.665-3.77-7.257
			c-0.915-2.599-1.541-5.296-2.009-8.013c-0.921-5.443-1.205-10.971-1.212-16.475c0.022-11.02,1.15-21.982,2.689-32.85
			c1.56-10.871,3.588-21.659,5.909-32.384c1.162-5.363,2.401-10.709,3.713-16.044c1.323-5.354,2.675-10.617,4.217-16.042
			L107.463,240.063z"/>
		<path fill="#858E8D" d="M107.975,228.671c-0.753,5.329-1.37,10.917-1.905,16.418c-0.532,5.525-0.971,11.066-1.31,16.613
			c-0.67,11.095-0.96,22.219-0.599,33.309c0.396,11.073,1.343,22.173,3.936,32.891c1.326,5.335,3.073,10.599,5.802,15.356
			c1.369,2.367,3.002,4.598,5.009,6.483c1.998,1.885,4.4,3.398,7.093,4.259c-2.78-0.493-5.461-1.701-7.805-3.389
			c-2.354-1.684-4.392-3.802-6.163-6.097c-3.54-4.619-6.101-9.884-8.222-15.243c-4.185-10.777-6.676-22.062-8.604-33.354
			c-1.891-11.313-3.115-22.709-3.947-34.124c-0.413-5.71-0.722-11.426-0.934-17.152c-0.205-5.751-0.342-11.412-0.301-17.312
			L107.975,228.671z"/>
		<path fill="#858E8D" d="M116.933,238.097c-0.459,2.278-0.879,4.81-1.257,7.25c-0.378,2.466-0.718,4.943-1.018,7.424
			c-0.599,4.963-1.042,9.942-1.271,14.904c-0.224,4.959-0.239,9.909,0.116,14.758c0.363,4.832,1.078,9.622,2.575,13.868
			c1.503,4.241,3.842,7.779,7.402,9.021c0.446,0.162,0.914,0.293,1.401,0.386c0.242,0.051,0.49,0.087,0.742,0.119l0.356,0.044
			l0.483,0.031c1.16,0.079,2.362,0.101,3.521,0.045c2.326-0.109,4.6-0.527,6.599-1.435c1.995-0.9,3.687-2.335,4.762-4.28
			c1.086-1.935,1.532-4.321,1.391-6.726c-0.142-2.406-0.826-4.85-2.046-7.017c-0.614-1.079-1.368-2.095-2.307-2.924
			c-0.932-0.822-2.085-1.469-3.385-1.566c1.301-0.096,2.616,0.392,3.724,1.118c1.119,0.729,2.077,1.689,2.901,2.744
			c1.64,2.125,2.779,4.644,3.342,7.342c0.555,2.689,0.504,5.637-0.543,8.416c-1.021,2.786-3.123,5.217-5.63,6.812
			c-2.509,1.622-5.315,2.547-8.089,3.093c-1.398,0.275-2.773,0.453-4.19,0.564l-0.483,0.039l-0.609,0.023
			c-0.393,0.01-0.788,0.012-1.186-0.008c-0.796-0.029-1.603-0.122-2.404-0.277c-3.237-0.586-6.281-2.345-8.562-4.535
			c-2.309-2.197-4.01-4.742-5.388-7.315c-2.726-5.183-4.289-10.556-5.5-15.893c-1.188-5.349-1.948-10.701-2.487-16.046
			c-0.533-5.345-0.834-10.682-0.97-16.019c-0.067-2.669-0.091-5.337-0.073-8.012c0.023-2.699,0.068-5.303,0.215-8.145
			L116.933,238.097z"/>
		<path fill="#858E8D" d="M98.532,239.865c-1.192,2.928-2.384,5.636-3.622,8.404c-1.234,2.749-2.497,5.477-3.789,8.188
			c-2.583,5.422-5.276,10.78-8.088,16.077c-5.631,10.585-11.718,20.94-18.531,30.837c-6.833,9.86-14.355,19.375-23.352,27.453
			c-4.506,4.004-9.41,7.643-14.836,10.308C20.921,343.796,14.905,345.394,9,345c5.91-0.37,11.422-2.658,16.201-5.823
			c4.804-3.175,8.979-7.191,12.753-11.52c7.52-8.718,13.519-18.675,18.834-28.923c5.293-10.278,9.855-20.945,13.95-31.775
			c2.044-5.417,3.966-10.88,5.769-16.373c0.901-2.746,1.772-5.5,2.608-8.255c0.828-2.738,1.655-5.555,2.354-8.196L98.532,239.865z"
			/>
		<path fill="#858E8D" d="M126,227.944c-0.746,9.156,0.116,18.727,1.689,28.419c1.579,9.691,3.885,19.454,6.267,29.284
			c2.354,9.838,4.913,19.751,6.449,29.964c0.732,5.1,1.222,10.312,0.748,15.521c-0.249,2.595-0.763,5.192-1.751,7.609
			c-0.979,2.413-2.477,4.608-4.402,6.258c1.662-1.921,2.756-4.222,3.333-6.608c0.585-2.392,0.699-4.863,0.571-7.312
			c-0.283-4.908-1.469-9.742-2.893-14.496c-2.914-9.51-6.83-18.776-10.622-28.177c-3.814-9.397-7.63-18.911-10.819-28.861
			c-1.593-4.976-3.025-10.062-4.178-15.307c-1.146-5.219-2.014-10.704-2.393-16.184L126,227.944z"/>
		<path fill="#858E8D" d="M143.999,236.861l-0.028,0.425l-0.015,0.211l-0.011,0.077l-0.028,0.155l-0.015,0.253
			c-0.021,0.34-0.026,0.691-0.017,1.053c0.021,0.724,0.092,1.485,0.23,2.272c0.266,1.575,0.771,3.242,1.453,4.912
			c1.381,3.347,3.48,6.684,6.022,9.741c5.104,6.122,11.919,11.255,19.582,14.286c3.833,1.509,7.895,2.478,12.035,2.701
			c4.137,0.229,8.353-0.309,12.384-1.688c4.036-1.365,7.861-3.573,11.288-6.38c3.433-2.806,6.466-6.192,9.119-9.88
			c-2.012,4.072-4.477,7.986-7.553,11.494c-3.068,3.503-6.769,6.593-11.034,8.882c-4.252,2.301-9.041,3.771-13.957,4.317
			c-4.921,0.557-9.944,0.223-14.804-0.807c-9.735-2.097-18.834-6.743-26.59-13.363c-3.87-3.336-7.423-7.205-10.358-11.833
			c-1.457-2.321-2.761-4.835-3.773-7.608c-0.51-1.384-0.938-2.836-1.272-4.351c-0.166-0.757-0.308-1.53-0.417-2.32l-0.08-0.594
			l-0.066-0.693l-0.094-0.985L143.999,236.861z"/>
		<path fill="#858E8D" d="M121.12,228.998c0.69,0.389,0.988,0.606,1.39,0.879c0.371,0.258,0.713,0.51,1.041,0.762
			c0.656,0.502,1.259,1.004,1.84,1.512c1.157,1.015,2.215,2.05,3.216,3.107c1.996,2.114,3.758,4.312,5.367,6.566
			c3.21,4.511,5.802,9.235,7.981,14.048c4.346,9.638,7.066,19.602,8.887,29.562c1.805,9.97,2.68,19.965,2.959,29.905
			c0.276,9.942-0.056,19.835-0.801,29.66c-0.755-9.824-1.925-19.59-3.675-29.196c-1.75-9.602-4.075-19.052-7.195-28.11
			c-3.122-9.042-7.05-17.728-12.048-25.396c-2.494-3.825-5.263-7.39-8.283-10.48c-1.508-1.543-3.081-2.967-4.683-4.199
			c-0.799-0.614-1.605-1.183-2.391-1.672c-0.392-0.242-0.779-0.468-1.139-0.655c-0.18-0.094-0.353-0.178-0.503-0.244
			c-0.121-0.051-0.35-0.149-0.204-0.044L121.12,228.998z"/>
	</g>
</g>
<g opacity="0.7">
	<polyline fill="#858E8D" points="99,129 99,156 90,165 108,174 126,165 117,156 117,129 "/>
	<g filter="url(#shadow)">
		<polygon fill="#858E8D" points="101,130 108,146.999 115,130 	"/>
	</g>
	<polygon fill="#858E8D" points="72,75 108,147 144,75 "/>
</g>
<line fill="none" stroke="#FFFFFF" stroke-width="4" stroke-miterlimit="10" x1="99" y1="111" x2="99" y2="93"/>
<line fill="none" stroke="#FFFFFF" stroke-width="4" stroke-miterlimit="10" x1="117" y1="111" x2="117" y2="93"/>
<g>
	<polygon fill="#93278F" points="126,165 153,174 144,192 144,237 71,237 71,192 62,174 90,165 108,174 	"/>
	<polygon fill="#93278F" points="126,165 153,174 144,192 144,237 71,237 71,192 62,174 90,165 108,174 	"/>
	<polygon fill="none" stroke="#662D91" stroke-width="4" stroke-miterlimit="10" points="126,165 153,174 144,192 144,237 71,237 
		71,192 62,174 90,165 108,174 	"/>
</g>
<g>
	<g>
		<line fill="none" stroke="#E2C675" stroke-width="2" stroke-miterlimit="10" x1="99" y1="212.411" x2="81" y2="243.589"/>
		<line fill="none" stroke="#E2C675" stroke-width="2" stroke-miterlimit="10" x1="94.659" y1="210.613" x2="85.341" y2="245.387"/>
		<line fill="none" stroke="#E2C675" stroke-width="2" stroke-miterlimit="10" x1="90" y1="210" x2="90" y2="246"/>
	</g>
</g>
<g opacity="0.7">
	<g>
		<polyline fill="none" stroke="#858E8D" stroke-width="8" stroke-miterlimit="10" points="144,183 162,219 126,210 		"/>
		<g>
			<circle fill="#858E8D" cx="126" cy="210" r="9.023"/>
		</g>
	</g>
</g>
<g opacity="0.7">
	<g>
		<polyline fill="none" stroke="#858E8D" stroke-width="8" stroke-miterlimit="10" points="72,183 54,219 90,228 		"/>
		<g>
			<circle fill="#858E8D" cx="90" cy="228" r="9.023"/>
		</g>
	</g>
</g>
<polyline fill="#93278F" stroke="#662D91" stroke-width="4" stroke-miterlimit="10" points="71,201 71,192 62,174 90,165 108,174 
	126,165 153,174 144,192 144,201 "/>
</svg>
